<svg width="300" height="251" xmlns="http://www.w3.org/2000/svg" version="1.0" preserveAspectRatio="xMidYMid meet">
 <metadata>Created by potrace 1.10, written by Peter Selinger 2001-2011</metadata>

 <g>
  <title>Layer 1</title>
  <path d="m195.2,10c0.1,5.5 0.6,10 1.1,10c0.5,0 0.7,-1.7 0.3,-3.8c-0.7,-5 0,-5.6 3.8,-3.3c1.7,1.1 9.9,5.6 18.1,10.1c23.3,12.8 56.4,34.8 76.3,50.8c2.3,1.9 4.5,3.2 4.8,2.9c0.6,-0.6 -1.6,-2.4 -18.3,-14.6c-24.2,-17.9 -43.1,-30.1 -61.1,-39.7c-7,-3.7 -18.6,-10.2 -21.5,-11.9c-1.1,-0.7 -1.8,-2.6 -1.9,-5.3c-0.1,-2.4 -0.5,-4.5 -1,-4.8c-0.4,-0.3 -0.7,4 -0.6,9.6z" id="svg_2"/>
  <path d="m207,4.4c0,2.4 -0.2,5 -0.5,5.8c-0.3,0.7 0.5,1.8 1.7,2.4c1.3,0.6 6.6,3.5 11.8,6.4c5.2,2.9 12.9,7.1 17,9.3c11.4,5.9 18.3,9.8 20.4,11.6c1.4,1.2 2,1.3 2.3,0.4c0.3,-0.7 3.1,-2.5 6.4,-3.9c7.7,-3.5 7,-4.3 -1,-1l-6.1,2.5l0,-5.4c0,-5.1 0.2,-5.6 3.2,-7.1c1.7,-0.9 5.5,-2.4 8.3,-3.4l5.2,-1.8l7.6,5.2c4.2,2.8 7.6,5.3 7.7,5.6c0,0.3 -3.7,1.6 -8.3,2.9c-4.5,1.3 -8.8,2.5 -9.5,2.7c-0.7,0.2 -1.1,1.2 -0.8,2.1c0.2,1 0.7,3.6 1.1,5.9c0.8,5.2 6.5,10.7 23.4,22.4c6.9,4.8 2.3,0 -5.9,-6.1c-4.7,-3.5 -9.1,-6.9 -9.7,-7.5c-0.7,-0.7 -2.3,-2.1 -3.6,-3.1c-1.7,-1.3 -2.6,-3.3 -3.1,-7.1c-0.4,-2.8 -0.3,-5.2 0.1,-5.2c1,0 17.8,12.6 21.8,16.3c1.6,1.4 3.1,2.4 3.5,2.1c0.3,-0.3 -0.3,-1.2 -1.4,-1.9c-1,-0.8 -3.5,-3 -5.7,-4.9c-2.1,-2 -4.1,-3.6 -4.5,-3.6c-0.3,0 -2.1,-1.2 -3.9,-2.8c-1.9,-1.5 -4.4,-3.4 -5.6,-4.3c-2.2,-1.6 -2.1,-1.6 6,-4.2l8.4,-2.6l3.3,2.6c1.9,1.4 3.4,2 3.4,1.4c0,-0.6 -1.2,-1.7 -2.6,-2.3c-2.4,-1.1 -2.5,-1.3 -0.7,-2.6c1.6,-1.3 1.5,-1.3 -1.3,-0.8c-2.3,0.5 -3.5,0.2 -4.9,-1.4c-1,-1.2 -4.6,-3.7 -7.8,-5.7l-6,-3.6l4.4,-1.8c2.4,-1 3.7,-1.8 2.8,-1.8c-0.9,-0.1 -3.2,0.6 -5.1,1.4c-2.9,1.1 -3.8,1.2 -5.4,0.1c-5.3,-3.5 -9.7,-5.9 -9,-4.8c0.4,0.6 2.8,2.4 5.3,3.9l4.6,2.7l-4.9,1.7c-2.8,0.9 -6.4,2.4 -8.1,3.2c-1.7,0.9 -3.3,1.3 -3.7,1c-0.3,-0.4 -0.6,0 -0.6,0.7c0,1 -0.4,1 -1.7,-0.2c-1,-0.8 -5.1,-3.5 -9.2,-5.9c-13.3,-7.7 -23.1,-14.6 -22.3,-15.4c0.4,-0.4 0.2,-0.6 -0.4,-0.2c-0.5,0.3 -2.9,-0.5 -5.3,-1.9c-2.4,-1.3 -5,-2.4 -6,-2.4c-0.9,0.1 -0.2,0.7 1.6,1.5c1.8,0.7 8.3,4.7 14.5,8.8c6.2,4 15,9.5 19.6,12.2c4.6,2.7 8.7,5.6 9.3,6.6c1.1,2.1 1.2,8.9 0.1,8.9c-0.4,0 -2.4,-1.1 -4.4,-2.5c-2,-1.4 -4.2,-2.5 -4.7,-2.5c-0.6,0 -1.1,-0.4 -1.1,-0.8c0,-0.9 -8.5,-5.2 -10.3,-5.2c-0.7,0 -3,-1.2 -5.2,-2.7c-2.2,-1.5 -7.1,-4.4 -11,-6.4c-3.8,-2 -6.9,-4.2 -6.7,-4.8c0.1,-0.7 -0.2,-1 -0.8,-0.6c-0.5,0.3 -1.9,0.1 -3.1,-0.6c-1.9,-1 -2.1,-1.7 -1.5,-6.5c0.4,-3.4 0.2,-5.4 -0.4,-5.4c-0.5,0 -1,2 -1,4.4z" id="svg_3"/>
  <path d="m248.6,2.8c6.6,4.7 9.4,6.3 9.4,5.4c0,-0.5 -1,-1.4 -2.2,-2.1c-1.3,-0.6 -3.8,-2.3 -5.7,-3.6c-1.9,-1.4 -3.8,-2.5 -4.4,-2.5c-0.5,0 0.8,1.2 2.9,2.8z" id="svg_4"/>
  <path d="m97.5,19c-7.2,2.9 -8.8,2.8 -12.3,-0.7c-0.7,-0.7 -2,-1.3 -2.9,-1.3c-1.3,0 -1.5,1 -1,6.7c0.3,3.8 0.3,6.1 -0.1,5.2c-0.6,-1.4 -2.7,-0.7 -14.7,5c-10.9,5.3 -13.4,6.9 -11.7,7.3c1.2,0.4 2,0.2 1.6,-0.3c-0.3,-0.5 0.7,-1.4 2.3,-1.9c1.5,-0.6 5.3,-2.4 8.3,-3.9c3,-1.6 7.2,-3.6 9.3,-4.5l3.7,-1.5l0,11.3l0,11.3l-2.7,1.4c-1.6,0.7 -4.1,2.3 -5.8,3.5c-1.6,1.1 -5,3.1 -7.5,4.4c-13,6.7 -16,8.4 -16,9.1c0,1.7 15.5,17 23.2,23c4.5,3.5 9.2,7.4 10.5,8.6l2.2,2.1l9.5,-6.3c8.8,-6 9.7,-6.3 12.8,-5.5c7.9,2.3 9.7,1.3 19.1,-10.9c5.1,-6.6 13.1,-12.5 16,-11.7c0.9,0.2 1.5,0 1.2,-0.4c-0.8,-1.2 3.2,-1.6 9.5,-0.9c6.4,0.7 15,5.5 16.8,9.3c1.3,3 -0.5,5.7 -6.7,10c-2.2,1.6 -4.7,3.9 -5.6,5.3c-1.6,2.4 -1.5,2.5 2,5.9c2.6,2.4 3.4,3.8 2.8,4.7c-0.5,0.6 -1.5,3.1 -2.2,5.5c-1.6,5.5 -0.1,10.2 4,13.5l3,2.3l-10.8,7.2c-14.4,9.6 -15.6,10.6 -15.8,14.7c-0.2,1.9 0.1,3.3 0.5,3c0.8,-0.5 4.1,2.9 5.6,5.6c0.5,0.9 5.1,5.3 10.2,9.8l9.2,8.2l3.3,-1.7c1.7,-0.9 6.4,-4 10.2,-6.9c3.9,-2.8 9.2,-6.4 12,-8.1c2.7,-1.6 8.1,-5.5 12,-8.8c3.8,-3.2 8,-6.5 9.3,-7.3c1.2,-0.9 2.2,-2.4 2.2,-3.4c0,-2.3 -1.3,-2.4 -3,-0.4c-0.7,0.8 -7.8,6.1 -15.7,11.8c-7.9,5.6 -17.5,12.3 -21.1,14.9c-3.7,2.7 -7.4,4.8 -8.2,4.8c-2,0 -25.8,-24.1 -24.4,-24.7c0.6,-0.2 6.7,-4.5 13.5,-9.5c6.8,-5 14.7,-10.6 17.4,-12.4c2.8,-1.7 6.3,-4.4 7.9,-5.9c2.5,-2.3 3,-2.5 3.8,-1.1c0.5,0.9 1.5,1.6 2.2,1.6c0.7,0 2.1,0.9 3.1,2c1,1.1 2.1,2 2.4,2c0.7,0 0.6,-8.1 -0.3,-13c-0.6,-3.8 -1.9,-22.2 -1.8,-25.5c0.1,-1.1 0.7,-2.4 1.4,-3c0.7,-0.5 1.9,-1.8 2.7,-2.8c2.4,-3.1 -0.6,-1.8 -4.6,2c-9.9,9.5 -18.4,16.3 -19.5,15.7c-0.7,-0.4 -0.8,-0.3 -0.4,0.4c0.6,0.9 -5.7,6.2 -7.4,6.2c-1.3,0 -5,-4.2 -5,-5.6c0,-1.4 0.5,-1.3 3.5,0.5c1.9,1.1 3.5,1.7 3.5,1.3c0,-1.5 -2.4,-3.2 -4.4,-3.2c-2.4,0 -1.6,-0.8 9.9,-9.7c3.3,-2.6 6.2,-5 6.5,-5.3c0.3,-0.3 2.1,-1.7 4,-3c1.9,-1.4 4.4,-3.2 5.4,-4.2c4.2,-3.9 11.5,-0.7 11.7,5.1c0.1,1.4 0.3,3.7 0.4,5.1c0.2,1.4 0.6,8.6 0.9,16c0.3,7.4 0.7,14.5 1,15.7c0.3,1.2 0.6,5.1 0.8,8.7c0.1,3.5 0.5,6.4 0.8,6.3c0.8,-0.2 8.7,5.1 9.5,6.3c0.3,0.6 1.1,0.8 1.6,0.5c1.4,-0.9 1.1,-2.5 -0.6,-2.5c-0.8,0 -2.4,-0.5 -3.4,-1.2c-1.9,-1.2 -1.9,-1.3 0.2,-3.9c1.2,-1.5 3,-3.9 4,-5.3c1.4,-2 2.6,-2.6 5.7,-2.6c3.3,0 4.8,-0.8 9.1,-4.6c4.5,-4 5.6,-4.5 8.3,-4c2.8,0.6 3.5,0.2 7.4,-4.1c2.3,-2.6 4.1,-4.2 4,-3.4c-0.2,0.8 5.3,5.6 12.4,11c7,5.3 12.7,10.2 12.8,10.9c0,0.7 0.4,1.1 0.9,0.8c0.5,-0.4 1.1,-0.3 1.3,0.1c0.6,1.6 12.6,10.2 13.2,9.6c0.3,-0.3 0.6,-0.2 0.6,0.4c0,1.3 11,9.7 11.7,8.9c0.9,-0.9 -1.7,-3.5 -7.3,-7.4c-15.2,-10.7 -40.4,-30.5 -40.9,-32.2c-0.7,-2.2 -4,-4.3 -5.8,-3.7c-0.7,0.2 -6.4,-3.2 -12.7,-7.6c-18.1,-12.5 -31.1,-20.9 -31.5,-20.5c-0.4,0.4 6.9,5.5 31.1,21.9l11.2,7.5l-2,3.3c-1.7,2.6 -2.7,3.2 -5.2,3.1c-5.1,-0.3 -5.5,-0.2 -10.2,4.2c-3.6,3.3 -5.6,4.3 -9.2,4.8c-3.9,0.4 -5,1 -6.9,4c-3.9,6.1 -4.5,6.5 -5.8,4.7c-0.7,-0.9 -1.5,-1.4 -1.8,-1.1c-1.2,1.3 -2,-6.8 -3.3,-35.1c-0.6,-15.5 -1.3,-20.7 -2.5,-20c-0.5,0.4 -0.9,0.2 -0.9,-0.4c0,-0.6 -1.2,-1.4 -2.7,-1.7c-1.6,-0.4 -3,-1 -3.3,-1.4c-0.3,-0.4 -3.6,-2.9 -7.5,-5.4c-3.8,-2.5 -7.5,-5 -8.2,-5.6c-0.7,-0.5 -1.4,-1 -1.7,-1c-0.5,0 -14.7,-8.7 -22.3,-13.6c-2.8,-1.9 -5.4,-3.4 -5.8,-3.4c-0.4,0 -4.5,-2.3 -9.2,-5c-4.7,-2.8 -8.6,-5 -8.8,-5c-0.2,0 -4.6,-2.7 -9.7,-6c-5.1,-3.2 -9.5,-5.7 -9.8,-5.4c-0.3,0.3 0.3,1.2 1.4,1.9c2.1,1.6 25.3,15.2 29.7,17.5c1.6,0.9 2.6,1.9 2.2,2.3c-0.4,0.5 -0.1,0.6 0.7,0.2c0.9,-0.3 7.3,3.1 15,8c34.7,21.7 33.4,20.8 31.4,21.6c-1,0.4 -5,3.3 -8.9,6.4c-5.7,4.6 -7.1,5.3 -7.3,3.8c-0.4,-2.4 -8.1,-8.4 -13.4,-10.5c-11.6,-4.6 -25.2,0.5 -34,12.7c-5.9,8.1 -9.7,11.5 -12.8,11.5c-1.9,0 -3,-0.5 -3,-1.4c0,-0.8 -0.5,-1.6 -1.1,-1.8c-0.6,-0.2 2.2,-2.6 6.3,-5.4l7.3,-5l0.3,-8.9c0.1,-6.2 -0.1,-8.5 -0.8,-7.5c-0.6,0.9 -1,1 -1,0.3c0,-0.6 0.4,-1.4 0.9,-1.7c1.5,-0.9 0.2,-21.9 -1.4,-23.2c-0.8,-0.6 -6.7,-3.9 -13,-7.4c-6.3,-3.4 -11.7,-6.6 -12,-7c-0.3,-0.4 2.4,-1.8 6,-3.1c3.6,-1.2 6.5,-2.6 6.5,-3.1c0,-1.1 -0.6,-1 -8.5,2.2zm-11.6,1.4c1.6,1.4 10.3,6.3 24.4,13.7l7.8,4.2l-0.3,19.7c-0.2,15.8 0,19.6 1,18.8c0.6,-0.6 1.2,-0.7 1.2,-0.2c-0.1,1.3 -5,4.7 -6.9,4.8c-0.9,0.1 -3,1.2 -4.6,2.5l-3,2.3l3,-1.7l3,-1.6l-2.4,2c-1.3,1.2 -3.2,2.1 -4.2,2.1c-1.1,0 -2.3,0.8 -2.6,1.7c-0.7,1.9 -2.2,3.2 -9.3,7.7c-2.4,1.5 -3.9,2.1 -3.1,1.3c0.7,-0.9 3.5,-3 6.2,-4.7c2.7,-1.8 4.9,-3.4 4.9,-3.7c0,-1 -10.3,6.1 -14.1,9.8c-2.6,2.5 -3.3,2.8 -4.2,1.6c-0.7,-0.7 -4.2,-3.5 -7.8,-6c-5.4,-3.8 -25.5,-23.5 -24.6,-24.2c0.1,-0.1 6.7,-3.9 14.7,-8.5c7.9,-4.5 15,-9 15.6,-9.9c0.7,-0.8 1.3,-4.9 1.3,-8.9c0,-4 0.3,-7.7 0.6,-8.2c0.3,-0.5 0.1,-1.1 -0.5,-1.5c-0.7,-0.4 -0.6,-1.3 0.1,-2.7c0.7,-1.3 0.9,-4 0.5,-6.9c-0.7,-5.2 0.3,-6.2 3.3,-3.5zm33.8,51.3c-0.3,1 -0.5,0.2 -0.5,-1.7c0,-1.9 0.2,-2.7 0.5,-1.8c0.2,1 0.2,2.6 0,3.5zm68.4,15.9c0.1,3.2 0.6,6.5 1.3,7.3c0.9,1.2 0.8,1.3 -0.3,0.6c-1.1,-0.6 -1.3,-0.2 -0.7,1.9c0.8,3.1 2.5,16.1 2.6,19c0,1.7 -0.5,1.5 -3.3,-1.2c-1.8,-1.8 -3.8,-3.2 -4.4,-3.2c-0.6,0 -4.1,2.5 -7.9,5.5c-7.6,6 -9.2,6.2 -13.3,1.7c-2,-2.2 -2.3,-3.3 -1.8,-7.7c0.7,-7.4 4.5,-13.2 8,-12.6c0.5,0.1 0.6,-0.3 0.2,-0.9c-0.3,-0.5 0.4,-1.4 1.7,-2c1.3,-0.5 5.7,-4.1 9.8,-7.9c4.1,-3.8 7.6,-6.8 7.8,-6.7c0.1,0.2 0.3,2.9 0.3,6.2zm24.8,50.7c-0.2,0.2 -3.2,2.5 -6.6,5c-3.4,2.6 -6.8,5.4 -7.6,6.1c-0.7,0.8 -3.8,2.9 -6.8,4.7c-3,1.8 -7.1,4.6 -9.2,6.2c-7.8,6.1 -15.5,10.7 -17.6,10.7c-1.4,0 -18.4,-16.3 -22.3,-21.4c-1.8,-2.2 2,1 8.4,7.3c6.4,6.3 12.4,11.9 13.3,12.4c1.9,1 4.3,-0.6 31.5,-20.2c9.1,-6.6 16.7,-11.8 16.9,-11.5c0.2,0.2 0.2,0.5 0,0.7z" id="svg_7"/>
  <path d="m84.1,48.6c0,1.2 11.5,10.8 13.4,11.2c0.8,0.2 1.5,1 1.5,1.8c0,1.9 0.1,1.9 -6,-2.6c-2.9,-2.2 -5.6,-3.7 -5.9,-3.4c-0.3,0.4 -0.1,0.9 0.6,1.1c2.4,0.8 26,19.2 26.6,20.6c0.3,0.8 0,2 -0.6,2.7c-0.9,0.9 -0.6,0.9 1.3,0c1.5,-0.8 2,-1.5 1.2,-1.8c-0.6,-0.2 -1.2,-0.9 -1.2,-1.6c0,-0.7 -3.6,-3.9 -8,-7.1c-4.4,-3.2 -8,-6 -8,-6.2c0,-1.3 3.2,0.2 5.6,2.7c1.6,1.6 3.3,3 3.8,3c0.4,0 2.6,1.4 4.7,3.1c2.1,1.7 3.9,2.7 3.8,2.2c0,-0.8 -8.8,-8 -20.4,-16.8c-3.3,-2.5 -7.5,-5.7 -9.2,-7.1c-1.8,-1.5 -3.3,-2.3 -3.2,-1.8z" id="svg_8"/>
  <path d="m84.3,62.6c3.2,2.5 4.5,3 5.9,2.3c2.6,-1.4 2.2,-2 -0.8,-1.3c-1.9,0.5 -2.5,0.4 -2,-0.5c0.5,-0.7 -0.1,-1.1 -1.5,-1.1c-1.7,0 -1.9,-0.3 -1,-1.3c0.8,-1.1 0.5,-1.4 -1.8,-1.4l-3,0l4.2,3.3z" id="svg_9"/>
  <path d="m78,61.7c0,0.5 0.9,1.8 2,2.8c1.1,1 2,1.4 2,0.8c0,-0.5 -0.9,-1.8 -2,-2.8c-1.1,-1 -2,-1.4 -2,-0.8z" id="svg_10"/>
  <path d="m74.6,66.1c0.5,0.8 0.9,1.7 0.9,2.1c0,0.3 0.4,1 0.9,1.5c0.5,0.5 0.6,0.3 0.2,-0.5c-1.3,-2.2 0.4,-1.3 2.9,1.5c1.7,2.1 2.7,2.5 3.5,1.7c0.9,-0.9 0.5,-1.3 -1.5,-1.8c-2.1,-0.5 -2.4,-1 -1.6,-2c0.9,-1 0.7,-1.5 -0.6,-1.9c-1,-0.2 -2.7,-0.8 -3.7,-1.3c-1.5,-0.6 -1.7,-0.4 -1,0.7z" id="svg_11"/>
  <path d="m90.8,67.2c0.9,0.9 1.5,0.9 2.4,0c0.9,-0.9 0.7,-1.2 -1.2,-1.2c-1.9,0 -2.1,0.3 -1.2,1.2z" id="svg_12"/>
  <path d="m70.2,68.9c-1,0.6 -0.6,1.5 1.5,3.7c5.8,5.9 11.3,10.2 11.9,9.2c0.8,-1.3 -4.6,-6.8 -6.8,-6.8c-1,0 -1.5,-0.5 -1.2,-1.3c0.7,-1.8 -3.8,-5.8 -5.4,-4.8zm10.4,9.2c1.9,2.2 1.9,2.2 -0.3,1c-1.3,-0.6 -2.3,-1.6 -2.3,-2.1c0,-1.5 0.5,-1.2 2.6,1.1z" id="svg_13"/>
  <path d="m94.8,70.2c0.9,0.9 1.5,0.9 2.4,0c0.9,-0.9 0.7,-1.2 -1.2,-1.2c-1.9,0 -2.1,0.3 -1.2,1.2z" id="svg_14"/>
  <path d="m90,71.7c0,1.3 2.9,3.8 3.5,3.1c0.3,-0.3 -0.4,-1.3 -1.5,-2.3c-1.1,-1 -2,-1.3 -2,-0.8z" id="svg_15"/>
  <path d="m98,72.2c0,0.4 0.9,0.8 2,0.8c1.1,0 2,-0.4 2,-0.8c0,-0.4 -0.9,-0.8 -2,-0.8c-1.1,0 -2,0.4 -2,0.8z" id="svg_16"/>
  <path d="m86,78c0,1.2 2.8,2.1 3.5,1.1c0.2,-0.5 -0.4,-1.1 -1.5,-1.4c-1.1,-0.3 -2,-0.2 -2,0.3z" id="svg_17"/>
  <path d="m69.1,79.6c-2.1,1.5 -5.2,6.2 -3.3,5c0.6,-0.4 2.5,1.1 4.3,3.3c3,3.9 3.3,4 5.9,2.6c5.4,-2.8 5.4,-3.8 0.1,-8.3c-4.5,-3.8 -5,-4 -7,-2.6zm5.7,3.1c2,1.5 3.9,2.8 4.1,3c0.7,0.5 -3.1,4.3 -4.3,4.3c-1.4,0 -6.6,-5.1 -6.6,-6.5c0,-1 1.9,-3.5 2.8,-3.5c0.2,0 2,1.2 4,2.7z" id="svg_18"/>
  <path d="m103.7,78.6c-0.4,0.4 -0.7,1.9 -0.6,3.3l0,2.6l1,-2.4c1,-2.6 0.8,-4.7 -0.4,-3.5z" id="svg_19"/>
  <path d="m97,81.1c0,1.7 2.7,4.5 3.5,3.7c0.3,-0.3 -0.3,-1.6 -1.4,-2.9c-1.6,-1.9 -2,-2 -2.1,-0.8z" id="svg_20"/>
  <path d="m94,87c0,0.5 0.9,1 2,1c1.1,0 2,-0.5 2,-1c0,-0.6 -0.9,-1 -2,-1c-1.1,0 -2,0.4 -2,1z" id="svg_21"/>
  <path d="m195.8,25.2c0.5,7.1 1,7.7 1.1,1.5c0,-3.1 -0.2,-5.7 -0.7,-5.7c-0.4,0 -0.6,1.9 -0.4,4.2z" id="svg_23"/>
  <path d="m197.7,45.7c1.6,14.1 2.4,17.7 1.7,7.3c-0.8,-12.3 -1.6,-19 -2.3,-19c-0.4,0 -0.1,5.3 0.6,11.7z" id="svg_25"/>
  <path d="m41,45.4c-5.2,2.3 -13.1,5.9 -17.5,8c-13.3,6.3 -16.3,7.6 -17.4,7.6c-0.6,0 -1.1,0.4 -1.1,1c0,1.2 6.1,-1.2 20,-7.8c5.8,-2.7 13.9,-6.4 18,-8.2c7,-3 10.7,-5.1 8.5,-4.9c-0.6,0.1 -5.3,2 -10.5,4.3z" id="svg_27"/>
  <path d="m238.5,44.2c-2.2,0.5 -8,2.1 -13,3.5c-4.9,1.4 -10.1,2.5 -11.4,2.4c-1.9,-0.1 -2.1,0.2 -1.1,1.3c0.6,0.9 1,3.7 0.9,6.8c-0.3,5.1 -0.2,5.3 3.1,7.1c1.9,1.1 4.7,2.8 6.3,3.9c1.8,1.3 2.7,1.5 2.7,0.6c-0.1,-0.7 -2.3,-2.3 -5,-3.6c-4.1,-1.9 -5,-2.9 -5.2,-5c0,-1.5 -0.2,-3.9 -0.3,-5.5c-0.2,-3.2 0.1,-3.3 3.6,-0.9c8.1,5.3 21.4,14.7 27.1,19c3.6,2.7 7.2,5.2 7.9,5.4c0.9,0.3 1.4,2.8 1.5,7.7c0.2,4 0.5,7.6 0.8,7.9c0.3,0.3 0.6,-0.2 0.6,-1c0,-0.9 2,-2.3 4.7,-3.4c2.7,-1.1 5.1,-2 5.4,-2.2c0.7,-0.3 3,8 2.4,8.6c-0.2,0.2 -1.4,-0.2 -2.7,-0.9c-4,-2 -1.8,-0.5 16,11.4c9.4,6.4 17.2,11.2 17.2,10.8c0,-0.5 -6.5,-5.2 -14.4,-10.6l-14.5,-9.8l-0.7,-5.1c-0.4,-2.8 -0.7,-5.4 -0.6,-5.9c0.3,-1.2 -1.3,-0.8 -7.1,1.7l-5.5,2.5l-0.4,-5.3l-0.3,-5.4l9.6,-3.5c5.2,-2 10.8,-3.9 12.2,-4.2c1.5,-0.4 2.7,-1.1 2.7,-1.5c0,-0.9 -4.8,0.5 -16.5,4.8c-4.4,1.6 -8.6,2.7 -9.4,2.4c-2.8,-1 -21,-15 -20.3,-15.7c0.3,-0.3 0,-0.4 -0.8,-0.1c-0.9,0.4 -4.1,-1.4 -7.5,-4c-3.3,-2.5 -7.1,-5 -8.5,-5.6c-3,-1.3 -3.9,-0.9 15,-5.7c8.5,-2.2 14.2,-4 12.5,-3.9c-1.6,0 -4.8,0.4 -7,1z" id="svg_29"/>
  <path d="m226.5,51.1c-3.8,1.2 -4.7,1.7 -2.4,1.4c4.6,-0.7 13,-3.3 10.4,-3.3c-1.1,0 -4.7,0.9 -8,1.9z" id="svg_31"/>
  <path d="m206.2,56c-3.2,0.7 -5.5,2 -3.6,2c0.5,0 3.2,-0.7 5.9,-1.4c5.2,-1.5 3.4,-2 -2.3,-0.6z" id="svg_32"/>
  <path d="m205.3,65.1c1.5,1.1 2.5,2.4 2.2,2.8c-0.2,0.4 0.2,0.8 1,0.8c1.2,0 1.2,-0.4 -0.2,-2.1c-2.2,-2.6 -3.5,-3.6 -4.8,-3.6c-0.5,0.1 0.2,1 1.8,2.1z" id="svg_33"/>
  <path d="m7.6,67.6c1,0.8 1.2,1.3 0.4,0.9c-0.8,-0.3 0.5,1.1 3,3.2c2.4,2.1 5.9,5.1 7.6,6.8l3.2,3l0.6,14.5c0.3,8 0.9,19.9 1.2,26.4c0.6,9.7 0.5,11.8 -0.6,11.1c-1,-0.6 -1.1,-0.4 -0.4,0.6c1.1,1.8 1.1,1.9 1.3,7.9c0,2.7 0.4,5 0.9,5c0.7,0 0.1,-27.2 -1.3,-51.5c-0.6,-12.1 -0.6,-12.9 1,-11.4c1.4,1.4 1.7,6.9 2.1,53c0.3,28.2 0.7,51.5 1,51.8c0.9,1 0.9,-44.8 -0.1,-83.3l-0.5,-18.9l2.3,2.1c1.3,1.2 2.9,2.2 3.6,2.2c0.7,0 1,0.4 0.7,0.8c-0.5,0.9 6.1,7.9 7.9,8.4c0.6,0.2 0.9,0.5 0.9,0.8c-0.1,0.3 1.8,2.5 4.3,5c2.5,2.5 4.2,3.9 3.9,3.2c-1.1,-2 0.9,-1.4 3,1c1.8,2.1 1.8,2.1 0,1.5c-1,-0.4 0.6,1.4 3.5,4c5.3,4.6 13.3,12.4 56.4,54.8c25.6,25.2 31,30.4 44.7,42.9c5.9,5.4 10.6,10.3 10.5,10.9c-0.1,0.7 0.3,1.1 1,1c0.6,-0.1 4.6,2.9 8.7,6.8c4.2,3.9 7.6,6.7 7.6,6.2c0,-0.5 -4,-4.6 -9,-9.2c-4.9,-4.6 -8.8,-8.7 -8.5,-9.1c0.3,-0.5 -1.8,-3 -4.7,-5.7c-2.8,-2.6 -5.9,-5.5 -6.8,-6.3c-8.3,-7.8 -16.8,-14.8 -17.3,-14.3c-0.4,0.3 -0.7,0.1 -0.7,-0.5c0,-0.6 -1.9,-2.8 -4.2,-4.9c-11.1,-10 -27.2,-25.6 -58.7,-57.1c-22.3,-22.3 -34.9,-34.1 -35.8,-33.8c-0.8,0.3 -1.2,0.2 -0.9,-0.3c0.3,-0.5 -2,-3.3 -5.2,-6.3c-14.3,-13.8 -22.5,-21.3 -23.3,-21.6c-0.5,-0.2 -0.9,-1 -0.9,-1.8c0,-0.8 -1,-1.4 -2.2,-1.4c-2.1,0 -2.1,0 -0.2,1.6zm127,121.6l2.9,3.3l-3.2,-2.9c-3.1,-2.8 -3.8,-3.6 -3,-3.6c0.2,0 1.6,1.5 3.3,3.2zm19.4,17.4c6.8,6 14.7,13.7 13,12.8c-1.8,-1 -10.7,-9.2 -20,-18.4c-3.6,-3.6 -4.5,-4.7 -2,-2.4c2.5,2.2 6.5,5.8 9,8z" id="svg_35"/>
  <path d="m211,69.4c0,0.2 2.4,2.1 5.3,4.2c2.8,2.1 5.4,4.1 5.7,4.4c1.6,1.7 9,5.9 9,5c0,-0.5 -0.4,-1 -0.9,-1c-0.5,0 -4.4,-2.6 -8.7,-5.8c-8.7,-6.4 -10.4,-7.5 -10.4,-6.8z" id="svg_36"/>
  <path d="m233.5,76.3c2.2,1.8 6.3,5.4 9.2,8.1c2.9,2.7 5.3,4.5 5.3,4.1c0,-0.4 -0.8,-1.4 -1.7,-2.1c-1.3,-0.9 -1.4,-1.3 -0.5,-1.4c0.8,0 -2.3,-2.7 -6.7,-6c-8.5,-6.3 -12.4,-8.2 -5.6,-2.7z" id="svg_38"/>
  <path d="m286.5,80.4c-3.8,1.2 -8.3,2.9 -10,3.8c-1.6,0.8 -3.6,1.3 -4.2,1.1c-0.7,-0.3 -1.3,0.2 -1.3,1.1c0,0.8 0.6,1.3 1.3,1.1c0.7,-0.3 3.1,0.7 5.3,2.2c2.3,1.6 7.8,5.2 12.3,8.2c5.9,3.8 7.9,5.6 6.9,6.2c-0.7,0.5 -0.8,0.9 -0.3,0.9c0.6,0 1.6,-0.4 2.3,-0.9c1,-0.6 -0.8,-2.3 -6.5,-5.9c-4.3,-2.8 -9.1,-6 -10.8,-7.2c-1.6,-1.1 -3.9,-2.7 -5,-3.5c-2.3,-1.5 -2.5,-1.4 10.2,-5.9c3.5,-1.3 6.6,-2.6 7,-2.9c0.9,-0.9 0.7,-0.9 -7.2,1.7z" id="svg_40"/>
  <path d="m232,84.7c0,0.4 1.7,1.8 3.8,3c2,1.2 6.1,4.2 9,6.7c3,2.5 5.7,4.6 6,4.6c0.7,0 -1.8,-2.3 -9,-8.2c-4.9,-4.1 -9.8,-7.2 -9.8,-6.1z" id="svg_41"/>
  <path d="m101.1,98.2c0,2.8 0.2,3 0.9,1.3c1.2,-2.8 1.2,-4.5 0,-4.5c-0.5,0 -1,1.5 -0.9,3.2z" id="svg_42"/>
  <path d="m106,96.3c0,0.8 0.7,1.7 1.5,2.1c0.8,0.3 1.5,0.2 1.5,-0.3c0,-0.5 -0.7,-1.4 -1.5,-2.1c-1.2,-1 -1.5,-1 -1.5,0.3z" id="svg_43"/>
  <path d="m252,99.4c0,0.2 5.3,4.4 11.8,9.2c6.4,4.8 14.6,11 18.2,13.9c9.4,7.5 14,10.8 14,10.2c0,-0.8 -18.4,-15.5 -26.9,-21.5c-3.6,-2.5 -6.8,-4.9 -7.1,-5.2c-0.9,-1.1 -10,-7.1 -10,-6.6z" id="svg_44"/>
  <path d="m184.1,123.3c0.2,0.1 1.5,1.1 2.8,2.2l2.4,2l-1.4,-2.3c-0.8,-1.2 -2,-2.2 -2.8,-2.2c-0.8,0 -1.2,0.1 -1,0.3z" id="svg_47"/>
  <path d="m24,153c0,1.6 0.5,3 1,3c0.6,0 1,-1.4 1,-3c0,-1.7 -0.4,-3 -1,-3c-0.5,0 -1,1.3 -1,3z" id="svg_50"/>
  <path d="m24.1,171c0,7.1 0.4,13 0.8,13c0.4,0 0.7,-5.8 0.6,-13c0,-7.1 -0.4,-13 -0.8,-13c-0.4,0 -0.7,5.8 -0.6,13z" id="svg_53"/>
  <path d="m293,169.6c-3.6,2.4 -11.9,7.7 -18.5,11.6c-6.6,3.9 -13.4,8.2 -15.1,9.5c-1.7,1.3 -3.4,2.3 -3.7,2.3c-0.3,0 -3.4,1.9 -6.9,4.3c-3.5,2.4 -9.7,6.3 -13.8,8.7c-7.5,4.4 -12.8,8 -11.7,8c1.2,0 11.2,-6.1 37.8,-23.2c4.1,-2.6 7.8,-4.8 8.2,-4.8c1.3,0 30.7,-19.3 30.7,-20.1c0,-1.2 0.4,-1.4 -7,3.7z" id="svg_54"/>
  <path d="m287.5,177.3c-6.6,4 -13.1,8 -14.5,8.8c-1.4,0.9 -7.4,4.6 -13.5,8.4c-6,3.8 -14.4,8.9 -18.5,11.5c-8.3,5.1 -31,17.3 -31,16.7c0,-0.2 2.7,-2.1 6,-4.1c3.3,-2.1 6,-4 6,-4.3c0,-0.3 -1.7,0.5 -3.7,1.8c-8,4.7 -16.1,9.2 -22.7,12.6c-3.7,1.9 -6.6,3.7 -6.3,4c0.3,0.3 3.3,-1 6.6,-2.8c3.4,-1.7 6.4,-3 6.7,-2.7c0.9,1 -12.7,7.9 -14.4,7.3c-1,-0.3 -3.3,-2 -5.3,-3.7c-2,-1.8 -5.6,-4.8 -8,-6.6c-3.5,-2.7 -3.2,-2.2 1.6,2.3c7.6,7.1 16,13.2 15.2,11.1c-0.5,-1.2 0.7,-2.4 4.1,-4.6c2.5,-1.6 4.7,-2.8 4.8,-2.7c0.3,0.4 1.4,39.4 1.5,54.2c0.1,11.5 0.4,14.7 1,11.5c0.4,-2.5 0.6,-7.9 0.4,-12c-0.2,-4.1 -0.7,-18.1 -1,-31l-0.7,-23.6l12.6,-6.9c20.9,-11.5 27.3,-15.3 45.6,-26.8c16.5,-10.4 26.2,-16.2 32,-19.3c2.6,-1.4 8.9,-6.3 8,-6.3c-0.3,0 -5.9,3.3 -12.5,7.2zm-80.5,47.7c-2.4,1.9 -4,2.5 -4,1.5c0,-0.5 5.1,-3.4 6,-3.4c0.3,0 -0.6,0.8 -2,1.9z" id="svg_56"/>
  <path d="m197.1,249.1c0,8.6 0.4,20.3 1.1,26c0.6,5.7 1.1,13.7 1,17.7c0,3.9 0.3,7.2 0.8,7.2c0.9,0 0.9,-3.7 -0.9,-38c-1.5,-30 -1.8,-32.1 -2,-12.9z" id="svg_68"/>
  <path d="m299.3,282c0,4.1 0.2,5.8 0.4,3.7c0.2,-2 0.2,-5.4 0,-7.5c-0.2,-2 -0.4,-0.3 -0.4,3.8z" id="svg_80"/>
  <path d="m109.94737,88.66842c0,0.8 0.7,1.7 1.5,2.1c0.8,0.3 1.5,0.2 1.5,-0.3c0,-0.5 -0.7,-1.4 -1.5,-2.1c-1.2,-1 -1.5,-1 -1.5,0.3z" id="svg_82" transform="rotate(-60.6306 111.447 89.2947)"/>
 </g>
</svg>