<?xml version="1.0" standalone="no"?>
<!DOCTYPE svg PUBLIC "-//W3C//DTD SVG 20010904//EN"
 "http://www.w3.org/TR/2001/REC-SVG-20010904/DTD/svg10.dtd">
<svg version="1.0" xmlns="http://www.w3.org/2000/svg"
 width="300.000000pt" height="251.000000pt" viewBox="0 0 300.000000 251.000000"
 preserveAspectRatio="xMidYMid meet">
<metadata>
Created by potrace 1.10, written by Peter Selinger 2001-2011
</metadata>
<g transform="translate(0.000000,251.000000) scale(0.100000,-0.100000)"
fill="#000000" stroke="none">
<path d="M1875 2496 c-27 -7 -63 -19 -79 -25 -16 -7 -34 -10 -40 -8 -7 3 -10
-18 -8 -63 3 -53 7 -69 20 -73 21 -7 142 -75 160 -89 7 -6 15 -8 18 -5 3 3
-23 22 -58 42 -35 21 -66 42 -69 47 -3 5 -10 9 -15 9 -35 -3 -45 11 -42 60 2
27 7 49 12 49 5 0 58 -30 118 -67 100 -62 135 -84 238 -146 23 -14 31 -16 23
-6 -7 9 -36 28 -65 44 -29 15 -89 53 -133 83 -44 30 -90 58 -102 63 -35 13
-28 25 22 39 25 7 48 17 51 21 7 13 1 11 -56 -11 -55 -22 -80 -25 -80 -11 0
11 75 37 145 50 33 6 40 9 20 9 -16 0 -52 -5 -80 -12z"/>
<path d="M1651 2404 c1 -54 4 -89 6 -76 3 16 8 20 16 14 21 -16 167 -94 167
-89 0 3 -15 14 -32 24 -18 11 -58 34 -89 53 l-56 33 -2 65 c-1 37 -4 68 -6 71
-3 2 -4 -40 -4 -95z"/>
<path d="M669 2283 c-1 -16 0 -38 1 -51 1 -12 -2 -22 -7 -21 -15 4 -206 -81
-199 -89 3 -2 39 12 80 32 42 19 86 38 99 41 21 6 23 3 21 -27 -6 -82 -7 -148
-2 -153 6 -6 18 136 18 218 0 31 4 57 9 57 4 0 20 -9 34 -20 14 -11 27 -20 29
-20 3 0 56 -29 119 -64 l114 -63 3 -59 c1 -33 -1 -101 -5 -152 l-8 -94 -45 36
c-225 180 -264 209 -205 149 22 -22 52 -48 68 -58 26 -17 40 -44 15 -29 -9 5
-9 2 1 -9 14 -18 23 -22 19 -9 -2 4 2 7 7 7 6 0 10 -5 10 -12 0 -7 7 -18 15
-25 12 -11 12 -11 1 5 -11 14 -11 17 3 17 9 0 16 -8 16 -20 0 -11 13 -29 30
-41 16 -12 32 -29 35 -36 6 -16 -50 -74 -61 -64 -4 3 -4 0 0 -7 6 -10 16 -8
44 9 70 42 74 48 68 104 -4 35 -3 42 3 25 6 -16 8 8 6 70 -2 52 -3 118 -4 147
l-1 52 -110 62 c-60 34 -110 64 -110 68 0 3 23 14 51 24 28 10 49 21 46 23 -2
3 -31 -5 -63 -17 l-58 -22 -38 21 c-47 28 -48 28 -49 -5z m273 -453 c49 -33
53 -45 20 -65 l-27 -16 24 20 c13 12 19 21 15 21 -5 1 -27 17 -49 37 -44 40
-39 41 17 3z"/>
<path d="M915 2285 c17 -14 33 -25 36 -25 4 0 69 -36 145 -81 181 -105 234
-134 209 -114 -11 9 -76 48 -145 87 -69 40 -155 91 -191 115 -72 47 -102 57
-54 18z"/>
<path d="M2315 2266 c-159 -59 -144 -48 -134 -102 5 -26 7 -49 5 -52 -3 -2
-29 12 -58 32 -53 35 -168 90 -168 81 0 -3 28 -19 63 -36 34 -18 86 -47 115
-66 35 -22 58 -31 65 -25 7 5 34 17 60 27 26 10 50 22 53 26 5 9 -62 -13 -94
-30 -18 -10 -20 -7 -24 32 -3 23 -2 46 2 50 4 5 37 19 73 32 l66 24 65 -42
c35 -23 65 -44 65 -47 1 -3 -35 -16 -78 -29 l-78 -25 5 -45 c2 -25 10 -52 16
-60 17 -21 128 -108 251 -196 61 -43 113 -83 116 -88 4 -6 42 5 90 26 136 57
156 61 184 43 49 -32 24 -5 -36 39 -61 45 -61 49 -9 59 14 3 3 3 -24 2 -48 -4
-51 -2 -175 92 -69 52 -135 103 -146 112 -11 10 -33 25 -50 35 -56 34 -4 -10
150 -125 83 -62 152 -116 153 -121 2 -5 -4 -9 -12 -9 -9 0 -39 -11 -66 -25
-27 -14 -52 -21 -55 -16 -3 6 -82 67 -175 137 -94 70 -170 131 -170 135 0 7
85 35 134 45 11 2 24 8 29 13 6 6 3 8 -10 5 -13 -4 -44 11 -91 43 l-72 48 29
10 c30 10 52 26 35 24 -5 0 -49 -15 -99 -33z m42 -171 c24 -20 128 -100 241
-185 51 -39 95 -77 98 -84 3 -8 4 -28 2 -45 l-3 -30 -145 105 c-179 129 -220
170 -220 219 0 39 2 41 27 20z m543 -244 c44 -32 43 -35 -10 -46 -19 -4 -64
-20 -99 -36 -35 -16 -67 -29 -70 -29 -3 0 -7 18 -9 39 l-2 39 72 31 c40 17 74
31 76 31 1 0 20 -13 42 -29z"/>
<path d="M1850 2246 c0 -2 33 -22 73 -44 168 -93 511 -336 784 -558 111 -91
183 -142 183 -131 0 3 -30 27 -67 55 -38 27 -79 59 -93 70 -289 240 -591 456
-797 572 -70 39 -83 45 -83 36z"/>
<path d="M1672 2080 c0 -62 12 -157 19 -145 3 6 0 51 -6 100 -8 59 -12 75 -13
45z"/>
<path d="M345 2077 c-27 -11 -108 -47 -178 -79 -71 -32 -135 -58 -142 -58 -8
0 -17 -4 -20 -10 -3 -5 -2 -10 3 -10 10 0 184 75 222 95 14 8 60 28 103 46 42
17 77 33 77 35 0 7 -12 3 -65 -19z"/>
<path d="M1950 2043 c-52 -14 -107 -27 -121 -30 -22 -4 -25 -9 -22 -31 2 -15
5 -39 7 -54 2 -18 15 -36 37 -51 48 -32 69 -42 39 -18 -14 11 -32 26 -41 33
-23 19 -33 77 -14 84 14 6 57 -22 190 -121 33 -25 79 -58 102 -73 42 -27 42
-27 43 -89 0 -38 4 -63 11 -63 5 0 8 4 5 8 -3 5 17 18 44 29 l48 21 7 -47 6
-46 165 -113 c90 -62 172 -115 182 -119 21 -7 -17 20 -195 141 l-141 96 -7 50
c-4 28 -9 50 -11 50 -2 0 -26 -9 -54 -20 l-50 -20 0 45 c0 51 -9 45 135 96 44
15 72 28 63 28 -10 1 -54 -12 -100 -29 -45 -16 -90 -30 -101 -30 -10 0 -51 24
-90 53 -40 30 -105 76 -144 104 -72 49 -79 62 -39 64 12 0 16 3 10 5 -6 3 -30
1 -53 -5 -22 -5 -38 -5 -36 0 7 10 50 23 185 55 52 12 82 22 65 23 -16 0 -73
-12 -125 -26z"/>
<path d="M609 1987 c-19 -13 -78 -47 -131 -76 -54 -29 -98 -57 -98 -62 0 -16
148 -165 208 -210 31 -23 64 -50 73 -60 15 -17 20 -15 93 31 42 27 76 52 76
55 0 3 -10 -1 -22 -9 -27 -19 -42 -21 -32 -3 5 9 3 9 -7 -1 -8 -7 -14 -18 -14
-24 0 -6 -6 -13 -14 -16 -9 -3 -11 0 -6 9 8 14 -34 -18 -46 -34 -10 -14 -119
75 -208 168 -44 48 -81 89 -81 93 0 4 42 29 93 57 148 79 169 92 159 99 -5 3
-25 -5 -43 -17z"/>
<path d="M1465 1955 c11 -9 44 -30 73 -47 47 -27 66 -48 43 -48 -4 0 -38 -23
-75 -50 -40 -31 -66 -45 -66 -36 0 18 -65 75 -106 92 -40 17 -114 18 -167 3
-39 -10 -97 -62 -183 -161 -30 -35 -49 -48 -68 -48 -15 0 -26 6 -26 13 0 19
-20 36 -36 30 -44 -17 31 -62 81 -49 13 3 45 32 72 63 26 31 62 70 78 86 90
89 242 88 318 -3 27 -31 27 -33 11 -58 l-17 -25 34 23 c19 13 61 44 93 69 64
48 95 54 128 24 14 -13 18 -32 19 -92 1 -42 5 -114 9 -161 7 -72 8 -63 4 55
-2 77 -4 154 -4 171 0 27 -6 35 -37 49 -20 10 -57 32 -82 50 -54 38 -130 78
-96 50z"/>
<path d="M660 1941 c0 -4 11 -14 25 -21 14 -7 25 -17 25 -22 0 -12 28 -10 36
4 5 8 2 9 -9 5 -10 -3 -17 -2 -17 3 0 6 -7 10 -16 10 -8 0 -13 4 -10 9 3 5 -3
11 -14 14 -11 3 -20 2 -20 -2z"/>
<path d="M26 1876 c3 -8 32 -37 65 -66 l59 -51 2 -92 2 -92 5 82 6 83 95 -94
c52 -52 98 -92 101 -90 4 2 19 -13 35 -33 37 -49 370 -383 356 -358 -20 38
-709 725 -726 725 -3 0 -3 -6 0 -14z"/>
<path d="M560 1864 c1 -11 26 -42 64 -74 27 -24 28 -24 15 -2 -8 12 -17 22
-22 22 -4 0 -6 4 -3 9 3 5 -1 14 -9 21 -8 7 -15 9 -15 4 0 -5 -7 0 -15 10 -8
11 -15 16 -15 10z"/>
<path d="M1705 1813 c6 -6 87 -63 180 -128 94 -65 174 -121 178 -125 10 -8
-32 -62 -43 -55 -5 3 -11 1 -15 -5 -3 -5 1 -10 9 -10 16 0 41 22 56 51 13 23
33 25 50 4 11 -13 10 -14 -6 -9 -13 4 -11 1 6 -12 14 -10 32 -24 40 -31 50
-42 392 -307 436 -338 15 -11 39 -30 53 -43 26 -22 26 -22 6 -38 -11 -8 -40
-27 -65 -42 -25 -14 -102 -63 -171 -109 -69 -46 -129 -83 -133 -83 -8 0 -157
-98 -171 -113 -10 -11 8 0 100 58 28 18 93 58 145 89 183 111 324 202 327 212
2 6 -20 28 -48 50 -28 21 -62 49 -75 61 -14 13 -68 56 -122 96 -267 201 -302
230 -302 242 0 16 -30 35 -55 35 -8 0 -42 19 -74 43 -165 117 -338 231 -306
200z"/>
<path d="M1950 1818 c0 -13 132 -118 141 -113 6 5 -1 14 -18 26 -15 10 -49 34
-75 54 -27 21 -48 35 -48 33z"/>
<path d="M1599 1779 c-60 -56 -162 -140 -200 -166 -31 -20 -41 -23 -58 -13
-12 6 -21 17 -21 25 0 17 26 20 35 5 3 -5 11 -10 17 -10 7 0 6 6 -2 15 -7 8
-19 15 -28 15 -12 0 -10 6 9 26 l24 27 -28 -18 c-49 -31 -53 -52 -16 -86 23
-22 29 -32 21 -42 -34 -40 -21 -150 19 -162 10 -4 19 -10 19 -15 0 -4 -42 -35
-92 -69 -125 -81 -143 -97 -129 -115 9 -11 9 -15 0 -18 -13 -4 197 -228 214
-228 6 0 -11 23 -38 52 -28 29 -42 46 -32 39 9 -8 17 -11 17 -7 0 9 -86 96
-95 96 -5 0 4 -14 21 -31 18 -20 21 -27 9 -19 -11 6 -29 23 -39 38 -11 14 -14
22 -8 18 22 -13 12 8 -18 39 l-30 31 97 69 c54 38 134 93 178 124 44 30 83 60
87 65 4 6 23 -2 47 -22 22 -18 42 -32 45 -32 3 0 3 15 0 33 -3 17 -8 97 -13
177 l-7 144 25 23 c14 12 21 23 15 23 -7 0 -27 -14 -45 -31z m-4 -117 c1 -42
6 -111 10 -152 l8 -75 -34 27 -35 26 -64 -49 c-36 -27 -71 -49 -78 -49 -7 0
-24 12 -38 28 -22 23 -25 33 -20 70 8 60 29 94 74 125 22 14 68 51 103 82 34
30 64 53 67 50 3 -3 7 -40 7 -83z"/>
<path d="M546 1761 c-17 -19 -17 -21 11 -55 32 -41 42 -43 74 -17 l24 19 -29
31 c-16 17 -32 28 -35 25 -3 -2 8 -15 23 -27 27 -22 27 -24 12 -40 -23 -23
-28 -22 -62 14 l-29 30 25 19 c14 11 20 20 14 20 -6 0 -19 -9 -28 -19z"/>
<path d="M2405 1739 c-27 -12 -63 -24 -80 -28 l-30 -7 40 -22 c22 -11 103 -66
180 -120 77 -55 142 -98 144 -96 3 2 -4 11 -15 19 -20 15 -228 158 -271 186
-13 9 -25 20 -25 25 0 5 33 21 74 36 40 15 64 27 53 27 -11 0 -42 -9 -70 -20z"/>
<path d="M1963 1724 c3 -5 27 -25 53 -44 26 -18 44 -28 40 -22 -4 6 -28 26
-53 43 -25 18 -44 28 -40 23z"/>
<path d="M184 1380 c0 -179 2 -252 3 -162 2 89 2 235 0 325 -1 89 -3 16 -3
-163z"/>
<path d="M2738 1497 l-67 -32 -1 -57 c0 -32 4 -58 9 -58 8 0 78 30 161 69 25
11 24 11 -5 6 -16 -3 -57 -19 -90 -34 l-60 -28 3 48 c4 43 7 48 40 63 33 15
95 56 82 55 -3 0 -35 -15 -72 -32z"/>
<path d="M1917 1470 c-33 -30 -54 -40 -79 -40 -28 0 -38 -7 -70 -50 l-38 -51
35 -30 c31 -28 50 -59 26 -44 -9 5 -234 -146 -246 -166 -4 -5 32 18 80 52 82
59 121 76 72 32 -29 -26 -215 -153 -225 -153 -4 0 9 14 28 31 23 19 11 14 -33
-15 -38 -26 -72 -46 -76 -46 -4 0 -16 9 -26 20 -10 11 -23 20 -28 20 -6 0 0
-12 14 -26 23 -24 29 -25 74 -9 16 6 16 3 -5 -15 -34 -29 0 -12 65 34 28 19
77 51 110 72 33 21 88 61 122 90 35 29 70 57 79 62 12 7 15 17 9 41 -4 17 -10
29 -13 27 -4 -2 -15 2 -25 9 -17 12 -16 16 13 59 28 41 35 46 69 46 24 0 44 6
52 17 8 9 32 29 53 45 21 15 32 28 24 28 -8 0 -36 -18 -61 -40z"/>
<path d="M1692 1430 c-1 -42 4 -72 12 -83 16 -21 29 -9 15 13 -5 8 -10 11 -11
5 -1 -5 -4 22 -8 60 l-6 70 -2 -65z"/>
<path d="M2320 1456 c0 -6 152 -131 170 -140 22 -11 -67 69 -122 109 -27 19
-48 33 -48 31z"/>
<path d="M585 1187 c22 -19 42 -33 45 -30 5 5 -34 38 -65 54 -11 6 -2 -5 20
-24z"/>
<path d="M562 1083 c-62 -31 -111 -58 -109 -60 5 -4 237 105 237 112 0 10 -16
3 -128 -52z"/>
<path d="M920 984 c213 -219 666 -650 629 -599 -8 11 -48 52 -90 90 -42 39
-75 76 -73 82 2 7 -2 12 -8 10 -7 -1 -12 5 -13 13 0 8 -7 14 -16 13 -15 -3
-86 62 -81 75 1 4 -4 7 -10 7 -7 1 -12 6 -10 13 1 7 -1 11 -5 11 -21 -3 -32 5
-62 46 -18 24 -36 44 -40 42 -5 -1 -77 69 -161 155 -83 87 -166 168 -183 180
-18 12 38 -50 123 -138z"/>
<path d="M2640 1026 l-35 -24 0 -408 c0 -310 2 -375 8 -269 4 77 6 260 3 408
l-5 267 29 15 c16 8 32 19 35 25 9 15 3 12 -35 -14z"/>
<path d="M2455 910 c-108 -65 -197 -120 -303 -189 -104 -67 -226 -138 -253
-146 -33 -10 -27 -6 79 59 50 32 92 59 92 62 0 3 -5 2 -11 -1 -143 -89 -341
-204 -397 -232 -40 -20 -70 -38 -67 -41 3 -3 28 7 56 22 28 16 53 26 56 23 4
-4 -62 -44 -109 -65 -4 -2 -22 6 -40 18 -28 19 -27 16 7 -14 25 -22 41 -31 43
-22 2 11 110 74 372 220 36 20 135 81 220 136 85 54 191 119 235 144 72 41
138 86 125 85 -3 0 -50 -26 -105 -59z"/>
<path d="M45 902 c21 -23 43 -42 48 -42 14 0 -1 17 -46 51 l-42 33 40 -42z"/>
<path d="M230 905 c-30 -19 -61 -35 -67 -35 -7 0 -13 -5 -13 -11 0 -12 -4 -14
78 36 54 33 70 45 59 45 -2 0 -27 -16 -57 -35z"/>
<path d="M2570 833 c0 -21 -2 -218 -5 -438 -2 -232 -1 -383 4 -360 5 22 10
215 10 429 1 214 4 393 7 398 3 4 0 8 -5 8 -6 0 -11 -17 -11 -37z"/>
<path d="M560 323 c107 -105 196 -191 197 -189 3 3 -295 298 -347 342 -25 21
43 -48 150 -153z"/>
<path d="M1698 425 c-6 -6 2 -417 8 -424 2 -2 4 93 4 212 0 119 -1 217 -3 217
-2 0 -6 -2 -9 -5z"/>
<path d="M1661 254 c1 -82 4 -174 8 -204 4 -30 5 35 3 145 -3 110 -6 202 -8
204 -2 2 -4 -63 -3 -145z"/>
<path d="M1827 191 c-51 -49 -88 -93 -84 -97 4 -5 12 -2 17 6 10 16 8 18 49
-34 17 -21 31 -32 31 -24 0 8 -13 27 -30 43 -16 16 -30 32 -30 37 0 11 73 84
125 126 22 18 34 32 27 32 -7 0 -54 -40 -105 -89z"/>
<path d="M1980 238 c0 -4 11 -24 25 -44 14 -21 25 -30 25 -21 0 15 -49 79 -50
65z"/>
<path d="M1900 206 c0 -5 11 -21 25 -38 14 -16 25 -23 25 -16 0 8 -11 25 -25
38 -14 13 -25 20 -25 16z"/>
<path d="M2591 88 c0 -51 2 -89 4 -83 8 23 11 175 3 175 -4 0 -8 -42 -7 -92z"/>
<path d="M1860 164 c0 -6 12 -21 26 -35 14 -13 30 -33 34 -44 6 -13 9 -15 9
-5 1 8 -15 33 -34 55 -19 22 -35 35 -35 29z"/>
<path d="M786 90 c74 -84 84 -94 84 -85 0 6 -26 35 -57 65 -32 30 -44 39 -27
20z"/>
<path d="M1761 40 c18 -22 37 -40 43 -40 5 0 -8 18 -29 40 -21 22 -41 40 -43
40 -1 0 12 -18 29 -40z"/>
</g>
</svg>
