<svg width="300" height="300" xmlns="http://www.w3.org/2000/svg" preserveAspectRatio="xMidYMid meet" version="1.0">
 <metadata>Created by potrace 1.10, written by Peter Selinger 2001-2011</metadata>

 <g>
  <title>Layer 1</title>
  <path id="svg_2" d="m53.85,2.14997c-0.5,8.75 -0.9,10.45 -2.95,12.1c-1.15,0.95 -1.55,1.75 -0.9,1.75c0.9,0 0.95,0.35 0.2,1.25c-0.55,0.7 -1.3,4.25 -1.6,7.95c-0.35,3.7 -1,7.75 -1.45,9c-0.9,2.45 -0.5,4.8 0.85,4.8c0.45,0 1,-2.35 1.3,-5.25c1.65,-18.8 3.9,-25.8 3.15,-9.85c-0.3,5.7 -0.75,10.75 -1.05,11.25c-0.3,0.5 -0.75,3.9 -1,7.6c-0.2,3.7 -0.85,7.85 -1.35,9.25c-0.5,1.35 -1.1,3.3 -1.25,4.25c-0.25,1.45 -2.05,0.6 -9.95,-4.75c-7.85,-5.3 -9.55,-6.9 -9.15,-8.5c0.6,-2.15 1.8,-2.6 2.8,-1c0.35,0.55 0.1,1 -0.5,1c-0.6,0 -0.85,0.45 -0.5,1c0.35,0.55 1.05,1 1.6,1c0.55,0 0.75,-0.45 0.4,-1c-1.25,-2.05 1.15,-0.85 5.95,2.95c2.75,2.15 5.2,3.75 5.45,3.45c0.8,-0.75 -1.8,-2.8 -14.5,-11.55c-21.75,-15.05 -27.3,-19.3 -27.35,-21.1c-0.1,-3.1 -2.05,-1.85 -2.05,1.3c0,1.85 0.4,2.8 1,2.45c0.6,-0.35 2.3,0.4 3.9,1.7c1.55,1.25 3.65,2.9 4.7,3.6c14.45,9.8 16.4,11.45 16.4,13.75c0,1.35 -0.5,2.45 -1.05,2.45c-0.65,0 -0.8,-0.85 -0.4,-2.1c0.4,-1.35 0.15,-2.45 -0.7,-3c-2,-1.25 -2.85,-1.1 -2.85,0.6c0,0.8 -0.5,1.5 -1.1,1.5c-0.7,0 -0.9,-0.95 -0.5,-2.5c0.45,-1.8 0.25,-2.5 -0.75,-2.5c-0.8,0 -1.65,0.9 -1.95,2c-0.4,1.65 2.05,3.7 14.85,12.25c16.3,10.85 16.75,11.25 13.2,12.25c-3.35,0.95 -15.45,7.1 -22.25,11.3c-3.3,2 -9.6,5.3 -13.95,7.3c-4.4,2 -8.15,4.2 -8.4,4.9c-0.3,0.95 0.35,0.9 2.45,-0.2c12.85,-6.5 16.45,-8.1 16.9,-7.65c0.95,0.95 -12.5,8.95 -18.5,11.05c-0.85,0.3 -1.15,0.9 -0.75,1.35c0.85,0.85 13.25,-5.3 18.45,-9.2c2.6,-1.95 3.95,-2.25 7.15,-1.75c5,0.8 8.95,-1.1 16.05,-7.55c15.8,-14.45 34.65,-3.25 29.8,17.7c-1.2,5.25 -1.2,6.25 -0.05,6.25c0.75,0 1.3,0.8 1.25,1.75c-0.05,1.05 -0.25,1.25 -0.55,0.5c-0.95,-2.3 -2.4,-1.3 -1.9,1.3c0.3,1.7 0.05,2.45 -0.75,2.15c-0.65,-0.2 -1.05,-1.15 -0.9,-2.05c0.45,-2.55 -0.75,-1.95 -1.85,0.95c-0.7,1.85 -0.65,3.05 0.1,3.95c1.35,1.65 0.4,5.05 -1.6,5.85c-0.8,0.3 -1.45,1.7 -1.45,3.05c0,2.1 -0.5,2.55 -2.75,2.55c-1.65,0 -2.3,0.35 -1.55,0.8c1.35,0.85 0.6,5.2 -0.9,5.2c-0.5,0 -0.65,0.4 -0.35,0.9c1,1.6 -2.85,7.1 -4.95,7.1c-1.5,0.05 -1.65,0.25 -0.65,0.9c2.7,1.7 -9.15,11.3 -18,14.6c-3.85,1.45 -2.75,4.3 4,10.35c3.65,3.25 8.2,7.35 10.1,9.05c1.9,1.75 4.05,2.9 4.8,2.65c0.75,-0.3 1.1,-0.15 0.8,0.35c-0.55,0.85 6.3,7.5 17.5,17.05c3.55,3.05 7.35,6.45 8.45,7.65c1.2,1.3 2.6,1.9 3.5,1.55c3.75,-1.55 13.9,-8.5 13.5,-9.15c-0.25,-0.45 0.1,-0.75 0.75,-0.75c3.65,0.15 4.95,-0.35 4.4,-1.7c-0.35,-0.95 -0.05,-1.25 0.8,-0.95c0.75,0.3 3.2,-0.6 5.45,-2.05c2.25,-1.4 4.5,-2.55 5.1,-2.55c0.55,0 1,-0.5 1,-1.1c0,-0.6 -0.7,-0.85 -1.55,-0.5c-0.95,0.35 -1.3,0.15 -0.9,-0.45c0.35,-0.55 1.4,-0.8 2.4,-0.45c1.1,0.35 5.25,-1.65 11.35,-5.5c5.25,-3.3 9.85,-6 10.1,-6c0.9,0 11.6,-7 11.6,-7.6c0,-0.3 -1,-0.25 -2.25,0.05c-2.05,0.6 -2.05,0.5 0.25,-0.85c1.4,-0.8 2.65,-1.05 2.85,-0.55c0.15,0.55 0.9,0.95 1.6,0.95c2.45,0 12.7,11.75 12.55,14.5c0,0.25 0,0.75 0,1c0,0.3 1.2,-0.25 2.65,-1.2c1.8,-1.2 2.5,-1.3 2.25,-0.45c-0.25,0.75 -2.7,2.6 -5.45,4.1c-2.7,1.55 -9.4,5.35 -14.85,8.5c-5.45,3.1 -10.55,5.4 -11.3,5.1c-0.8,-0.3 -1.15,-0.1 -0.85,0.4c0.35,0.5 -1.4,1.8 -3.8,2.9c-5.55,2.45 -5.3,1.85 -6.65,14.05c-1.05,9.55 -0.7,14.5 0.65,9.3c0.45,-1.75 0.9,-2 1.95,-1.1c0.75,0.6 1.15,1.5 0.85,1.95c-0.25,0.45 0.35,1.4 1.35,2.15c2.45,1.7 13.15,10.95 14.55,12.55c0.65,0.7 4,3.55 7.45,6.4c6.65,5.4 9.8,6.05 4.05,0.85c-1.85,-1.65 -4.3,-3.95 -5.45,-5.05c-1.15,-1.05 -2.3,-1.95 -2.55,-1.95c-1.15,0 -16.85,-16.2 -16.4,-16.95c0.3,-0.4 -0.5,-1.65 -1.7,-2.65l-2.25,-1.9l2,2.5l2,2.5l-2.85,-2.5c-2.15,-1.95 -2.65,-3.05 -2.15,-5c0.35,-1.35 0.6,-3.3 0.6,-4.35c0,-1.55 0.25,-1.6 1.7,-0.5c4.4,3.45 14.6,12.1 23.2,19.8c5.25,4.65 9.55,8.5 9.65,8.5c0.05,0.05 -0.2,1.85 -0.65,4.05c-0.4,2.2 -0.8,3.45 -0.9,2.8c-0.15,-1.75 -10.15,-10.85 -11.45,-10.45c-0.65,0.15 -0.8,0 -0.4,-0.45c0.4,-0.4 0,-1.55 -0.9,-2.55c-0.9,-1.05 -1.4,-1.85 -1.05,-1.85c1.3,0 8.3,5.25 10.4,7.8c1.25,1.5 2.25,2.2 2.25,1.55c0.05,-1.2 -3.65,-4.5 -13.45,-12.05c-3.3,-2.55 -5,-3.5 -3.8,-2.2c1.55,1.75 1.95,2.85 1.25,3.9c-0.8,1.3 -1.35,0.8 -1.1,-1.1c0,-0.3 -2.95,-3.45 -6.65,-7l-6.7,-6.4l6.3,6.55c3.45,3.6 6,6.8 5.7,7.1c-0.3,0.35 3.3,3.85 8,7.85c9.6,8.15 11.5,10.4 11.5,13.7c0,2.3 2.35,3.2 3.45,1.35c0.35,-0.5 6.55,-4.1 13.8,-8c7.3,-3.9 13.95,-7.5 14.75,-8.05c0.85,-0.5 3.1,-1.7 5,-2.65c1.95,-0.95 3.8,-2.15 4.15,-2.7c0.35,-0.5 1.15,-0.6 1.75,-0.2c0.6,0.35 1.1,0.2 1.1,-0.4c0,-0.6 0.8,-1.4 1.75,-1.75c0.95,-0.3 2.45,-1.15 3.25,-1.85c1.75,-1.45 7.15,-4.55 15.3,-8.7c3.95,-2 5.65,-3.4 5.3,-4.35c-0.3,-0.75 -0.15,-1.4 0.25,-1.4c0.45,0 0.75,-1.35 0.65,-3.05c-0.1,-1.65 0.2,-3.25 0.65,-3.55c0.5,-0.3 0.4,-1.35 -0.15,-2.4c-0.55,-1.05 -1,-2.8 -1,-4c0,-1.25 -0.45,-1.85 -1.05,-1.45c-0.6,0.35 -2.1,-0.25 -3.25,-1.3c-1.2,-1.1 -4.15,-3.2 -6.55,-4.7c-6.9,-4.3 -23.65,-17.7 -23.65,-18.9c0,-0.65 -1.25,-1.15 -2.75,-1.2c-3.75,-0.05 -3.3,0.6 4,5.95c3.45,2.55 6.25,5.05 6.25,5.6c0,0.55 0.65,1 1.5,1c0.8,0 6.2,3.4 11.95,7.6l10.5,7.6l-14.75,7.45c-8.1,4.1 -15.15,7.95 -15.7,8.5c-0.55,0.6 1.85,-0.35 5.35,-2.1c3.5,-1.75 6.55,-2.95 6.85,-2.7c0.25,0.3 -1,1.25 -2.85,2.2c-1.85,0.95 -7.75,4.35 -13.15,7.6c-5.35,3.2 -9.95,5.85 -10.2,5.85c-0.95,0 -7.55,4.3 -7.15,4.65c0.4,0.45 11.8,-5.4 16.65,-8.55c3.6,-2.3 5.7,-3.55 12.85,-7.7c4.05,-2.3 5.95,-3.9 5.2,-4.4c-0.9,-0.5 -0.75,-0.9 0.45,-1.35c2.35,-0.9 2.7,-0.8 1.9,0.5c-0.45,0.75 -0.25,0.9 0.45,0.45c0.65,-0.4 0.9,-1.2 0.55,-1.75c-0.3,-0.55 0,-0.9 0.75,-0.8c2.75,0.4 3.95,-0.1 3.25,-1.2c-0.45,-0.75 -0.2,-1 0.75,-0.65c0.8,0.35 3.2,-0.25 5.3,-1.3c5.4,-2.65 6.65,-2.1 4.2,1.85c-0.45,0.75 -0.3,1.25 0.45,1.25c0.65,0 0.1,0.85 -1.2,1.85c-3.25,2.55 -11,6.4 -11.6,5.8c-0.25,-0.3 0.9,-1.2 2.55,-2.05c3.5,-1.85 5.15,-3.85 2.45,-3c-1.6,0.5 -1.6,0.4 0.15,-1c2.45,-2 0.75,-2.05 -1.9,-0.05c-1.3,0.95 -1.45,1.45 -0.55,1.45c0.9,0 0.75,0.5 -0.55,1.45c-2.25,1.7 -3.85,2 -2.95,0.55c0.35,-0.55 -0.05,-0.75 -0.9,-0.4c-0.8,0.3 -1.25,1.15 -1,1.85c0.3,0.7 -0.3,1.55 -1.3,1.9c-1,0.35 -2.45,0.95 -3.3,1.3c-0.8,0.35 -0.35,-0.3 1,-1.45c3.2,-2.75 2.1,-2.8 -2.45,-0.1c-3.85,2.3 -4.55,3.15 -1.8,2.3c2,-0.65 -0.35,1.7 -4.8,4.8c-1.35,0.95 -1.9,1.7 -1.3,1.75c0.65,0.05 2.45,-1 4,-2.3c3.25,-2.75 11.35,-7 12,-6.35c0.2,0.25 -2.85,2.35 -6.85,4.75c-4,2.35 -8.85,5.2 -10.75,6.3c-1.85,1.1 -3.05,1.5 -2.65,0.85c1.1,-1.8 0.55,-1.6 -9.05,3.75c-4.85,2.7 -8.75,5.45 -8.6,6.05c0.2,0.65 -0.15,0.85 -0.7,0.55c-1.45,-0.9 -5.25,1.35 -4.45,2.6c0.4,0.7 -0.05,0.85 -1.3,0.45c-1.05,-0.35 -2.75,0.05 -3.85,0.95c-1.85,1.5 -1.85,1.5 0.4,0.4c2.95,-1.4 4.05,-0.5 1.2,1c-1.15,0.65 -1.8,1.65 -1.45,2.2c0.4,0.7 -0.2,0.85 -1.7,0.45c-1.35,-0.3 -1.85,-0.3 -1.15,0c0.7,0.3 1,1 0.7,1.5c-0.8,1.25 -0.25,1.15 3.4,-0.65c3.65,-1.85 4.15,-2.85 0.9,-2c-2.35,0.65 -0.5,-0.45 24.6,-14.45c8.35,-4.7 16.75,-9.7 18.65,-11.15c4.45,-3.35 16.85,-9.6 15.25,-7.65c-0.7,0.8 -1,1.75 -0.65,2.05c0.3,0.3 -0.3,0.5 -1.3,0.4c-1,-0.1 -1.7,0.4 -1.55,1.05c0.1,0.7 -0.35,1 -1.05,0.75c-0.7,-0.3 -2.15,0.2 -3.25,1.1c-1.9,1.5 -1.9,1.55 0.3,0.45c1.25,-0.6 2.25,-0.85 2.25,-0.55c0,0.5 -5.6,3.6 -6.5,3.55c-2.15,-0.05 -2.55,0.15 -2,1c0.35,0.55 -0.35,1 -1.5,1c-1.35,0 -1.85,0.4 -1.4,1.15c0.4,0.7 0.25,0.9 -0.4,0.5c-0.55,-0.4 -1.3,-0.3 -1.6,0.2c-0.3,0.5 -4.4,2.8 -9.15,5.1c-4.7,2.35 -8.85,4.9 -9.15,5.65c-0.25,0.75 -0.9,1.15 -1.4,0.85c-0.5,-0.3 -0.9,-0.05 -0.9,0.6c0,0.65 -0.7,0.9 -1.55,0.55c-1,-0.35 -1.3,-0.2 -0.85,0.6c0.5,0.75 0.15,0.95 -1,0.5c-0.95,-0.4 -1.45,-0.3 -1.15,0.2c0.3,0.5 -0.15,1.15 -1,1.5c-0.9,0.3 -1.3,0.15 -0.95,-0.4c0.35,-0.55 -0.05,-0.7 -0.9,-0.4c-0.85,0.35 -1.45,1.1 -1.3,1.7c0.1,0.6 -0.9,1.15 -2.3,1.2c-1.35,0.05 -3.4,0.65 -4.5,1.35c-1.9,1.2 -1.9,1.2 0.25,0.65c3.85,-1.1 2.5,0.2 -3.85,3.5c-3.35,1.7 -5.85,2.7 -5.5,2.15c0.35,-0.55 0.1,-1.15 -0.55,-1.35c-0.8,-0.3 -0.9,-1.1 -0.4,-2.35c0.5,-1.1 0.9,-2.55 0.95,-3.3c0.05,-0.75 2.8,-2.8 6.1,-4.6c9.8,-5.3 15.05,-8.55 14,-8.5c-0.55,0 -5.25,2.4 -10.5,5.35c-5.2,2.95 -9.7,5.15 -10,4.9c-0.65,-0.6 3.9,-4.3 5.35,-4.3c1.35,-0.05 6.55,-3.95 5.35,-4c-0.45,0 -2.85,1.15 -5.25,2.6c-2.45,1.4 -4.45,2.2 -4.45,1.75c0,-0.5 2.6,-2.3 5.75,-4.05c9.2,-5.1 10.55,-6.75 1.75,-2.15c-4.4,2.25 -8.45,4.65 -9,5.25c-1.45,1.65 -2.65,1.4 -6,-1.25c-1.95,-1.5 -2.3,-2.1 -1.05,-1.7c1.9,0.6 1.9,0.6 0.1,-1.4c-2,-2.2 -4.15,-2.85 -2.95,-0.9c0.45,0.75 0.25,0.9 -0.45,0.45c-0.65,-0.4 -0.95,-1.15 -0.65,-1.6c0.3,-0.5 -0.25,-1.45 -1.25,-2.2c-2.25,-1.7 -6.15,-6.4 -4.5,-5.4c2,1.15 1.45,-0.2 -1.35,-3.35c-1.45,-1.6 -3.1,-2.75 -3.75,-2.5c-0.65,0.2 -3.15,-1.4 -5.65,-3.6c-2.45,-2.2 -5,-3.75 -5.7,-3.5c-1.55,0.6 -2.4,-0.65 -1.5,-2.15c0.4,-0.6 5.2,-3.3 10.7,-6.05c5.5,-2.75 11.35,-5.75 13,-6.6c1.65,-0.9 3.5,-1.65 4.1,-1.65c0.6,0 1.9,-0.9 2.9,-2c1,-1.1 2.4,-2 3.05,-2c0.7,0 1.45,-0.35 1.6,-0.8c0.55,-1.25 8.6,-6.4 15.85,-10.15c3.6,-1.8 7.15,-3.95 7.95,-4.7c4.55,-4.25 -9.1,1.85 -14.15,6.35c-2.1,1.9 -3.3,1.15 -5.75,-3.5c-1.1,-2.05 -3.85,-5.65 -6.2,-8.05c-4.15,-4.3 -4,-7.15 0.4,-7.15c3,0 -8.15,-13.8 -12.25,-15.15c-0.9,-0.3 -0.75,-0.8 0.4,-1.75c1.35,-1.15 1.6,-1.1 1.6,0.05c0,0.75 0.9,1.95 2.05,2.65c1.8,1.1 2,1.05 1.75,-0.5c-0.4,-2.4 -3.85,-4.2 -6,-3.15c-2.4,1.2 -3.65,1 -1.55,-0.25c1,-0.55 1.5,-1.5 1.1,-2.1c-0.4,-0.65 -0.2,-0.8 0.5,-0.4c0.65,0.4 1.15,0.25 1.15,-0.35c0,-0.55 -0.5,-1.05 -1.05,-1.05c-0.6,0 -0.75,-0.5 -0.35,-1.15c0.45,-0.7 0.25,-0.9 -0.45,-0.45c-0.65,0.4 -1.15,1.4 -1.15,2.2c0,1.2 -0.25,1.25 -1.4,0.2c-0.85,-0.85 -1,-1.55 -0.35,-1.95c0.55,-0.35 0.75,-1.1 0.4,-1.6c-0.35,-0.55 -0.05,-1.45 0.6,-2c1.75,-1.3 4.95,-2.4 4.35,-1.45c-0.25,0.45 -0.05,1.45 0.45,2.25c0.7,1.1 0.9,0.8 0.95,-1.25c0,-1.45 -0.45,-2.95 -1,-3.3c-0.55,-0.35 -1,-1.95 -1,-3.6c0,-2.3 -0.4,-2.9 -1.75,-2.7c-1.05,0.2 -1.65,-0.25 -1.5,-1c0.2,-0.75 -0.15,-1.05 -0.75,-0.7c-0.55,0.35 -1,-0.1 -1,-0.95c0,-0.85 -0.4,-1.55 -0.9,-1.55c-0.5,0 -0.4,1.35 0.2,3c0.65,1.65 1.5,3 2,3c0.45,0 0.15,0.7 -0.75,1.55c-3.75,3.8 -6.8,-0.55 -5.45,-7.9c0.35,-2.1 0.55,-6.3 0.4,-9.25c-0.25,-6 0.55,-6.55 4.5,-3.3c2.45,2 2.45,2.05 0.25,1.6c-1.25,-0.3 -2.25,-0.1 -2.25,0.4c0,0.9 1.4,1.3 3.75,0.95c0.7,-0.05 1.25,0.35 1.25,0.9c0,0.6 0.5,1.05 1.05,1.05c0.6,0 0.8,-0.45 0.45,-1c-1.25,-2 1.1,-0.9 4.15,2c1.75,1.6 4.9,3.9 7,5.05c3.55,1.9 11.1,6.85 15.85,10.4c1.9,1.4 1.85,1.45 -1.2,1.5c-1.75,0.05 -3.45,0.5 -3.8,1.05c-0.35,0.6 -1.15,0.75 -1.7,0.35c-0.65,-0.4 -0.8,-0.2 -0.4,0.45c0.75,1.25 -1,5.25 -2.8,6.45c-0.6,0.4 -3.35,0.75 -6.1,0.75c-2.75,0.05 -5.8,0.65 -6.75,1.4c-2.5,1.9 -0.95,2.8 1.75,1c1.45,-0.95 4.1875,-0.3125 4.9,-0.85c0.7125,-0.5375 8.05,-1.15 9.85,-5c2.9,-6.05 16.65,-4.85 19.6,1.7c0.15,0.4 1.1,0.75 2.1,0.75c1,0 2.35,0.65 2.95,1.4c0.65,0.75 2.5,1.95 4.15,2.6c1.6,0.7 2.95,1.85 2.95,2.6c0,1.35 1.15,1.8 3.65,1.5c0.6,-0.05 2.5,1.2 4.25,2.8c1.7,1.6 3.1,2.7 3.1,2.4c0,-0.25 1.45,0.4 3.25,1.5c15.4,9.35 20.45,12.2 21.8,12.2c0.85,0 2.55,1.3 3.7,2.9c1.15,1.55 3.3,3.15 4.75,3.5c1.45,0.35 4.75,2.1 7.3,3.9c2.6,1.75 5.95,3.85 7.45,4.65c1.5,0.75 2.75,1.7 2.75,2.1c0,0.4 1.45,1.3 3.25,2c1.8,0.7 4.4,2.45 5.75,3.9c1.4,1.45 2.85,2.7 3.25,2.8c1.15,0.3 13.8,8.85 17.1,11.5l2.85,2.3l-12.35,6.6c-6.8,3.65 -16.15,8.6 -20.85,11.1c-11.6,6.1 -18.05,9.7 -21,11.75c-1.35,0.95 -4.65,2.9 -7.25,4.35c-17.15,9.55 -20.6,11.65 -19.15,11.65c1.25,0 13.4,-6.2 16.75,-8.5c1.15,-0.85 2.9,-1.5 3.85,-1.5c1,0 1.8,-0.45 1.8,-1c0,-0.55 2,-2.05 4.45,-3.25c2.4,-1.25 9.05,-5 14.75,-8.35c5.65,-3.4 11.3,-6.45 12.55,-6.85c1.25,-0.4 5.1,-2.35 8.5,-4.4c3.45,-2.05 8.75,-4.8 11.75,-6.15c3.05,-1.35 5.8,-2.9 6.2,-3.45c0.4,-0.55 1.1,0.1 1.6,1.4l0.85,2.4l0.6,-2.25c1.05,-3.85 -5.75,-9.8 -25.7,-22.6c-3.4,-2.2 -10.35,-6.7 -15.45,-10c-5.05,-3.3 -12.1,-7.9 -15.65,-10.2c-3.5,-2.25 -7.4,-4.45 -8.55,-4.85c-1.2,-0.35 -5.4,-2.75 -9.3,-5.3c-3.9,-2.55 -8.3,-5.3 -9.8,-6.15c-6.95,-3.9 -18.2,-10.85 -27,-16.65c-5.35,-3.5 -10.15,-6.35 -10.75,-6.35c-0.6,0 -1.05,-0.4 -1.05,-0.9c0,-0.5 -3.7,-3.05 -8.25,-5.7c-4.55,-2.65 -8.4,-5.2 -8.6,-5.6c-0.15,-0.45 -0.95,-0.8 -1.75,-0.8c-0.75,0 -1.4,-0.4 -1.4,-0.9c0,-0.5 -1.3,-1.35 -2.85,-1.9c-1.6,-0.55 -3.85,-2.05 -5,-3.3c-1.2,-1.25 -2.85,-2.4 -3.75,-2.5c-3.65,-0.55 -4.05,-1.25 -3.95,-6.35c0.05,-3.35 0.6,-5.5 1.55,-6.1c1,-0.6 1.1,-0.9 0.25,-0.95c-0.7,0 -1.25,-0.5 -1.25,-1.05c0,-0.6 0.45,-0.8 1,-0.45c0.55,0.35 1,0.15 1,-0.45c0,-0.55 -0.45,-1.05 -1,-1.05c-0.6,0 -1,-4.3 -1,-10.85c0,-12.1 -0.65,-13.45 -8.25,-16.6c-6.6,-2.75 -7.15,-2.55 -20.5,7.15c-3.95,2.9 -7.45,5.3 -7.75,5.3c-0.25,0 -1.4,0.9 -2.5,2c-2.05,2.05 -17.2,-5.8 -18.7,-9.65c-0.3,-0.75 -0.9,-1.1 -1.35,-0.8c-0.8,0.45 -8.65,-4 -9.95,-5.65c-0.25,-0.35 -1.6,-0.95 -3,-1.3c-3.45,-0.95 -1.1,0.9 9,7.2c4.15,2.6 10.35,6.55 13.8,8.8l6.35,4.15l-3,2.15c-1.6,1.15 -3.4,2.1 -3.95,2.1c-0.6,0 -1.2,0.35 -1.35,0.75c-0.2,0.4 -3.4,2.7 -7.1,5.1c-5.95,3.85 -6.75,4.75 -6.75,7.5c0,1.75 -0.3,4.1 -0.6,5.2c-0.4,1.55 0.1,2.35 2.05,3.25c2.2,1 2.4,1.45 1.45,3c-2.8,4.45 -5.7,-1.6 -4.6,-9.55c2.95,-21.95 -18.85,-26.45 -46.15,-9.55c-2.9,1.85 -4.35,0.65 -1.65,-1.35c5.1,-3.85 22.5,-11.5 24.7,-10.9l2.3,0.6l-2.15,-1.6c-1.8,-1.3 -2.05,-2.05 -1.3,-4.65c1.4,-4.85 2.95,-17.05 4.45,-35.35c0.75,-9.4 1.5,-17.65 1.7,-18.4c0.15,-0.7 -0.25,-1.5 -0.95,-1.75c-0.75,-0.3 -1.3,0.45 -1.4,1.85zm74.55001,45.6c0.45,0.4 1.75,0.75 2.95,0.75c1.2,0 2.05,0.55 1.9,1.2c-0.1,0.65 1.3,1.95 3.2,2.85l3.45,1.65l-0.5,8.15c-0.25,4.5 -0.65,14 -0.85,21.15c-0.2,7.15 -0.4,14.05 -0.45,15.3c-0.05,1.3 -0.5,2.05 -1,1.75c-0.5,-0.3 -0.8,-1.7 -0.65,-3.05c0.15,-1.4 -0.1,-2.5 -0.6,-2.5c-0.45,0 -0.85,-0.75 -0.85,-1.65c0,-0.95 -0.75,-2.55 -1.7,-3.6c-1.5,-1.6 -1.5,-2 -0.25,-2.9c1.15,-0.8 0.95,-0.9 -0.8,-0.55c-1.3,0.3 -2.3,0 -2.35,-0.65c-1.35,-12.55 -0.75,-20.2 1.8,-22.9c3.35,-3.45 1.65,-3.65 -2.3,-0.25c-5.8,5.05 -43.05,29.5 -44.9,29.5c-2.55,0 -6.5,-3.9 -6.5,-6.35c0,-1.9 0.1,-1.9 1.3,-0.3c1.7,2.4 8.1,3.8 9.85,2.15c0.75,-0.7 5.65,-4.15 10.85,-7.7c18.25,-12.45 27.5,-19.05 27.85,-19.95c0.15,-0.45 0.85,-0.85 1.5,-0.85c0.65,0 2.75,-1.35 4.65,-3c5.4,-4.65 2.2,-3.5 -4.5,1.55c-3.3,2.55 -7.35,5.3 -9,6.15c-1.65,0.85 -3.2,1.9 -3.5,2.25c-0.25,0.4 -7,5.3 -15,10.9c-16.15,11.3 -18.5,12.05 -22.05,7.1c-2.55,-3.6 -2,-4.55 4.9,-8.55c2.55,-1.5 8.05,-5.3 12.15,-8.4c4.15,-3.1 9.55,-6.9 12,-8.4c2.5,-1.55 7.45,-4.75 11,-7.2c6.9,-4.65 7.25,-4.8 8.4,-3.65zm-1.05,20.5c-0.7,3.6 -2.25,6.05 -2,3.1c0.1,-1.3 -0.45,-1.8 -1.85,-1.7c-1.65,0.15 -1.5,-0.2 1,-2.2c3.75,-3.05 3.55,-3.1 2.85,0.8zm-88.85001,3.75c-2.95,3.1 -10.45,6.5 -12.6,5.8c-1.2,-0.4 12.55,-8.65 14.55,-8.75c0.5,-0.05 -0.35,1.3 -1.95,2.95zm81.10001,1.25c0.05,1.25 1.8,6.25 3.85,11.15l3.75,8.9l-0.7,10.35c-0.35,5.7 -0.9,10.35 -1.2,10.35c-0.7,0 -6.4,-4.05 -8.8,-6.25c-1.05,-1 -3,-2.1 -4.25,-2.4c-1.25,-0.3 -2.25,-1 -2.25,-1.5c0,-0.55 -0.45,-0.7 -1,-0.35c-0.6,0.4 -0.75,-1.15 -0.35,-4.2c0.35,-2.65 0.3,-4.5 -0.05,-4.15c-0.4,0.35 -0.85,1.9 -1.05,3.5c-0.15,1.55 -0.35,3.2 -0.45,3.6c-0.05,0.4 -1.95,1.75 -4.25,3c-6,3.3 -7.45,4.15 -9.25,5.7c-2.4,1.95 -2.45,1.55 -1.85,-10.2l0.55,-10.75l8.6,-5.65c4.7,-3.15 9.15,-5.7 9.85,-5.7c0.7,0 1.25,-0.5 1.25,-1.15c0,-0.8 6.55,-6.5 7.5,-6.5c0,0 0.05,1 0.1,2.25zm-28.95,22.5c-0.3,2.6 -0.55,7.1 -0.6,10c-0.05,6.15 -0.65,6.35 -7.45,2.75c-5.55,-2.95 -6.7,-3.15 -4.05,-0.75c2.7,2.4 6.55,4.3 9.2,4.5c3,0.25 3.95,-0.45 -11.3,8.25c-7.45,4.25 -13.3,8 -13.05,8.25c0.5,0.5 9.95,-4.5 19.85,-10.55c3.2,-1.9 6,-3.3 6.25,-3c1,0.95 -0.8,6.8 -2.05,6.8c-0.7,0 -1.5,0.55 -1.8,1.25c-0.4,0.95 -0.7,1 -1.35,0.05c-0.55,-0.8 -1.35,-0.9 -2.35,-0.25c-1.2,0.75 -1.2,0.9 -0.05,0.95c0.9,0 0.6,0.7 -0.9,2c-1.8,1.6 -2.55,1.75 -3.15,0.75c-0.6,-0.9 -0.8,-0.85 -0.85,0.4c0,1.9 -1.9,3.65 -4.6,4.2c-3.05,0.55 -5.75,1.85 -7.9,3.75c-1.1,1 -3.35,2.95 -5,4.4l-3,2.6l3.5,-1.7c3.1,-1.5 16.7,-9.2 25.85,-14.7l3.35,-2l-0.65,10.4c-0.8,12.6 -3.45,19.2 -7.85,19.7c-1.5,0.2 -2.7,0.75 -2.7,1.25c0,1.55 2.65,1.1 6.45,-1.15l3.55,-2.1l0,2.6c0,1.85 -0.85,3 -3.05,4.15c-1.95,1 -2.95,2.2 -2.75,3.25c0.4,1.95 2.95,2.3 3.55,0.45c0.3,-0.85 -0.2,-1.05 -1.4,-0.6c-1.5,0.55 -1.6,0.4 -0.6,-0.7c1.85,-1.95 4.1,0.35 2.35,2.4c-0.8,1 -0.85,1.7 -0.15,2.1c0.6,0.4 1.05,1.65 1.05,2.8c0,1.65 -0.25,1.9 -1.2,0.95c-1.75,-1.75 -3.3,-1.5 -1.8,0.3c2.15,2.55 -0.7,1.7 -3.45,-1.05c-2.75,-2.75 -3.5,-4.5 -1.05,-2.45c2.2,1.8 2.95,0.6 0.9,-1.45c-0.9,-0.9 -2.3,-1.4 -3.1,-1.1c-0.8,0.3 -2.2,0.55 -3.1,0.55c-1.2,0 -1,0.45 0.85,1.7c1.35,0.95 3.8,2.95 5.4,4.45c1.95,1.8 3.35,2.45 4.1,1.8c0.7,-0.55 1.55,-0.45 2.25,0.25c1.3,1.3 1.45,0.2 1.45,-9.45c0,-2.6 0.3,-4.75 0.7,-4.75c0.35,0 0.5,-1.45 0.25,-3.25c-0.3,-2.75 0.1,-3.5 2.7,-5.05c1.7,-1 4.2,-3.7 5.6,-6.1c2.15,-3.7 2.85,-4.2 5.4,-3.85c1.55,0.25 3.15,-0.05 3.55,-0.65c0.4,-0.7 -0.3,-1.1 -1.9,-1.1c-1.4,0 -2.55,-0.35 -2.55,-0.85c0,-1.65 1.25,-2 3.1,-0.85c1.4,0.9 2.15,0.85 3.1,-0.1c0.95,-0.95 0.6,-1.2 -1.65,-1.2l-2.85,0l3.8,-3c3.8,-3.05 4.65,-3.35 7.65,-3.05c0.95,0.05 2,-0.4 2.4,-1.05c0.55,-0.9 0.1,-1.05 -1.65,-0.6c-2.3,0.55 -2.3,0.55 -0.45,-0.85c3.45,-2.55 0.75,-1.55 -4.65,1.75c-6.45,4 -7.45,5 -13.75,13.65c-7.15,9.8 -8.5,10.05 -7.55,1.4c0.4,-3.7 1.15,-7.55 1.65,-8.5c0.6,-1.15 0.55,-1.75 -0.1,-1.75c-1.25,0 -1.25,-6.65 -0.05,-9.5c0.45,-1.1 0.9,-1.65 0.95,-1.25c0.05,0.7 1.65,-0.2 9.1,-4.95c4.6,-2.9 5.95,-4.15 5.95,-5.5c0,-0.65 -0.7,-0.5 -1.75,0.4c-0.95,0.85 -2.3,1.35 -3,1.1c-0.7,-0.25 -1.25,0.05 -1.25,0.7c0,0.6 -0.4,0.85 -0.9,0.55c-0.5,-0.3 -1.15,0.15 -1.45,0.95c-0.35,0.85 -1.2,1.5 -2,1.5c-0.75,0 -1.95,0.65 -2.65,1.5c-1.9,2.3 -3,1.8 -3,-1.5c0,-2.5 0.65,-3.25 4.25,-5c2.35,-1.15 5.75,-2.95 7.55,-4.05c1.85,-1.1 3.7,-1.75 4.2,-1.45c0.45,0.3 1,0 1.2,-0.65c0.45,-1.35 2.3,-0.15 16.3,10.65c5,3.85 10.75,7.9 12.75,8.95c3.5,1.85 7.5,8.55 9.05,15.05c0.4,1.65 0.5,1.55 0.6,-0.5c0.1,-1.95 0.35,-2.2 1.05,-1c0.75,1.2 1.2,1.25 2.2,0.25c1.8,-1.8 3,-1.55 6.1,1.1c3.1,2.7 3.45,4.15 1.2,5.05c-0.85,0.3 -1.3,1.05 -0.95,1.6c0.95,1.55 -0.1,1.25 -6.8,-2.15c-4.7,-2.4 -7.95,-3.25 -13.45,-3.65l-7.25,-0.45l0,-3.4c0,-4.3 -0.9,-4.2 -3.95,0.25c-1.35,2 -3.5,4.1 -4.75,4.7c-1.25,0.55 -2.3,1.9 -2.3,2.9c0,1.05 0.4,1.7 0.85,1.4c1.25,-0.75 7.5,6.05 6.7,7.3c-0.35,0.6 -1.15,1.1 -1.75,1.1c-0.6,0 -5.4,2.7 -10.7,6.05c-5.3,3.3 -10.5,6.55 -11.6,7.25c-1.05,0.65 -4.4,2.7 -7.35,4.55c-4.2,2.55 -5.6,3 -6.25,2c-0.6,-1 -0.95,-0.9 -1.45,0.45c-0.5,1.35 -1,1.5 -2,0.65c-1.65,-1.35 -3.45,-0.45 -3.45,1.75c0,1.05 0.65,1.35 2,1c1.1,-0.3 2.25,-0.05 2.6,0.5c0.35,0.55 1.9,-0.25 3.5,-1.8c1.6,-1.5 3.15,-2.45 3.5,-2.15c0.35,0.35 -0.65,1.85 -2.25,3.3c-3.25,3 -1.75,2.4 4.35,-1.7c2.3,-1.6 4.65,-2.85 5.25,-2.85c0.55,0 0.95,-0.55 0.8,-1.25c-0.15,-0.7 0.5,-1.15 1.35,-1c0.9,0.15 2.2,-0.4 2.9,-1.25c0.7,-0.8 2,-1.5 2.85,-1.55c2,0 6.15,-3.35 6.15,-4.9c0,-0.65 -0.5,-0.85 -1.15,-0.45c-0.75,0.45 -0.9,0.25 -0.4,-0.55c0.45,-0.65 1.65,-1 2.75,-0.7c1.1,0.3 1.75,0.25 1.4,-0.05c-0.3,-0.35 0.4,-1.45 1.55,-2.45c2.55,-2.2 3.55,-2.4 1.9,-0.4c-1.35,1.6 -0.5,3.95 1.05,3c0.5,-0.3 0.7,-1 0.4,-1.45c-0.65,-1.05 2.95,-3.2 3.85,-2.3c0.35,0.35 0.65,-0.15 0.65,-1.1c0,-1.3 0.55,-1.6 2.25,-1.1c1.3,0.35 1.75,0.3 1.05,-0.2c-3.05,-2.15 5.85,-8.4 10.8,-7.65c6.55,1.05 7.6,2.25 3.75,4.45c-1.85,1.1 -4,2.4 -4.85,2.9c-0.8,0.55 -3.3,1.95 -5.5,3.15c-2.2,1.15 -8.4,4.8 -13.8,8.05c-5.35,3.2 -10.25,5.55 -10.9,5.2c-0.65,-0.4 -0.85,-0.25 -0.45,0.35c0.35,0.55 -3.6,3.5 -9.1,6.75c-5.35,3.2 -11.15,6.6 -12.85,7.6l-3.1,1.85l-4.05,-3.45c-2.25,-1.95 -4.7,-3.25 -5.5,-2.95c-0.8,0.3 -2.05,-0.25 -2.8,-1.25c-1.15,-1.55 -1.15,-1.6 0.05,-0.55c2.7,2.4 3.45,1.2 0.8,-1.25c-2.75,-2.55 -4.4,-3.3 -3.3,-1.5c1.15,1.9 -0.15,1 -2.6,-1.75l-2.4,-2.75l2.5,1.9c3.55,2.7 -5.6,-6.15 -18.25,-17.65c-5.85,-5.35 -11.25,-9.75 -11.9,-9.75c-1.9,0 -0.1,-1.45 7.15,-5.85c6.15,-3.75 9.35,-4.5 7.05,-1.7c-0.6,0.7 -0.8,2 -0.5,2.8c0.3,0.85 0.1,1.85 -0.45,2.2c-0.65,0.4 -0.85,0.05 -0.5,-0.9c0.35,-0.85 0.15,-1.55 -0.45,-1.55c-1.3,0 -0.55,4.35 0.85,4.85c0.55,0.15 1,1 1,1.85c0,0.85 1.8,3.1 4,5.05c2.25,1.95 3.7,3.95 3.3,4.6c-0.4,0.7 -0.1,0.65 0.85,-0.1c1.25,-1 1.95,-0.9 3.7,0.6c2.55,2.2 2.7,3.15 0.6,3.15c-1.25,0 -1.3,0.25 -0.25,1.4c0.7,0.75 1.5,1.2 1.7,1c0.25,-0.2 1,0.1 1.75,0.75c0.75,0.6 1.35,0.8 1.35,0.4c0,-0.35 1.35,0.15 3,1.1c1.65,1 3,2.15 3,2.6c0,0.5 -0.45,0.6 -1,0.25c-0.55,-0.35 -1,-0.25 -1,0.2c0,1.25 3.95,3.45 5,2.8c0.5,-0.3 1.6,0.7 2.4,2.2c1.35,2.45 2.2,1.9 1.7,-1c-0.1,-0.5 0.3,-0.55 0.9,-0.2c0.55,0.35 1,0.25 1,-0.2c0,-1.3 -3.95,-3.45 -5.05,-2.75c-0.55,0.3 -0.9,0.15 -0.7,-0.35c0.25,-0.95 -5.8,-6.5 -20,-18.45l-6.25,-5.25l2.75,-2.25c1.8,-1.45 2.25,-2.25 1.25,-2.25c-1.05,0 -1.15,-0.25 -0.35,-0.75c0.65,-0.45 1.35,-1.4 1.5,-2.2c0.4,-1.7 0.85,-2.4 4.6,-7.05c1.55,-1.95 2.8,-4.2 2.8,-5c-0.05,-0.85 0.7,-2.35 1.7,-3.45c1.35,-1.5 1.45,-2.1 0.5,-2.7c-1.1,-0.7 -0.45,-1.2 1.3,-1.05c0.3,0.05 1.1,-0.8 1.75,-1.85c0.95,-1.55 0.9,-1.8 -0.3,-1.3c-0.8,0.3 0.1,-2.1 2.25,-5.65c2.05,-3.45 4.25,-6.45 4.95,-6.7c0.7,-0.3 1.3,-1.4 1.3,-2.45c0,-1.1 0.35,-1.75 0.8,-1.45c0.45,0.25 1.9,-1.55 3.25,-4.05c2.15,-3.9 2.8,-4.45 5.2,-4.1c1.55,0.25 3.3,-0.2 3.9,-0.9c1.75,-2.15 2,-1.6 1.5,3.4zm39.8,1.2c0.85,1.6 1.55,4.1 1.55,5.5c0,1.4 0.45,2.55 0.95,2.55c0.55,0 0.75,0.6 0.45,1.35c-0.55,1.45 2.3,4.95 3.45,4.25c0.8,-0.5 0.75,11.15 -0.1,12c-0.35,0.3 -2.5,-0.9 -4.75,-2.7l-4.15,-3.35l0.3,-11.25c0.35,-12.7 0.25,-12.35 2.3,-8.35zm5.15,3.55c0.35,1.4 1.1,2.2 1.65,1.85c0.6,-0.4 0.75,-0.2 0.35,0.5c-1.2,1.9 -2.35,1.3 -3.45,-1.85c-0.6,-1.75 -0.65,-3 -0.1,-3c0.5,0 1.2,1.1 1.55,2.5zm11.85,17.95c-1.05,0.75 -2.1,1 -2.3,0.45c-0.15,-0.5 -0.75,-0.65 -1.25,-0.35c-0.55,0.35 -0.85,0 -0.65,-0.75c0.3,-1.65 3.9,-2.8 5.2,-1.65c0.55,0.5 0.15,1.4 -1,2.3zm-20.05,22.2c-0.65,3.5 -0.6,3.65 1.7,2.9c4.15,-1.3 8.85,-1.8 10.65,-1.1c3.05,1.2 -1.45,3.55 -6.75,3.55c-2.6,0 -5.45,0.65 -6.55,1.5c-1.65,1.25 -1.65,1.4 -0.2,0.9c1.2,-0.4 1.75,-0.1 1.75,1c0,2.25 -1.1,2 -4.7,-1.1l-3.1,-2.7l3.65,-4.25c4.45,-5.2 4.4,-5.2 3.55,-0.7zm21.85,5.4c2.95,1.35 3.45,2.4 1.65,3.5c-1.3,0.8 -8.9,-1.5 -8.9,-2.7c0,-0.4 -0.8,-0.5 -1.75,-0.15c-1.55,0.6 -1.6,0.45 -0.35,-1.05c1.55,-1.9 4.7,-1.75 9.35,0.4zm-16.25,2.95c-3,2.35 -4,2.5 -4,0.6c0,-1.6 1.5,-2.4 4.5,-2.5c1.8,-0.05 1.75,0.1 -0.5,1.9zm20,1.5c-1.1,1.3 -1,1.45 0.4,0.9c2.15,-0.85 4.8,1.6 9.8,8.95c4.25,6.15 4.3,9.2 0.15,4.15c-1.4,-1.65 -4.75,-5.35 -7.55,-8.2c-4.55,-4.65 -5.5,-7.3 -2.6,-7.3c0.65,0 0.55,0.55 -0.2,1.5z"/>
  <path id="svg_3" d="m110.60001,114.79998c1.15,0.95 3.5,2.75 5.2,4.05c1.7,1.3 3.05,2.9 2.9,3.5c-0.1,0.65 0.5,1.05 1.35,0.9c0.85,-0.15 5.1,2.55 9.5,6c12.4,9.75 15.45,11.9 15.45,11.05c0,-0.45 -1.45,-1.8 -3.25,-3.05c-1.8,-1.2 -4.6,-3.45 -6.25,-5c-3.95,-3.6 -15.35,-12.25 -16.15,-12.25c-0.35,0 -2.35,-1.6 -4.5,-3.5c-2.1,-1.95 -4.4,-3.5 -5.1,-3.45c-0.7,0 -0.3,0.8 0.85,1.75z"/>
  <path id="svg_4" d="m103.60001,126.49998c-1.65,1.7 -2.2,4.5 -0.85,4.5c0.85,0 3.4,-5.15 2.85,-5.7c-0.2,-0.25 -1.1,0.35 -2,1.2z"/>
  <path id="svg_5" d="m110.75001,131.69998c-0.95,0.25 -1.75,0.9 -1.75,1.45c0,1.4 4.25,0.6 4.75,-0.9c0.45,-1.3 0.05,-1.35 -3,-0.55z"/>
  <path id="svg_6" d="m90.30001,160.34999c0,2.4 -0.4,4.95 -0.8,5.7c-0.6,0.95 -0.35,1.1 0.9,0.6c1.2,-0.45 1.6,-0.25 1.3,0.6c-0.25,0.7 -0.95,1.15 -1.55,1c-0.65,-0.15 -1.15,0.2 -1.15,0.75c0,1.65 1.65,1.15 4.65,-1.35c1.6,-1.3 3.7,-2.8 4.7,-3.35c1.7,-0.9 1.45,-1.35 -2.6,-4.65c-5.55,-4.55 -5.45,-4.55 -5.45,0.7z"/>
  <path id="svg_8" d="m184.80002,6.79997l-0.3,6.5l-5,2.7c-2.75,1.5 -5.1,3.3 -5.25,4.1c-0.4,2.05 9.6,7.45 11.05,6c0.8,-0.8 0.7,-1.1 -0.35,-1.1c-0.8,0 -3.3,-1 -5.6,-2.2l-4.15,-2.2l4.45,-2.8c5.3,-3.35 5.35,-3.35 5.35,-0.75c0,1.15 0.45,1.8 1,1.45c0.55,-0.35 1,-1.55 1,-2.7c0,-2.35 2.6,-4.7 5.25,-4.75c0.95,-0.05 1.75,-0.45 1.75,-0.95c0,-0.45 0.9,-1.1 2,-1.4c1.1,-0.3 2,-0.15 2,0.35c0,0.45 4.35,2.95 9.65,5.5c5.3,2.55 13.05,6.65 17.25,9.15c11.05,6.55 11.15,6.6 10.5,4.9c-0.3,-0.75 -1.85,-1.95 -3.45,-2.65c-1.65,-0.65 -2.95,-1.6 -2.95,-2.05c0,-0.5 -0.35,-0.8 -0.75,-0.7c-0.4,0.15 -3.65,-1.45 -7.15,-3.55c-3.55,-2.05 -9.15,-5.05 -12.5,-6.6c-8.05,-3.7 -10.45,-5.5 -8.35,-6.3c0.85,-0.35 6.05,2 12.2,5.45c5.85,3.3 10.9,5.8 11.2,5.5c0.3,-0.3 -1.25,-1.5 -3.45,-2.6c-2.25,-1.15 -6.05,-3.4 -8.5,-5.1c-2.5,-1.65 -5.2,-3 -6.1,-3c-2.8,0 -1.75,-2 1.4,-2.65c1.65,-0.35 3,-1 3,-1.5c0,-1.2 -1.25,-1.05 -5.2,0.6c-3.3,1.35 -3.7,1.3 -7.2,-1.1c-2.1,-1.4 -3.95,-2.3 -4.25,-2.05c-0.25,0.25 1.25,1.55 3.35,2.85c3.4,2.1 3.6,2.4 1.55,2.65c-1.25,0.2 -2.25,0.7 -2.25,1.15c0,0.45 -1.2,1.15 -2.6,1.5c-1.45,0.35 -3.35,1.35 -4.15,2.15c-1.2,1.2 -1.7,1.25 -2.3,0.3c-1.05,-1.65 0,-4.05 1.4,-3.25c0.7,0.4 0.65,0.1 -0.1,-0.7c-3.55,-3.85 -1.45,-5.55 3.45,-2.85l3.8,2.1l-2.9,-2.5c-5.8,-5 -7.45,-4.35 -7.8,3.1z"/>
  <path id="svg_9" d="m276.65002,3.04997c-1,4.95 -0.75,20.95 0.3,20.95c0.5,0 1.05,-5 1.25,-11.1c0.3,-11.25 -0.4,-15.7 -1.55,-9.85z"/>
  <path id="svg_10" d="m282.00003,2.59997c0,1.6 -0.3,5.35 -0.65,8.4c-0.55,4.85 0.55,6.65 1.35,2.2c0.65,-3.45 0.65,-12.2 -0.05,-12.85c-0.35,-0.4 -0.65,0.65 -0.65,2.25z"/>
  <path id="svg_11" d="m170.20002,6.24997c-0.1,2.9 -0.6,9.5 -1.15,14.75c-0.55,5.2 -1,12.3 -1.05,15.75c0,3.95 -0.4,6.25 -1.1,6.25c-0.75,0 -0.8,0.45 -0.2,1.25c0.75,1.05 0.95,25.7 0.3,41.95c-0.35,8.4 0,14.9 0.8,14.45c0.4,-0.3 0.9,-6.05 1.05,-12.8c0.35,-13.2 0.5,-13.65 6.4,-15.75c1.8,-0.65 2.65,-0.65 2.5,0c-0.15,0.55 4.8,3.7 11,7.05c6.2,3.3 11.25,5.8 11.25,5.5c0,-0.65 -12.65,-7.85 -16.7,-9.55c-1.75,-0.7 -3.4,-1.95 -3.75,-2.8c-0.3,-0.8 -0.2,-1.3 0.2,-1.1c0.4,0.2 3.3,1.55 6.4,3c3.1,1.4 8.75,4.6 12.5,7.05c3.75,2.45 8.65,5.4 10.85,6.5c5.75,2.95 16.05,9.25 15.1,9.25c-1,0 -13.75,-6.6 -18.85,-9.7c-2.05,-1.25 -4.05,-2.3 -4.5,-2.3c-1.25,0.05 8.7,6.1 16.25,9.85c3.85,1.95 12.5,6.8 19.25,10.85l12.25,7.3l6.5,-3.15c3.6,-1.75 6.5,-3.55 6.5,-4.05c0,-1.7 -2.7,-1.85 -6.4,-0.25c-5.6,2.3 -5.55,1 0.05,-1.95c2.65,-1.35 4.2,-2.5 3.35,-2.5c-0.8,0 -2.6,0.6 -4,1.4c-3.35,1.9 -4.75,1.85 -5.3,-0.25c-0.25,-0.95 -0.5,0.6 -0.6,3.5c-0.1,6.25 0.5,6.1 -7.05,1.65c-5.7,-3.4 -8.55,-5.8 -3.95,-3.35c1.15,0.6 2.3,0.9 2.55,0.65c0.2,-0.25 -3.85,-2.8 -9.1,-5.75c-5.25,-2.9 -9.55,-5.6 -9.55,-6.05c0,-0.85 15.65,7.15 20.3,10.4c1.55,1.05 3.05,1.7 3.35,1.4c0.7,-0.7 -4.65,-4.05 -17.15,-10.65c-5.5,-2.9 -11.45,-6.35 -13.2,-7.65c-1.75,-1.35 -3.55,-2.4 -4,-2.4c-1.1,-0.05 -6,-3.95 -4.95,-4c1.2,0 21.3,10.75 26.15,14.05c5.55,3.75 14.6,8.2 15.25,7.55c0.3,-0.3 -2.1,-1.75 -5.3,-3.15c-3.2,-1.45 -7.45,-3.85 -9.4,-5.4c-1.95,-1.5 -6,-4 -9.05,-5.5c-9.8,-4.85 -21.95,-11.65 -22.55,-12.6c-0.7,-1.2 2.8,-1.25 4.1,-0.1c0.5,0.5 4.05,2.55 7.8,4.6c3.75,2 12.65,7.05 19.75,11.1c7.15,4.1 13.25,7.45 13.55,7.45c1.95,0 -13.75,-9.45 -29.15,-17.55c-12.3,-6.45 -15.35,-8.25 -18.9,-10.95c-7.3,-5.55 -1.1,-3.25 10.9,4.05c4.85,2.95 6.95,3.2 3.5,0.4c-2.35,-1.9 -23.25,-14.85 -28.85,-17.85c-1.5,-0.85 -2.1,-1.6 -1.4,-1.85c0.65,-0.2 3.7,1 6.75,2.75c6.65,3.8 7.35,3.15 0.85,-0.9l-4.6,-2.85l5.35,-2c8.45,-3.15 10.3,-3.65 11.75,-3.4c1.1,0.25 1.15,0.05 0.05,-1.15c-1.15,-1.2 -1.95,-1.15 -5.65,0.5c-2.35,1.05 -4.7,1.65 -5.25,1.3c-0.55,-0.35 -1,-0.2 -1,0.3c0,0.55 -2.6,2 -5.75,3.25c-6.65,2.65 -10.5,4.95 -8.2,4.95c0.8,0 2.1,-0.45 2.85,-0.9c1.2,-0.8 4.55,1.05 12,6.6c2.3,1.7 -1.7,0.8 -5.2,-1.15c-2.55,-1.4 -5.15,-2.55 -5.85,-2.55c-0.7,0 1.15,1.25 4.05,2.7c4.7,2.45 5.05,2.85 3.2,3.65c-1.6,0.7 -2.85,0.3 -5.65,-1.8c-4.2,-3.2 -4.9,-2.85 -4.6,2.3c0.2,3.75 -6.7,8.85 -8.35,6.15c-1.25,-2.05 -0.15,-39.2 1.15,-39.7c0.75,-0.3 1.35,-0.95 1.35,-1.45c0,-0.55 -0.45,-0.7 -1,-0.35c-0.55,0.35 -1,-0.4 -1,-1.7c0.05,-1.85 0.2,-2 1,-0.8c0.75,1.15 0.95,0.9 1,-1.2c0,-1.45 -0.35,-2.9 -0.75,-3.15c-0.45,-0.25 -0.4,-5.05 0.15,-10.6c0.55,-6.5 0.55,-10.5 -0.1,-11.15c-0.6,-0.6 -1,0.9 -1.1,4.35zm12.8,58.75001c1.4,1.1 2.15,1.95 1.7,2c-1.1,0 -6.7,-2.95 -6.7,-3.55c0,-1.1 2.7,-0.25 5,1.55zm15.45,5.9c3.15,3.35 2.85,4 -0.75,1.65c-3.35,-2.2 -9.95,-4.8 -9.25,-3.6c0.4,0.6 0.05,0.8 -0.9,0.4c-1.35,-0.5 -1.3,-0.85 0.55,-2.45c2.55,-2.2 5.5,-1.05 10.35,4zm-2.35,5.35c16.65,9.75 25,15 24.6,15.4c-0.45,0.45 -16.35,-8.15 -25.1,-13.6c-3.8,-2.35 -8.5,-4.8 -10.45,-5.5c-3.6,-1.25 -5.5,-3.55 -2.9,-3.55c0.8,0 7,3.25 13.85,7.25zm-3.45,-5c4.35,1.95 13.5,7.9 13,8.45c-0.3,0.25 -3.35,-1.1 -6.8,-3.05c-9.65,-5.4 -13.2,-8.5 -6.2,-5.4zm68.25001,34.15c-1.45,1.3 -10.9,5.5 -10.9,4.8c0,-0.95 7.7,-4.9 9.9,-5.1c0.8,-0.05 1.25,0.05 1,0.3z"/>
  <path id="svg_12" d="m0,7.44997c0,1.95 0.45,3.55 1,3.55c0.55,0 1,-1.3 1,-2.95c0,-1.6 -0.45,-3.2 -1,-3.55c-0.6,-0.35 -1,0.8 -1,2.95z"/>
  <path id="svg_13" d="m29.35,12.74997c0.45,0.7 0.3,1.25 -0.35,1.25c-0.6,0 -0.85,0.45 -0.55,0.95c0.35,0.55 1.25,0.7 2.1,0.4c0.9,-0.35 1.45,0.05 1.45,1.05c0,0.9 0.45,1.6 1.05,1.6c1.35,0 -0.35,-3.15 -2.7,-5.1c-1.1,-0.9 -1.45,-0.95 -1,-0.15z"/>
  <path id="svg_15" d="m192.60002,14.14997c0.3,0.5 3.75,2.5 7.65,4.5c10,5 14.9,8.25 14.25,9.35c-0.35,0.55 0.1,0.7 1.05,0.35c0.9,-0.35 1.95,-0.2 2.3,0.35c0.9,1.4 8,5.65 12.15,7.3c1.95,0.75 7.3,3.55 11.9,6.2c4.65,2.65 8.55,4.7 8.7,4.55c0.85,-0.85 -1.9,-2.9 -9.1,-6.75c-15.95,-8.55 -18.1,-9.75 -24.6,-13.75c-7.7,-4.7 -25.1,-13.35 -24.3,-12.1z"/>
  <path id="svg_16" d="m198.45002,13.89997c0.35,0.6 1.2,1.1 1.8,1.1c0.6,0 4.25,1.85 8,4.1c3.8,2.25 7.1,3.85 7.4,3.6c0.55,-0.55 -12.45,-8.2 -15.7,-9.2c-1.5,-0.5 -2,-0.35 -1.5,0.4z"/>
  <path id="svg_18" d="m190.85002,17.29997c1.2,1.45 1.15,1.7 -0.15,1.7c-0.9,0 -1.85,0.45 -2.2,1c-0.35,0.6 0.1,0.7 1.1,0.3c1.1,-0.4 1.5,-0.25 1.05,0.45c-0.4,0.6 0.65,1.75 2.35,2.6c1.65,0.85 2.75,1.1 2.45,0.6c-0.3,-0.55 -0.15,-0.95 0.4,-0.95c0.5,0 1.2,0.65 1.45,1.4c0.75,1.95 16.65,10.75 17.95,9.95c0.65,-0.4 0.75,-0.15 0.25,0.65c-0.6,1 -0.35,1.15 0.85,0.7c1,-0.4 1.65,-0.15 1.65,0.65c0,0.7 1.45,2.05 3.25,3c7.7,4 12.25,6.85 16.15,9.95c5.15,4.2 7.15,5.45 6.15,3.8c-0.4,-0.65 -3,-2.95 -5.75,-5.15c-2.75,-2.15 -4.5,-3.95 -3.95,-3.95c0.55,0 1.35,0.5 1.7,1.05c0.85,1.45 16.45,8.9 16.45,7.9c0,-0.4 -2.15,-1.8 -4.75,-3.05c-2.6,-1.25 -9,-4.85 -14.25,-8c-5.2,-3.15 -12.2,-6.95 -15.5,-8.45c-7.3,-3.3 -19.8,-10.45 -19.25,-11.05c0.2,-0.2 2.3,0.55 4.65,1.7c7.9,3.75 5.05,1.45 -4.2,-3.55c-5.05,-2.7 -8.6,-4.15 -7.85,-3.25z"/>
  <path id="svg_19" d="m225.35002,18.69997c0.35,0.35 3.7,2.3 7.4,4.35c3.7,2.05 6.65,4.2 6.5,4.8c-0.1,0.6 0.35,0.85 1,0.6c0.7,-0.25 3.65,1.1 6.6,3.05c5.3,3.45 7.15,4.2 7.15,2.75c0,-0.6 -10.35,-6.75 -18.1,-10.75c-1.05,-0.55 -1.9,-1.3 -1.9,-1.75c0,-0.4 -0.8,-0.75 -1.8,-0.75c-1,0 -2.7,-0.65 -3.75,-1.45c-1.95,-1.5 -4.4,-2.15 -3.1,-0.85z"/>
  <path id="svg_20" d="m217.20002,23.49998c1.6,1.65 14.2,8.55 15.05,8.25c0.55,-0.2 -0.75,-1.2 -2.9,-2.3c-2.1,-1.05 -4.05,-2.2 -4.35,-2.45c-0.25,-0.3 -2.3,-1.35 -4.5,-2.35c-2.2,-1 -3.7,-1.55 -3.3,-1.15z"/>
  <path id="svg_22" d="m273.50002,28.09998c-2.75,1.6 -7.8,4.4 -11.25,6.15c-3.45,1.7 -6.25,3.5 -6.25,3.95c0,0.45 4.15,-1.3 9.25,-3.95c5.1,-2.6 9.7,-4.9 10.25,-5.05c2.6,-0.85 -13.2,8.95 -16.15,10l-3.35,1.2l-0.1,7.55c-0.05,4.15 -0.2,8.55 -0.3,9.8c-0.35,3.05 1.05,2.85 7.45,-1.2c6.4,-4.1 5.9,-4.6 -1.1,-1.05c-5.75,2.95 -6.55,2.65 -1.45,-0.5c1.95,-1.2 3.3,-2.55 3,-3c-0.3,-0.5 0.4,-1.15 1.55,-1.5c1.15,-0.4 1.9,-0.85 1.7,-1.1c-0.25,-0.25 -2.3,0.25 -4.6,1.05c-6.1,2.15 -5.05,0.1 1.5,-2.9c3.1,-1.4 5.45,-2.8 5.15,-3.1c-0.25,-0.25 -3.05,0.65 -6.15,2c-4.55,2.05 -5.65,2.25 -5.65,1.05c0,-0.85 0.6,-1.5 1.4,-1.5c1.85,0 8.95,-3 8.35,-3.55c-0.25,-0.25 -2.15,0.25 -4.2,1.1c-2.05,0.85 -4.25,1.4 -4.9,1.15c-0.6,-0.2 1.05,-1.2 3.65,-2.2c2.6,-1 5.05,-2.25 5.4,-2.8c0.65,-1.1 0.45,-1 -5.95,1.7c-6.05,2.6 -4.3,0.35 2,-2.55c6.7,-3.05 16.2,-9.8 16.25,-11.5c0,-0.65 0.55,-1.4 1.25,-1.7c0.85,-0.35 0.75,-0.5 -0.25,-0.5c-0.8,-0.05 -3.75,1.3 -6.5,2.95z"/>
  <path id="svg_23" d="m186.00002,28.09998c0,0.5 0.7,0.9 1.5,0.9c0.85,0 1.5,0.5 1.5,1.05c0,0.6 0.45,0.8 1,0.45c0.55,-0.35 1.3,0.1 1.6,0.95c0.65,1.65 3.4,2.15 3.4,0.6c0,-1.2 -1.65,-2.25 -5.75,-3.65c-1.8,-0.65 -3.25,-0.75 -3.25,-0.3z"/>
  <path id="svg_24" d="m244.00002,34.04998c3,1.7 5.95,3.5 6.45,4c0.5,0.5 1.4,0.95 2,0.95c0.55,0 -1.45,-1.8 -4.45,-3.95c-3.05,-2.2 -6.4,-4 -7.5,-4c-1.2,0 0.15,1.2 3.5,3z"/>
  <path id="svg_25" d="m60.25001,34.09998c-3.25,2.1 -3.65,4.8 -0.45,2.9c4.15,-2.4 6.5,-5.05 4.45,-5c-0.4,0.05 -2.2,0.95 -4,2.1z"/>
  <path id="svg_26" d="m194.40002,34.14998c-0.45,0.8 -0.2,1 0.75,0.65c1.8,-0.7 9.15,3.55 8.1,4.7c-0.4,0.45 -0.2,0.5 0.5,0.1c0.7,-0.4 2.4,0.2 3.9,1.35c1.45,1.1 3.2,2.05 3.85,2.05c0.7,0 1.75,0.6 2.4,1.4c0.65,0.75 6.65,4.6 13.4,8.6c6.7,3.95 13.65,8.05 15.4,9.15c1.8,1.1 3.75,1.7 4.35,1.3c0.7,-0.4 -0.55,-1.45 -2.9,-2.5c-3.45,-1.55 -9.6,-5.35 -11.15,-6.95c-0.25,-0.3 -2.3,-1.4 -4.5,-2.5c-2.2,-1.1 -5.8,-3.1 -8,-4.45c-3.95,-2.45 -7.05,-4.25 -15.55,-8.9c-2.4,-1.3 -4.95,-3 -5.7,-3.75c-1.7,-1.7 -3.9,-1.8 -4.85,-0.25z"/>
  <path id="svg_28" d="m47,43.69998c0,2.3 0.45,4.45 1,4.8c1.3,0.8 1.3,-5.5 0,-7.5c-0.7,-1.1 -0.95,-0.4 -1,2.7z"/>
  <path id="svg_30" d="m5.45,42.04998c-0.85,1.4 -0.55,1.65 2.95,2.5c2.05,0.55 2.7,0.4 2.2,-0.4c-1.25,-2 -4.4,-3.25 -5.15,-2.1z"/>
  <path id="svg_31" d="m3,47.49998c0,1.35 0.45,2.5 1,2.5c0.55,0 1,-0.5 1,-1.05c0,-0.65 0.95,-0.85 2.25,-0.45l2.25,0.6l-2.35,-2.05c-3.1,-2.7 -4.15,-2.6 -4.15,0.45z"/>
  <path id="svg_32" d="m11.5,47.99998c-0.35,0.55 -0.05,1 0.7,1c0.7,0 2.45,0.3 3.8,0.6c2.4,0.55 2.45,0.5 0.55,-1.05c-2.2,-1.8 -4.15,-2 -5.05,-0.55z"/>
  <path id="svg_33" d="m18,52.74998c0,0.85 4.85,3.25 6.45,3.25c1.45,-0.05 -3.65,-3.95 -5.2,-4c-0.7,0 -1.25,0.35 -1.25,0.75z"/>
  <path id="svg_34" d="m8.55,56.94998c-0.35,0.55 0.75,1.65 2.35,2.5c4.25,2.2 4.8,1.95 2.1,-0.95c-2.55,-2.7 -3.55,-3.05 -4.45,-1.55z"/>
  <path id="svg_35" d="m25,57.99998c-1.25,0.8 -1.15,0.95 0.5,1c1.1,0 3.15,0.3 4.5,0.65c2.45,0.6 2.45,0.55 0.5,-1c-2.35,-1.85 -3.45,-2 -5.5,-0.65z"/>
  <path id="svg_36" d="m18.45,60.79998c-1.75,0.9 -2.4,1.7 -1.65,1.95c0.7,0.25 1.9,-0.1 2.65,-0.7c1.05,-0.9 1.95,-0.9 3.5,-0.1c2.5,1.35 2.75,-0.05 0.25,-1.6c-1.4,-0.85 -2.5,-0.75 -4.75,0.45z"/>
  <path id="svg_38" d="m202.35002,63.89998c3.8,2.25 7.25,4.1 7.75,4.1c0.5,0 0.9,0.4 0.9,0.9c0,0.5 1.05,1.15 2.35,1.5c1.3,0.3 4.7,2.15 7.5,4.1c2.8,1.9 5.3,3.5 5.5,3.5c0.6,0 22.55,12.65 23.95,13.8c0.85,0.7 1.8,0.6 3.15,-0.4c1.05,-0.75 3.3,-1.4 5,-1.4c3.9,-0.05 7.3,-1.95 3.55,-2l-2.5,-0.05l2.5,-1.55l2.5,-1.5l-2.5,0.7c-1.35,0.35 -4.2,1.5 -6.3,2.55c-3.4,1.75 -3.9,1.75 -5.3,0.4c-0.85,-0.85 -2.5,-1.55 -3.7,-1.55c-1.2,0 -4.15,-1.3 -6.55,-2.9c-2.4,-1.6 -6.1,-3.7 -8.25,-4.65c-2.1,-0.95 -3.55,-2.2 -3.2,-2.75c0.35,-0.55 0.15,-0.75 -0.4,-0.4c-0.5,0.35 -2.5,-0.45 -4.4,-1.75c-1.95,-1.3 -6.85,-4.05 -10.95,-6.1c-4.1,-2.05 -8.55,-4.55 -9.95,-5.5c-1.35,-0.9 -3.6,-2 -5,-2.4c-1.35,-0.4 0.6,1.1 4.35,3.35z"/>
  <path id="svg_39" d="m17,65.04998c-2,1.1 -2.75,1.95 -1.8,1.95c2.25,0 6.8,-2.1 6.8,-3.15c0,-1.25 -1.1,-0.95 -5,1.2z"/>
  <path id="svg_40" d="m247.00002,64.74998c0.05,0.65 3.3,2.75 15.5,10c1.65,0.95 3.75,2.55 4.65,3.55c0.95,1 2.05,1.9 2.5,2c0.5,0.1 0.75,0.45 0.65,0.8c-0.1,0.35 1.45,1.1 3.5,1.7l3.7,1.1l-3.5,-3c-4.8,-4.1 -24.65,-16.9 -26.2,-16.9c-0.45,0 -0.8,0.35 -0.8,0.75z"/>
  <path id="svg_42" d="m173.50002,77.39998c1.65,1.35 5.7,3.85 9,5.55c12.5,6.45 27.5,15.7 26.75,16.5c-0.4,0.5 -0.2,0.55 0.4,0.2c1.5,-0.85 15.4,7.45 14.65,8.7c-0.35,0.55 -0.15,0.65 0.45,0.3c1.85,-1.15 23.95,12.35 22.55,13.75c-0.4,0.4 -0.05,0.45 0.75,0.15c0.85,-0.35 2.4,0.2 3.5,1.25c1.05,1 2.75,2.1 3.75,2.5c0.95,0.35 11.4,7.2 23.25,15.15c11.8,7.95 21.45,14.1 21.45,13.7c0,-1.05 -5.05,-5.8 -5.5,-5.15c-0.15,0.25 -1.7,-0.75 -3.4,-2.25c-1.7,-1.5 -3.55,-2.75 -4.1,-2.75c-0.55,0 -1,-0.4 -1,-0.85c0,-0.45 -1.2,-1.35 -2.65,-2.05c-1.45,-0.65 -9.75,-5.9 -18.4,-11.65c-8.7,-5.75 -16.05,-10.45 -16.4,-10.45c-0.3,0 -3.6,-1.95 -7.3,-4.35c-3.7,-2.4 -10.45,-6.55 -14.95,-9.2c-4.5,-2.7 -8,-5.15 -7.8,-5.45c0.2,-0.3 -0.4,-0.65 -1.3,-0.7c-0.95,-0.1 -9.95,-4.9 -20.1,-10.7c-10.1,-5.85 -18.65,-10.6 -19,-10.6c-0.3,-0.05 -1.7,-0.9 -3.1,-2c-1.35,-1.1 -2.95,-1.95 -3.5,-1.95c-0.55,-0.05 0.35,1.05 2,2.35z"/>
  <path id="svg_43" d="m227.10002,83.09998c10.35,6.3 19.95,11.2 20.6,10.55c0.3,-0.3 -2.6,-2.05 -6.35,-3.9c-3.75,-1.85 -9.8,-5.3 -13.45,-7.55c-3.65,-2.3 -7.2,-4.2 -7.9,-4.2c-0.75,0 2.45,2.3 7.1,5.1z"/>
  <path id="svg_44" d="m278.00002,84.99998c0,0.55 0.4,1 0.85,1c0.5,0 4.85,2.6 9.75,5.8c11.6,7.6 11.4,7.5 11.4,6.25c0,-0.6 -0.8,-1.4 -1.75,-1.75c-0.95,-0.4 -3.9,-2.15 -6.5,-4c-2.6,-1.8 -5.25,-3.3 -5.85,-3.3c-0.6,0 -0.85,-0.7 -0.5,-1.55c0.3,-0.9 0.15,-1.3 -0.4,-0.95c-0.55,0.35 -2,-0.1 -3.2,-0.95c-2.6,-1.8 -3.8,-1.95 -3.8,-0.55z"/>
  <path id="svg_47" d="m254.00002,96.49998c-2.45,1.35 -3.8,2.4 -3,2.4c0.85,0 3.55,-1.05 6,-2.4c2.5,-1.35 3.85,-2.4 3,-2.4c-0.8,0 -3.5,1.05 -6,2.4z"/>
  <path id="svg_48" d="m259.00002,96.84998c-5.9,2.85 -8.2,4.3 -7.7,4.8c0.65,0.6 10.35,-4.3 11.2,-5.65c0.75,-1.2 0.8,-1.25 -3.5,0.85z"/>
  <path id="svg_50" d="m62.50001,106.39998c-1.2,0.65 -1.9,1.85 -1.7,2.9c0.2,1 -0.25,2.5 -0.95,3.4c-1.15,1.35 -1.1,1.55 0.05,1.15c0.8,-0.25 2.2,-1.9 3.1,-3.65c0.95,-1.7 2,-2.85 2.35,-2.5c0.35,0.35 0.65,0.15 0.65,-0.45c0,-1.75 -1.3,-2.05 -3.5,-0.85z"/>
  <path id="svg_51" d="m54.75,110.09998c-0.95,0.55 -1.75,1.75 -1.75,2.6c0,0.9 -0.7,2.4 -1.55,3.35c-1.4,1.55 -1.3,1.75 1,2.2c1.35,0.25 2.25,0.1 1.95,-0.4c-0.3,-0.45 -0.05,-0.85 0.55,-0.85c0.55,0 1.05,-0.7 1.05,-1.5c0,-0.85 0.55,-1.5 1.25,-1.5c0.9,-0.05 0.9,-0.25 -0.1,-0.9c-0.95,-0.6 -1.05,-1.05 -0.25,-1.55c2.85,-1.75 0.8,-3.2 -2.15,-1.45z"/>
  <path id="svg_52" d="m49.9,119.24998c-0.55,1.8 -0.8,5.75 -0.35,5.75c1.55,0 4.25,-4.5 3.1,-5.25c-1.15,-0.7 -2.55,-1 -2.75,-0.5z"/>
  <path id="svg_56" d="m6.5,163.64999c1.65,1.4 4.8,4.1 7,6c2.2,1.85 5.45,4.75 7.2,6.4c1.75,1.7 3.5,3 3.9,2.9c0.35,-0.05 0.95,0.25 1.3,0.75c0.3,0.5 3.55,3.1 7.1,5.85c3.6,2.7 6.85,5.5 7.3,6.2c0.45,0.7 1.2,1.25 1.65,1.25c1.25,0 12.55,7.75 16.1,11.05c1.75,1.6 3.45,2.95 3.8,2.95c0.35,0 2.1,1.35 3.85,3c1.75,1.65 3.55,3 4,3c0.45,0 3.75,2.7 7.3,6c3.55,3.3 6.65,6 6.85,6c0.25,0 4.05,3.05 8.55,6.8c4.45,3.75 9.7,7.9 11.6,9.2c1.95,1.25 3.95,2.8 4.5,3.4c0.55,0.6 4.45,3.7 8.7,6.95c4.25,3.2 9.1,7.35 10.75,9.25c1.65,1.85 3.25,3.4 3.6,3.4c0.35,0 2.45,1.6 4.7,3.5c2.25,1.95 4.6,3.5 5.2,3.45c0.55,0 -0.75,-1.45 -2.95,-3.2c-2.2,-1.8 -6.7,-5.7 -10,-8.8c-3.3,-3.05 -12.1,-10.1 -19.5,-15.7c-7.45,-5.55 -14.45,-11.1 -15.5,-12.3c-1.1,-1.2 -8.5,-7.4 -16.4,-13.8c-7.95,-6.4 -15.6,-12.6 -17,-13.75c-1.45,-1.15 -6.05,-4.55 -10.25,-7.5c-7.3,-5.15 -22.6,-17.15 -33.45,-26.15c-8.4,-7 -10.8,-8.75 -11.85,-8.7c-0.6,0 0.3,1.2 1.95,2.6z"/>
  <path id="svg_57" d="m181.35002,169.94999c-3.5,2.15 -7.35,6.7 -7.35,8.75c0,0.8 -1.1,2.9 -2.5,4.7c-1.35,1.8 -2.5,3.8 -2.5,4.4c0,0.6 -1.35,1.9 -3,2.85c-1.7,1 -3,2.65 -3,3.7c0,1.85 0.1,1.85 1.85,-0.2c5.15,-5.9 12.1,-6.35 17.75,-1.15c2.4,2.2 5.15,4.05 6.15,4.1c8.85,0.55 14.3,-1.35 14.2,-4.95c0,-1.5 -0.15,-1.5 -1.3,0.05c-1.65,2.2 -5.9,3.8 -9.9,3.8c-3.85,0 -2.8,-1.35 2.75,-3.5l4,-1.55l-3.5,0.7c-1.9,0.35 -4.7,0.65 -6.2,0.65c-1.5,0 -2.5,0.4 -2.2,0.85c0.3,0.5 -0.65,0.35 -2.05,-0.3c-4,-1.85 -3.05,-2.6 3.9,-3.05c4.15,-0.25 7.1,-1 8.3,-2.1c1.45,-1.25 2.15,-1.4 3.05,-0.5c1.6,1.6 2.8,0.2 1.35,-1.55c-1,-1.15 -1.85,-1.05 -5.35,0.7c-3.25,1.6 -5.65,2 -10.25,1.7c-3.35,-0.2 -7.95,-0.4 -10.3,-0.45c-2.35,0 -4.25,-0.2 -4.25,-0.4c0,-1.15 4.3,-6.15 4.9,-5.75c3.05,1.9 13.95,-5.85 15.45,-10.95c0.85,-2.8 -5.7,-3.15 -10,-0.55zm7.1,-0.05c1.5,2.45 -4.7,8.4 -10.05,9.65c-2.85,0.7 -2.8,0.6 1.6,-4.1c2.5,-2.7 3.65,-4.2 2.55,-3.4c-1.4,1.05 -1.7,1.1 -1.15,0.15c1.35,-2.3 6.1,-3.8 7.05,-2.3z"/>
  <path id="svg_58" d="m5.5,171.04999c0.35,0.55 2.35,1.85 4.5,2.95c2.1,1.05 3.95,2.3 4.15,2.75c0.65,1.5 7.85,5.45 7.85,4.3c0,-0.6 -0.8,-1.4 -1.75,-1.75c-0.95,-0.35 -4,-2.3 -6.75,-4.3c-5.25,-3.8 -9.05,-5.7 -8,-3.95z"/>
  <path id="svg_60" d="m200.45002,178.34999c-5.3,3.8 -8.45,6.4 -8.45,7.05c0,1.25 1.8,0.5 4.3,-1.8c1.45,-1.35 3.55,-2.75 4.65,-3.1c1.15,-0.35 2.05,-1.15 2.1,-1.8c0,-0.65 0.45,-0.4 1.05,0.55c0.8,1.4 1.4,1.55 2.95,0.7c1.55,-0.8 1.95,-0.7 1.95,0.5c0,0.85 0.65,1.55 1.4,1.55c0.9,0 1.25,-0.7 0.9,-2c-0.35,-1.3 -1.35,-2 -2.9,-2c-1.35,0 -2.4,-0.45 -2.4,-1c0,-1.55 -2.2,-1.05 -5.55,1.35z"/>
  <path id="svg_61" d="m23,182.74999c0.05,1.15 1.65,3.45 2.35,3.35c1.7,-0.25 2.35,0.05 4.8,2.15c5.55,4.7 6.45,5.35 11.05,8.25c2.6,1.65 4.75,3.55 4.75,4.25c0.05,0.7 0.65,1.25 1.4,1.25c0.7,0 2.35,1.1 3.65,2.5c1.3,1.35 2.75,2.5 3.3,2.5c0.5,0 2.55,1.35 4.55,3.05c2,1.65 4.1,3.35 4.65,3.75c9.65,7.15 22.5,17.7 22.9,18.8c0.3,0.75 1.15,1.4 1.85,1.4c0.75,0 3.25,1.7 5.55,3.75c2.35,2.05 6.35,5.3 8.9,7.25c2.6,1.9 5.95,4.75 7.55,6.25c1.6,1.5 3.25,2.75 3.7,2.75c0.95,0 2.45,3.05 2.15,4.35c-0.1,0.5 0.45,0.65 1.25,0.35c1.55,-0.6 12.35,8 11.9,9.45c-0.15,0.45 0.4,0.85 1.2,0.85c0.8,0 2.7,1.15 4.2,2.55c1.5,1.4 4.2,3.7 6,5.15c1.8,1.45 3.05,3 2.75,3.45c-0.3,0.45 0.4,0.85 1.55,0.85c1.1,0 2.05,-0.4 2.05,-0.95c0,-0.5 1,-1.25 2.25,-1.6c1.25,-0.4 3.8,-1.8 5.75,-3.1l3.5,-2.35l0.75,2.75c0.45,1.5 0.3,5.75 -0.3,9.45c-0.6,3.7 -0.85,7.15 -0.55,7.65c0.35,0.55 0.2,1.15 -0.3,1.3c-1.1,0.4 -0.25,5.85 0.9,5.85c0.4,0 1.05,-4.4 1.45,-9.75c1.4,-20.6 0.85,-18.95 8.2,-22.75c3.2,-1.65 6.1,-3.3 6.35,-3.6c0.3,-0.35 2.3,-1.5 4.5,-2.55c2.2,-1.1 6.1,-3.2 8.7,-4.75c2.6,-1.5 5.2,-2.45 5.75,-2.1c0.6,0.35 1.05,0 1.05,-0.7c0,-0.75 3.9,-3.35 8.7,-5.8c4.8,-2.5 10.25,-5.5 12.05,-6.7c1.85,-1.2 4,-1.95 4.8,-1.65c0.9,0.35 1.45,-0.05 1.45,-1c0,-0.8 0.9,-1.8 2,-2.15c1.05,-0.35 4.55,-2.2 7.75,-4.1c3.15,-1.9 6.5,-3.3 7.45,-3.05c0.95,0.25 1.45,-0.05 1.25,-0.7c-0.45,-1.15 11.3,-7.4 12.85,-6.85c0.5,0.15 0.6,-0.15 0.3,-0.65c-0.55,-0.9 7.2,-4.85 8.65,-4.4c0.4,0.15 0.75,-0.2 0.75,-0.8c0,-0.6 1.35,-1.5 3,-2.1c1.65,-0.6 3,-1.4 3,-1.85c0,-0.45 1.35,-1.15 3,-1.5c1.65,-0.35 3,-1.05 3,-1.6c0,-0.5 0.5,-0.9 1.1,-0.9c0.6,0 2.25,-0.9 3.65,-2c3.95,-3.1 4.5,-2.55 3.85,3.75c-0.35,3.15 -0.85,17.05 -1.15,30.8c-0.35,13.8 -0.75,26.4 -0.95,28c-0.15,1.65 -0.6,8.1 -0.95,14.45c-0.35,6.3 -0.9,12.75 -1.2,14.25c-0.25,1.5 -0.05,2.75 0.45,2.75c1.65,0 2.35,-9.2 3.65,-49.5c0.35,-9.35 0.85,-20.4 1.2,-24.5c0.3,-4.15 0.6,-10.45 0.6,-14.1c0,-6.05 3.45,-14.9 3.8,-9.9c0.35,4.35 -3.7,87.20001 -4.6,94.25001c-0.25,2.2 -0.05,3.75 0.55,3.75c0.55,0 1.05,-1.9 1.15,-4.25c0.1,-2.35 0.3,-5.4 0.4,-6.75c0.35,-3.25 1.25,-19.05 2.05,-35.5c0.3,-7.15 0.75,-15.7 0.9,-19c0.2,-3.3 0.4,-10.3 0.45,-15.5c0.15,-15.45 0.85,-19 4.2,-20.9c1.55,-0.85 2.85,-1.95 2.85,-2.35c0,-1 -6.35,2 -12.75,5.95c-2.9,1.85 -5.5,3.3 -5.75,3.3c-0.2,0 -5.75,3 -12.2,6.65c-6.5,3.6 -21.25,11.8 -32.8,18.1c-11.55,6.35 -23.25,12.8 -26,14.35c-2.75,1.55 -7.9,4.4 -11.5,6.35c-3.55,1.9 -8.75,4.8 -11.5,6.35c-12.6,7.2 -24.5,13.3 -24.5,12.55c0,-0.45 -0.7,0.2 -1.55,1.45c-0.85,1.2 -2,2.2 -2.55,2.2c-0.55,0 -2.65,1.1 -4.7,2.5c-5.4,3.7 -5.65,3.6 -21.8,-10.25c-40.1,-34.25 -106.45001,-85.75001 -106.40001,-82.50001z"/>
  <path id="svg_62" d="m204.00002,183.94999c0,0.55 0.8,0.7 1.75,0.4c1.5,-0.55 1.5,-0.4 -0.15,0.85c-2.6,2 -0.5,3.15 2.25,1.2c3,-2.1 2.7,-3.4 -0.85,-3.4c-1.65,0 -3,0.45 -3,0.95z"/>
  <path id="svg_63" d="m164.30001,201.94999c-6.4,3.15 -6.4,2.95 -0.25,8.1c4.5,3.75 5.2,4.05 6.75,2.75c0.95,-0.8 3.15,-2.05 4.9,-2.75c5.6,-2.2 5.9,-3.5 1.95,-7.6c-1.95,-2 -4.1,-3.45 -4.8,-3.25c-0.75,0.25 -0.05,1.35 1.85,2.7c3.6,2.7 3.4,5.25 -0.55,7.15c-4.9,2.4 -9.15,1.65 -9.15,-1.6c0,-2.2 -0.35,-2.5 -2.25,-2c-1.25,0.3 -0.2,-0.45 2.25,-1.75l4.5,-2.3l2.25,2.35c3.15,3.3 1.5,4.05 -2.35,1.1c-2,-1.5 -3.45,1.4 -1.8,3.6c1.3,1.8 1.4,1.8 1.4,0.1c0,-1.4 0.3,-1.55 1.35,-0.65c1.25,1 4.65,0.6 4.65,-0.55c0,-1.05 -2.4,-4.95 -3.9,-6.4c-1.45,-1.4 -2.1,-1.3 -6.8,1z"/>
  <path id="svg_64" d="m185.90002,208.84999c-1.35,1 -3.25,2.1 -4.3,2.5c-1.05,0.4 -1.6,1 -1.25,1.35c0.4,0.35 2,-0.3 3.6,-1.5c1.65,-1.2 3.4,-2.2 3.95,-2.2c0.55,0 1.25,-0.45 1.6,-1c1,-1.6 -1.05,-1.15 -3.6,0.85z"/>
  <path id="svg_65" d="m147.55001,208.94999c-0.35,0.5 1.9,2.8 5,5.1c3.25,2.35 5.4,4.65 5.1,5.4c-0.25,0.7 0,1.8 0.55,2.35c1.25,1.25 4.05,0.4 3.15,-1c-0.35,-0.65 -0.95,-0.5 -1.55,0.35c-0.8,1.05 -0.9,1 -0.45,-0.3c0.25,-0.85 0,-2.1 -0.65,-2.75c-0.8,-0.8 -0.65,-1.1 0.6,-1.1c0.95,0 1.7,0.5 1.7,1.15c0,0.65 0.3,0.9 0.65,0.5c0.35,-0.35 -0.15,-1.55 -1.2,-2.7c-1.6,-1.75 -1.95,-1.85 -2.4,-0.55c-0.4,1.15 -1.65,0.45 -5.25,-2.95c-2.55,-2.45 -4.95,-4.05 -5.25,-3.5z"/>
  <path id="svg_66" d="m192.30002,211.54999c-3.45,1.95 -6.5,4 -6.85,4.55c-0.75,1.2 10.4,-4.8 12.5,-6.75c2.3,-2.1 1.05,-1.6 -5.65,2.2z"/>
  <path id="svg_69" d="m188.50002,251.4c-8.8,4.55 -21.75,11.3 -28.75,14.95c-7,3.65 -13.75,6.7 -15,6.7l-2.25,0.1l2.15,1c1.75,0.9 3.4,0.35 9.35,-3.15c3.95,-2.3 7.7,-4.3 8.35,-4.45c1.6,-0.3 9.05,-3.9 9.65,-4.65c0.3,-0.35 2.75,-1.85 5.5,-3.3c2.75,-1.45 5.7,-3 6.5,-3.45c0.85,-0.45 4.2,-2.15 7.5,-3.75c3.3,-1.6 6.15,-3.25 6.35,-3.65c0.15,-0.4 0.85,-0.75 1.5,-0.75c0.65,0 2.5,-0.9 4.15,-2c6.15,-4.05 0.55,-1.7 -15,6.4z"/>
  <path id="svg_72" d="m155.70001,275.7c-0.3,0.45 -0.75,6.2 -1.05,12.8c-0.7,14.35 -0.05,13.3 1.2,-2c0.9,-10.75 0.85,-12.5 -0.15,-10.8z"/>
  <path id="svg_73" d="m155.78185,126.87555" opacity="NaN"/>
 </g>
</svg>