<?xml version="1.0" standalone="no"?>
<!DOCTYPE svg PUBLIC "-//W3C//DTD SVG 20010904//EN"
 "http://www.w3.org/TR/2001/REC-SVG-20010904/DTD/svg10.dtd">
<svg version="1.0" xmlns="http://www.w3.org/2000/svg"
 width="300.000000pt" height="300.000000pt" viewBox="0 0 300.000000 300.000000"
 preserveAspectRatio="xMidYMid meet">
<metadata>
Created by potrace 1.10, written by Peter Selinger 2001-2011
</metadata>
<g transform="translate(0.000000,300.000000) scale(0.100000,-0.100000)"
fill="#000000" stroke="none">
<path d="M1480 2979 c-80 -29 -129 -38 -248 -49 -122 -11 -403 -53 -419 -63
-8 -5 -12 -92 -13 -279 0 -150 1 -270 4 -267 2 2 5 124 7 271 l4 267 35 6 c63
10 495 65 512 65 15 0 17 -46 17 -602 1 -332 1 -606 1 -610 0 -4 8 -6 18 -5
10 0 79 -29 153 -65 74 -36 151 -71 172 -77 20 -7 37 -16 37 -21 0 -8 82 -32
88 -25 2 1 -14 9 -35 15 -21 7 -40 16 -43 19 -3 3 -41 22 -85 40 -44 19 -128
58 -187 88 l-107 53 -1 600 0 600 28 -5 c18 -4 21 -3 9 3 -14 6 -2 13 52 30
39 13 71 25 71 28 0 7 -11 4 -70 -17z"/>
<path d="M1451 2926 c8 -8 249 -58 262 -53 6 2 -41 13 -104 26 -63 13 -125 26
-139 28 -14 3 -22 3 -19 -1z"/>
<path d="M1893 2828 c-11 -18 -20 -128 -11 -128 4 0 8 24 8 53 0 55 6 71 30
80 12 4 12 6 -2 6 -9 1 -20 -5 -25 -11z"/>
<path d="M2175 2765 c38 -15 289 -75 293 -70 3 3 3 5 0 5 -2 0 -66 16 -141 35
-115 29 -190 44 -152 30z"/>
<path d="M1798 2668 c5 -5 80 -27 166 -49 86 -21 191 -50 233 -64 41 -14 78
-24 80 -21 6 5 -90 41 -137 51 -19 4 -40 11 -46 16 -6 5 -27 11 -47 13 -20 3
-46 10 -57 16 -11 6 -20 7 -20 3 0 -4 -5 -2 -11 4 -6 6 -17 10 -23 7 -6 -2
-42 4 -79 15 -38 10 -64 14 -59 9z"/>
<path d="M2955 2665 c-86 -41 -166 -65 -192 -60 -15 3 -21 2 -13 -1 21 -10 30
-25 30 -53 0 -13 3 -21 7 -18 3 4 12 -1 20 -11 10 -12 10 -8 -2 15 -8 18 -15
35 -15 38 0 3 30 20 68 36 114 51 147 68 137 68 -5 0 -23 -7 -40 -14z"/>
<path d="M2625 2640 c44 -16 87 -29 95 -29 19 0 -106 47 -145 54 -16 3 6 -8
50 -25z"/>
<path d="M1680 2626 c-109 -43 -203 -87 -196 -93 2 -3 62 21 132 53 81 36 129
53 132 46 6 -19 18 -14 18 8 0 11 0 20 -1 20 0 -1 -38 -16 -85 -34z"/>
<path d="M1785 2619 c11 -37 31 -55 75 -68 50 -15 110 -66 111 -95 1 -17 2
-18 6 -3 7 26 -22 64 -66 87 -22 11 -42 28 -44 37 -4 16 -5 16 -6 1 -1 -11 -7
-14 -20 -11 -10 3 -18 12 -16 21 1 10 0 11 -2 4 -6 -17 -23 -5 -23 18 0 10 -5
22 -11 26 -8 4 -9 -1 -4 -17z"/>
<path d="M0 2610 c0 -5 12 -13 28 -18 15 -6 87 -38 161 -71 74 -34 135 -61
137 -61 2 0 4 5 4 10 0 6 -5 10 -11 10 -5 0 -80 31 -165 69 -85 37 -154 65
-154 61z"/>
<path d="M1553 2520 c26 -17 128 -50 122 -40 -3 5 -29 16 -58 25 -28 9 -59 18
-67 21 -9 3 -8 1 3 -6z"/>
<path d="M1450 2500 c0 -5 4 -10 9 -12 12 -4 18 -79 8 -95 -7 -11 51 -38 61
-29 2 3 -7 8 -22 12 -30 7 -35 30 -8 37 16 4 16 5 0 6 -11 1 -18 9 -18 22 0
18 4 20 28 16 l27 -6 -28 12 c-15 6 -26 16 -23 23 3 7 -4 14 -15 17 -10 3 -19
1 -19 -3z"/>
<path d="M2365 2449 c-55 -28 -107 -57 -115 -64 -44 -37 -133 -63 -114 -33 3
5 -12 -2 -35 -16 -22 -14 -46 -26 -53 -26 -9 -1 -8 -3 2 -9 19 -12 35 -13 35
-3 0 14 16 32 28 32 7 0 3 -7 -7 -15 -11 -8 -15 -15 -9 -15 6 0 16 7 23 15 7
9 20 13 28 10 8 -3 62 21 121 54 209 116 195 110 222 96 32 -17 228 -67 243
-62 6 2 -4 7 -22 11 -18 4 -80 23 -139 42 -58 19 -107 34 -107 34 -1 0 -46
-23 -101 -51z"/>
<path d="M2820 2500 c0 -3 41 -85 90 -184 50 -98 90 -173 90 -166 0 13 -157
330 -171 345 -5 5 -9 7 -9 5z"/>
<path d="M1639 2462 c7 -5 9 -12 5 -14 -5 -3 -4 -3 3 -2 7 2 44 -4 84 -12 39
-8 76 -13 82 -11 6 2 -25 11 -68 19 -44 9 -89 19 -100 23 -15 5 -16 4 -6 -3z"/>
<path d="M2131 2429 c-30 -21 -60 -39 -68 -39 -21 0 -15 -18 8 -25 17 -6 19
-9 8 -16 -8 -5 -9 -9 -4 -9 12 0 85 48 85 56 0 3 -13 -4 -29 -15 -31 -23 -46
-27 -36 -11 4 6 -1 7 -12 4 -12 -4 -10 0 7 15 27 23 45 28 34 9 -4 -7 -3 -8 5
-4 6 4 9 12 6 17 -4 5 -3 9 2 9 4 0 22 11 38 25 47 39 16 27 -44 -16z"/>
<path d="M1810 2445 c71 -18 83 -18 41 0 -18 8 -47 15 -65 14 -25 -1 -20 -3
24 -14z"/>
<path d="M302 2398 c-5 -18 -19 -78 -32 -133 -34 -149 -51 -205 -59 -205 -5 0
-19 10 -33 23 -13 12 -33 23 -43 25 -10 2 -42 17 -72 34 -30 17 -56 29 -58 26
-2 -2 39 -27 91 -56 52 -29 92 -57 89 -61 -3 -5 -17 -12 -32 -16 -33 -8 -156
-75 -150 -82 3 -2 28 8 57 22 29 14 54 24 57 21 3 -3 14 4 26 14 11 11 35 24
52 30 28 9 34 18 49 68 29 103 78 314 72 319 -2 3 -9 -10 -14 -29z"/>
<path d="M1935 2410 c28 -11 57 -20 65 -19 22 0 -71 38 -95 38 -11 0 3 -9 30
-19z"/>
<path d="M1982 2367 c10 -8 14 -18 10 -22 -4 -5 -1 -5 6 -1 11 6 17 -5 13 -26
-2 -12 17 -10 24 2 3 6 1 10 -5 10 -6 0 -9 4 -6 8 3 5 -9 16 -27 26 -18 10
-24 11 -15 3z"/>
<path d="M1590 2338 c40 -18 337 -99 357 -97 18 1 -49 22 -162 50 -66 16 -141
38 -167 49 -61 26 -86 25 -28 -2z"/>
<path d="M1423 2343 c4 -6 17 -13 29 -16 13 -3 44 -12 70 -20 27 -8 46 -11 43
-7 -3 5 -30 16 -60 25 -30 8 -62 18 -71 22 -11 4 -15 2 -11 -4z"/>
<path d="M2607 2343 c-4 -3 -38 -5 -76 -4 -38 1 -71 -2 -74 -6 -3 -5 20 -7 52
-5 44 3 68 -1 104 -17 62 -28 78 -27 113 10 18 20 22 28 10 22 -10 -6 -27 -8
-36 -6 -10 3 -21 -1 -25 -7 -5 -9 -1 -10 14 -5 11 3 21 2 21 -3 0 -18 -32 -23
-68 -11 -33 11 -34 13 -17 25 15 11 16 14 4 14 -9 0 -19 -3 -22 -7z"/>
<path d="M790 2272 c-42 -21 -115 -62 -163 -91 -72 -43 -90 -51 -102 -41 -8 7
-15 8 -15 3 0 -5 12 -16 28 -23 15 -8 38 -23 52 -35 22 -18 22 -16 -3 11 l-28
31 133 75 c73 41 153 81 177 88 39 12 47 12 74 -3 33 -19 46 -17 22 3 -8 7
-34 14 -58 16 -34 3 -57 -3 -117 -34z"/>
<path d="M1935 2299 c-15 -7 -11 -8 15 -3 26 4 31 3 20 -5 -12 -9 -9 -11 15
-12 17 -1 35 -3 40 -4 6 -2 16 -3 24 -4 9 -1 12 -12 9 -36 -3 -28 0 -36 15
-41 10 -3 21 -3 24 0 4 3 0 6 -7 6 -8 0 1 16 21 37 29 33 30 34 3 10 -36 -32
-39 -33 -41 -8 -1 10 9 24 23 31 13 8 22 15 19 18 -2 3 -11 -1 -19 -7 -12 -10
-26 -9 -71 8 -62 23 -62 23 -90 10z"/>
<path d="M2184 2275 c11 -8 14 -15 8 -15 -8 0 -12 -18 -11 -52 1 -37 3 -46 8
-29 4 14 13 27 20 29 8 3 11 0 7 -6 -4 -6 2 -8 16 -5 17 3 19 2 10 -5 -11 -7
-10 -10 3 -16 25 -9 32 -7 15 5 -12 8 -8 9 15 5 29 -5 29 -5 -5 11 -19 8 -45
16 -57 17 -15 1 -23 7 -23 20 0 12 5 16 16 12 8 -3 12 -2 9 4 -8 13 -3 13 30
0 15 -6 24 -6 20 -1 -3 5 -19 12 -35 16 -16 4 -32 11 -35 16 -4 5 -12 9 -18 9
-7 0 -3 -7 7 -15z"/>
<path d="M2780 2285 c-3 -5 -3 -66 0 -135 3 -78 7 -108 10 -80 6 52 -3 230
-10 215z"/>
<path d="M2290 2272 c8 -5 47 -20 85 -32 39 -13 84 -29 100 -36 17 -6 64 -20
105 -30 41 -9 87 -23 102 -31 15 -7 33 -13 40 -13 27 1 -70 37 -156 59 -49 13
-97 27 -105 31 -14 7 -134 47 -171 57 -13 4 -13 3 0 -5z"/>
<path d="M979 2113 c0 -82 -2 -204 -5 -273 l-5 -125 77 -40 c43 -22 79 -45 81
-51 3 -10 -267 -134 -291 -134 -3 0 -56 -23 -117 -50 -62 -28 -145 -62 -186
-75 -87 -30 -75 -34 -250 81 -62 41 -116 74 -120 74 -5 0 -30 15 -56 34 l-49
35 31 16 c17 8 43 17 58 19 39 5 63 16 63 29 0 6 3 7 7 4 3 -4 11 -3 17 2 14
11 88 36 99 33 4 -1 7 3 7 9 0 5 4 8 9 5 5 -3 14 1 21 9 7 8 22 15 35 15 12 0
25 3 29 7 3 4 12 8 19 9 18 3 184 73 173 74 -4 0 -1 11 8 25 53 81 -50 175
-192 175 -27 0 -87 -7 -133 -15 -46 -8 -103 -15 -127 -16 -23 -2 -38 -7 -34
-11 5 -5 46 -2 93 6 143 25 212 29 259 16 72 -19 110 -41 126 -72 14 -27 14
-33 -4 -72 -19 -39 -26 -44 -94 -66 -40 -14 -109 -40 -153 -58 -44 -18 -131
-53 -194 -77 -63 -24 -118 -48 -124 -54 -15 -15 10 -47 63 -80 28 -17 56 -32
63 -34 6 -1 17 -7 24 -14 25 -22 240 -143 256 -143 21 0 154 50 242 90 39 18
115 50 170 72 55 21 142 57 193 80 86 38 91 42 76 59 -8 9 -49 34 -90 56 l-75
38 6 90 c12 214 15 445 5 445 -6 0 -10 -54 -11 -147z"/>
<path d="M800 2174 c-58 -31 -126 -69 -152 -84 l-47 -29 -36 24 c-42 29 -46
30 -39 10 7 -16 59 -45 82 -45 9 0 25 8 36 18 12 11 52 36 90 56 l69 37 -5
-50 c-3 -28 -1 -51 3 -51 5 0 9 24 9 54 0 51 2 56 30 70 l30 14 0 -109 c0
-129 11 -124 -128 -59 -46 22 -80 35 -76 28 9 -13 169 -88 190 -88 11 0 14 -5
10 -16 -3 -9 -6 -51 -6 -94 l0 -79 -66 38 c-58 34 -71 38 -95 29 -36 -12 -38
-22 -4 -14 18 4 45 -4 95 -29 50 -25 72 -32 75 -23 2 7 9 105 15 218 10 169
15 207 29 217 35 27 -9 9 -109 -43z"/>
<path d="M2339 2217 c13 -8 20 -16 15 -19 -5 -3 -3 -3 4 -1 8 2 43 -4 78 -12
96 -22 101 -17 9 9 -44 12 -91 26 -105 30 l-25 7 24 -14z"/>
<path d="M1869 2208 c-5 -21 -2 -108 4 -108 4 0 7 25 7 55 0 30 -2 55 -5 55
-3 0 -5 -1 -6 -2z"/>
<path d="M28 2180 c18 -11 39 -20 46 -20 7 0 19 -7 26 -15 14 -17 35 -21 25
-5 -7 11 -106 60 -121 60 -5 0 6 -9 24 -20z"/>
<path d="M433 2164 c27 -14 51 -23 54 -20 6 5 -81 47 -95 46 -4 -1 15 -12 41
-26z"/>
<path d="M2380 2182 c8 -6 62 -24 120 -40 58 -17 114 -33 125 -37 13 -4 12 -1
-5 8 -14 8 -68 26 -120 40 -52 14 -104 28 -115 32 -15 5 -17 4 -5 -3z"/>
<path d="M2040 2145 c41 -16 69 -19 55 -6 -6 5 -28 11 -50 14 l-40 6 35 -14z"/>
<path d="M2300 2121 c58 -21 130 -44 160 -50 52 -11 234 -68 273 -85 9 -5 17
-4 17 0 0 11 -216 84 -245 84 -19 0 -146 39 -240 74 -22 8 -47 15 -55 15 -8 0
32 -17 90 -38z"/>
<path d="M1682 2109 c-35 -17 -73 -38 -84 -49 -11 -10 -53 -36 -94 -56 -40
-21 -72 -39 -71 -41 18 -17 471 -179 490 -175 4 1 7 -2 7 -8 0 -5 7 -6 17 -3
11 4 14 3 9 -5 -5 -8 -2 -10 9 -6 21 8 8 22 -25 26 -14 2 -36 10 -50 18 -14 7
-27 12 -30 11 -3 -1 -24 3 -48 10 -30 8 -39 15 -30 20 8 6 -1 7 -22 4 -28 -4
-31 -3 -15 5 17 8 15 9 -10 5 -16 -3 -37 -1 -45 5 -13 9 -13 10 0 10 16 1 -28
29 -45 29 -5 0 1 -6 15 -14 42 -24 16 -17 -95 26 -105 40 -141 67 -49 35 26
-9 50 -16 53 -16 14 1 -46 29 -61 30 -45 1 -6 27 182 122 102 52 96 65 -8 17z"/>
<path d="M2480 2119 c30 -11 59 -18 65 -16 10 4 -95 38 -112 36 -4 0 17 -9 47
-20z"/>
<path d="M2568 2094 c6 -3 9 -11 5 -16 -4 -7 2 -9 15 -6 12 4 20 2 16 -3 -3
-5 4 -9 15 -9 28 0 27 17 -1 25 -36 10 -64 15 -50 9z"/>
<path d="M1730 2066 c0 -29 40 -64 88 -76 52 -12 112 -58 112 -86 0 -12 -5
-14 -17 -9 -10 5 -34 10 -53 13 -19 2 -43 11 -52 20 -10 8 -18 11 -18 6 1 -21
18 -31 65 -37 38 -5 57 -14 78 -37 16 -19 27 -25 27 -16 0 8 -4 18 -10 21 -5
3 -10 17 -10 30 0 27 -54 95 -76 95 -8 0 -15 11 -15 28 -2 23 -2 24 -6 5 -2
-13 -11 -23 -19 -23 -24 0 -71 28 -78 45 -8 23 -8 27 4 20 6 -3 10 -1 10 4 0
6 -7 11 -15 11 -8 0 -15 -6 -15 -14z"/>
<path d="M1977 2062 c-13 -6 15 -19 95 -49 156 -57 252 -85 238 -68 -6 7 -25
16 -43 19 -18 3 -44 12 -59 20 -25 13 -75 28 -108 31 -31 3 -109 38 -104 46 6
10 6 10 -19 1z"/>
<path d="M2650 2061 c0 -6 3 -10 8 -10 21 4 42 -2 38 -10 -7 -11 22 -23 35
-15 17 10 9 21 -18 27 -16 3 -36 9 -45 12 -11 4 -18 3 -18 -4z"/>
<path d="M2470 2025 c41 -14 80 -23 85 -21 6 2 -15 10 -45 19 -93 27 -119 28
-40 2z"/>
<path d="M2630 1975 c0 -2 30 -14 68 -25 37 -12 73 -24 80 -26 6 -3 12 -1 12
4 0 5 -33 19 -74 30 -79 23 -86 25 -86 17z"/>
<path d="M1425 1918 c-2 -13 -6 -42 -8 -65 -4 -40 -3 -41 19 -32 18 6 43 -1
110 -31 91 -42 122 -52 64 -20 -37 21 -28 26 15 10 15 -6 33 -6 42 -2 10 6 -9
18 -67 41 -45 18 -85 30 -88 27 -3 -3 1 -6 9 -6 11 0 11 -2 -1 -10 -21 -13
-33 -12 -24 2 5 7 2 9 -9 5 -9 -3 -18 -1 -21 6 -5 9 -7 9 -12 0 -6 -15 -24
-18 -24 -5 0 5 10 13 23 19 l22 10 -24 8 c-19 6 -22 12 -17 36 6 34 -1 40 -9
7z m169 -106 l40 -18 -37 0 c-24 0 -32 3 -24 9 8 6 4 7 -11 4 -13 -3 -20 -1
-16 5 4 6 -2 8 -17 3 -19 -5 -21 -4 -9 4 20 14 28 13 74 -7z"/>
<path d="M1455 1923 c12 -12 216 -85 222 -80 2 2 -41 20 -94 39 -54 20 -107
39 -118 43 -14 5 -17 5 -10 -2z"/>
<path d="M2190 1912 c-30 -21 -40 -55 -13 -45 27 10 73 45 73 56 0 5 -6 4 -14
-2 -9 -8 -15 -8 -18 -2 -2 6 -13 4 -28 -7z"/>
<path d="M2326 1895 c-3 -9 -6 -26 -6 -36 0 -11 -4 -17 -10 -14 -5 3 -18 1
-27 -4 -16 -9 -15 -10 7 -8 22 2 26 -3 30 -38 5 -35 6 -31 13 34 7 74 5 96 -7
66z"/>
<path d="M2145 1829 c-152 -63 -145 -60 -145 -69 0 -5 38 9 84 31 86 40 112
47 100 28 -4 -8 0 -8 15 0 11 7 21 16 21 22 0 6 4 8 9 4 5 -3 16 2 25 11 9 8
21 12 27 8 8 -4 9 -3 5 4 -10 16 -5 17 -141 -39z"/>
<path d="M1610 1837 c8 -8 194 -76 198 -72 2 1 -32 16 -75 33 -87 33 -130 47
-123 39z"/>
<path d="M2265 1808 c-3 -7 -16 -14 -30 -14 -15 -1 -22 2 -18 9 3 6 -16 -3
-44 -19 -49 -28 -66 -49 -40 -49 6 0 11 6 9 14 -2 9 3 11 13 7 11 -4 14 -2 9
6 -5 8 -2 9 9 5 10 -4 16 -2 14 5 -1 6 4 13 12 16 9 3 11 0 6 -8 -6 -9 -3 -9
15 0 12 6 24 9 27 7 3 -3 -13 -15 -36 -27 -23 -11 -41 -23 -41 -26 0 -2 9 0
19 6 25 13 34 13 26 0 -3 -6 1 -7 10 -3 11 4 13 8 5 13 -6 4 6 14 30 25 45 20
66 42 30 30 -15 -5 -20 -4 -16 4 4 6 5 11 1 11 -3 0 -8 -6 -10 -12z"/>
<path d="M2788 1808 c-2 -7 -1 -35 3 -63 l6 -50 1 63 c2 59 -1 76 -10 50z"/>
<path d="M2110 1780 c-30 -16 -51 -29 -47 -30 10 0 107 49 107 55 0 7 1 7 -60
-25z"/>
<path d="M1445 1780 c22 -10 76 -33 120 -50 44 -18 122 -50 174 -71 52 -22 96
-37 99 -35 6 7 -27 22 -114 54 -43 16 -97 39 -119 51 -22 11 -45 21 -51 21 -6
0 -38 11 -72 25 -71 29 -96 32 -37 5z"/>
<path d="M2425 1780 c3 -5 12 -7 20 -3 8 3 15 0 15 -7 0 -6 4 -8 10 -5 5 3 19
1 30 -5 11 -6 20 -8 20 -5 0 8 -66 35 -85 35 -9 0 -14 -4 -10 -10z"/>
<path d="M1682 1773 c-15 -6 42 -35 101 -51 17 -6 41 -13 52 -17 16 -6 17 -5
5 4 -8 6 -39 18 -69 27 -40 12 -50 19 -40 26 10 6 7 7 -10 3 -16 -5 -21 -4
-17 4 8 12 0 13 -22 4z"/>
<path d="M1865 1736 c28 -14 55 -25 60 -25 15 0 -56 36 -85 43 -14 3 -2 -5 25
-18z"/>
<path d="M2530 1751 c0 -3 15 -11 33 -17 17 -6 76 -26 130 -44 l98 -33 -7
-116 c-10 -171 -11 -321 -2 -321 4 0 8 24 8 53 0 28 3 135 5 237 3 102 3 180
-1 173 -4 -8 -30 -3 -92 19 -125 43 -172 57 -172 49z"/>
<path d="M1725 1710 c33 -16 67 -29 75 -29 8 0 -16 13 -53 29 -87 38 -101 38
-22 0z"/>
<path d="M2202 1705 c-41 -19 -78 -33 -83 -30 -9 6 -84 -29 -94 -45 -9 -15
-25 -12 -25 5 0 8 -4 15 -10 15 -5 0 -7 -7 -4 -15 8 -19 0 -19 -38 1 -32 17
-120 45 -125 40 -2 -1 38 -19 89 -38 75 -30 95 -34 114 -26 13 6 24 15 24 20
0 5 4 7 9 4 11 -7 61 11 161 61 102 51 86 57 -18 8z"/>
<path d="M2540 1704 c-6 -16 -13 -35 -15 -41 -2 -7 0 -13 5 -13 10 0 34 69 26
77 -3 3 -10 -7 -16 -23z"/>
<path d="M2407 1678 c3 -18 10 -37 16 -43 6 -7 8 -2 3 15 -3 14 -6 33 -6 43 0
9 -4 17 -10 17 -5 0 -7 -14 -3 -32z"/>
<path d="M1860 1567 c0 -48 15 -68 64 -87 25 -9 27 -9 17 4 -6 8 -22 17 -35
20 -31 8 -45 74 -19 94 15 11 15 12 -5 12 -19 0 -22 -5 -22 -43z"/>
<path d="M1980 1562 c0 -10 103 -52 126 -52 36 0 -1 -18 -58 -29 -35 -7 -79
-17 -98 -22 -40 -11 -219 -49 -232 -49 -4 0 -8 9 -8 20 0 29 -10 25 -61 -24
l-47 -44 26 -7 c14 -3 44 -15 66 -26 43 -21 76 -31 76 -23 0 3 -7 15 -16 28
-17 28 -22 26 111 45 39 6 86 13 105 16 125 19 121 19 174 -8 28 -14 101 -49
161 -78 164 -77 217 -110 211 -133 -3 -13 -2 -16 6 -8 25 25 -5 50 -145 120
-78 39 -170 83 -205 98 -34 15 -61 28 -60 30 2 1 37 7 79 13 l76 10 194 -85
c107 -47 207 -92 223 -100 31 -15 77 -20 60 -6 -5 5 -54 26 -109 47 -55 21
-136 55 -180 75 -44 21 -97 44 -117 51 -46 16 -40 29 15 30 23 0 51 4 62 9 19
8 19 9 -3 9 -13 1 -55 -4 -93 -10 -54 -8 -73 -8 -85 2 -12 10 -15 10 -12 -1 2
-10 -13 -16 -52 -21 -202 -25 -255 -33 -339 -50 -75 -15 -96 -17 -103 -7 -5
10 11 16 65 25 39 7 128 26 197 43 69 17 177 41 240 54 63 13 116 28 118 35 4
12 -32 8 -112 -15 -69 -19 -97 -18 -153 10 -56 27 -103 40 -103 28z m-256
-192 l27 -49 -43 19 c-24 11 -51 20 -60 20 -10 0 -18 2 -18 5 0 7 53 54 61 55
3 0 18 -22 33 -50z"/>
<path d="M1017 1496 c-81 -35 -159 -67 -175 -71 -15 -4 -22 -9 -16 -12 7 -2
56 15 110 37 55 23 129 53 167 67 37 14 67 30 67 34 0 11 18 18 -153 -55z"/>
<path d="M1319 1536 c6 -8 25 -19 41 -26 24 -10 28 -15 19 -26 -6 -8 -16 -14
-21 -14 -6 0 -5 7 2 15 7 8 9 15 6 15 -12 0 -66 -44 -66 -53 0 -6 9 -2 20 8
11 10 23 16 26 13 3 -3 -8 -16 -23 -28 -21 -17 -36 -20 -63 -16 -19 3 -44 6
-54 6 -19 0 -19 1 -1 20 17 18 17 20 2 14 -9 -3 -17 -10 -17 -14 0 -4 -19 -12
-42 -18 -44 -12 -118 -65 -118 -85 0 -6 15 3 33 21 50 49 91 62 161 51 44 -7
68 -7 90 3 17 7 36 12 42 10 6 -1 18 5 25 15 13 15 12 15 -8 4 -30 -16 -29 -1
2 22 24 17 26 17 116 -28 50 -26 93 -44 95 -42 3 2 -59 36 -137 76 -78 39
-136 65 -130 57z"/>
<path d="M1485 1367 c-38 -17 -72 -35 -73 -39 -2 -5 -7 -6 -12 -3 -4 3 -18 1
-31 -3 l-23 -9 22 -5 c14 -4 20 -2 16 4 -4 6 -1 9 7 6 8 -3 30 4 50 14 20 10
47 21 60 23 13 3 25 9 27 14 2 6 9 8 16 5 7 -3 13 2 13 11 0 8 -1 15 -1 14 -1
0 -32 -15 -71 -32z"/>
<path d="M1580 1375 c-1 -11 -2 -24 -1 -29 1 -5 -4 -13 -11 -17 -10 -7 -10 -9
1 -9 11 0 11 -3 1 -15 -7 -8 -17 -12 -24 -9 -6 3 -3 -1 7 -9 17 -14 16 -16
-18 -28 -30 -11 -33 -15 -18 -21 11 -5 5 -6 -17 -3 -21 3 -30 2 -22 -3 9 -6
-5 -17 -45 -35 -32 -15 -52 -27 -45 -27 7 0 32 10 55 22 23 11 53 24 67 28 14
4 24 13 22 20 -2 8 3 10 13 7 8 -4 15 -2 15 3 0 5 6 7 13 4 10 -4 13 5 12 33
-1 21 1 40 5 43 3 3 3 19 -1 35 -5 21 -7 24 -9 10z"/>
<path d="M736 1353 c-4 -4 7 -19 24 -35 36 -32 52 -38 25 -8 -26 29 -9 25 60
-14 33 -19 59 -39 57 -46 -2 -8 3 -10 13 -6 10 4 14 2 9 -5 -4 -7 -1 -10 6 -7
8 2 22 -4 32 -14 10 -10 30 -18 46 -18 22 0 15 7 -43 40 -131 74 -223 119
-229 113z"/>
<path d="M910 1298 c0 -5 9 -8 20 -8 11 0 20 -4 20 -10 0 -5 7 -10 15 -10 8 0
15 -4 15 -10 0 -5 6 -10 13 -10 6 1 2 9 -10 19 -13 11 -23 22 -23 25 0 13 23
5 36 -11 7 -10 16 -14 21 -10 4 5 -1 14 -12 20 -22 13 -95 16 -95 5z"/>
<path d="M1260 1288 c-30 -11 -57 -22 -60 -25 -8 -8 48 8 98 28 63 25 31 22
-38 -3z"/>
<path d="M728 1283 c6 -3 12 -11 12 -19 0 -8 4 -14 9 -14 4 0 20 -11 35 -25
15 -13 36 -30 47 -36 11 -6 18 -13 15 -16 -3 -3 -21 4 -41 16 -20 11 -33 16
-29 10 4 -8 -1 -9 -17 -5 l-24 7 24 -15 c14 -7 32 -11 40 -8 9 3 12 1 7 -6 -5
-8 -1 -10 10 -5 12 4 15 3 10 -5 -5 -8 -1 -10 10 -5 12 4 15 3 10 -6 -4 -6 -4
-11 1 -10 20 3 33 -2 30 -12 -1 -7 13 -21 32 -32 19 -12 31 -16 27 -9 -8 14
-5 15 18 6 9 -3 13 -10 10 -15 -3 -5 3 -6 12 -2 12 4 15 3 10 -5 -5 -8 -1 -10
10 -5 13 5 15 3 9 -8 -5 -8 -4 -11 0 -6 25 22 8 40 -83 94 -54 31 -101 62
-107 68 -5 6 -23 19 -38 29 -42 26 -24 32 18 7 49 -28 60 -26 13 3 -21 12 -36
25 -34 27 2 2 -10 4 -27 5 -18 1 -26 -1 -19 -3z m208 -155 c40 -23 72 -44 69
-46 -2 -3 -20 5 -40 17 -40 23 -49 26 -40 11 9 -15 -9 -12 -31 6 -18 14 -18
15 6 9 18 -4 14 0 -12 15 -35 19 -47 30 -32 30 4 0 40 -19 80 -42z"/>
<path d="M1035 1269 c3 -4 -2 -9 -10 -11 -12 -2 -11 -6 6 -16 19 -12 21 -12
16 1 -4 11 1 17 16 19 20 3 19 4 -5 9 -15 4 -25 3 -23 -2z"/>
<path d="M1150 1248 c-14 -6 -42 -19 -62 -29 -27 -13 -38 -15 -42 -6 -2 7 -4
-8 -4 -33 0 -25 2 -38 5 -30 3 8 11 18 17 22 7 5 6 8 -4 8 -8 0 3 12 25 26 25
15 49 23 65 20 14 -3 19 -3 11 1 -10 4 -8 9 10 19 29 16 14 17 -21 2z"/>
<path d="M70 1223 c1 -9 196 -124 325 -193 74 -39 168 -93 334 -192 36 -21 68
-38 73 -38 4 0 8 -15 8 -32 0 -18 5 -40 10 -48 7 -11 10 -6 10 22 l0 36 113
-74 c92 -61 117 -73 140 -68 30 6 37 -10 10 -24 -10 -5 -61 -24 -113 -42 -52
-17 -99 -36 -104 -40 -8 -8 90 21 183 54 24 9 44 16 45 16 1 0 1 -116 -2 -257
-2 -142 1 -278 6 -303 6 -30 8 26 5 170 -2 118 -1 268 4 333 5 64 5 117 1 117
-4 0 -18 -4 -31 -9 -25 -10 -24 -10 -211 112 -27 18 -59 38 -70 44 -12 7 -20
18 -18 24 1 6 -2 7 -8 4 -6 -4 -30 6 -53 21 -23 15 -64 40 -92 54 -92 48 -440
243 -455 255 -29 23 -110 66 -110 58z"/>
<path d="M900 1227 c0 -3 29 -21 65 -40 35 -19 62 -30 59 -26 -3 5 -29 22 -57
37 -66 34 -67 35 -67 29z"/>
<path d="M180 1195 c0 -5 99 -55 108 -55 10 0 -57 40 -85 51 -13 5 -23 7 -23
4z"/>
<path d="M1130 1185 c-14 -8 -19 -14 -12 -15 7 0 11 -4 7 -9 -9 -15 13 -23 32
-12 14 8 15 10 3 11 -13 0 -13 1 0 10 11 7 11 10 2 10 -7 0 -10 5 -7 10 8 13
5 12 -25 -5z"/>
<path d="M2410 1165 c-76 -31 -429 -168 -518 -200 -40 -15 -71 -29 -69 -31 4
-4 60 16 382 136 225 84 251 94 270 107 30 20 -1 14 -65 -12z"/>
<path d="M2770 1121 l0 -70 -37 15 c-42 17 -103 45 -117 52 -5 3 -6 0 -3 -5 4
-6 40 -26 82 -44 l75 -34 0 -118 c0 -116 0 -118 -25 -127 -19 -7 -39 -3 -91
21 -37 16 -69 27 -71 25 -5 -5 83 -46 98 -46 5 0 13 -9 19 -20 14 -27 11 -26
-71 16 -39 19 -73 33 -76 31 -2 -3 30 -21 71 -41 42 -19 76 -40 76 -46 0 -16
-8 -13 -97 35 -46 25 -83 43 -83 40 0 -2 14 -12 30 -20 17 -9 28 -20 25 -25
-3 -5 0 -12 6 -16 8 -5 9 -3 4 6 -6 10 -4 12 9 7 10 -4 21 -7 24 -7 4 -1 -3
-6 -16 -13 -21 -12 -20 -14 43 -47 69 -37 69 -38 57 -58 -7 -10 -16 -10 -38
-2 -26 9 -27 9 -11 -4 14 -11 15 -15 5 -20 -7 -3 -1 -3 15 0 23 5 27 3 27 -15
0 -21 1 -21 38 -6 46 20 58 31 33 31 -11 0 -17 -4 -15 -8 3 -4 -2 -8 -10 -8
-23 0 -28 18 -9 30 17 11 17 11 1 6 -20 -6 -25 10 -5 17 6 3 3 6 -8 6 -17 1
-18 3 -5 12 13 9 12 10 -3 5 -18 -6 -83 21 -74 31 3 2 15 -1 27 -7 17 -9 32
-9 66 1 l44 13 0 159 c0 155 0 157 20 147 27 -14 26 2 -1 18 -18 12 -20 21
-17 83 2 38 0 69 -4 69 -5 0 -8 -31 -8 -69z m0 -370 c0 -23 -5 -30 -26 -35
-34 -9 -44 1 -13 13 l24 10 -25 1 c-20 0 -22 2 -10 10 13 9 13 10 0 11 -10 0
-8 3 5 9 35 15 45 11 45 -19z m-100 -32 c19 -11 26 -17 15 -13 -11 4 -31 8
-45 9 -43 4 -45 5 -30 15 19 13 19 13 60 -11z"/>
<path d="M2455 1146 c-22 -12 -74 -35 -115 -51 -117 -45 -181 -76 -175 -86 4
-5 11 -9 16 -9 6 0 8 4 5 8 -8 13 187 96 198 85 3 -4 6 -1 6 5 0 7 7 12 16 12
13 0 15 -11 13 -60 -1 -33 1 -63 5 -67 4 -5 6 25 4 64 l-3 73 38 15 c20 8 37
19 37 25 0 13 2 13 -45 -14z"/>
<path d="M996 1144 c16 -13 16 -15 2 -10 -25 7 -22 -1 3 -15 17 -8 20 -8 14 1
-5 8 -3 11 6 8 7 -2 14 -19 15 -37 1 -17 4 -34 7 -37 7 -7 77 15 77 25 0 4 10
8 22 8 13 1 24 7 26 12 2 5 10 7 19 4 12 -5 14 -3 8 7 -6 10 -4 12 11 6 14 -5
16 -4 8 4 -8 8 -31 2 -82 -20 -84 -35 -86 -36 -79 -11 6 23 0 31 -35 54 -34
21 -48 22 -22 1z"/>
<path d="M1093 1134 c0 -8 5 -14 11 -14 6 0 4 -5 -4 -10 -25 -16 3 -11 30 6
25 15 25 15 1 8 -15 -4 -21 -2 -17 4 3 5 0 12 -7 15 -8 3 -14 -1 -14 -9z"/>
<path d="M300 1135 c0 -3 37 -23 81 -46 90 -45 306 -172 439 -257 46 -30 89
-55 95 -56 13 -2 59 -32 106 -68 l36 -28 59 15 c84 22 236 73 254 86 12 9 11
10 -5 4 -60 -20 -152 -49 -165 -50 -8 -2 -35 -10 -59 -19 -64 -23 -79 -21
-150 28 -36 25 -68 43 -73 40 -4 -3 -8 1 -8 9 0 8 -12 18 -27 22 -16 3 -68 32
-118 65 -169 109 -465 272 -465 255z"/>
<path d="M2380 1063 c0 -10 -3 -42 -6 -70 -4 -29 -3 -53 2 -53 5 0 10 32 12
70 1 39 0 70 -3 70 -3 0 -5 -8 -5 -17z"/>
<path d="M2077 994 c-9 -9 -255 -100 -422 -156 -82 -27 -154 -54 -159 -59 -6
-5 3 -5 20 0 45 13 294 98 344 117 l45 17 216 -112 c119 -61 220 -111 225
-111 13 0 -109 79 -123 80 -7 0 -78 34 -159 75 -164 84 -161 72 -31 117 54 19
60 19 104 4 25 -9 48 -14 51 -12 2 3 -14 10 -37 17 -23 7 -41 16 -41 21 0 9
-24 11 -33 2z"/>
<path d="M2185 990 c-21 -9 -19 -10 41 -15 16 -1 45 -10 63 -19 36 -19 80 -31
65 -17 -11 9 -133 61 -142 60 -4 0 -16 -4 -27 -9z"/>
<path d="M2134 940 c27 -11 51 -18 54 -16 6 6 -36 23 -76 31 -15 3 -5 -4 22
-15z"/>
<path d="M1625 871 c-93 -32 -177 -61 -185 -64 -8 -3 -22 -8 -30 -10 -12 -4
-11 -6 3 -6 9 -1 17 -7 17 -15 0 -8 -44 -28 -115 -52 -63 -21 -113 -40 -110
-42 4 -4 70 15 183 55 44 16 68 29 61 34 -15 9 -4 39 14 39 16 0 315 98 336
110 33 19 -9 7 -174 -49z"/>
<path d="M2094 897 c0 -32 2 -33 137 -97 102 -48 139 -70 141 -85 8 -46 13 21
7 90 l-5 70 -2 -62 c-1 -35 -5 -63 -8 -63 -8 0 -247 119 -254 127 -3 3 11 3
30 0 l35 -6 -32 11 c-37 12 -46 33 -10 23 20 -5 20 -5 -3 9 -34 21 -35 20 -36
-17z"/>
<path d="M2412 829 c0 -64 4 -96 9 -83 8 22 4 173 -5 182 -3 2 -5 -42 -4 -99z"/>
<path d="M2440 905 c0 -7 77 -45 92 -45 7 0 -9 11 -36 25 -52 26 -56 28 -56
20z"/>
<path d="M1880 887 c0 -3 17 -14 38 -24 332 -172 452 -231 452 -224 0 5 -107
62 -237 127 -264 133 -253 127 -253 121z"/>
<path d="M2440 746 c0 -7 93 -57 98 -52 2 3 -19 16 -47 30 -28 15 -51 24 -51
22z"/>
<path d="M1345 690 c-38 -15 -97 -36 -130 -45 -33 -10 -55 -20 -50 -22 6 -2
58 13 115 32 58 20 117 39 133 42 15 3 27 9 27 14 0 14 -19 10 -95 -21z"/>
<path d="M2411 703 c0 -13 0 -26 0 -30 1 -5 36 -22 78 -39 42 -17 96 -41 119
-53 24 -12 46 -20 49 -17 6 5 -97 55 -189 92 -36 14 -48 25 -51 44 -4 23 -4
23 -6 3z"/>
<path d="M2440 704 c0 -3 37 -22 83 -43 103 -47 120 -53 112 -41 -3 6 -10 10
-16 10 -5 0 -46 18 -90 40 -85 42 -89 43 -89 34z"/>
<path d="M810 612 c0 -44 -3 -88 -6 -96 -4 -11 -2 -15 8 -11 11 5 14 25 12 91
-3 110 -14 123 -14 16z"/>
<path d="M1144 550 c0 -69 1 -97 3 -62 2 34 2 90 0 125 -2 34 -3 6 -3 -63z"/>
<path d="M2400 625 c0 -7 62 -38 80 -39 8 -1 70 -30 137 -64 68 -34 128 -62
135 -62 16 1 -322 169 -339 170 -7 0 -13 -2 -13 -5z"/>
<path d="M2358 335 c-4 -160 -10 -300 -12 -313 -3 -12 -1 -22 3 -22 11 0 23
307 19 485 -2 110 -5 78 -10 -150z"/>
<path d="M2410 503 c-1 -43 -3 -104 -7 -135 -3 -33 -1 -58 4 -58 5 0 10 61 12
135 1 74 0 135 -3 135 -3 0 -6 -35 -6 -77z"/>
<path d="M2761 543 c-1 -12 9 -32 22 -45 13 -13 54 -83 91 -156 37 -74 69
-132 71 -130 7 6 -133 279 -154 302 -10 12 -21 28 -24 36 -4 10 -6 8 -6 -7z"/>
<path d="M1148 280 c4 -187 10 -212 10 -45 0 72 -3 144 -7 160 -4 17 -5 -35
-3 -115z"/>
<path d="M2398 214 c-2 -47 0 -91 4 -98 4 -6 8 33 8 87 0 53 -2 97 -4 97 -3 0
-6 -39 -8 -86z"/>
<path d="M2390 50 c0 -29 2 -51 4 -49 8 8 10 88 3 95 -4 4 -7 -17 -7 -46z"/>
</g>
</svg>
