<svg width="300" height="273" xmlns="http://www.w3.org/2000/svg" preserveAspectRatio="xMidYMid meet" version="1.0">
 <metadata>Created by potrace 1.10, written by Peter Selinger 2001-2011</metadata>

 <g>
  <title>Layer 1</title>
  <path id="svg_2" d="m145.00001,2.26664c-3.55,1.25 -7.35,2.05 -8.4,1.75c-1.05,-0.3 -1.6,-0.15 -1.25,0.4c0.35,0.55 -3.2,1.2 -8.8,1.55c-8.15,0.55 -16.8,1.65 -33.05,4.25c-2.2,0.35 -5.9,0.85 -8.2,1.15c-5.5,0.65 -5.35,0 -5.35,26.10001c0,14 -0.4,23 -1,23.8c-0.75,0.85 -0.7,1.4 0,1.85c1.45,0.95 1.3,4.55 -0.2,4.55c-0.85,0.05 -0.75,0.35 0.25,1c2.45,1.6 2.5,1.4 2.35,-8.25c-0.05,-5.1 0.35,-9.8 0.9,-10.5c0.65,-0.85 0.65,-1.25 0,-1.25c-0.6,0 -0.9,-3.7 -0.7,-9.75c0.2,-5.35 0.35,-13.2 0.4,-17.45l0.05,-7.70001l4.25,-0.55c2.35,-0.3 10.55,-1.45 18.25,-2.5c15.7,-2.15 25.55,-3.25 30,-3.4l3,-0.1l-0.15,9c-0.1,4.90001 -0.2,9.85001 -0.25,10.95001c0,1.1 0.2,23.55 0.5,49.85l0.5,47.85l-3.3,-0.75c-1.8,-0.4 -5.8,-2 -8.9,-3.6c-3.1,-1.55 -6.15,-2.85 -6.7,-2.85c-0.6,0 -1.55,-0.8 -2.1,-1.75c-0.5,-0.95 -1.35,-1.7 -1.8,-1.6c-0.95,0.15 -2.75,-0.55 -10.55,-4.05l-5.75,-2.6l0.65,-16.8l0.65,-16.75l-3.25,-2.75c-3.6,-3.05 -11.85,-3.85 -13.9,-1.35c-0.6,0.7 -2.95,1.9 -5.15,2.65c-2.2,0.75 -4.55,1.95 -5.15,2.65c-0.6,0.75 -1.55,1.35 -2.1,1.35c-0.6,0 -4.55,2.25 -8.9,5c-5.85,3.8 -8.25001,4.85 -9.60001,4.15c-6.9,-3.4 -9.6,-4.6 -11,-4.8c-0.85,-0.1 -1.8,-0.6 -2.15,-1.05c-0.35,-0.45 -1.5,-0.95 -2.6,-1.1c-3.45,-0.5 3.25,3.5 9.95,5.9c3.35,1.25 8.1,3.55 10.55001,5.15l4.5,2.95l-2.75,-2.9l-2.75,-2.9l10.75,-6.15c13.1,-7.5 19.9,-10.6 21.4,-9.65c0.7,0.45 0.9,0.25 0.45,-0.45c-1.25,-2.05 3.95,-1.3 6.85,1l2.7,2.1l-0.35,13.8c-0.15,7.85 -0.7,13.5 -1.2,13.2c-0.5,-0.3 -0.55,0 -0.15,0.7c0.9,1.4 0.75,20.35 -0.1,22.6c-0.4,0.95 -1.45,1.25 -3.2,0.85c-1.5,-0.3 0.45,1.25 4.35,3.5c3.85,2.25 7.35,4.05001 7.8,4.10001c2.3,0.05 7.7,4.75 6.45,5.65c-1.6,1.25 -16.4,7.85 -19.75,8.85c-1.35,0.4 -6.65,2.5 -11.75,4.7c-5.1,2.15 -9.8,3.6 -10.4,3.2c-0.7,-0.4 -0.9,-0.25 -0.5,0.35c0.5,0.85 -3.05,2.9 -6.35,3.65c-0.25,0.1 -1,0.45 -1.55,0.8c-9.90001,6.35 -16.65001,5.75 -29.20001,-2.55c-5.4,-3.55 -11.8,-7.5 -14.3,-8.75c-2.45,-1.25 -6.2,-3.55 -8.35,-5.1l-3.9,-2.8l3.65,-1.5c1.95,-0.8 4.4,-1.5 5.4,-1.5c1,0 5.55,-1.6 10.1,-3.5c4.6,-1.95 8.8,-3.20001 9.4,-2.85001c0.6,0.35 0.8,0.25 0.45,-0.3c-0.75,-1.25 10.8,-5.8 12.35,-4.8c0.8,0.5 1,0.35 0.55,-0.4c-0.65,-1 -0.2,-1.25 1.95,-1.1c0.3,0 1.15,-0.65 1.95,-1.45c1.85,-1.8 16.10001,-6.6 19.70001,-6.6c1.45,0 5.3,1.35 8.45,3c7.15,3.7 7.7,3.25 7.95,-6.75c0.8,-28.6 1.4,-33.85 4.25,-35c2.2,-0.85 2.3,-1.05 0.65,-1.15c-2.4,-0.1 -26.6,12 -29.65,14.8c-2.35,2.2 -4.3,1.7 -8.60001,-2.2c-3.15,-2.85 -4,-1.35 -0.95,1.7c3.00001,3 7.35001,4.3 9.65001,2.85c1.55,-0.95 5.75,0.75 4.6,1.9c-0.25,0.25 0.45,0.5 1.6,0.6c1.1,0.05 2.6,0.85 3.25,1.75c0.65,0.9 1.6,1.5 2.15,1.4c0.5,-0.15 3.3,0.6 6.2,1.65c5.5,2 7.55,7.75 4.05,11.25c-0.95,0.95 -0.95,1.2 0.05,1.2c0.75,0 1.05,1 0.75,2.75c-0.25,1.5 -0.45,3.05 -0.5,3.4c-0.05,0.35 -2.95,-0.9 -6.45,-2.75c-6.35,-3.35 -6.35,-3.35 -10.5,-1.75c-4.5,1.8 -6.2,1.3 -4.2,-1.1c0.8,-0.95 1.05,-2.9 0.65,-5.3c-0.3,-2.05 -0.65,-4.3 -0.75,-4.95c-0.1,-0.65 -0.45,-1.1 -0.75,-1c-0.35,0.05 -3.3,-1.15 -6.55,-2.7c-6.35001,-3.05 -21.40001,-3.35 -30.55001,-0.65c-3.95,1.2 -11.3,1.4 -12.35,0.35c-0.35,-0.35 1.45,-1.7 4.05,-2.95c2.65,-1.25 5.1,-3.3 5.6,-4.55c1.25,-3.2 9.65,-36.95 9.7,-38.8c0,-1 -5.65,-3.95 -16.5,-8.65c-9.1,-3.95 -16.5,-6.8 -16.5,-6.45c0,0.8 7.7,4.55 22.5,10.95c5.4,2.4 8.95,4.45 8.85,5.3c-0.7,5.8 -7.8,29.6 -9.15,30.75c-1.6,1.3 -1.6,1.35 0,0.8c1.5,-0.5 1.6,-0.25 0.75,2.1c-0.55,1.5 -1.2,3.3 -1.45,4c-0.35,0.95 -1.05,0.85 -3.1,-0.45c-2.35,-1.55 -2.45,-1.85 -0.95,-2.95c1.5,-1.05 1.35,-1.3 -1.3,-1.85c-1.6,-0.35 -3.75,-1.55 -4.7,-2.6c-0.95,-1.1 -2.4,-1.95 -3.25,-1.95c-0.8,0 -3,-0.95 -4.85,-2.1c-1.85,-1.15 -3.35,-1.7 -3.35,-1.25c0,0.5 2.05,2.15 4.5,3.7c5.6,3.55 5.85,4.3 0.45,1.5c-8.35,-4.35 -4.55,-0.95 4.6,4.15l9.55,5.25l-3.95,1.8c-8.45,3.75 -11.7,5.45 -13.4,6.9c-3.5,3 -1.6,3 3.7,0c5.15,-2.9 5.55,-3 7.85,-1.5c1.75,1.15 3.6,1.45 6.55,0.95c3.1,-0.5 4.15,-0.3 4.15,0.65c0,0.95 0.4,0.85 1.25,-0.3c4.1,-5.45 30.45,-3.35 35.90001,2.85c3.15,3.6 1,13.4 -2.95,13.4c-1,0 -3.70001,0.9 -5.95001,2c-2.3,1.1 -4.55,2 -5.05,2c-0.5,0 -8.05,2.85 -16.8,6.35c-8.75,3.50001 -17.55,6.90001 -19.55,7.55001c-4.4,1.45 -6.1,3.25 -5.25,5.5c0.6,1.5 11.45,9.6 12.85,9.6c0.35,0 4.2,2.25 8.65,5c4.45,2.75 8.25,5 8.55,5c0.25,0 2.1,1.15 4.15,2.5c2,1.4 4.9,2.5 6.45,2.5c1.5,0 2.75,0.45 2.75,1c0,0.55 0.75,1 1.6,1c1.3,0 1.4,-0.3 0.5,-1.4c-1,-1.15 -0.25,-1.7 4.1,-3.15c2.90001,-0.95 10.05001,-3.85 15.80001,-6.45c5.8,-2.6 14.8,-6.4 20,-8.45c11.35,-4.45 15.6,-6.25 19.15,-8.15c1.45,-0.75 3.4,-1.4 4.25,-1.4c4.35,0 0.75,-3.7 -8.4,-8.70001l-7,-3.8l0,-8.75c0,-9.55 0.05,-9.65 4.75,-6.75c1.8,1.1 3.25,1.7 3.25,1.35c0,-0.35 0.8,0.05 1.75,0.9c0.95,0.8 2.8,1.85 4.15,2.25c1.85,0.55 2.05,0.9 1,1.65c-1,0.7 -0.8,0.8 0.75,0.35c1.2,-0.3 2.45,-0.1 2.8,0.45c0.4,0.6 1.3,1.05 2.1,1.05c0.8,0 4.2,1.35 7.6,3c3.4,1.65 6.75,3 7.45,3c0.7,0 2,0.75 2.9,1.6c0.85,0.9 1.85,1.4 2.1,1.1c0.3,-0.3 5.15,1.75 10.75,4.55001c5.55,2.8 13.65,6.5 17.90001,8.25c4.25,1.75 7.45,3.45 7.2,3.75c-0.55,0.55 8.3,2.95 9.95,2.7c0.5,-0.05 1.15,0.3 1.5,0.85c0.3,0.5 2.35,1.85 4.55,2.95c4.6,2.35 4.8,2.25 -9.45,5.15c-10.15,2.1 -11,2 -11,-0.95c0,-2.35 -2.2,-2.15 -3.2,0.3c-0.40001,0.95 -1.45001,1.75 -2.35001,1.75c-0.85,0 -1.3,0.4 -1,0.9c0.3,0.55 -0.55,1.85 -1.95,2.9c-2.35,1.9 -3.6,4 -1.55,2.75c0.5,-0.35 3.55,0.6 6.75,2c7.45001,3.35 9.65001,3.85 8.90001,1.9c-0.35,-0.8 -0.85,-2.1 -1.15,-2.85c-0.7,-1.65 0.5,-1.95 15.55,-4.1c5.8,-0.8 12.1,-1.75 14.1,-2.1c3.5,-0.6 6.35,0.5 25.9,9.9c9.8,4.75 21,11.05 21,11.85c0,0.75 -9.5,5.85 -12,6.4c-0.25,0.1 -2.5,1.05 -5,2.2c-2.45,1.15 -7.65,3.4 -11.5,5c-5.2,2.2 -6.9,3.4 -6.7,4.7c0.25,1.45 0,1.5 -1.85,0.55c-1.15,-0.65 -2.35,-0.95 -2.6,-0.65c-1,0.95 4.05,2.9 7.75,3c2.05,0.05 3.5,0.55 3.15,1.05c-0.3,0.5 -0.1,0.6 0.45,0.25c0.6,-0.35 3.7,0.45 6.9,1.75l5.9,2.4l0.3,8.6c0.15,4.75 0.05,8.6 -0.25,8.6c-0.6,0 -2.55,-0.95 -6.8,-3.2c-1.25,-0.65 -6.05,-3.15 -10.75,-5.55c-6.65,-3.4 -7.75,-4.2 -5,-3.8l3.5,0.5l-3.25,-1.45c-3.8,-1.75 -4.2,-2.5 -1,-1.9l2.25,0.45l-2.25,-1.2c-4.5,-2.35 -2.6,-3.9 2.25,-1.85c2.5,1.05 4.5,1.55 4.5,1.1c0,-0.8 -9,-4.65 -10,-4.25c-0.25,0.1 -0.4,1.85 -0.25,3.85c0.1,2.05 -0.3,4 -0.9,4.4c-0.65,0.4 5,3.7 12.95,7.55c12.95,6.25 16.3,8.6 14.65,10.25c-0.3,0.3 -2.25,-0.35 -4.25,-1.5c-5.4,-3.05 -9.1,-5 -14.7,-7.75c-2.75,-1.35 -6.35,-3.15 -8,-4.05c-1.65,-0.85 -6.3,-3.1 -10.3,-5l-7.25,-3.4l8.25,-3.2c8.2,-3.15 8.35,-3.15 13.25,-1.6c2.7,0.85 5.1,1.35 5.35,1.15c0.2,-0.25 -1.45,-0.95 -3.7,-1.65c-2.25,-0.65 -4.1,-1.65 -4.1,-2.15c0,-1.15 -4.2,-0.25 -8.5,1.7c-11.95,5.55 -56.75001,20.6 -57.95001,19.45c-1.25,-1.2 -0.35,-1.9 3.6,-2.9c8.25,-2.05 64.10001,-22.25 86.05001,-31.1c5.3,-2.15 10.2,-3.9 10.8,-3.9c1.2,0 4,-2.4 4,-3.45c0,-0.3 -1.7,0.25 -3.75,1.3c-2.05,1.05 -6,2.65 -8.75,3.5c-2.75,0.85 -9.95,3.6 -16,6.1c-6.05,2.55 -11.65,4.75 -12.5,4.9c-0.8,0.2 -2.85,0.9 -4.5,1.6c-1.65,0.7 -5.9,2.3 -9.5,3.55c-3.55,1.25 -8.95,3.25 -11.9,4.45c-3,1.15 -6.05,1.9 -6.8,1.6c-0.8,-0.3 -1.15,-0.1 -0.8,0.45c0.55,0.9 -1.05,1.4 -4.25,1.25c-0.65,0 -1.05,0.3 -0.8,0.65c0.25,0.4 -1.70001,1.3 -4.25001,2.05c-2.6,0.75 -9.85,3.1 -16.15,5.15c-6.25,2.1 -11.8,3.55 -12.25,3.3c-0.45,-0.3 -0.8,-0.1 -0.8,0.35c0,0.5 -3.5,1.9 -7.75,3.2c-4.25,1.25 -10.25,3.1 -13.3,4.15c-3.1,1.05 -6.35,1.9 -7.3,1.9c-1.4,0 -15.05,-8.25 -16.65,-10.05c-0.6,-0.7 -4.5,-2.2 -4.5,-1.75c0,0.15 -3.6,-2.2 -8,-5.2c-4.4,-3.05 -10.45,-6.85 -13.5,-8.45c-3,-1.55 -6.75,-3.7 -8.25,-4.75c-4.50001,-3.15 -55.95001,-28.95 -56.55001,-28.35c-0.7,0.7 -2.8,-0.45 19.8,10.8c23.35,11.6 34.4,17.55 34.85,18.8c0.15,0.55 0.85,0.95 1.55001,0.95c2.45,0 21.6,12.05 21.6,13.6c0,1.6 -7,-1.75 -11.1,-5.25c-0.85,-0.75 -2.2,-1.35 -3,-1.35c-0.8,0 -3,-1.05 -4.9,-2.35c-1.95,-1.25 -7.55001,-4.5 -12.50001,-7.15c-10,-5.4 -23.85,-13.3 -33,-18.85c-6.35,-3.85 -7.5,-4.25 -7.5,-2.65c0,0.55 0.6,1 1.3,1c1.3,0 11.55,6.3 12.6,7.7c0.35,0.45 1.1,0.9 1.7,1c1.5,0.25 29.9,15.9 36.15001,19.95c2.85,1.85 5.4,3.35 5.65,3.35c0.2,0 4.35,2.3 9.15,5.15l8.7,5.1l-0.4,16.65c-0.2,9.10001 -0.25,15.40001 -0.05,13.95001c0.25,-2.15 1,-2.75 4,-3.35c3.85,-0.7 14.2,-3.95 17.7,-5.55001c7.45,-3.35 8.15,-3.15 7.65,2.05001c-0.8,8.6 -0.15,55 0.75,55c0.4,0 0.7,-14.4 0.7,-32c0,-24.20001 0.3,-32.30001 1.25,-33.25001c1,-1 1.25,1.7 1.2,13.25001c-0.05,8 0.1,15.95 0.25,17.75c0.15,1.8 -0.05,3.25 -0.45,3.25c-0.45,0 -0.4,1.1 0.1,2.45c0.55,1.3 0.95,6.4 0.9,11.25c-0.05,14.25 0.1,17.3 0.9,17.3c0.75,0 0.75,-24.45 -0.05,-38.25c-0.4,-6.7 -0.25,-7.75 1.15,-7.75c1.45,-0.05 1.45,-0.15 0.15,-1c-1,-0.6 -1.55,-2.7 -1.65,-6.2c-0.35,-14.75001 -0.25,-14.05001 -2.1,-13.30001c-4.25,1.7 -9.2,1.8 -9.85,0.15c-0.35,-0.9 -1.15,-1.65 -1.85,-1.65c-1.5,0 -14.15,-7.95 -17.35,-10.9c-1.25,-1.15 -2.95,-2.1 -3.75,-2.1c-0.8,0 -1.45,-0.7 -1.45,-1.5c0,-2.15 0.45,-2 8.45,3c3.95,2.45 7.55,4.5 8,4.5c0.45,0 3,1.6 5.7,3.6c3.15,2.35 5.6,3.45 6.9,3.1c1.05,-0.3 1.95,0 1.95,0.6c0,0.6 0.55,0.35 1.25,-0.55c0.7,-0.85 4.2,-2.4 7.75,-3.35c3.6,-1 9.45,-2.85 13,-4.2c7.5,-2.75 10.15,-3.15 10.7,-1.6c0.2,0.6 -4.65,2.7 -11.4,4.85c-13.95,4.4 -16.45,5.4 -14.2,5.5c0.85,0 6.4,-1.5 12.35,-3.4c5.95,-1.95 11.25,-3.25 11.7,-2.95c0.45,0.3 0.85,0.05 0.85,-0.55c0,-1.55 2.65,-1.25 4.45,0.5c1.35,1.4 1.55,1.4 1.55,0.1c0,-0.85 -0.8,-1.65 -1.75,-1.85c-0.95,-0.2 1.65,-1.4 5.75,-2.75c4.15,-1.3 11.55,-3.65 16.50001,-5.2c4.95,-1.55 11.8,-4.05 15.2,-5.5l6.2,-2.6l22.8,11.35c21.5,10.75 25.35,13 23.4,13.7c-0.75,0.25 -34.4,-15.8 -36.65,-17.5c-2.3,-1.75 -10.05,-5.3 -11.45,-5.25c-1.65,0.05 -1.85,0 27.55,14.95l20.55,10.5l-0.55,26.50001c-0.35,14.6 -0.85,28.85 -1.15,31.75c-0.3,3.1 -0.15,5.25 0.4,5.25c1,0 1.9,-17.3 2.65,-51c1.2,-52.70001 1.65,-60.00001 3.55,-60.00001c0.65,0 0.85,3.2 0.5,9.25c-0.25,5.1 -0.7,25 -0.95,44.25c-0.25,19.25001 -0.8,40.15001 -1.15,46.50001c-0.35,6.3 -0.4,11.25 -0.05,10.95c0.95,-0.9 1.55,-7.1 1.75,-18c0.2,-8.35 0.45,-9.95 1.8,-9.95c1.15,-0.05 1.25,-0.25 0.4,-0.8c-2.55,-1.65 -1.55,-31.50001 1,-30.75001c1.2,0.35 2.9,0.8 3.7,1c0.85,0.2 6.6,2.90001 12.85,6.05001c13.2,6.6 16.8,7.9 16.8,5.95c0,-0.75 -0.35,-1.15 -0.8,-0.85c-1.5,0.9 -23.05,-9.85001 -21.65,-10.75001c0.9,-0.6 0.7,-0.8 -0.7,-0.6c-2.9,0.35 -11.3,-3.45 -11.8,-5.35c-0.55,-1.95 2.8,-0.95 14.65,4.55c4.35,2 8.1,3.4 8.4,3.1c0.5,-0.45 -3.7,-2.5 -19.5,-9.6c-2.45,-1.1 -4.25,-2.6 -4.25,-3.5c0,-0.9 0.35,-1.45 0.75,-1.25c0.4,0.2 5.25,2.5 10.75,5.1c5.5,2.6 11.7,5.6 13.75,6.65c5.1,2.55 15.10001,-0.75 10.6,-3.55c-0.65,-0.4 -0.9,-0.25 -0.55,0.3c0.35,0.55 -0.6,0.95 -2.25,0.95c-3.25,0 -3.5,-1.85 -0.5,-4.1c1.85,-1.4 1.85,-1.4 -0.45,-0.85c-1.7,0.45 -2.2,0.25 -1.7,-0.55c0.4,-0.65 1.35,-1.15 2.1,-1.15c0.75,0 1.65,-0.45 2,-1c0.4,-0.65 -0.25,-0.65 -1.95,0c-1.7,0.6 -2.55,0.6 -2.55,-0.05c0,-0.55 1.35,-1.25 3,-1.6c3.25,-0.65 3.15,-0.1 3.15,-15.1c0,-3.5 0.4,-5.05 1.1,-4.6c0.70001,0.45 0.75001,0.2 0.2,-0.75c-1.25,-2 -1.6,-9.7 -0.5,-10.35c0.5,-0.35 1.15001,-0.15 1.50001,0.35c0.65,1.1 4.55,0.25 4.55,-1c0,-0.45 -0.6,-0.6 -1.3,-0.35c-2.95,1.15 -5.70001,-2.95 -5.10001,-7.65c0.3,-2.4 0.5,-5.75 0.4,-7.4c-0.25,-3.65 -0.3,-1.5 0.55,-22c0.40001,-9.35 0.70001,-18.6 0.70001,-20.5c0,-1.95 0.5,-3.85 1.1,-4.25c0.85,-0.5 0.85,-0.7 0.05,-0.75c-2.00001,0 -1.65,-9.80001 0.35,-10.30001c1.6,-0.45 1.6,-0.5 -0.05,-0.6c-1.1,-0.05 -1.75,-0.8 -1.65,-1.85c0.35,-3.2 -0.05,-5.25 -0.95001,-5.25c-0.5,0 -0.65,3.5 -0.35,8.05l0.55,8.05001l-4.4,-1.65001c-2.4,-0.95 -6.25,-2.55 -8.45,-3.55c-2.25,-1.05 -4.75,-1.9 -5.6,-1.9c-3.8,0 -10.65,-3.15 -10.4,-4.8c0.15,-0.95 0.05,-1.15 -0.15,-0.5c-0.5,1.45 -6.4,0.55 -7.55,-1.1c-0.45,-0.7 -0.75,-0.55 -0.75,0.4c0,1.05 -0.25,1.15 -0.8,0.35c-0.9,-1.45 -6.2,-2.9 -6.2,-1.7c0,0.95 16.15,7.35 18.5,7.35l0.05,4.85c-0.85,2.45001 -8.04987,16.34978 -0.5,4.70001c-4.16658,8.29985 1.5,-1.5 2.15,-4.00001c1.45,-5.4 1.1,-5.35 9.85,-1.6c3.8,1.65 6.95,2.65001 6.95,2.30001c0,-0.35001 0.55,-0.10001 1.2,0.55c0.65,0.65 2.3,1.2 3.6,1.2c2.4,0 2.45,0.05 1.75,7.25c-1.2,12.75 -1.5,19.85 -1.6,36.5c-0.1,18.7 0.7,17.75 -10.45,12.25c-9,-4.45 -9.15,-4.5 -9.15,-2.65c0,0.75 0.45,1.35 1.05,1.3c0.6,-0.05 4.65,1.6 8.95,3.65c4.35,2.05 8.25,3.7 8.7,3.7c0.45,0 0.8,5.4 0.85,12.05c0.05,12.95 -1.45,15.9 -6.7,12.95c-3.65,-2.1 -13.55,-6 -14,-5.55c-0.45,0.5 10.4,5.55 11.9,5.55c0.45,0 1.3,0.9 1.9,2c1.45,2.7 1.4,2.65 -9.5,-2.75c-8.9,-4.4 -12.05,-6.75 -7.5,-5.55c4,1.05 1.85,-0.85 -4.2,-3.7l-6.15,-2.95l0.3,-5.75c0.2,-3.2 0.35,-7.65 0.35,-9.95c-0.05,-3.95 0.15,-4.25 4.75,-6.35c7.3,-3.45 7.2,-6 -0.25,-9.9c-1.8,-0.95 -4.2,-2.2 -5.3,-2.8c-2.1,-1.15 -11.95,-6.15 -14.5,-7.35c-2.9,-1.4 -7.5,-3.3 -8.55,-3.5c-0.55,-0.1 -2.5,-1.15 -4.35,-2.25l-3.4,-2.05l7.4,-0.75c9.3,-1 5.95,-2 30.75,9.1c19.35,8.65 28.8,11.75 25.3,8.25c-0.65,-0.65 -1.75,-1.25 -2.45,-1.25c-1.35,0 -17.7,-6.3 -19.2,-7.4c-0.55,-0.4 -4.6,-2.2 -9,-4c-4.4,-1.8 -9.35,-3.85 -11,-4.6l-3,-1.25l4,-0.7c7.2,-1.2 8.5,-1.6 8.5,-2.4c0,-0.45 -2.6,-0.45 -5.75,0.05c-3.15,0.5 -7.85,0.8 -10.4,0.6c-2.55,-0.15 -4.45,0.05 -4.2,0.45c0.25,0.4 0.35,0.75 0.15,0.75c-0.15,0 -9.5,1.4 -20.8,3.1c-26.7,4.05 -29,4.3 -29,3.15c0,-0.55 3.5,-1.5 7.75,-2.2c4.25,-0.65 14.95,-2.9 23.75,-5.05c8.8,-2.1 19.25,-4.35 23.25,-5c5,-0.8 7.25,-1.6 7.25,-2.6c0,-1.8 -1,-1.75 -10,0.6c-8.45,2.2 -12.55,2.5 -13.55,0.95c-0.75,-1.2 -2.85,-2.1 -10.3,-4.3c-2.85,-0.85 -4.95,-1.1 -4.6,-0.6c0.85,1.45 7.45,4.6 11.3,5.45c4.4,0.95 2.95,2.2 -4.15,3.65c-7.05,1.4 -15.7,-1.8 -15.7,-5.8c0,-1.2 -0.25,-2.9 -0.6,-3.75c-0.4,-1.05 -0.05,-1.6 1,-1.6c4.55,0 -2.45,-4.15 -13.45,-7.95c-3.05,-1.05001 -8.65001,-3.40001 -12.50001,-5.20001c-3.8,-1.8 -7.6,-3.4 -8.45,-3.5c-0.8,-0.1 -4.5,-1.3 -8.2,-2.6l-6.7,-2.45l3.5,-1.05c3.2,-1 4.35,-0.7 12.05,2.8c9.1,4.2 12.15,5.15 6.35,1.95c-4.85,-2.65 -2.75,-2.45 5.5,0.55c3.85001,1.4 9.95001,3.6 13.55001,4.9c3.65,1.25 7.5,2.9 8.6,3.55c1.4,0.90001 2.55,1.00001 3.8,0.30001c1.6,-0.90001 1.65,-1.05001 0.1,-1.65001c-0.95,-0.35 -1.4,-0.2 -1.05,0.35c0.85,1.40001 -0.55,1.2 -3.5,-0.5c-1.55,-0.9 -1.9,-1.45 -1,-1.5c0.95,-0.05 0.55,-0.65 -1,-1.6c-2.45,-1.45 -2.45,-1.45 -0.15,-0.85c7.75,2.1 15.3,6.65001 13.2,7.90001c-0.5,0.35 -0.7,1.25 -0.4,2.1c0.65,1.7 -0.75,1.95 -2.3,0.4c-1.35,-1.35 -14.35,-5.90001 -14.35,-5.00001c0,0.75001 6.55,4.05001 8.1,4.05001c0.55,0 3.05,0.9 5.5,2.05l4.45,2.05l6.25,-2.65c3.4,-1.4 10.3,-4.6 15.3,-7.00001c5.05,-2.45 9.65,-4.45 10.25,-4.45c0.65,0 1.15,-0.55 1.2,-1.25c0,-0.7 0.25,-4.85 0.6,-9.25c0.6,-7.95 0.55,-8 -1.3,-5.7c-1,1.3 -3,2.45 -4.35,2.65c-5.75,0.75 -33.7,12.55 -29.7,12.55c1.7,0 2.5,4.4 0.95,5.35c-0.6,0.35 -11,-3.85 -20.75,-8.35c-5.4,-2.45 -27.85001,-10.05 -28.85001,-9.7c-0.65,0.2 1.35,1.15 4.35,2.05c9.55,2.8 28.15001,10.2 27.85001,11.05c-0.2,0.4 0.8,1.4 2.15,2.15c3.55,1.95 2,1.75 -5.55,-0.7c-4.6,-1.5 -6.15,-2.45 -5.25,-3.05c0.85,-0.6 0.45,-0.7 -1.1,-0.25c-1.4,0.4 -2.1,0.3 -1.75,-0.3c0.85,-1.35 -18.10001,-8.45 -20.70001,-7.7c-1.75,0.5 -1.9,0.4 -0.65,-0.55c1.2,-0.95 0.9,-1.05 -1.5,-0.55c-2.25,0.45 -2.6,0.35 -1.5,-0.4c1.25,-0.9 1.15,-1.15 -0.75,-1.65c-2.1,-0.6 -3.35,-4.4 -1.4,-4.4c1,0 22.7,7.7 25.00001,8.9c2.1,1.05 7.85,2.45 7.1,1.7c-0.8,-0.8 -33.25001,-12.65 -33.60001,-12.3c-0.15,0.15 -0.35,2.85 -0.45,6c-0.2,5.6 -1.25,7.4 -2.3,3.95c-0.25,-0.95 -0.45,-26 -0.4,-55.6l0.05,-53.85001l2.65,0.5c1.4,0.25 8,1.6 14.6,3c6.6,1.4 16.50001,3.3 22.00001,4.2l10,1.7l-0.35,6.40001c-0.2,3.95 -0.75,6.4 -1.5,6.45c-0.65,0.05 -0.05,0.5 1.25,1.05c2.5,1 4.35,0.3 2.5,-0.9c-1.15,-0.75 -1.15,-8.2 0,-10.05001c0.4,-0.65 0.35,-1.2 -0.1,-1.25c-0.45,-0.05 0.35,-0.45 1.7,-0.85c2.35,-0.7 2.3,-0.8 -1.25,-1.5c-2.05,-0.45 -3.75,-1.25 -3.75,-1.8c0,-0.55 -0.65,-0.45 -1.5,0.25c-1,0.8 -1.5,0.85 -1.5,0.15c0,-0.6 -0.75,-0.8 -1.65,-0.45c-0.95,0.35 -1.4,0.25 -1.1,-0.3c0.3,-0.5 -0.85,-0.9 -2.6,-0.95c-1.75,0 -4.95,-0.4 -7.15,-0.85c-2.2,-0.45 -4.80001,-0.8 -5.75001,-0.8c-0.95,0.05 -1.75,-0.35 -1.75,-0.9c0,-0.5 -1.35,-0.7 -3,-0.4c-1.8,0.3 -3,0.1 -3,-0.55c0,-0.6 -0.35,-0.85 -0.8,-0.6c-0.85,0.55 -13.95,-1.75 -14.8,-2.6c-0.3,-0.3 2.65,-1.55 6.55,-2.75c3.85,-1.2 7.05,-2.35 7.05,-2.6c0,-0.95 -4.95,0.05 -11,2.2zm-58,86.65001c0,4.55 -0.3,9.2 -0.6,10.4l-0.6,2.15l-5.65,-2.25c-3.1,-1.25 -7.85,-3.4 -10.5,-4.8l-4.9,-2.5l6.85,-3.6c8.75,-4.65 8.6,-4.7 7.85,2.2c-0.4,3.5 -0.3,6.15 0.3,6.5c0.6,0.35 1,-2.1 1.1,-6.15c0.15,-5.45 0.55,-7 2.3,-8.45c3.4,-2.85 3.85,-2.15 3.85,6.5zm144.65001,26.85c0.1,2.8 -0.1,3 -2.35,2.45c-1.35,-0.35 -2.25,-0.25 -2,0.15c0.3,0.45 -0.7,0.85 -2.15,0.95l-2.6,0.15l2.45,-1.35c1.4,-0.75 3.4,-1.15 4.5,-0.85c1.65,0.45 1.7,0.35 0.5,-0.5c-1.25,-0.9 -1.25,-1.05 -0.1,-1.1c0.8,0 1.2,-0.25 0.85,-0.55c-1,-1.05 -14.85,6.55 -14.15,7.75c0.45,0.65 0.25,0.85 -0.4,0.4c-0.65,-0.35 -2.95,0.25 -5.15,1.35c-4.4,2.25 -7.55,2.7 -6.45,0.9c0.4,-0.65 0.15,-0.9 -0.7,-0.6c-0.75,0.25 -1.3,1 -1.15,1.6c0.15,0.65 -0.25,1.15 -0.8,1.15c-6.1,0 11.25,-10.8 18.4,-11.5c1.75,-0.15 4.75,-1 6.65,-1.85c4.6,-2.05 4.5,-2.1 4.65,1.45zm-72.15001,3.05c2.2,1 2.9,1.55 1.5,1.15c-1.35,-0.4 -3.45,-0.7 -4.65,-0.75c-1.2,-0.05 -1.9,-0.45 -1.6,-0.95c0.3,-0.55 -0.15,-0.65 -1.1,-0.3c-2.35,0.9 -5.3,-0.3 -3.5,-1.4c1.5,-0.95 3.45,-0.45 9.35,2.25zm63.90001,1.45c0.9,0.35 1.35,1 1.05,1.5c-0.8,1.25 0.05,1.15 4.15,-0.6c2.55,-1.05 3.45,-1.1 3.15,-0.25c-0.2,0.65 -1.7,1.5 -3.3,1.85c-1.65,0.35 -3.85,1 -4.95,1.35c-1.6,0.6 -1.7,0.55 -0.5,-0.35c2.25,-1.6 -0.15,-1.25 -3,0.5c-2.5,1.5 -2.5,1.5 -0.1,0.85c1.6,-0.45 2.15,-0.3 1.65,0.45c-0.85,1.4 0,1.4 2.65,0c3.25,-1.75 7.8,-2.85 7.8,-1.9c0,0.45 -1.7,1.4 -3.75,2.05c-2.05,0.7 -6.8,2.75 -10.55,4.6c-3.75,1.90001 -7.15,3.20001 -7.65,2.90001c-1.25,-0.8 -4.15,0.5 -3.5,1.55c0.3,0.5 -0.15,0.6 -1,0.3c-2.6,-1 -1.75,-1.95 4,-4.35001c3.05,-1.25 5.35,-2.5 5.05,-2.8c-0.25,-0.25 -2.6,0.55 -5.2,1.8c-2.6,1.25 -5.3,2.30001 -5.95,2.30001c-0.75,0 -1.1,0.9 -0.85,2.3c0.3,1.5 -0.2,2.6 -1.45,3.25c-1.6,0.9 -1.8,0.7 -1.4,-1.45c0.25,-1.35 0.85,-2.45 1.25,-2.45c0.45,0 0.6,-0.85 0.3,-1.90001c-0.3,-1.25 0.25,-2.3 1.6,-3.05c1.4,-0.75 2.1,-0.75 2.1,-0.1c0,0.6 -0.5,1.05 -1.15,1.05c-0.65,0 -0.85,0.35 -0.45,0.75c0.45,0.4 1.35,-0.05 2.05,-1.05c0.75,-0.95 1.7,-1.7 2.2,-1.6c2.2,0.4 4.4,-0.2 3.9,-1.05c-0.3,-0.5 -0.05,-1.25 0.6,-1.65c0.7,-0.45 0.9,-0.3 0.45,0.45c-0.95,1.55 -0.1,1.45 3.5,-0.4c1.6,-0.85 2.7,-1.95 2.4,-2.45c-0.3,-0.45 0.25,-1.35 1.25,-1.9c2.15,-1.25 1.8,-1.2 3.65,-0.5zm-73.00001,3.9c5,1.95 11.35,4.6 14.1,5.95c2.75,1.3 8.60001,3.70001 13.00001,5.35001l8,3.05l0.3,4.5l0.3,4.55l-7.8,-3.5c-37.30001,-16.90001 -38.30001,-17.45001 -38.30001,-20.60001c0,-3.45 -0.6,-3.5 10.4,0.7zm21.50001,37.55001c2.75,4.9 2.45,5.4 -2,3.6c-1.85,-0.75 -4.20001,-1.65 -5.20001,-2c-1.65,-0.55 -1.55,-0.9 1,-3.1c3.65001,-3.2 3.55001,-3.25 6.20001,1.5zm65.35,36.2c-0.5,7.45 -1.85,10 -3,5.65c-0.3,-1.3 -0.8,-1.65 -1.25,-0.95c-0.5,0.8 -2.15,0.55 -5.9,-0.9c-5.7,-2.25 -7.55,-2.55 -6.6,-1.05c0.35,0.55 0,0.75 -0.8,0.45c-2.25,-0.85 -1.55,-3.3 1.2,-4.35c1.45,-0.55 5.75,-2.3 9.6,-3.9c8.35,-3.5 7.35,-4.25 6.75,5.05zm10.25,13.55c1.65,0.95 3,2.35 3,3.2c0,0.9 3.85,3.45 9.5,6.3c5.25,2.65 9.65,5.25 9.85,5.75c0.55,1.65 -0.9,1.1 -9.75,-3.6c-4.75,-2.55 -7.7,-3.85 -6.6,-2.95c1.1,0.85 2,2.1 2,2.7c0,0.65 0.7,1.3 1.5,1.55c1.35,0.35 1.35,0.25 0,-0.75c-1.35,-1 -1.35,-1.1 0,-0.7c0.85,0.25 1.4,1 1.2,1.65c-0.15,0.8 0.5,1 2,0.55c1.8,-0.5 1.95,-0.4 0.8,0.4c-0.8,0.6 -2.4,0.8 -3.5,0.5c-1.1,-0.3 1.15,1.3 5,3.5c4.9,2.8 7.05,4.6 7.1,6.05c0.15,2.75 0.8,2.95 -13.3,-4.55c-6.85,-3.6 -12.65,-6.4 -12.85,-6.15c-0.25,0.2 4.95,3.25 11.5,6.7c6.6,3.45 12.8,6.95 13.75,7.7c2.05,1.65 2.6,1.9 -15.3,-6.6l-11.15,-5.3l0.35,-6.6c0.2,-3.65 0.35,-7.65 0.4,-8.9c0,-2.65 0.55,-2.7 4.5,-0.45zm29.5,11.6c0,1.3 -2.05,2.6 -4.1,2.6c-1.15,0 -0.75,-2.25 0.6,-3.25c1.65,-1.2 3.5,-0.85 3.5,0.65zm-182.35001,6.65c9.1,6.05 11.05,6.95 13.6,6.4c2.15,-0.5 2.85,-0.3 2.55,0.6c-0.45,1.45 -21.6,9.20001 -22.9,8.40001c-0.5,-0.3 -0.9,-0.1 -0.9,0.5c0,0.55 -0.85,1.05 -1.9,1.05c-2.05,0 -3.05,-8.95001 -2.3,-19.75001c0.4,-5.25 -0.75,-5.55 11.85,2.8zm172.35001,-1.95c1.95,1.1 2.7,1.75 1.75,1.45c-4.75,-1.5 -5,-1.5 -2,0.1c1.8,0.95 3.25,2.1 3.25,2.6c0,0.45 -2.25,-0.4 -4.95,-1.9c-3.2,-1.8 -4.5,-3.05 -3.75,-3.55c1.6,-1.05 1.7,-1 5.7,1.3z"/>
  <path id="svg_3" d="m212.50002,121.04998c-8.2,4.6 -8,5.3 0.3,1c6.7,-3.45 9.1,-5.05 7.7,-5c-0.55,0 -4.15,1.8 -8,4z"/>
  <path id="svg_4" d="m215.50002,126.99998c-0.35,0.55 -0.05,1 0.7,1.05c0.7,0 -0.5,1.1 -2.7,2.5c-5.3,3.25 -3.4,3.15 2.15,-0.1c4.4,-2.55 5.7,-3.9 2.7,-2.75c-1.15,0.45 -1.45,0.25 -0.95,-0.55c0.4,-0.6 0.25,-1.15 -0.3,-1.15c-0.55,0 -1.25,0.45 -1.6,1z"/>
  <path id="svg_5" d="m254.10002,228.39999c1.1,1.05 14.15,7.7 14.45,7.35c0.45,-0.4 -12.85,-7.75 -14.1,-7.75c-0.4,0 -0.6,0.2 -0.35,0.4z"/>
  <path id="svg_13" d="m195.10002,17.06665c0.7,0.7 17.1,5.3 32.4,9.05c20.05,4.95 46.95,13 48.85,14.65c1.55,1.3 1.95,64.95001 0.45,64.45001c-23.55,-7.6 -41.4,-12.5 -35.3,-9.7c2.45,1.15 36.85,12.15 37.95,12.15c0.4,0 0.5,-0.7 0.2,-1.5c-0.35,-0.85 -0.05,-1.5 0.65,-1.5c0.75,-0.05 0.65,-0.4 -0.3,-1.1c-1.1,-0.75 -1.15,-1.2 -0.3,-1.55c0.8,-0.3 0.9,-1.25 0.4,-2.65c-1,-2.75 -0.3,-4.95 1.25,-4c0.65,0.35 0.5,-0.1 -0.3,-1.1c-1.7,-2.05 -2,-6.75 -0.55,-7.85c0.65,-0.45 0.55,-0.75 -0.2,-0.75c-0.8,0 -0.9,-0.9 -0.3,-3c0.55,-1.85 0.5,-2.8 -0.05,-2.45c-0.55,0.3 -1,-2.3 -1.1,-6.25c-0.05,-3.75 -0.25,-8.6 -0.4,-10.8c-0.15,-2.2 -0.05,-4.7 0.25,-5.5c0.3,-0.85 0.5,-4 0.4,-7l-0.1,-5.5l3.9,7.5c2.15,4.1 3.65,7.95 3.35,8.5c-0.3,0.55 -0.2,0.65 0.25,0.25c0.45,-0.4 3.6,5 7.1,12c3.45,7 6.3,12.05 6.35,11.25c0,-0.85 -1.1,-3.7 -2.45,-6.4c-1.4,-2.75 -2.5,-5.3 -2.5,-5.75c0,-0.45 -1.3,-2.95 -2.9,-5.6c-1.65,-2.6 -3.1,-5.45 -3.25,-6.25c-0.2,-0.85 -0.6,-1.75 -0.9,-2c-0.35,-0.3 -1.65,-2.75 -2.95,-5.5c-1.25,-2.75 -3.2,-6.25 -4.3,-7.85c-2.4,-3.5 -1.15,-5.45 2.45,-3.7c2.1,1.05 2.15,1 0.6,-0.25c-1.65,-1.35 -1.3,-1.65 4,-3.65c9.3,-3.55 12.85,-5.3 11.65,-5.7c-0.65,-0.25 -5.3,1.4 -10.35,3.6c-10.15,4.35 -12.75,4.3 -23.55,-0.5c-2.2,-0.95 -4.2,-1.8 -4.5,-1.9c-0.25,-0.05 -3.35,-0.75 -6.8,-1.5c-4.4,-0.95 -5.95,-1.65 -5,-2.25c0.9,-0.65 0.6,-0.75 -0.85,-0.3c-1.7,0.45 -2.1,0.2 -1.9,-1.2c0.15,-1 0.05,-1.25 -0.15,-0.55c-0.85,2.45 -7.4,0.85 -6.65,-1.6c0.35,-1.05 0.25,-1.25 -0.3,-0.5c-1.05,1.4 -4.35,1.05 -15.35,-1.65c-4.65,-1.15 -9.2,-2.25 -10.05,-2.45c-0.9,-0.2 -4.05,-1.1 -7,-2c-6.2,-1.85 -12.75,-3.05 -11.85,-2.15z"/>
  <path id="svg_18" d="m178.55002,32.89998c0.6,0.6 7.65,2.75 15.7,4.75c8.75,2.2 14.45,4.05 14.05,4.65c-0.35,0.55 -0.1,0.7 0.55,0.3c0.65,-0.4 4.95,0.45 9.55,1.85c9.25,2.8 9.6,2.9 9.6,1.8c0,-1 -4.95,-3.25 -7.2,-3.25c-1,0 -2.6,-0.45 -3.55,-0.95c-4.65,-2.55 -23,-7.4 -27.5,-7.25c-1.55,0.05 -2.6,-0.25 -2.35,-0.6c0.2,-0.4 -0.55,-0.75 -1.75,-0.8c-1.2,-0.05 -3.5,-0.4 -5.15,-0.85c-2.2,-0.6 -2.75,-0.5 -1.95,0.35z"/>
  <path id="svg_20" d="m163.50001,38.99998c-6.05,2.7 -11.5,4.95 -12.15,4.95c-0.6,0.05 -1.7,0.8 -2.5,1.75c-1.15,1.45 -1.15,1.6 0.3,1.05c0.85,-0.3 2.9,0.1 4.5,0.9c5,2.65 14,5.35 26.3,7.95c4.1,0.85 10.3,2.65 13.85,3.95c3.5,1.35 6.7,2.25 7.1,2c1.1,-0.65 7.1,2.6 6.55,3.55c-0.9,1.45 1,1 3.1,-0.7c1.5,-1.2 1.6,-1.45 0.3,-1.05c-1.1,0.35 -1.6,0 -1.45,-1.05c0.3,-2 3.25,-3.7 3.25,-1.85c0,0.8 -0.65,1.15 -1.55,0.9c-1.2,-0.4 -1.15,-0.2 0.15,0.65c1.65,1 7.75,-1.85 7.75,-3.6c0,-0.3 -1,0.2 -2.2,1.05c-2.7,1.85 -3.9,2 -3.55,0.3c0.15,-0.7 2.2,-2.5 4.6,-4.05c2.4,-1.55 4.1,-3.1 3.75,-3.4c-0.3,-0.35 -3.75,1.5 -7.6,4.05c-8.8,5.85 -7.25,5.9 -28.15,-0.95c-2.55,-0.85 -6.8,-1.75 -9.5,-2.05c-2.65,-0.3 -6.2,-1.1 -7.85,-1.8c-1.65,-0.65 -4.7,-1.55 -6.75,-1.95c-2.05,-0.35 -3.75,-1.1 -3.75,-1.65c0,-0.5 -0.8,-0.95 -1.85,-0.95c-4,0 -2.9,-1.55 3.05,-4.3c11.85,-5.4 15.8,-6.75 15.9,-5.45c0.1,0.7 0.25,1.7 0.35,2.25c0.15,0.55 0.3,1.8 0.4,2.75c0.1,0.95 0.65,1.75 1.25,1.75c0.65,0 0.85,-0.7 0.4,-1.75c-1.15,-2.75 -1.2,-5.65 -0.2,-7c1.85,-2.45 -2.8,-1.2 -13.8,3.75z"/>
  <path id="svg_22" d="m178.60002,38.64998c0.35,1.55 1.25,3.35 2,3.95c1.85,1.5 1.8,2.5 -0.1,1.75c-0.8,-0.3 -1.5,-0.05 -1.5,0.55c0,0.6 0.9,1.1 2,1.1c1.1,0 2,-0.4 2,-0.95c0,-3.7 13.25,5.05 14.3,9.45c0.35,1.5 0.5,1.3 0.6,-0.8c0.1,-3.15 -3.15,-6.75 -7.95,-8.7c-1.6,-0.7 -3,-2 -3,-2.85c-0.1,-1.45 -0.15,-1.45 -0.75,0.05c-0.5,1.15 -1.15,1.45 -2.1,0.9c-0.75,-0.5 -1.1,-1.3 -0.8,-1.8c0.3,-0.5 0.15,-1.55 -0.35,-2.35c-0.7,-1.15 -0.9,-0.95 -0.95,0.85c0,1.3 -0.45,2.05 -1,1.7c-0.55,-0.35 -1,-1.45 -1,-2.5c0,-1.05 -0.45,-2.15 -1.05,-2.5c-0.65,-0.45 -0.8,0.3 -0.35,2.15z"/>
  <path id="svg_23" d="m219.11696,48.86648c-0.45,0.7 -0.4,0.95 0.05,0.55c0.45,-0.4 1.85,-0.1 3.1,0.7c1.95,1.3 2.3,1.3 2.8,0c0.3,-0.85 -0.05,-1.45 -0.85,-1.45c-0.75,0 -2.05,-0.25 -2.85,-0.55c-0.85,-0.35 -1.85,0 -2.25,0.75z"/>
  <path id="svg_26" d="m145.00001,50.09998c0,0.5 0.45,0.9 1.05,0.9c2.6,0 0.6,10.5 -2.05,10.85c-1.35,0.15 -2.95,0.8 -3.5,1.35c-0.7,0.75 -0.1,0.8 2,0.3c3.65,-0.95 5.1,-1 9,-0.15c2.9,0.6 2.85,0.55 -0.25,-0.5c-2.95,-1.05 -4.6,-3.85 -2.25,-3.85c0.55,0 1,0.5 1,1.1c0,0.6 0.55,0.85 1.25,0.65c0.7,-0.25 3.05,0.2 5.25,1c2.2,0.75 4.7,1.55 5.5,1.75c0.85,0.2 5.45,1.3 10.3,2.45c4.85,1.1 10.05,1.8 11.5,1.55c2.65,-0.55 2.65,-0.55 0.3,0.5c-1.3,0.55 -2.15,1.3 -1.85,1.6c0.35,0.3 1.5,0.1 2.6,-0.5c1.1,-0.6 2.85,-1.05 3.85,-1.05c1.7,0.1 1.7,0.15 -0.05,0.8c-1.95,0.8 13.35,4.75 16.2,4.25c1.05,-0.2 1.3,0.7 0.95,3.35c-0.4,3.4 2.1,6 3.95,4.15c0.3,-0.35 -0.05,-0.6 -0.8,-0.6c-0.75,0 0.15,-1.6 2.1,-3.75c2.25,-2.4 2.5,-2.9 0.7,-1.3c-1.55,1.35 -2.75,1.85 -2.75,1.15c0,-0.65 -0.45,-0.95 -1,-0.6c-0.55,0.35 -1,0.15 -1,-0.45c0,-0.55 0.35,-1.05 0.75,-1.05c0.4,-0.05 1.9,-0.95 3.25,-2.05c1.85,-1.45 2,-1.8 0.6,-1.3c-1.35,0.5 -1.7,0.35 -1.2,-0.45c1.9,-3.1 4.2,-3.05 11.65,0.15c8.55,3.7 48.2,16.7 50.5,16.6c2.45,-0.1 -6.95,-3.75 -13.6,-5.3c-4.1,-0.95 -9,-2.35 -10.95,-3.05c-1.9,-0.75 -5.95,-2.15 -9,-3.1c-3,-1 -5.95,-2.1 -6.5,-2.5c-0.55,-0.35 -3.45,-1.45 -6.5,-2.35c-9.05,-2.8 -9.05,-2.8 3.1,-9.65c6.15,-3.5 11.8,-6.35 12.55,-6.35c0.75,0 1.35,-0.3 1.35,-0.7c0,-0.4 0.75,-1 1.65,-1.35c1.45,-0.6 4.6,0.2 20.45,5.25c3.1,0.95 6.45,1.5 7.45,1.15c1.25,-0.45 -0.45,-1.35 -5.6,-2.95c-4.1,-1.3 -9.25,-2.9 -11.45,-3.6c-8.1,-2.65 -8.85,-2.55 -17.1,1.4c-4.35,2.1 -11.2,5.9 -15.25,8.4c-6.4,4 -11.25,5.35 -9.6,2.65c0.3,-0.45 -0.95,-0.1 -2.75,0.85c-1.8,0.95 -3.45,2.1 -3.65,2.5c-0.15,0.4 -1,0.75 -1.8,0.75c-0.8,0 -1.2,-0.4 -0.9,-0.9c0.3,-0.55 -0.15,-1.65 -1,-2.5c-1.2,-1.2 -1.25,-1.6 -0.25,-1.6c1.05,-0.05 1.05,-0.2 -0.05,-0.9c-0.9,-0.55 -2.05,-0.2 -3.25,1c-1.05,1.05 -2.3,1.9 -2.8,1.9c-2.4,0 -20.35,-4.15 -25.95,-6c-3.5,-1.15 -6.55,-1.95 -6.8,-1.7c-0.2,0.25 2.1,1.2 5.15,2.15c5.95,1.85 7.4,3.2 2.45,2.2c-2.1,-0.45 -2.85,-0.25 -2.35,0.45c0.45,0.75 -0.05,0.9 -1.5,0.45c-1.15,-0.4 -3.1,-0.8 -4.35,-1c-1.25,-0.15 -2.9,-0.55 -3.75,-0.85c-0.8,-0.3 -3.85,-1.3 -6.75,-2.3c-2.9,-1 -5.25,-2.1 -5.25,-2.55c0,-0.75 3.3,0.1 8.3,2.05c1.55,0.6 3.6,1.05 4.5,1.05c0.95,-0.05 -1,-1 -4.3,-2.1c-6.45,-2.2 -8.8,-3.55 -4.15,-2.45c1.7,0.4 2.6,0.3 2.2,-0.3c-0.3,-0.5 -1.95,-1.25 -3.6,-1.6c-1.95,-0.45 -2.9,-1.2 -2.7,-2.2c0.15,-0.85 -0.55,-1.7 -1.5,-1.85c-0.95,-0.15 -1.75,0.15 -1.75,0.65zm32,13.9c-1.25,0.8 -1.25,0.95 -0.1,1c0.8,0 1.2,0.25 0.95,0.5c-0.3,0.3 -2.05,0.2 -3.95,-0.2c-3.25,-0.65 -3.3,-0.7 -0.9,-1.4c4.05,-1.15 5.85,-1.1 4,0.1zm12.1,1.5c3.95,0.85 8.15,1.25 9.3,0.95c1.75,-0.5 1.85,-0.4 0.6,0.55c-1.25,0.95 -1.1,1.1 0.75,0.7c1.25,-0.3 2.05,-0.15 1.75,0.3c-0.25,0.45 0.65,1.05 2,1.4c1.4,0.35 2.5,1.05 2.5,1.55c0,0.55 -1.3,0.55 -3.25,-0.05c-14.05,-4.05 -18.2,-5 -20.55,-4.6c-1.5,0.2 -2,0.15 -1.2,-0.1c1.2,-0.35 1.05,-0.65 -0.5,-1.25c-3.45,-1.4 0.65,-1.1 8.6,0.55z"/>
  <path id="svg_27" d="m156.50001,51.54998c2.4,1.1 2.6,1.4 1,1.5c-1.3,0.05 -0.6,0.6 1.85,1.5c2.15,0.8 5,1.15 6.3,0.8c1.7,-0.4 2.35,-0.2 2.15,0.7c-0.3,1.3 14.3,5.8 18.7,5.75c1.1,0 -2.7,-1.25 -8.5,-2.8c-5.75,-1.55 -9.95,-2.85 -9.25,-2.9c2.75,-0.2 24.2,4.85 27.2,6.4c1.8,0.9 3.45,1.45 3.65,1.2c1.05,-1 -10.35,-4.9 -21.3,-7.25c-6.5,-1.4 -14.45,-3.45 -17.7,-4.5c-6.8,-2.25 -8.45,-2.4 -4.1,-0.4z"/>
  <path id="svg_30" d="m155.20001,64.14998c0.65,1.95 6.9,3.85 41.75,12.85c1.95,0.5 3.65,0.75 3.85,0.55c0.55,-0.55 -11.8,-4.35 -19.8,-6.1c-8,-1.75 -17.8,-4.85 -22.2,-7.1c-3.3,-1.65 -4.1,-1.7 -3.6,-0.2z"/>
  <path id="svg_31" d="m261.50002,64.99998c-0.35,0.55 -3.85,1 -7.8,1c-3.95,0 -7.85,0.5 -8.7,1.05c-1.05,0.65 0.5,0.8 5,0.35c7.45,-0.65 12,0.6 12,3.4c0,2.4 0.85,3.2 2.65,2.5c1.15,-0.45 1.1,-0.8 -0.35,-1.85c-1.6,-1.2 -1.4,-1.3 1.7,-0.9c3.55,0.5 5.1,-0.3 8,-3.95c1.4,-1.8 1.35,-1.85 -0.5,-0.95c-2.55,1.2 -8.85,0.85 -9.3,-0.55c-0.45,-1.4 -1.9,-1.4 -2.7,-0.1zm2.05,1.95c-0.35,0.55 1.1,0.75 3.45,0.55c4.2,-0.4 5.5,0.85 1.9,1.8c-2.5,0.65 -6.9,-0.8 -6.9,-2.3c0,-0.55 0.5,-1 1.05,-1c0.6,0 0.8,0.4 0.5,0.95z"/>
  <path transform="rotate(7.62431 169.24 75.0445)" stroke="null" id="svg_32" d="m146.41119,72.48674c3.03147,1.22612 39.84211,5.90769 45.76069,5.79623c5.1968,-0.05573 -16.88959,-4.0685 -25.98399,-4.7373c-4.61938,-0.27866 -11.40408,-0.94746 -15.44604,-1.39332c-4.90809,-0.55733 -6.35164,-0.44586 -4.33066,0.3344z"/>
  <path id="svg_33" d="m272.75002,70.39998c-0.75,0.75 -2.25,1.55 -3.3,1.75c-1.55,0.35 -1.65,0.55 -0.4,1c0.85,0.35 2.8,-0.4 4.5,-1.75c1.6,-1.3 2.4,-2.4 1.75,-2.4c-0.65,0 -1.8,0.65 -2.55,1.4z"/>
  <path id="svg_34" d="m217.65002,74.24998c0.1,1.8 0.3,4.8 0.4,6.75c0.1,2 0.4,2.7 0.65,1.65c0.5,-1.85 1.95,-1.9 6.8,-0.2c1.3,0.45 1.15,0.15 -0.5,-0.85c-3,-1.85 -2.4,-2 1.95,-0.45c1.8,0.6 2.75,1.4 2.2,1.75c-0.55,0.35 3.25,2.15 8.5,3.95c5.25,1.8 9.8,3.05 10.1,2.7c0.35,-0.3 0,-0.55 -0.75,-0.55c-0.75,0 -1.1,-0.25 -0.8,-0.55c0.3,-0.3 1.85,-0.25 3.4,0.15c2.55,0.65 2.65,0.8 0.85,1.55c-1.3,0.55 -0.6,0.65 2.05,0.35c2.2,-0.25 3.1,-0.15 2,0.2c-2.1,0.6 8.6,4.4 13.15,4.7c1.2,0.05 2,0.35 1.8,0.7c-0.5,0.8 4.65,3.15 5.35,2.45c0.3,-0.3 0,-0.55 -0.6,-0.55c-0.65,0 -0.95,-0.55 -0.65,-1.25c0.3,-0.85 -8,-4.05 -26.75,-10.25c-15.25,-5.05 -27.35,-9.6 -27.6,-10.35c-0.35,-1.05 0,-1.1 1.6,-0.25c2.65,1.4 3.5,1.4 2.6,-0.05c-0.5,-0.8 -0.05,-1 1.45,-0.6c1.2,0.3 2.15,0.4 2.15,0.2c0,-0.25 -8.8,-4.45 -9.4,-4.45c-0.05,0 0,1.45 0.05,3.25z"/>
  <path id="svg_35" d="m234.00002,78.39998c2.65,1.6 20.85,6.1 21.6,5.35c0.25,-0.25 -1.45,-0.95 -3.8,-1.55c-8.7,-2.1 -16.35,-4.1 -18.3,-4.7c-1.4,-0.45 -1.25,-0.2 0.5,0.9z"/>
  <path stroke="null" id="svg_36" d="m187.05002,79.8237c-0.75,1.9498 -0.5,10.94548 0.25,10.28077c0.45,-0.39882 0.65,-3.05764 0.45,-5.93803c-0.2,-2.88039 -0.5,-4.83019 -0.7,-4.34274z"/>
  <path id="svg_37" d="m194.00002,80.94998c-2.2,0.65 -1.8,0.95 3.5,2.5c3.3,1 7.35,2.35 9,3.05c4,1.75 12.6,3.7 13.25,3.1c0.3,-0.3 -1.55,-1.1 -4.05,-1.75c-2.5,-0.7 -4.45,-1.5 -4.25,-1.8c0.2,-0.3 -0.7,-0.6 -2.05,-0.7c-1.3,-0.05 -4.2,-1.1 -6.4,-2.25c-4.55,-2.35 -5.4,-2.55 -4.5,-1.1c0.35,0.55 -0.05,0.7 -0.95,0.4c-0.85,-0.35 -1.3,-1 -1,-1.5c0.3,-0.5 0.45,-0.85 0.25,-0.8c-0.15,0.05 -1.4,0.45 -2.8,0.85z"/>
  <path id="svg_38" d="m235.05002,80.94998c0.8,0.5 7,2.5 13.7,4.5c6.7,1.95 14.75,4.7 17.9,6.05c3.1,1.4 5.8,2.4 6,2.2c0.8,-0.8 -13.8,-6.9 -20.65,-8.65c-4.1,-1.05 -9.75,-2.6 -12.5,-3.45c-5.65,-1.8 -6.65,-1.95 -4.45,-0.65z"/>
  <path id="svg_39" d="m220.00002,83.94998c0,0.5 1.85,1.45 4.15,2.1c2.25,0.6 4.85,1.5 5.75,1.95c2.85,1.55 13.45,4.8 19.15,5.85c4.6,0.85 17.35,4.85 24.2,7.65c0.95,0.4 1.75,0.25 1.75,-0.3c0,-0.5 -1,-1.2 -2.25,-1.5c-1.25,-0.35 -6.25,-1.95 -11.15,-3.65c-4.85,-1.65 -9.7,-3.05 -10.7,-3.05c-2.75,0 -20.7,-5.9 -21.4,-7.05c-0.35,-0.5 -1.75,-0.95 -3.1,-0.95c-1.4,0 -3.4,-0.45 -4.45,-1.05c-1.3,-0.65 -1.95,-0.65 -1.95,0z"/>
  <path id="svg_40" d="m172.65002,86.49998c-0.25,0.55 -2.75,1.9 -5.55,3c-2.85,1.05 -6.55,3.2 -8.2,4.75c-1.65,1.5 -3.65,2.75 -4.45,2.75c-0.8,0 -1.45,0.45 -1.45,1c0,0.55 -0.55,1 -1.25,1c-0.7,0 -2.95,1.05 -5.05,2.3l-3.85,2.35l15.35,6.05c8.4,3.35 17.95,6.85 21.15,7.75c3.2,0.9 8.2,2.7 11,3.95c3.1,1.35 5.95,2 7.1,1.6c2.1,-0.7 0.55,-1.8 -3.85,-2.65c-1,-0.2 -3.25,-1 -5,-1.7c-7.35,-3.2 -8.8,-3.65 -9.85,-3c-0.6,0.35 -0.75,0.2 -0.4,-0.4c0.35,-0.6 -0.55,-1.35 -2.1,-1.7c-2.5,-0.65 -7.65,-2.8 -22.65,-9.55l-4.9,-2.25l7.4,-4c13.25,-7.3 20.25,-10.65 21.1,-10.15c0.45,0.3 0.8,-0.05 0.8,-0.8c0,-1.5 -4.8,-1.8 -5.35,-0.3zm-15.15,20.55c6.75,3.35 3.9,2.95 -4.5,-0.65c-3,-1.25 -4.6,-2.3 -3.5,-2.3c1.1,0 4.7,1.35 8,2.95z"/>
  <path id="svg_41" d="m262.00002,86.24998c1.4,0.6 4.7,2.1 7.45,3.35c4.7,2.2 7.25,2.3 6,0.3c-0.3,-0.5 -0.95,-0.7 -1.4,-0.4c-0.45,0.25 -3.35,-0.65 -6.45,-2c-3.1,-1.4 -6.2,-2.45 -6.9,-2.45c-0.65,0.05 -0.05,0.6 1.3,1.2z"/>
  <path id="svg_43" d="m0,89.54998c0,1.45 3.85,4.35 6.5,4.9l3,0.65l-2.95,-1.7c-1.65,-0.95 -3.6,-2.3 -4.35,-3.05c-1.4,-1.4 -2.2,-1.7 -2.2,-0.8z"/>
  <path id="svg_44" d="m173.00002,93.24998c0,4.15 6.5,8.7 12.55,8.75c1.7,0 6.75,5.7 6.05,6.8c-0.9,1.45 -8.9,0.2 -10.35,-1.6c-1.5,-1.85 -2.55,-1.15 -1.65,1.15c0.35,1 1.75,1.65 3.55,1.65c4.1,0 9.25,2.35 11.35,5.15l1.75,2.35l-0.75,-2.5c-0.35,-1.4 -0.95,-3.85 -1.25,-5.5c-0.5,-2.7 -6.55,-9.4 -8.55,-9.5c-0.45,0 -0.6,-0.35 -0.3,-0.8c0.25,-0.45 0.05,-1.45 -0.45,-2.25c-0.7,-1.15 -0.9,-0.95 -0.95,0.8c0,3.45 -5.6,2.4 -8.7,-1.65c-1.55,-2 -1.65,-3.45 -0.15,-2.5c0.65,0.4 0.95,0.15 0.65,-0.65c-0.8,-2.4 -2.8,-2.2 -2.8,0.3z"/>
  <path id="svg_45" d="m190.45002,92.54998c1.1,0.8 3.35,1.85 5,2.35c1.7,0.5 7.55,2.55 13.05,4.55c5.5,2 12.25,4.2 15,4.95c2.75,0.75 5.8,1.7 6.75,2.1c1,0.4 1.75,0.25 1.75,-0.35c0,-0.9 -2.6,-2.15 -5.55,-2.7c-0.55,-0.15 -3.25,-1.25 -6,-2.5c-2.7,-1.25 -5.6,-2.25 -6.45,-2.25c-0.8,0 -2,-0.35 -2.6,-0.85c-0.65,-0.5 -1.95,-0.6 -2.95,-0.2c-1.2,0.45 -1.55,0.3 -1.05,-0.5c0.45,-0.75 -0.05,-1.15 -1.4,-1.15c-1.45,0 -1.85,-0.4 -1.35,-1.25c0.5,-0.85 0.15,-0.8 -1,0.15c-0.95,0.75 -2,1.1 -2.35,0.75c-0.35,-0.35 -0.1,-0.65 0.6,-0.65c0.65,0 0.9,-0.5 0.55,-1.1c-0.4,-0.65 -1.95,-0.85 -3.6,-0.5c-1.85,0.35 -3.1,0.1 -3.4,-0.65c-0.25,-0.7 -1.95,-1.35 -3.7,-1.45c-3.05,-0.2 -3.15,-0.15 -1.3,1.25z"/>
  <path id="svg_46" d="m225.50002,91.99998c0.35,0.55 1.85,1 3.3,1c2.1,0.05 2.35,0.25 1.2,1c-1.8,1.15 -0.3,1.2 2.5,0.05c1.7,-0.65 1.4,-0.95 -2,-1.9c-4.95,-1.4 -5.8,-1.45 -5,-0.15z"/>
  <path id="svg_50" d="m173.00002,105.89998c0,0.5 -1,0.65 -2.25,0.35c-1.25,-0.3 -1.95,-0.2 -1.55,0.25c1.45,1.55 8.05,1.5 6.75,-0.1c-1.35,-1.6 -2.95,-1.85 -2.95,-0.5z"/>
  <path id="svg_51" d="m218.40002,108.74998c-3.25,2.7 -3.95,5.55 -1.15,4.65c2.85,-0.9 7.75,-4.5 7.75,-5.7c0,-0.5 -0.75,-0.35 -1.7,0.45c-1.15,0.9 -1.45,0.95 -0.95,0.1c1.15,-1.85 -1.5,-1.5 -3.95,0.5z"/>
  <path id="svg_55" d="m172.50002,128.99998c3.3,1.55 6.7,2.85 7.5,2.9c0.85,0 -1.6,-1.3 -5.35,-2.95c-8.65,-3.75 -10.1,-3.7 -2.15,0.05z"/>
  <path stroke="null" id="svg_57" d="m241.11668,130.03368c-0.8,3.33653 0.9,12.26175 2.15,11.42762c0.5,-0.33365 0.75,-1.41803 0.5,-2.5024c-0.2,-1.08437 -0.5,-3.67018 -0.65,-5.83893c-0.4,-5.08821 -1.25,-6.42282 -2,-3.08629z"/>
  <path transform="rotate(-42.9621 232.399 138.898)" id="svg_58" d="m231.38129,135.19989c0.85,0.7 1.4,2 1.2,2.85c-0.2,0.85 0.1,2.65 0.65,4c0.85,2.2 1,2 1.05,-1.75c0.05,-3.45 -0.4,-4.45 -2.2,-5.3c-1.9,-0.95 -2,-0.9 -0.7,0.2z"/>
  <path transform="rotate(-153.748 247.664 157.116)" id="svg_59" d="m245.66424,154.9162c0.05,1.35 3.95,6.75 4,5.45c0,-1.1 -2.95,-6.7 -3.55,-6.7c-0.25,0 -0.45,0.55 -0.45,1.25z"/>
  <path transform="rotate(37.1064 220.701 56.9256)" id="svg_60" d="m220.66503,54.83491c-0.7,0.8 -0.95,1.5 -0.6,1.5c0.35,0 0.15,0.95 -0.45,2.1c-0.9,1.7 -0.85,2.05 0.15,1.7c1.2,-0.4 3.25,-5.8 2.5,-6.5c-0.15,-0.2 -0.9,0.35 -1.6,1.2z"/>
  <path id="svg_62" d="m118.65001,143.54999c0.3,0.8 0.95,1.45 1.4,1.45c0.4,0 1.4,0.25 2.15,0.5c0.9,0.35 1.4,-0.25 1.5,-1.75c0.05,-1.25 -0.1,-1.7 -0.35,-1.05c-0.35,0.85 -1.2,0.9 -2.85,0.3c-1.95,-0.75 -2.3,-0.6 -1.85,0.55z"/>
  <path id="svg_64" d="m114.50001,144.94999c-1.1,0.35 -3.8,1.45 -6,2.45c-13.15,5.85 -23.3,9.85 -29.25,11.45c-7.3,2 -8.8,4.45 -5.25,8.35c2.3,2.5 14.75,8.1 16.1,7.2c0.8,-0.45 0.95,-0.3 0.4,0.6c-0.6,1 -0.35,1.15 0.9,0.7c1,-0.4 1.45,-0.3 1.1,0.3c-0.35,0.55 -0.15,1 0.4,1c4.6,0 -2.55,-5.65 -13,-10.3c-6.15,-2.7 -7.7,-4.15 -5.4,-5.05c0.85,-0.35 1.5,-0.1 1.5,0.45c0,0.55 1.3,0.1 2.9,-1.05c1.6,-1.1 3.55,-2.05 4.3,-2.05c1.2,0 11.35,-4 24.25,-9.5c2.15,-0.95 4.75,-1.85 5.7,-2.05c2.7,-0.5 5.25,-2.1 4.25,-2.65c-0.5,-0.25 -1.8,-0.2 -2.9,0.15zm-27.5,27.1c2.4,1.9 2.3,1.9 -2.5,-0.1c-6.35,-2.65 -10.05,-5.8 -3.95,-3.4c2.15,0.85 5.1,2.45 6.45,3.5z"/>
  <path id="svg_65" d="m131.45001,145.94999c0.4,0.6 2,1.75 3.6,2.55c2.1,1.1 2.7,2 2.25,3.25c-0.6,1.5 -0.45,1.55 0.95,0.45c1.35,-1.1 2.95,-0.6 10.65,3.25c11.2,5.65 11.75,7.25 3.35,10.6c-8.55,3.4 -11.4,4.95 -10.75,5.9c0.7,1.2 12.5,-3.15 12.5,-4.6c0,-0.6 1,-1.35 2.25,-1.7c2.15,-0.55 2.2,-0.5 0.3,0.9c-1.05,0.8 -1.4,1.45 -0.75,1.45c2.45,0 1.1,1.85 -1.8,2.5c-1.65,0.35 -2.75,1.1 -2.4,1.65c0.35,0.55 1.8,0.75 3.25,0.4c4.5,-1 -0.35,1.45 -6.75,3.45c-3.1,0.95 -7.9,2.7 -10.75,3.8c-2.8,1.15 -5.5,1.75 -5.9,1.4c-0.4,-0.4 -0.45,-0.15 -0.1,0.5c0.5,0.8 2.95,0.35 8.8,-1.8c11.1,-4.05 11.05,-3 -0.1,1.5c-8.65,3.4 -13.3,4.7 -10.2,2.7c1,-0.6 0.8,-0.95 -0.85,-1.4c-1.8,-0.45 -2.1,-0.2 -1.7,1.4c0.45,1.6 0.15,1.85 -1.5,1.35c-1.45,-0.5 -1.85,-0.3 -1.3,0.55c0.55,0.9 0.1,1.05 -1.6,0.55c-1.95,-0.55 -2.1,-0.45 -0.9,0.45c1.2,0.9 1.05,1 -0.9,0.45c-1.75,-0.5 -2.15,-0.35 -1.55,0.6c0.45,0.8 0.35,1 -0.35,0.6c-0.9,-0.6 -4.9,0.65 -12.3,3.8c-1.2,0.45 -1.65,0.15 -1.65,-1.15c0.05,-3.4 -0.25,-4.3 -1.3,-4.3c-0.6,0 -0.75,0.5 -0.4,1.1c0.75,1.15 -2.85,-0.55 -10.6,-5.1c-5.5,-3.3 -6.45,-3.6 -5.35,-1.85c0.5,0.8 0.15,1 -1,0.5c-1,-0.35 -1.95,-0.65 -2.2,-0.65c-0.2,0 -0.4,-0.5 -0.4,-1.05c0,-0.6 0.55,-0.75 1.25,-0.35c0.7,0.4 0.9,0.35 0.45,-0.2c-0.45,-0.45 -1.35,-0.9 -2,-0.9c-1.7,-0.1 -7.7,-3.85 -7.7,-4.85c0,-0.45 1.5,0.1 3.35,1.25c4,2.5 4.3,2.55 4.3,0.7c0,-0.8 -0.5,-1.2 -1.15,-0.95c-0.65,0.25 -2.25,-0.65 -3.55,-1.95c-1.35,-1.3 -3.8,-3.2 -5.45,-4.15l-3,-1.75l2.95,2.55c2.9,2.5 2.9,2.55 0.55,1.95l-2.45,-0.65l1.9,2.9l1.9,2.9l-2.65,-1.7c-3.05,-2 -4.7,-2.25 -4.7,-0.65c0,0.6 0.65,0.85 1.45,0.55c0.95,-0.35 1.3,0.05 1.05,1.35c-0.25,1.35 1,2.75 4.4,4.95c4.9,3.15 6.7,3.8 5.6,2.05c-0.35,-0.55 0.05,-0.7 0.95,-0.4c2.85,1.1 1.6,-0.5 -1.7,-2.25c-3.15,-1.6 -3.2,-1.6 -1.75,0.15c1.4,1.7 1.35,1.75 -0.45,0.8c-1.05,-0.6 -1.95,-2.05 -2.05,-3.2c-0.2,-2.25 0.95,-2.8 2.05,-1c0.8,1.3 9.5,6.9 10.7,6.9c0.5,0 0.6,-0.45 0.25,-1c-1.25,-2 10.45,3.75 15.25,7.5c0.15,0.1 -0.15,1.3 -0.65,2.6c-0.9,2.2 -1.15,2 -1.45,-1.3c-0.15,-1.25 -10.4,-7.8 -12.15,-7.75c-0.95,0 -0.1,0.75 4.15,3.7c1.65,1.15 1.6,1.2 -0.35,0.25c-2.75,-1.25 -3.6,-1.25 -2.8,0c0.35,0.55 0.15,1 -0.4,1c-1.55,0 -2.25,-1.8 -0.85,-2.25c0.7,-0.25 -0.25,-1.2 -2.1,-2.15c-8.95,-4.65 -4.05,1.35 5.5,6.75c1.6,0.9 4.5,-0.3 3.7,-1.55c-0.3,-0.55 0.5,-0.45 1.8,0.25c3.25,1.7 3.75,2.3 1.2,1.55c-1.3,-0.4 -2.5,-0.2 -2.9,0.5c-0.5,0.75 -0.35,0.95 0.4,0.5c0.65,-0.4 1.15,-0.2 1.15,0.4c0,0.6 0.4,0.85 0.9,0.55c0.5,-0.3 1.15,0.1 1.45,0.9c0.3,0.8 1.55,1.3 2.85,1.1c2.35,-0.3 3.65,-0.75 9.8,-3.3c1.95,-0.8 8.85,-3.2 15.4,-5.35c6.5,-2.15 14.15,-4.95 17,-6.3c2.8,-1.3 6.95,-3.2 9.25,-4.1c3.6,-1.5 4.15,-2.15 4.2,-4.85c0.05,-1.75 0.2,-5.2 0.35,-7.75l0.3,-4.55l-14.35,-7.25c-7.9,-4 -14.05,-6.75 -13.7,-6.15z"/>
  <path stroke="null" id="svg_67" d="m255.1944,149.14999c1.65075,0.8 5.53487,1.15 11.84657,0.95c7.37983,-0.15 3.3015,-1.3 -5.43777,-1.45c-4.27253,-0.1 -7.18563,0.15 -6.4088,0.5z"/>
  <path id="svg_68" d="m132.55001,152.49999c-1.65,1.3 -2.75,2.65 -2.45,2.95c0.3,0.25 2.05,-0.8 3.95,-2.45c4.15,-3.5 2.75,-4 -1.5,-0.5z"/>
  <path id="svg_69" d="m119.55001,153.04999c0.65,1.05 -1.55,2.5 -5.6,3.8c-6.45,2.1 -12.65,8.3 -9.5,9.5c0.95,0.35 1.25,0.05 0.95,-0.8c-1.75,-4.5 9.6,-8.5 19.5,-6.9c9.25,1.5 11.1,1.6 11.1,0.5c0,-0.5 -1.25,-0.7 -2.75,-0.45c-2.6,0.4 -2.65,0.35 -0.85,-1.1c1.05,-0.85 2.25,-1.3 2.75,-1c0.45,0.25 1.8,-0.05 3.05,-0.7l2.25,-1.2l-2.35,-0.85c-1.8,-0.65 -2.95,-0.3 -5.35,1.7c-3.85,3.25 -15.25,2.55 -11.95,-0.75c1.6,-1.6 1.5,-2.45 -0.25,-2.45c-0.8,0 -1.25,0.3 -1,0.7z"/>
  <path transform="rotate(22.4577 257.065 159.724)" id="svg_70" d="m249.43339,156.28326c-0.9,0.55 -0.45,1 1.5,1.5c1.55,0.4 4.05,1.95 5.55,3.55c2.65,2.75 2.75,2.8 4.45,0.9c0.95,-1.05 2.45,-1.95 3.3,-2c1.1,-0.05 1.2,-0.2 0.3,-0.6c-0.75,-0.25 -2.2,0.3 -3.25,1.25c-1.1,0.95 -2,1.45 -2.05,1.1c-0.1,-0.35 -0.2,-1.2 -0.3,-1.9c-0.1,-0.7 -0.95,-1.1 -1.95,-0.95c-1.1,0.2 -1.6,-0.1 -1.2,-0.75c0.35,-0.55 0.2,-1.1 -0.4,-1.2c-1.95,-0.2 -2.55,-0.4 -3.6,-1.05c-0.55,-0.35 -1.65,-0.3 -2.35,0.15z"/>
  <path id="svg_71" d="m151.00001,161.94999c-1.95,1 -9.8,3.95 -17.5,6.55c-7.7,2.6 -15.25,5.35 -16.75,6.15c-1.5,0.75 -2.75,1.1 -2.75,0.8c0,-0.35 -1.65,0.3 -3.65,1.5c-2,1.2 -4.25,1.9 -5,1.65c-0.8,-0.35 -1.35,0.15 -1.35,1.2c0,1.05 -0.3,1.3 -0.75,0.6c-1.55,-2.35 -7.3,-4.6 -8.75,-3.4c-1,0.85 -1.9,0.85 -3.5,0c-1.2,-0.65 -2.4,-0.95 -2.7,-0.65c-0.25,0.3 2.7,2.15 6.6,4.1c7.05,3.55 9.15,5.3 4.85,4c-2.2,-0.65 -2.2,-0.65 -0.25,0.9c2.35,1.9 3.9,2.15 2.9,0.5c-0.5,-0.8 -0.2,-1 0.9,-0.55c0.9,0.35 3.65,-0.25 6.1,-1.35c2.4,-1.1 5.25,-1.7 6.25,-1.35c1.3,0.4 1.45,0.3 0.55,-0.35c-0.95,-0.65 -0.6,-1.2 1.3,-2.1c3.6,-1.6 4.55,-1.4 1.5,0.35c-1.55,0.9 -1.9,1.45 -1,1.5c0.9,0.05 0.55,0.6 -1,1.5c-1.35,0.75 -3.35,1.15 -4.4,0.85c-1.2,-0.35 -1.6,-0.15 -1.15,0.55c0.4,0.7 0.05,0.85 -1.05,0.4c-1.3,-0.45 -1.5,-0.3 -0.9,0.7c0.6,1 0.4,1.15 -0.9,0.7c-1,-0.4 -1.45,-0.3 -1.1,0.3c0.35,0.55 0.05,1 -0.6,1c-0.7,0 -1,0.25 -0.65,0.55c0.3,0.35 5,-1.3 10.4,-3.6c9.85,-4.2 13.05,-5.85 8.35,-4.45c-5.35,1.65 -5.3,1.4 0.5,-1.5c4.1,-2.05 5.05,-2.8 3,-2.4c-2.4,0.45 -2.7,0.35 -1.5,-0.6c1.3,-1 1.25,-1.1 -0.35,-0.6c-1,0.35 -2.1,0.6 -2.5,0.6c-0.35,0 0.05,0.5 0.85,1.05c1.15,0.75 0.9,0.9 -1,0.45c-1.7,-0.35 -5.05,0.7 -10.5,3.35c-6.95,3.4 -11.7,4.75 -7.45,2.15c0.8,-0.5 1.45,-1.45 1.45,-2.15c0,-0.65 0.65,-1.4 1.4,-1.65c0.9,-0.3 1.1,-0.05 0.6,0.75c-0.6,1 -0.25,1 1.65,0c3.4,-1.75 3.7,-2.3 0.85,-1.55c-2.1,0.6 -2.2,0.5 -0.75,-0.4c1,-0.6 2.8,-0.85 4,-0.5c1.6,0.45 1.85,0.35 0.85,-0.35c-1.6,-1.1 2.15,-2.75 3.9,-1.65c0.55,0.35 1.95,0.35 3.15,-0.05c1.15,-0.35 1.65,-0.95 1.1,-1.3c-0.6,-0.35 0.8,-0.65 3.1,-0.7c2.65,-0.05 6.85,-1.35 11.65,-3.7c4.15,-2 9.6,-4.4 12.2,-5.3c2.55,-0.9 4.9,-2.3 5.2,-3.05c0.7,-1.9 -1.2,-1.7 -5.4,0.55zm-51.55,18.25c3.7,1.8 5.9,3.8 4.2,3.8c-0.75,0 -9.65,-5.15 -9.65,-5.6c0,-0.7 0.85,-0.45 5.45,1.8z"/>
  <path id="svg_73" d="m91.00001,170.24999c0,0.4 0.9,0.75 2,0.75c1.1,0 2,0.45 2,1c0,0.55 0.65,1 1.4,1c0.75,0 1.65,0.7 2,1.6c0.4,1 1.25,1.35 2.25,1c0.9,-0.35 2.3,-0.05 3.15,0.65c1.25,1.05 1.45,1 1.05,-0.25c-0.3,-0.85 -1.7,-1.65 -3.2,-1.8c-1.45,-0.2 -2.65,-0.75 -2.65,-1.25c0,-0.55 -0.8,-1 -1.75,-1.05c-1.1,-0.05 -1.25,-0.25 -0.45,-0.55c0.7,-0.3 1.85,-0.05 2.55,0.5c0.7,0.6 3.25,1.3 5.7,1.6c3.3,0.4 3.8,0.3 1.95,-0.35c-1.35,-0.5 -3.85,-1.45 -5.5,-2.2c-3.25,-1.45 -10.5,-1.9 -10.5,-0.65z"/>
  <path id="svg_76" d="m148.00001,173.04999c0,0.6 -0.45,0.8 -1.05,0.4c-0.55,-0.35 -2.15,0.1 -3.5,1c-2.25,1.45 -2.85,1.3 -2.6,-0.65c0.1,-0.4 -0.6,-0.45 -1.45,-0.1c-1.25,0.45 -1.3,0.75 -0.25,1.4c1.25,0.8 0.5,1.3 -1.4,1c-0.4,-0.05 -0.75,0.3 -0.75,0.8c0,0.5 -1.25,1.4 -2.75,1.95c-1.5,0.55 -2,1.05 -1.1,1.05c0.85,0.05 4,-0.95 7,-2.25c2.95,-1.3 6.85,-2.7 8.75,-3.15c2.45,-0.5 3,-0.95 2,-1.6c-1.9,-1.15 -2.9,-1.1 -2.9,0.15z"/>
  <path transform="rotate(-47.5507 127.287 145.744)" id="svg_79" d="m125.26545,143.2008c1.05,1.5 2.25,2.75 2.65,2.75c0.4,0.05 0.75,0.95 0.75,2.05c0,1.1 0.4,2 0.85,2c1.9,0 0.55,-3.15 -2.65,-6.2c-3.15,-2.95 -3.3,-3 -1.6,-0.6z"/>
  <path transform="rotate(-158.055 82.9779 184.484)" id="svg_80" d="m79.31612,184.25001c0.25,0.4 1.65,0.55 3.1,0.3c1.5,-0.3 3,0.05 3.45,0.75c0.55,0.8 0.75,0.65 0.8,-0.55c0,-1.45 -0.7,-1.75 -3.9,-1.5c-2.15,0.15 -3.7,0.6 -3.45,1z"/>
  <path id="svg_83" d="m95.80049,190.56686c-1.5,1.8 -1.5,1.95 0.3,2.4c1.05,0.3 1.9,0.1 1.9,-0.45c0,-0.55 0.45,-0.7 1,-0.35c0.55,0.35 1,0.1 1,-0.55c0,-0.65 -0.7,-0.9 -1.6,-0.55c-1.15,0.45 -1.45,0.2 -1.05,-0.9c0.75,-2 0.45,-1.9 -1.55,0.4z"/>
  <path id="svg_91" d="m135.60001,230.44999c-3.25,1.35 -8.95,3.4 -12.75,4.5c-3.75,1.15 -6.85,2.5 -6.85,3c0,1 11.1,-2.2 19.15,-5.6c3.05,-1.3 6.35,-2.35 7.25,-2.35c0.85,0 1.6,-0.45 1.6,-1c0,-1.5 -1.95,-1.2 -8.4,1.45z"/>
  <path id="svg_100" d="m275.75002,246.55c-0.4,2 0,2.8 1.6,3.4c1.45,0.55 4.25,5.2 8.65,14.2c3.6,7.35 6.85,13.5 7.25,13.7c0.4,0.15 0.75,1.15 0.75,2.15c0,1.05 0.45,2.15 1,2.5c3.4,2.1 -10.7,-28.5 -15.5,-33.7c-1.2,-1.3 -1.95,-2.9 -1.75,-3.55c0.25,-0.7 0,-1.25 -0.55,-1.25c-0.55,0 -1.2,1.15 -1.45,2.55z"/>
  <path transform="rotate(-32.5446 258.982 144.874)" stroke="null" id="svg_105" d="m255.80214,141.73885c-5.10338,1.32606 -5.10338,1.32606 -0.66566,1.51549c2.44075,0.18944 5.91696,1.61021 7.76602,3.22043c3.91999,3.50458 4.2898,1.98909 0.66566,-2.65212c-1.92301,-2.46268 -3.84603,-2.93627 -7.76602,-2.08381z"/>
 </g>
</svg>