<svg width="300" height="275" xmlns="http://www.w3.org/2000/svg" preserveAspectRatio="xMidYMid meet" version="1.0">
 <metadata>Created by potrace 1.10, written by Peter Selinger 2001-2011</metadata>

 <g>
  <title>Layer 1</title>
  <path stroke="null" id="svg_2" d="m148,2.1c-8,2.9 -12.9,3.8 -24.8,4.9c-12.2,1.1 -40.3,5.3 -41.9,6.3c-0.8,0.5 -1.2,9.2 -1.3,27.9c0,15 0.1,27 0.4,26.7c0.2,-0.2 0.5,-12.4 0.7,-27.1l0.4,-26.7l3.5,-0.6c6.3,-1 49.5,-6.5 51.2,-6.5c1.5,0 1.7,4.6 1.7,60.2c0.1,33.2 0.1,60.6 0.1,61c0,0.4 0.8,0.6 1.8,0.5c1,0 7.9,2.9 15.3,6.5c7.4,3.6 15.1,7.1 17.2,7.7c2,0.7 3.7,1.6 3.7,2.1c0,0.8 8.2,3.2 8.8,2.5c0.2,-0.1 -1.4,-0.9 -3.5,-1.5c-2.1,-0.7 -4,-1.6 -4.3,-1.9c-0.3,-0.3 -4.1,-2.2 -8.5,-4c-4.4,-1.9 -12.8,-5.8 -18.7,-8.8l-10.7,-5.3l-0.1,-60l0,-60l2.8,0.5c1.8,0.4 2.1,0.3 0.9,-0.3c-1.4,-0.6 -0.2,-1.3 5.2,-3c3.9,-1.3 7.1,-2.5 7.1,-2.8c0,-0.7 -1.1,-0.4 -7,1.7z"/>
  <path stroke="null" id="svg_3" d="m145.1,7.4c0.8,0.8 24.9,5.8 26.2,5.3c0.6,-0.2 -4.1,-1.3 -10.4,-2.6c-6.3,-1.3 -12.5,-2.6 -13.9,-2.8c-1.4,-0.3 -2.2,-0.3 -1.9,0.1z"/>
  <path stroke="null" id="svg_4" d="m189.3,17.2c-1.1,1.8 -2,12.8 -1.1,12.8c0.4,0 0.8,-2.4 0.8,-5.3c0,-5.5 0.6,-7.1 3,-8c1.2,-0.4 1.2,-0.6 -0.2,-0.6c-0.9,-0.1 -2,0.5 -2.5,1.1z"/>
  <path stroke="null" id="svg_5" d="m217.5,23.5c3.8,1.5 28.9,7.5 29.3,7c0.3,-0.3 0.3,-0.5 0,-0.5c-0.2,0 -6.6,-1.6 -14.1,-3.5c-11.5,-2.9 -19,-4.4 -15.2,-3z"/>
  <path stroke="null" id="svg_6" d="m179.8,33.2c0.5,0.5 8,2.7 16.6,4.9c8.6,2.1 19.1,5 23.3,6.4c4.1,1.4 7.8,2.4 8,2.1c0.6,-0.5 -9,-4.1 -13.7,-5.1c-1.9,-0.4 -4,-1.1 -4.6,-1.6c-0.6,-0.5 -2.7,-1.1 -4.7,-1.3c-2,-0.3 -4.6,-1 -5.7,-1.6c-1.1,-0.6 -2,-0.7 -2,-0.3c0,0.4 -0.5,0.2 -1.1,-0.4c-0.6,-0.6 -1.7,-1 -2.3,-0.7c-0.6,0.2 -4.2,-0.4 -7.9,-1.5c-3.8,-1 -6.4,-1.4 -5.9,-0.9z"/>
  <path stroke="null" id="svg_7" d="m295.5,33.5c-8.6,4.1 -16.6,6.5 -19.2,6c-1.5,-0.3 -2.1,-0.2 -1.3,0.1c2.1,1 3,2.5 3,5.3c0,1.3 0.3,2.1 0.7,1.8c0.3,-0.4 1.2,0.1 2,1.1c1,1.2 1,0.8 -0.2,-1.5c-0.8,-1.8 -1.5,-3.5 -1.5,-3.8c0,-0.3 3,-2 6.8,-3.6c11.4,-5.1 14.7,-6.8 13.7,-6.8c-0.5,0 -2.3,0.7 -4,1.4z"/>
  <path stroke="null" id="svg_8" d="m262.5,36c4.4,1.6 8.7,2.9 9.5,2.9c1.9,0 -10.6,-4.7 -14.5,-5.4c-1.6,-0.3 0.6,0.8 5,2.5z"/>
  <path stroke="null" id="svg_9" d="m168,37.4c-10.9,4.3 -20.3,8.7 -19.6,9.3c0.2,0.3 6.2,-2.1 13.2,-5.3c8.1,-3.6 12.9,-5.3 13.2,-4.6c0.6,1.9 1.8,1.4 1.8,-0.8c0,-1.1 0,-2 -0.1,-2c0,0.1 -3.8,1.6 -8.5,3.4z"/>
  <path stroke="null" id="svg_10" d="m178.5,38.1c1.1,3.7 3.1,5.5 7.5,6.8c5,1.5 11,6.6 11.1,9.5c0.1,1.7 0.2,1.8 0.6,0.3c0.7,-2.6 -2.2,-6.4 -6.6,-8.7c-2.2,-1.1 -4.2,-2.8 -4.4,-3.7c-0.4,-1.6 -0.5,-1.6 -0.6,-0.1c-0.1,1.1 -0.7,1.4 -2,1.1c-1,-0.3 -1.8,-1.2 -1.6,-2.1c0.1,-1 0,-1.1 -0.2,-0.4c-0.6,1.7 -2.3,0.5 -2.3,-1.8c0,-1 -0.5,-2.2 -1.1,-2.6c-0.8,-0.4 -0.9,0.1 -0.4,1.7z"/>
  <path stroke="null" id="svg_11" d="m0,39c0,0.5 1.2,1.3 2.8,1.8c1.5,0.6 8.7,3.8 16.1,7.1c7.4,3.4 13.5,6.1 13.7,6.1c0.2,0 0.4,-0.5 0.4,-1c0,-0.6 -0.5,-1 -1.1,-1c-0.5,0 -8,-3.1 -16.5,-6.9c-8.5,-3.7 -15.4,-6.5 -15.4,-6.1z"/>
  <path stroke="null" id="svg_12" d="m155.3,48c2.6,1.7 12.8,5 12.2,4c-0.3,-0.5 -2.9,-1.6 -5.8,-2.5c-2.8,-0.9 -5.9,-1.8 -6.7,-2.1c-0.9,-0.3 -0.8,-0.1 0.3,0.6z"/>
  <path stroke="null" id="svg_13" d="m145,50c0,0.5 0.4,1 0.9,1.2c1.2,0.4 1.8,7.9 0.8,9.5c-0.7,1.1 5.1,3.8 6.1,2.9c0.2,-0.3 -0.7,-0.8 -2.2,-1.2c-3,-0.7 -3.5,-3 -0.8,-3.7c1.6,-0.4 1.6,-0.5 0,-0.6c-1.1,-0.1 -1.8,-0.9 -1.8,-2.2c0,-1.8 0.4,-2 2.8,-1.6l2.7,0.6l-2.8,-1.2c-1.5,-0.6 -2.6,-1.6 -2.3,-2.3c0.3,-0.7 -0.4,-1.4 -1.5,-1.7c-1,-0.3 -1.9,-0.1 -1.9,0.3z"/>
  <path stroke="null" id="svg_14" d="m236.5,55.1c-5.5,2.8 -10.7,5.7 -11.5,6.4c-4.4,3.7 -13.3,6.3 -11.4,3.3c0.3,-0.5 -1.2,0.2 -3.5,1.6c-2.2,1.4 -4.6,2.6 -5.3,2.6c-0.9,0.1 -0.8,0.3 0.2,0.9c1.9,1.2 3.5,1.3 3.5,0.3c0,-1.4 1.6,-3.2 2.8,-3.2c0.7,0 0.3,0.7 -0.7,1.5c-1.1,0.8 -1.5,1.5 -0.9,1.5c0.6,0 1.6,-0.7 2.3,-1.5c0.7,-0.9 2,-1.3 2.8,-1c0.8,0.3 6.2,-2.1 12.1,-5.4c20.9,-11.6 19.5,-11 22.2,-9.6c3.2,1.7 22.8,6.7 24.3,6.2c0.6,-0.2 -0.4,-0.7 -2.2,-1.1c-1.8,-0.4 -8,-2.3 -13.9,-4.2c-5.8,-1.9 -10.7,-3.4 -10.7,-3.4c-0.1,0 -4.6,2.3 -10.1,5.1z"/>
  <path stroke="null" id="svg_15" d="m282,50c0,0.3 4.1,8.5 9,18.4c5,9.8 9,17.3 9,16.6c0,-1.3 -15.7,-33 -17.1,-34.5c-0.5,-0.5 -0.9,-0.7 -0.9,-0.5z"/>
  <path stroke="null" id="svg_16" d="m163.9,53.8c0.7,0.5 0.9,1.2 0.5,1.4c-0.5,0.3 -0.4,0.3 0.3,0.2c0.7,-0.2 4.4,0.4 8.4,1.2c3.9,0.8 7.6,1.3 8.2,1.1c0.6,-0.2 -2.5,-1.1 -6.8,-1.9c-4.4,-0.9 -8.9,-1.9 -10,-2.3c-1.5,-0.5 -1.6,-0.4 -0.6,0.3z"/>
  <path stroke="null" id="svg_17" d="m213.1,57.1c-3,2.1 -6,3.9 -6.8,3.9c-2.1,0 -1.5,1.8 0.8,2.5c1.7,0.6 1.9,0.9 0.8,1.6c-0.8,0.5 -0.9,0.9 -0.4,0.9c1.2,0 8.5,-4.8 8.5,-5.6c0,-0.3 -1.3,0.4 -2.9,1.5c-3.1,2.3 -4.6,2.7 -3.6,1.1c0.4,-0.6 -0.1,-0.7 -1.2,-0.4c-1.2,0.4 -1,0 0.7,-1.5c2.7,-2.3 4.5,-2.8 3.4,-0.9c-0.4,0.7 -0.3,0.8 0.5,0.4c0.6,-0.4 0.9,-1.2 0.6,-1.7c-0.4,-0.5 -0.3,-0.9 0.2,-0.9c0.4,0 2.2,-1.1 3.8,-2.5c4.7,-3.9 1.6,-2.7 -4.4,1.6z"/>
  <path stroke="null" id="svg_18" d="m181,55.5c7.1,1.8 8.3,1.8 4.1,0c-1.8,-0.8 -4.7,-1.5 -6.5,-1.4c-2.5,0.1 -2,0.3 2.4,1.4z"/>
  <path stroke="null" id="svg_19" d="m30.2,60.2c-0.5,1.8 -1.9,7.8 -3.2,13.3c-3.4,14.9 -5.1,20.5 -5.9,20.5c-0.5,0 -1.9,-1 -3.3,-2.3c-1.3,-1.2 -3.3,-2.3 -4.3,-2.5c-1,-0.2 -4.2,-1.7 -7.2,-3.4c-3,-1.7 -5.6,-2.9 -5.8,-2.6c-0.2,0.2 3.9,2.7 9.1,5.6c5.2,2.9 9.2,5.7 8.9,6.1c-0.3,0.5 -1.7,1.2 -3.2,1.6c-3.3,0.8 -15.6,7.5 -15,8.2c0.3,0.2 2.8,-0.8 5.7,-2.2c2.9,-1.4 5.4,-2.4 5.7,-2.1c0.3,0.3 1.4,-0.4 2.6,-1.4c1.1,-1.1 3.5,-2.4 5.2,-3c2.8,-0.9 3.4,-1.8 4.9,-6.8c2.9,-10.3 7.8,-31.4 7.2,-31.9c-0.2,-0.3 -0.9,1 -1.4,2.9z"/>
  <path stroke="null" id="svg_20" d="m193.5,59c2.8,1.1 5.7,2 6.5,1.9c2.2,0 -7.1,-3.8 -9.5,-3.8c-1.1,0 0.3,0.9 3,1.9z"/>
  <path stroke="null" id="svg_21" d="m198.2,63.3c1,0.8 1.4,1.8 1,2.2c-0.4,0.5 -0.1,0.5 0.6,0.1c1.1,-0.6 1.7,0.5 1.3,2.6c-0.2,1.2 1.7,1 2.4,-0.2c0.3,-0.6 0.1,-1 -0.5,-1c-0.6,0 -0.9,-0.4 -0.6,-0.8c0.3,-0.5 -0.9,-1.6 -2.7,-2.6c-1.8,-1 -2.4,-1.1 -1.5,-0.3z"/>
  <path stroke="null" id="svg_22" d="m159,66.2c4,1.8 33.7,9.9 35.7,9.7c1.8,-0.1 -4.9,-2.2 -16.2,-5c-6.6,-1.6 -14.1,-3.8 -16.7,-4.9c-6.1,-2.6 -8.6,-2.5 -2.8,0.2z"/>
  <path stroke="null" id="svg_23" d="m142.3,65.7c0.4,0.6 1.7,1.3 2.9,1.6c1.3,0.3 4.4,1.2 7,2c2.7,0.8 4.6,1.1 4.3,0.7c-0.3,-0.5 -3,-1.6 -6,-2.5c-3,-0.8 -6.2,-1.8 -7.1,-2.2c-1.1,-0.4 -1.5,-0.2 -1.1,0.4z"/>
  <path stroke="null" id="svg_24" d="m260.7,65.7c-0.4,0.3 -3.8,0.5 -7.6,0.4c-3.8,-0.1 -7.1,0.2 -7.4,0.6c-0.3,0.5 2,0.7 5.2,0.5c4.4,-0.3 6.8,0.1 10.4,1.7c6.2,2.8 7.8,2.7 11.3,-1c1.8,-2 2.2,-2.8 1,-2.2c-1,0.6 -2.7,0.8 -3.6,0.6c-1,-0.3 -2.1,0.1 -2.5,0.7c-0.5,0.9 -0.1,1 1.4,0.5c1.1,-0.3 2.1,-0.2 2.1,0.3c0,1.8 -3.2,2.3 -6.8,1.1c-3.3,-1.1 -3.4,-1.3 -1.7,-2.5c1.5,-1.1 1.6,-1.4 0.4,-1.4c-0.9,0 -1.9,0.3 -2.2,0.7z"/>
  <path stroke="null" id="svg_25" d="m79,72.8c-4.2,2.1 -11.5,6.2 -16.3,9.1c-7.2,4.3 -9,5.1 -10.2,4.1c-0.8,-0.7 -1.5,-0.8 -1.5,-0.3c0,0.5 1.2,1.6 2.8,2.3c1.5,0.8 3.8,2.3 5.2,3.5c2.2,1.8 2.2,1.6 -0.3,-1.1l-2.8,-3.1l13.3,-7.5c7.3,-4.1 15.3,-8.1 17.7,-8.8c3.9,-1.2 4.7,-1.2 7.4,0.3c3.3,1.9 4.6,1.7 2.2,-0.3c-0.8,-0.7 -3.4,-1.4 -5.8,-1.6c-3.4,-0.3 -5.7,0.3 -11.7,3.4z"/>
  <path stroke="null" id="svg_26" d="m193.5,70.1c-1.5,0.7 -1.1,0.8 1.5,0.3c2.6,-0.4 3.1,-0.3 2,0.5c-1.2,0.9 -0.9,1.1 1.5,1.2c1.7,0.1 3.5,0.3 4,0.4c0.6,0.2 1.6,0.3 2.4,0.4c0.9,0.1 1.2,1.2 0.9,3.6c-0.3,2.8 0,3.6 1.5,4.1c1,0.3 2.1,0.3 2.4,0c0.4,-0.3 0,-0.6 -0.7,-0.6c-0.8,0 0.1,-1.6 2.1,-3.7c2.9,-3.3 3,-3.4 0.3,-1c-3.6,3.2 -3.9,3.3 -4.1,0.8c-0.1,-1 0.9,-2.4 2.3,-3.1c1.3,-0.8 2.2,-1.5 1.9,-1.8c-0.2,-0.3 -1.1,0.1 -1.9,0.7c-1.2,1 -2.6,0.9 -7.1,-0.8c-6.2,-2.3 -6.2,-2.3 -9,-1z"/>
  <path stroke="null" id="svg_27" d="m218.4,72.5c1.1,0.8 1.4,1.5 0.8,1.5c-0.8,0 -1.2,1.8 -1.1,5.2c0.1,3.7 0.3,4.6 0.8,2.9c0.4,-1.4 1.3,-2.7 2,-2.9c0.8,-0.3 1.1,0 0.7,0.6c-0.4,0.6 0.2,0.8 1.6,0.5c1.7,-0.3 1.9,-0.2 1,0.5c-1.1,0.7 -1,1 0.3,1.6c2.5,0.9 3.2,0.7 1.5,-0.5c-1.2,-0.8 -0.8,-0.9 1.5,-0.5c2.9,0.5 2.9,0.5 -0.5,-1.1c-1.9,-0.8 -4.5,-1.6 -5.7,-1.7c-1.5,-0.1 -2.3,-0.7 -2.3,-2c0,-1.2 0.5,-1.6 1.6,-1.2c0.8,0.3 1.2,0.2 0.9,-0.4c-0.8,-1.3 -0.3,-1.3 3,0c1.5,0.6 2.4,0.6 2,0.1c-0.3,-0.5 -1.9,-1.2 -3.5,-1.6c-1.6,-0.4 -3.2,-1.1 -3.5,-1.6c-0.4,-0.5 -1.2,-0.9 -1.8,-0.9c-0.7,0 -0.3,0.7 0.7,1.5z"/>
  <path stroke="null" id="svg_28" d="m278,71.5c-0.3,0.5 -0.3,6.6 0,13.5c0.3,7.8 0.7,10.8 1,8c0.6,-5.2 -0.3,-23 -1,-21.5z"/>
  <path stroke="null" id="svg_29" d="m229,72.8c0.8,0.5 4.7,2 8.5,3.2c3.9,1.3 8.4,2.9 10,3.6c1.7,0.6 6.4,2 10.5,3c4.1,0.9 8.7,2.3 10.2,3.1c1.5,0.7 3.3,1.3 4,1.3c2.7,-0.1 -7,-3.7 -15.6,-5.9c-4.9,-1.3 -9.7,-2.7 -10.5,-3.1c-1.4,-0.7 -13.4,-4.7 -17.1,-5.7c-1.3,-0.4 -1.3,-0.3 0,0.5z"/>
  <path stroke="null" id="svg_30" d="m97.9,88.7c0,8.2 -0.2,20.4 -0.5,27.3l-0.5,12.5l7.7,4c4.3,2.2 7.9,4.5 8.1,5.1c0.3,1 -26.7,13.4 -29.1,13.4c-0.3,0 -5.6,2.3 -11.7,5c-6.2,2.8 -14.5,6.2 -18.6,7.5c-8.7,3 -7.5,3.4 -25,-8.1c-6.2,-4.1 -11.6,-7.4 -12,-7.4c-0.5,0 -3,-1.5 -5.6,-3.4l-4.9,-3.5l3.1,-1.6c1.7,-0.8 4.3,-1.7 5.8,-1.9c3.9,-0.5 6.3,-1.6 6.3,-2.9c0,-0.6 0.3,-0.7 0.7,-0.4c0.3,0.4 1.1,0.3 1.7,-0.2c1.4,-1.1 8.8,-3.6 9.9,-3.3c0.4,0.1 0.7,-0.3 0.7,-0.9c0,-0.5 0.4,-0.8 0.9,-0.5c0.5,0.3 1.4,-0.1 2.1,-0.9c0.7,-0.8 2.2,-1.5 3.5,-1.5c1.2,0 2.5,-0.3 2.9,-0.7c0.3,-0.4 1.2,-0.8 1.9,-0.9c1.8,-0.3 18.4,-7.3 17.3,-7.4c-0.4,0 -0.1,-1.1 0.8,-2.5c5.3,-8.1 -5,-17.5 -19.2,-17.5c-2.7,0 -8.7,0.7 -13.3,1.5c-4.6,0.8 -10.3,1.5 -12.7,1.6c-2.3,0.2 -3.8,0.7 -3.4,1.1c0.5,0.5 4.6,0.2 9.3,-0.6c14.3,-2.5 21.2,-2.9 25.9,-1.6c7.2,1.9 11,4.1 12.6,7.2c1.4,2.7 1.4,3.3 -0.4,7.2c-1.9,3.9 -2.6,4.4 -9.4,6.6c-4,1.4 -10.9,4 -15.3,5.8c-4.4,1.8 -13.1,5.3 -19.4,7.7c-6.3,2.4 -11.8,4.8 -12.4,5.4c-1.5,1.5 1,4.7 6.3,8c2.8,1.7 5.6,3.2 6.3,3.4c0.6,0.1 1.7,0.7 2.4,1.4c2.5,2.2 24,14.3 25.6,14.3c2.1,0 15.4,-5 24.2,-9c3.9,-1.8 11.5,-5 17,-7.2c5.5,-2.1 14.2,-5.7 19.3,-8c8.6,-3.8 9.1,-4.2 7.6,-5.9c-0.8,-0.9 -4.9,-3.4 -9,-5.6l-7.5,-3.8l0.6,-9c1.2,-21.4 1.5,-44.5 0.5,-44.5c-0.6,0 -1,5.4 -1.1,14.7z"/>
  <path stroke="null" id="svg_31" d="m80,82.6c-5.8,3.1 -12.6,6.9 -15.2,8.4l-4.7,2.9l-3.6,-2.4c-4.2,-2.9 -4.6,-3 -3.9,-1c0.7,1.6 5.9,4.5 8.2,4.5c0.9,0 2.5,-0.8 3.6,-1.8c1.2,-1.1 5.2,-3.6 9,-5.6l6.9,-3.7l-0.5,5c-0.3,2.8 -0.1,5.1 0.3,5.1c0.5,0 0.9,-2.4 0.9,-5.4c0,-5.1 0.2,-5.6 3,-7l3,-1.4l0,10.9c0,12.9 1.1,12.4 -12.8,5.9c-4.6,-2.2 -8,-3.5 -7.6,-2.8c0.9,1.3 16.9,8.8 19,8.8c1.1,0 1.4,0.5 1,1.6c-0.3,0.9 -0.6,5.1 -0.6,9.4l0,7.9l-6.6,-3.8c-5.8,-3.4 -7.1,-3.8 -9.5,-2.9c-3.6,1.2 -3.8,2.2 -0.4,1.4c1.8,-0.4 4.5,0.4 9.5,2.9c5,2.5 7.2,3.2 7.5,2.3c0.2,-0.7 0.9,-10.5 1.5,-21.8c1,-16.9 1.5,-20.7 2.9,-21.7c3.5,-2.7 -0.9,-0.9 -10.9,4.3z"/>
  <path stroke="null" id="svg_32" d="m233.9,78.3c1.3,0.8 2,1.6 1.5,1.9c-0.5,0.3 -0.3,0.3 0.4,0.1c0.8,-0.2 4.3,0.4 7.8,1.2c9.6,2.2 10.1,1.7 0.9,-0.9c-4.4,-1.2 -9.1,-2.6 -10.5,-3l-2.5,-0.7l2.4,1.4z"/>
  <path stroke="null" id="svg_33" d="m186.9,79.2c-0.5,2.1 -0.2,10.8 0.4,10.8c0.4,0 0.7,-2.5 0.7,-5.5c0,-3 -0.2,-5.5 -0.5,-5.5c-0.3,0 -0.5,0.1 -0.6,0.2z"/>
  <path stroke="null" id="svg_34" d="m2.8,82c1.8,1.1 3.9,2 4.6,2c0.7,0 1.9,0.7 2.6,1.5c1.4,1.7 3.5,2.1 2.5,0.5c-0.7,-1.1 -10.6,-6 -12.1,-6c-0.5,0 0.6,0.9 2.4,2z"/>
  <path stroke="null" id="svg_35" d="m43.3,83.6c2.7,1.4 5.1,2.3 5.4,2c0.6,-0.5 -8.1,-4.7 -9.5,-4.6c-0.4,0.1 1.5,1.2 4.1,2.6z"/>
  <path stroke="null" id="svg_36" d="m238,81.8c0.8,0.6 6.2,2.4 12,4c5.8,1.7 11.4,3.3 12.5,3.7c1.3,0.4 1.2,0.1 -0.5,-0.8c-1.4,-0.8 -6.8,-2.6 -12,-4c-5.2,-1.4 -10.4,-2.8 -11.5,-3.2c-1.5,-0.5 -1.7,-0.4 -0.5,0.3z"/>
  <path stroke="null" id="svg_37" d="m204,85.5c4.1,1.6 6.9,1.9 5.5,0.6c-0.6,-0.5 -2.8,-1.1 -5,-1.4l-4,-0.6l3.5,1.4z"/>
  <path stroke="null" id="svg_38" d="m230,87.9c5.8,2.1 13,4.4 16,5c5.2,1.1 23.4,6.8 27.3,8.5c0.9,0.5 1.7,0.4 1.7,0c0,-1.1 -21.6,-8.4 -24.5,-8.4c-1.9,0 -14.6,-3.9 -24,-7.4c-2.2,-0.8 -4.7,-1.5 -5.5,-1.5c-0.8,0 3.2,1.7 9,3.8z"/>
  <path stroke="null" id="svg_39" d="m168.2,89.1c-3.5,1.7 -7.3,3.8 -8.4,4.9c-1.1,1 -5.3,3.6 -9.4,5.6c-4,2.1 -7.2,3.9 -7.1,4.1c1.8,1.7 47.1,17.9 49,17.5c0.4,-0.1 0.7,0.2 0.7,0.8c0,0.5 0.7,0.6 1.7,0.3c1.1,-0.4 1.4,-0.3 0.9,0.5c-0.5,0.8 -0.2,1 0.9,0.6c2.1,-0.8 0.8,-2.2 -2.5,-2.6c-1.4,-0.2 -3.6,-1 -5,-1.8c-1.4,-0.7 -2.7,-1.2 -3,-1.1c-0.3,0.1 -2.4,-0.3 -4.8,-1c-3,-0.8 -3.9,-1.5 -3,-2c0.8,-0.6 -0.1,-0.7 -2.2,-0.4c-2.8,0.4 -3.1,0.3 -1.5,-0.5c1.7,-0.8 1.5,-0.9 -1,-0.5c-1.6,0.3 -3.7,0.1 -4.5,-0.5c-1.3,-0.9 -1.3,-1 0,-1c1.6,-0.1 -2.8,-2.9 -4.5,-2.9c-0.5,0 0.1,0.6 1.5,1.4c4.2,2.4 1.6,1.7 -9.5,-2.6c-10.5,-4 -14.1,-6.7 -4.9,-3.5c2.6,0.9 5,1.6 5.3,1.6c1.4,-0.1 -4.6,-2.9 -6.1,-3c-4.5,-0.1 -0.6,-2.7 18.2,-12.2c10.2,-5.2 9.6,-6.5 -0.8,-1.7z"/>
  <path stroke="null" id="svg_40" d="m248,88.1c3,1.1 5.9,1.8 6.5,1.6c1,-0.4 -9.5,-3.8 -11.2,-3.6c-0.4,0 1.7,0.9 4.7,2z"/>
  <path stroke="null" id="svg_41" d="m256.8,90.6c0.6,0.3 0.9,1.1 0.5,1.6c-0.4,0.7 0.2,0.9 1.5,0.6c1.2,-0.4 2,-0.2 1.6,0.3c-0.3,0.5 0.4,0.9 1.5,0.9c2.8,0 2.7,-1.7 -0.1,-2.5c-3.6,-1 -6.4,-1.5 -5,-0.9z"/>
  <path stroke="null" id="svg_42" d="m173,93.4c0,2.9 4,6.4 8.8,7.6c5.2,1.2 11.2,5.8 11.2,8.6c0,1.2 -0.5,1.4 -1.7,0.9c-1,-0.5 -3.4,-1 -5.3,-1.3c-1.9,-0.2 -4.3,-1.1 -5.2,-2c-1,-0.8 -1.8,-1.1 -1.8,-0.6c0.1,2.1 1.8,3.1 6.5,3.7c3.8,0.5 5.7,1.4 7.8,3.7c1.6,1.9 2.7,2.5 2.7,1.6c0,-0.8 -0.4,-1.8 -1,-2.1c-0.5,-0.3 -1,-1.7 -1,-3c0,-2.7 -5.4,-9.5 -7.6,-9.5c-0.8,0 -1.5,-1.1 -1.5,-2.8c-0.2,-2.3 -0.2,-2.4 -0.6,-0.5c-0.2,1.3 -1.1,2.3 -1.9,2.3c-2.4,0 -7.1,-2.8 -7.8,-4.5c-0.8,-2.3 -0.8,-2.7 0.4,-2c0.6,0.3 1,0.1 1,-0.4c0,-0.6 -0.7,-1.1 -1.5,-1.1c-0.8,0 -1.5,0.6 -1.5,1.4z"/>
  <path stroke="null" id="svg_43" d="m197.7,93.8c-1.3,0.6 1.5,1.9 9.5,4.9c15.6,5.7 25.2,8.5 23.8,6.8c-0.6,-0.7 -2.5,-1.6 -4.3,-1.9c-1.8,-0.3 -4.4,-1.2 -5.9,-2c-2.5,-1.3 -7.5,-2.8 -10.8,-3.1c-3.1,-0.3 -10.9,-3.8 -10.4,-4.6c0.6,-1 0.6,-1 -1.9,-0.1z"/>
  <path stroke="null" id="svg_44" d="m265,93.9c0,0.6 0.3,1 0.8,1c2.1,-0.4 4.2,0.2 3.8,1c-0.7,1.1 2.2,2.3 3.5,1.5c1.7,-1 0.9,-2.1 -1.8,-2.7c-1.6,-0.3 -3.6,-0.9 -4.5,-1.2c-1.1,-0.4 -1.8,-0.3 -1.8,0.4z"/>
  <path stroke="null" id="svg_45" d="m247,97.5c4.1,1.4 8,2.3 8.5,2.1c0.6,-0.2 -1.5,-1 -4.5,-1.9c-9.3,-2.7 -11.9,-2.8 -4,-0.2z"/>
  <path stroke="null" id="svg_46" d="m263,102.5c0,0.2 3,1.4 6.8,2.5c3.7,1.2 7.3,2.4 8,2.6c0.6,0.3 1.2,0.1 1.2,-0.4c0,-0.5 -3.3,-1.9 -7.4,-3c-7.9,-2.3 -8.6,-2.5 -8.6,-1.7z"/>
  <path stroke="null" id="svg_47" d="m142.5,108.2c-0.2,1.3 -0.6,4.2 -0.8,6.5c-0.4,4 -0.3,4.1 1.9,3.2c1.8,-0.6 4.3,0.1 11,3.1c9.1,4.2 12.2,5.2 6.4,2c-3.7,-2.1 -2.8,-2.6 1.5,-1c1.5,0.6 3.3,0.6 4.2,0.2c1,-0.6 -0.9,-1.8 -6.7,-4.1c-4.5,-1.8 -8.5,-3 -8.8,-2.7c-0.3,0.3 0.1,0.6 0.9,0.6c1.1,0 1.1,0.2 -0.1,1c-2.1,1.3 -3.3,1.2 -2.4,-0.2c0.5,-0.7 0.2,-0.9 -0.9,-0.5c-0.9,0.3 -1.8,0.1 -2.1,-0.6c-0.5,-0.9 -0.7,-0.9 -1.2,0c-0.6,1.5 -2.4,1.8 -2.4,0.5c0,-0.5 1,-1.3 2.3,-1.9l2.2,-1l-2.4,-0.8c-1.9,-0.6 -2.2,-1.2 -1.7,-3.6c0.6,-3.4 -0.1,-4 -0.9,-0.7zm16.9,10.6l4,1.8l-3.7,0c-2.4,0 -3.2,-0.3 -2.4,-0.9c0.8,-0.6 0.4,-0.7 -1.1,-0.4c-1.3,0.3 -2,0.1 -1.6,-0.5c0.4,-0.6 -0.2,-0.8 -1.7,-0.3c-1.9,0.5 -2.1,0.4 -0.9,-0.4c2,-1.4 2.8,-1.3 7.4,0.7z"/>
  <path stroke="null" id="svg_48" d="m145.5,107.7c1.2,1.2 21.6,8.5 22.2,8c0.2,-0.2 -4.1,-2 -9.4,-3.9c-5.4,-2 -10.7,-3.9 -11.8,-4.3c-1.4,-0.5 -1.7,-0.5 -1,0.2z"/>
  <path stroke="null" id="svg_49" d="m219,108.8c-3,2.1 -4,5.5 -1.3,4.5c2.7,-1 7.3,-4.5 7.3,-5.6c0,-0.5 -0.6,-0.4 -1.4,0.2c-0.9,0.8 -1.5,0.8 -1.8,0.2c-0.2,-0.6 -1.3,-0.4 -2.8,0.7z"/>
  <path stroke="null" id="svg_50" d="m232.6,110.5c-0.3,0.9 -0.6,2.6 -0.6,3.6c0,1.1 -0.4,1.7 -1,1.4c-0.5,-0.3 -1.8,-0.1 -2.7,0.4c-1.6,0.9 -1.5,1 0.7,0.8c2.2,-0.2 2.6,0.3 3,3.8c0.5,3.5 0.6,3.1 1.3,-3.4c0.7,-7.4 0.5,-9.6 -0.7,-6.6z"/>
  <path stroke="null" id="svg_51" d="m214.5,117.1c-15.2,6.3 -14.5,6 -14.5,6.9c0,0.5 3.8,-0.9 8.4,-3.1c8.6,-4 11.2,-4.7 10,-2.8c-0.4,0.8 0,0.8 1.5,0c1.1,-0.7 2.1,-1.6 2.1,-2.2c0,-0.6 0.4,-0.8 0.9,-0.4c0.5,0.3 1.6,-0.2 2.5,-1.1c0.9,-0.8 2.1,-1.2 2.7,-0.8c0.8,0.4 0.9,0.3 0.5,-0.4c-1,-1.6 -0.5,-1.7 -14.1,3.9z"/>
  <path stroke="null" id="svg_52" d="m161,116.3c0.8,0.8 19.4,7.6 19.8,7.2c0.2,-0.1 -3.2,-1.6 -7.5,-3.3c-8.7,-3.3 -13,-4.7 -12.3,-3.9z"/>
  <path stroke="null" id="svg_53" d="m226.5,119.2c-0.3,0.7 -1.6,1.4 -3,1.4c-1.5,0.1 -2.2,-0.2 -1.8,-0.9c0.3,-0.6 -1.6,0.3 -4.4,1.9c-4.9,2.8 -6.6,4.9 -4,4.9c0.6,0 1.1,-0.6 0.9,-1.4c-0.2,-0.9 0.3,-1.1 1.3,-0.7c1.1,0.4 1.4,0.2 0.9,-0.6c-0.5,-0.8 -0.2,-0.9 0.9,-0.5c1,0.4 1.6,0.2 1.4,-0.5c-0.1,-0.6 0.4,-1.3 1.2,-1.6c0.9,-0.3 1.1,0 0.6,0.8c-0.6,0.9 -0.3,0.9 1.5,0c1.2,-0.6 2.4,-0.9 2.7,-0.7c0.3,0.3 -1.3,1.5 -3.6,2.7c-2.3,1.1 -4.1,2.3 -4.1,2.6c0,0.2 0.9,0 1.9,-0.6c2.5,-1.3 3.4,-1.3 2.6,0c-0.3,0.6 0.1,0.7 1,0.3c1.1,-0.4 1.3,-0.8 0.5,-1.3c-0.6,-0.4 0.6,-1.4 3,-2.5c4.5,-2 6.6,-4.2 3,-3c-1.5,0.5 -2,0.4 -1.6,-0.4c0.4,-0.6 0.5,-1.1 0.1,-1.1c-0.3,0 -0.8,0.6 -1,1.2z"/>
  <path stroke="null" id="svg_54" d="m278.8,119.2c-0.2,0.7 -0.1,3.5 0.3,6.3l0.6,5l0.1,-6.3c0.2,-5.9 -0.1,-7.6 -1,-5z"/>
  <path stroke="null" id="svg_55" d="m211,122c-3,1.6 -5.1,2.9 -4.7,3c1,0 10.7,-4.9 10.7,-5.5c0,-0.7 0.1,-0.7 -6,2.5z"/>
  <path stroke="null" id="svg_56" d="m144.5,122c2.2,1 7.6,3.3 12,5c4.4,1.8 12.2,5 17.4,7.1c5.2,2.2 9.6,3.7 9.9,3.5c0.6,-0.7 -2.7,-2.2 -11.4,-5.4c-4.3,-1.6 -9.7,-3.9 -11.9,-5.1c-2.2,-1.1 -4.5,-2.1 -5.1,-2.1c-0.6,0 -3.8,-1.1 -7.2,-2.5c-7.1,-2.9 -9.6,-3.2 -3.7,-0.5z"/>
  <path stroke="null" id="svg_57" d="m242.5,122c0.3,0.5 1.2,0.7 2,0.3c0.8,-0.3 1.5,0 1.5,0.7c0,0.6 0.4,0.8 1,0.5c0.5,-0.3 1.9,-0.1 3,0.5c1.1,0.6 2,0.8 2,0.5c0,-0.8 -6.6,-3.5 -8.5,-3.5c-0.9,0 -1.4,0.4 -1,1z"/>
  <path stroke="null" id="svg_58" d="m168.2,122.7c-1.5,0.6 4.2,3.5 10.1,5.1c1.7,0.6 4.1,1.3 5.2,1.7c1.6,0.6 1.7,0.5 0.5,-0.4c-0.8,-0.6 -3.9,-1.8 -6.9,-2.7c-4,-1.2 -5,-1.9 -4,-2.6c1,-0.6 0.7,-0.7 -1,-0.3c-1.6,0.5 -2.1,0.4 -1.7,-0.4c0.8,-1.2 0,-1.3 -2.2,-0.4z"/>
  <path stroke="null" id="svg_59" d="m186.5,126.4c2.8,1.4 5.5,2.5 6,2.5c1.5,0 -5.6,-3.6 -8.5,-4.3c-1.4,-0.3 -0.2,0.5 2.5,1.8z"/>
  <path stroke="null" id="svg_60" d="m253,124.9c0,0.3 1.5,1.1 3.3,1.7c1.7,0.6 7.6,2.6 13,4.4l9.8,3.3l-0.7,11.6c-1,17.1 -1.1,32.1 -0.2,32.1c0.4,0 0.8,-2.4 0.8,-5.3c0,-2.8 0.3,-13.5 0.5,-23.7c0.3,-10.2 0.3,-18 -0.1,-17.3c-0.4,0.8 -3,0.3 -9.2,-1.9c-12.5,-4.3 -17.2,-5.7 -17.2,-4.9z"/>
  <path stroke="null" id="svg_61" d="m172.5,129c3.3,1.6 6.7,2.9 7.5,2.9c0.8,0 -1.6,-1.3 -5.3,-2.9c-8.7,-3.8 -10.1,-3.8 -2.2,0z"/>
  <path stroke="null" id="svg_62" d="m220.2,129.5c-4.1,1.9 -7.8,3.3 -8.3,3c-0.9,-0.6 -8.4,2.9 -9.4,4.5c-0.9,1.5 -2.5,1.2 -2.5,-0.5c0,-0.8 -0.4,-1.5 -1,-1.5c-0.5,0 -0.7,0.7 -0.4,1.5c0.8,1.9 0,1.9 -3.8,-0.1c-3.2,-1.7 -12,-4.5 -12.5,-4c-0.2,0.1 3.8,1.9 8.9,3.8c7.5,3 9.5,3.4 11.4,2.6c1.3,-0.6 2.4,-1.5 2.4,-2c0,-0.5 0.4,-0.7 0.9,-0.4c1.1,0.7 6.1,-1.1 16.1,-6.1c10.2,-5.1 8.6,-5.7 -1.8,-0.8z"/>
  <path stroke="null" id="svg_63" d="m254,129.6c-0.6,1.6 -1.3,3.5 -1.5,4.1c-0.2,0.7 0,1.3 0.5,1.3c1,0 3.4,-6.9 2.6,-7.7c-0.3,-0.3 -1,0.7 -1.6,2.3z"/>
  <path stroke="null" id="svg_64" d="m240.7,132.2c0.3,1.8 1,3.7 1.6,4.3c0.6,0.7 0.8,0.2 0.3,-1.5c-0.3,-1.4 -0.6,-3.3 -0.6,-4.3c0,-0.9 -0.4,-1.7 -1,-1.7c-0.5,0 -0.7,1.4 -0.3,3.2z"/>
  <path stroke="null" id="svg_65" d="m186,143.3c0,4.8 1.5,6.8 6.4,8.7c2.5,0.9 2.7,0.9 1.7,-0.4c-0.6,-0.8 -2.2,-1.7 -3.5,-2c-3.1,-0.8 -4.5,-7.4 -1.9,-9.4c1.5,-1.1 1.5,-1.2 -0.5,-1.2c-1.9,0 -2.2,0.5 -2.2,4.3z"/>
  <path stroke="null" id="svg_66" d="m198,143.8c0,1 10.3,5.2 12.6,5.2c3.6,0 -0.1,1.8 -5.8,2.9c-3.5,0.7 -7.9,1.7 -9.8,2.2c-4,1.1 -21.9,4.9 -23.2,4.9c-0.4,0 -0.8,-0.9 -0.8,-2c0,-2.9 -1,-2.5 -6.1,2.4l-4.7,4.4l2.6,0.7c1.4,0.3 4.4,1.5 6.6,2.6c4.3,2.1 7.6,3.1 7.6,2.3c0,-0.3 -0.7,-1.5 -1.6,-2.8c-1.7,-2.8 -2.2,-2.6 11.1,-4.5c3.9,-0.6 8.6,-1.3 10.5,-1.6c12.5,-1.9 12.1,-1.9 17.4,0.8c2.8,1.4 10.1,4.9 16.1,7.8c16.4,7.7 21.7,11 21.1,13.3c-0.3,1.3 -0.2,1.6 0.6,0.8c2.5,-2.5 -0.5,-5 -14.5,-12c-7.8,-3.9 -17,-8.3 -20.5,-9.8c-3.4,-1.5 -6.1,-2.8 -6,-3c0.2,-0.1 3.7,-0.7 7.9,-1.3l7.6,-1l19.4,8.5c10.7,4.7 20.7,9.2 22.3,10c3.1,1.5 7.7,2 6,0.6c-0.5,-0.5 -5.4,-2.6 -10.9,-4.7c-5.5,-2.1 -13.6,-5.5 -18,-7.5c-4.4,-2.1 -9.7,-4.4 -11.7,-5.1c-4.6,-1.6 -4,-2.9 1.5,-3c2.3,0 5.1,-0.4 6.2,-0.9c1.9,-0.8 1.9,-0.9 -0.3,-0.9c-1.3,-0.1 -5.5,0.4 -9.3,1c-5.4,0.8 -7.3,0.8 -8.5,-0.2c-1.2,-1 -1.5,-1 -1.2,0.1c0.2,1 -1.3,1.6 -5.2,2.1c-20.2,2.5 -25.5,3.3 -33.9,5c-7.5,1.5 -9.6,1.7 -10.3,0.7c-0.5,-1 1.1,-1.6 6.5,-2.5c3.9,-0.7 12.8,-2.6 19.7,-4.3c6.9,-1.7 17.7,-4.1 24,-5.4c6.3,-1.3 11.6,-2.8 11.8,-3.5c0.4,-1.2 -3.2,-0.8 -11.2,1.5c-6.9,1.9 -9.7,1.8 -15.3,-1c-5.6,-2.7 -10.3,-4 -10.3,-2.8zm-25.6,19.2l2.7,4.9l-4.3,-1.9c-2.4,-1.1 -5.1,-2 -6,-2c-1,0 -1.8,-0.2 -1.8,-0.5c0,-0.7 5.3,-5.4 6.1,-5.5c0.3,0 1.8,2.2 3.3,5z"/>
  <path stroke="null" id="svg_67" d="m101.7,150.4c-8.1,3.5 -15.9,6.7 -17.5,7.1c-1.5,0.4 -2.2,0.9 -1.6,1.2c0.7,0.2 5.6,-1.5 11,-3.7c5.5,-2.3 12.9,-5.3 16.7,-6.7c3.7,-1.4 6.7,-3 6.7,-3.4c0,-1.1 1.8,-1.8 -15.3,5.5z"/>
  <path stroke="null" id="svg_68" d="m131.9,146.4c0.6,0.8 2.5,1.9 4.1,2.6c2.4,1 2.8,1.5 1.9,2.6c-0.6,0.8 -1.6,1.4 -2.1,1.4c-0.6,0 -0.5,-0.7 0.2,-1.5c0.7,-0.8 0.9,-1.5 0.6,-1.5c-1.2,0 -6.6,4.4 -6.6,5.3c0,0.6 0.9,0.2 2,-0.8c1.1,-1 2.3,-1.6 2.6,-1.3c0.3,0.3 -0.8,1.6 -2.3,2.8c-2.1,1.7 -3.6,2 -6.3,1.6c-1.9,-0.3 -4.4,-0.6 -5.4,-0.6c-1.9,0 -1.9,-0.1 -0.1,-2c1.7,-1.8 1.7,-2 0.2,-1.4c-0.9,0.3 -1.7,1 -1.7,1.4c0,0.4 -1.9,1.2 -4.2,1.8c-4.4,1.2 -11.8,6.5 -11.8,8.5c0,0.6 1.5,-0.3 3.3,-2.1c5,-4.9 9.1,-6.2 16.1,-5.1c4.4,0.7 6.8,0.7 9,-0.3c1.7,-0.7 3.6,-1.2 4.2,-1c0.6,0.1 1.8,-0.5 2.5,-1.5c1.3,-1.5 1.2,-1.5 -0.8,-0.4c-3,1.6 -2.9,0.1 0.2,-2.2c2.4,-1.7 2.6,-1.7 11.6,2.8c5,2.6 9.3,4.4 9.5,4.2c0.3,-0.2 -5.9,-3.6 -13.7,-7.6c-7.8,-3.9 -13.6,-6.5 -13,-5.7z"/>
  <path stroke="null" id="svg_69" d="m148.5,163.3c-3.8,1.7 -7.2,3.5 -7.3,3.9c-0.2,0.5 -0.7,0.6 -1.2,0.3c-0.4,-0.3 -1.8,-0.1 -3.1,0.3l-2.3,0.9l2.2,0.5c1.4,0.4 2,0.2 1.6,-0.4c-0.4,-0.6 -0.1,-0.9 0.7,-0.6c0.8,0.3 3,-0.4 5,-1.4c2,-1 4.7,-2.1 6,-2.3c1.3,-0.3 2.5,-0.9 2.7,-1.4c0.2,-0.6 0.9,-0.8 1.6,-0.5c0.7,0.3 1.3,-0.2 1.3,-1.1c0,-0.8 -0.1,-1.5 -0.1,-1.4c-0.1,0 -3.2,1.5 -7.1,3.2z"/>
  <path stroke="null" id="svg_70" d="m158,162.5c-0.1,1.1 -0.2,2.4 -0.1,2.9c0.1,0.5 -0.4,1.3 -1.1,1.7c-1,0.7 -1,0.9 0.1,0.9c1.1,0 1.1,0.3 0.1,1.5c-0.7,0.8 -1.7,1.2 -2.4,0.9c-0.6,-0.3 -0.3,0.1 0.7,0.9c1.7,1.4 1.6,1.6 -1.8,2.8c-3,1.1 -3.3,1.5 -1.8,2.1c1.1,0.5 0.5,0.6 -1.7,0.3c-2.1,-0.3 -3,-0.2 -2.2,0.3c0.9,0.6 -0.5,1.7 -4.5,3.5c-3.2,1.5 -5.2,2.7 -4.5,2.7c0.7,0 3.2,-1 5.5,-2.2c2.3,-1.1 5.3,-2.4 6.7,-2.8c1.4,-0.4 2.4,-1.3 2.2,-2c-0.2,-0.8 0.3,-1 1.3,-0.7c0.8,0.4 1.5,0.2 1.5,-0.3c0,-0.5 0.6,-0.7 1.3,-0.4c1,0.4 1.3,-0.5 1.2,-3.3c-0.1,-2.1 0.1,-4 0.5,-4.3c0.3,-0.3 0.3,-1.9 -0.1,-3.5c-0.5,-2.1 -0.7,-2.4 -0.9,-1z"/>
  <path stroke="null" id="svg_71" d="m73.6,164.7c-0.4,0.4 0.7,1.9 2.4,3.5c3.6,3.2 5.2,3.8 2.5,0.8c-2.6,-2.9 -0.9,-2.5 6,1.4c3.3,1.9 5.9,3.9 5.7,4.6c-0.2,0.8 0.3,1 1.3,0.6c1,-0.4 1.4,-0.2 0.9,0.5c-0.4,0.7 -0.1,1 0.6,0.7c0.8,-0.2 2.2,0.4 3.2,1.4c1,1 3,1.8 4.6,1.8c2.2,0 1.5,-0.7 -4.3,-4c-13.1,-7.4 -22.3,-11.9 -22.9,-11.3z"/>
  <path stroke="null" id="svg_72" d="m91,170.2c0,0.5 0.9,0.8 2,0.8c1.1,0 2,0.4 2,1c0,0.5 0.7,1 1.5,1c0.8,0 1.5,0.4 1.5,1c0,0.5 0.6,1 1.3,1c0.6,-0.1 0.2,-0.9 -1,-1.9c-1.3,-1.1 -2.3,-2.2 -2.3,-2.5c0,-1.3 2.3,-0.5 3.6,1.1c0.7,1 1.6,1.4 2.1,1c0.4,-0.5 -0.1,-1.4 -1.2,-2c-2.2,-1.3 -9.5,-1.6 -9.5,-0.5z"/>
  <path stroke="null" id="svg_73" d="m126,171.2c-3,1.1 -5.7,2.2 -6,2.5c-0.8,0.8 4.8,-0.8 9.8,-2.8c6.3,-2.5 3.1,-2.2 -3.8,0.3z"/>
  <path stroke="null" id="svg_74" d="m72.8,171.7c0.6,0.3 1.2,1.1 1.2,1.9c0,0.8 0.4,1.4 0.9,1.4c0.4,0 2,1.1 3.5,2.5c1.5,1.3 3.6,3 4.7,3.6c1.1,0.6 1.8,1.3 1.5,1.6c-0.3,0.3 -2.1,-0.4 -4.1,-1.6c-2,-1.1 -3.3,-1.6 -2.9,-1c0.4,0.8 -0.1,0.9 -1.7,0.5l-2.4,-0.7l2.4,1.5c1.4,0.7 3.2,1.1 4,0.8c0.9,-0.3 1.2,-0.1 0.7,0.6c-0.5,0.8 -0.1,1 1,0.5c1.2,-0.4 1.5,-0.3 1,0.5c-0.5,0.8 -0.1,1 1,0.5c1.2,-0.4 1.5,-0.3 1,0.6c-0.4,0.6 -0.4,1.1 0.1,1c2,-0.3 3.3,0.2 3,1.2c-0.1,0.7 1.3,2.1 3.2,3.2c1.9,1.2 3.1,1.6 2.7,0.9c-0.8,-1.4 -0.5,-1.5 1.8,-0.6c0.9,0.3 1.3,1 1,1.5c-0.3,0.5 0.3,0.6 1.2,0.2c1.2,-0.4 1.5,-0.3 1,0.5c-0.5,0.8 -0.1,1 1,0.5c1.3,-0.5 1.5,-0.3 0.9,0.8c-0.5,0.8 -0.4,1.1 0,0.6c2.5,-2.2 0.8,-4 -8.3,-9.4c-5.4,-3.1 -10.1,-6.2 -10.7,-6.8c-0.5,-0.6 -2.3,-1.9 -3.8,-2.9c-4.2,-2.6 -2.4,-3.2 1.8,-0.7c4.9,2.8 6,2.6 1.3,-0.3c-2.1,-1.2 -3.6,-2.5 -3.4,-2.7c0.2,-0.2 -1,-0.4 -2.7,-0.5c-1.8,-0.1 -2.6,0.1 -1.9,0.3zm20.8,15.5c4,2.3 7.2,4.4 6.9,4.6c-0.2,0.3 -2,-0.5 -4,-1.7c-4,-2.3 -4.9,-2.6 -4,-1.1c0.9,1.5 -0.9,1.2 -3.1,-0.6c-1.8,-1.4 -1.8,-1.5 0.6,-0.9c1.8,0.4 1.4,0 -1.2,-1.5c-3.5,-1.9 -4.7,-3 -3.2,-3c0.4,0 4,1.9 8,4.2z"/>
  <path stroke="null" id="svg_75" d="m103.5,173.1c0.3,0.4 -0.2,0.9 -1,1.1c-1.2,0.2 -1.1,0.6 0.6,1.6c1.9,1.2 2.1,1.2 1.6,-0.1c-0.4,-1.1 0.1,-1.7 1.6,-1.9c2,-0.3 1.9,-0.4 -0.5,-0.9c-1.5,-0.4 -2.5,-0.3 -2.3,0.2z"/>
  <path stroke="null" id="svg_76" d="m115,175.2c-1.4,0.6 -4.2,1.9 -6.2,2.9c-2.7,1.3 -3.8,1.5 -4.2,0.6c-0.2,-0.7 -0.4,0.8 -0.4,3.3c0,2.5 0.2,3.8 0.5,3c0.3,-0.8 1.1,-1.8 1.7,-2.2c0.7,-0.5 0.6,-0.8 -0.4,-0.8c-0.8,0 0.3,-1.2 2.5,-2.6c2.5,-1.5 4.9,-2.3 6.5,-2c1.4,0.3 1.9,0.3 1.1,-0.1c-1,-0.4 -0.8,-0.9 1,-1.9c2.9,-1.6 1.4,-1.7 -2.1,-0.2z"/>
  <path stroke="null" id="svg_77" d="m7,177.7c0.1,0.9 19.6,12.4 32.5,19.3c7.4,3.9 16.8,9.3 33.4,19.2c3.6,2.1 6.8,3.8 7.3,3.8c0.4,0 0.8,1.5 0.8,3.2c0,1.8 0.5,4 1,4.8c0.7,1.1 1,0.6 1,-2.2l0,-3.6l11.3,7.4c9.2,6.1 11.7,7.3 14,6.8c3,-0.6 3.7,1 1,2.4c-1,0.5 -6.1,2.4 -11.3,4.2c-5.2,1.7 -9.9,3.6 -10.4,4c-0.8,0.8 9,-2.1 18.3,-5.4c2.4,-0.9 4.4,-1.6 4.5,-1.6c0.1,0 0.1,11.6 -0.2,25.7c1.2,33.3 1.78461,11.54637 1.1,13.3c-0.68461,1.75363 -0.1,-26.8 0.4,-33.3c0.5,-6.4 0.5,-11.7 0.1,-11.7c-0.4,0 -1.8,0.4 -3.1,0.9c-2.5,1 -2.4,1 -21.1,-11.2c-2.7,-1.8 -5.9,-3.8 -7,-4.4c-1.2,-0.7 -2,-1.8 -1.8,-2.4c0.1,-0.6 -0.2,-0.7 -0.8,-0.4c-0.6,0.4 -3,-0.6 -5.3,-2.1c-2.3,-1.5 -6.4,-4 -9.2,-5.4c-9.2,-4.8 -44,-24.3 -45.5,-25.5c-2.9,-2.3 -11,-6.6 -11,-5.8z"/>
  <path stroke="null" id="svg_78" d="m90,177.3c0,0.3 2.9,2.1 6.5,4c3.5,1.9 6.2,3 5.9,2.6c-0.3,-0.5 -2.9,-2.2 -5.7,-3.7c-6.6,-3.4 -6.7,-3.5 -6.7,-2.9z"/>
  <path stroke="null" id="svg_79" d="m18,180.5c0,0.5 9.9,5.5 10.8,5.5c1,0 -5.7,-4 -8.5,-5.1c-1.3,-0.5 -2.3,-0.7 -2.3,-0.4z"/>
  <path stroke="null" id="svg_80" d="m113,181.5c-1.4,0.8 -1.9,1.4 -1.2,1.5c0.7,0 1.1,0.4 0.7,0.9c-0.9,1.5 1.3,2.3 3.2,1.2c1.4,-0.8 1.5,-1 0.3,-1.1c-1.3,0 -1.3,-0.1 0,-1c1.1,-0.7 1.1,-1 0.2,-1c-0.7,0 -1,-0.5 -0.7,-1c0.8,-1.3 0.5,-1.2 -2.5,0.5z"/>
  <path stroke="null" id="svg_81" d="m241,183.5c-7.6,3.1 -42.9,16.8 -51.8,20c-4,1.5 -7.1,2.9 -6.9,3.1c0.4,0.4 6,-1.6 38.2,-13.6c22.5,-8.4 25.1,-9.4 27,-10.7c3,-2 -0.1,-1.4 -6.5,1.2z"/>
  <path stroke="null" id="svg_82" d="m277,187.9l0,7l-3.7,-1.5c-4.2,-1.7 -10.3,-4.5 -11.7,-5.2c-0.5,-0.3 -0.6,0 -0.3,0.5c0.4,0.6 4,2.6 8.2,4.4l7.5,3.4l0,11.8c0,11.6 0,11.8 -2.5,12.7c-1.9,0.7 -3.9,0.3 -9.1,-2.1c-3.7,-1.6 -6.9,-2.7 -7.1,-2.5c-0.5,0.5 8.3,4.6 9.8,4.6c0.5,0 1.3,0.9 1.9,2c1.4,2.7 1.1,2.6 -7.1,-1.6c-3.9,-1.9 -7.3,-3.3 -7.6,-3.1c-0.2,0.3 3,2.1 7.1,4.1c4.2,1.9 7.6,4 7.6,4.6c0,1.6 -0.8,1.3 -9.7,-3.5c-4.6,-2.5 -8.3,-4.3 -8.3,-4c0,0.2 1.4,1.2 3,2c1.7,0.9 2.8,2 2.5,2.5c-0.3,0.5 0,1.2 0.6,1.6c0.8,0.5 0.9,0.3 0.4,-0.6c-0.6,-1 -0.4,-1.2 0.9,-0.7c1,0.4 2.1,0.7 2.4,0.7c0.4,0.1 -0.3,0.6 -1.6,1.3c-2.1,1.2 -2,1.4 4.3,4.7c6.9,3.7 6.9,3.8 5.7,5.8c-0.7,1 -1.6,1 -3.8,0.2c-2.6,-0.9 -2.7,-0.9 -1.1,0.4c1.4,1.1 1.5,1.5 0.5,2c-0.7,0.3 -0.1,0.3 1.5,0c2.3,-0.5 2.7,-0.3 2.7,1.5c0,2.1 0.1,2.1 3.8,0.6c4.6,-2 5.8,-3.1 3.3,-3.1c-1.1,0 -1.7,0.4 -1.5,0.8c0.3,0.4 -0.2,0.8 -1,0.8c-2.3,0 -2.8,-1.8 -0.9,-3c1.7,-1.1 1.7,-1.1 0.1,-0.6c-2,0.6 -2.5,-1 -0.5,-1.7c0.6,-0.3 0.3,-0.6 -0.8,-0.6c-1.7,-0.1 -1.8,-0.3 -0.5,-1.2c1.3,-0.9 1.2,-1 -0.3,-0.5c-1.8,0.6 -8.3,-2.1 -7.4,-3.1c0.3,-0.2 1.5,0.1 2.7,0.7c1.7,0.9 3.2,0.9 6.6,-0.1l4.4,-1.3l0,-15.9c0,-15.5 0,-15.7 2,-14.7c2.7,1.4 2.6,-0.2 -0.1,-1.8c-1.8,-1.2 -2,-2.1 -1.7,-8.3c0.2,-3.8 0,-6.9 -0.4,-6.9c-0.5,0 -0.8,3.1 -0.8,6.9zm0,37c0,2.3 -0.5,3 -2.6,3.5c-3.4,0.9 -4.4,-0.1 -1.3,-1.3l2.4,-1l-2.5,-0.1c-2,0 -2.2,-0.2 -1,-1c1.3,-0.9 1.3,-1 0,-1.1c-1,0 -0.8,-0.3 0.5,-0.9c3.5,-1.5 4.5,-1.1 4.5,1.9zm-10,3.2c1.9,1.1 2.6,1.7 1.5,1.3c-1.1,-0.4 -3.1,-0.8 -4.5,-0.9c-4.3,-0.4 -4.5,-0.5 -3,-1.5c1.9,-1.3 1.9,-1.3 6,1.1z"/>
  <path stroke="null" id="svg_83" d="m245.5,185.4c-2.2,1.2 -7.4,3.5 -11.5,5.1c-11.7,4.5 -18.1,7.6 -17.5,8.6c0.4,0.5 1.1,0.9 1.6,0.9c0.6,0 0.8,-0.4 0.5,-0.8c-0.8,-1.3 18.7,-9.6 19.8,-8.5c0.3,0.4 0.6,0.1 0.6,-0.5c0,-0.7 0.7,-1.2 1.6,-1.2c1.3,0 1.5,1.1 1.3,6c-0.1,3.3 0.1,6.3 0.5,6.7c0.4,0.5 0.6,-2.5 0.4,-6.4l-0.3,-7.3l3.8,-1.5c2,-0.8 3.7,-1.9 3.7,-2.5c0,-1.3 0.2,-1.3 -4.5,1.4z"/>
  <path stroke="null" id="svg_84" d="m99.6,185.6c1.6,1.3 1.6,1.5 0.2,1c-2.5,-0.7 -2.2,0.1 0.3,1.5c1.7,0.8 2,0.8 1.4,-0.1c-0.5,-0.8 -0.3,-1.1 0.6,-0.8c0.7,0.2 1.4,1.9 1.5,3.7c0.1,1.7 0.4,3.4 0.7,3.7c0.7,0.7 7.7,-1.5 7.7,-2.5c0,-0.4 1,-0.8 2.2,-0.8c1.3,-0.1 2.4,-0.7 2.6,-1.2c0.2,-0.5 1,-0.7 1.9,-0.4c1.2,0.5 1.4,0.3 0.8,-0.7c-0.6,-1 -0.4,-1.2 1.1,-0.6c1.4,0.5 1.6,0.4 0.8,-0.4c-0.8,-0.8 -3.1,-0.2 -8.2,2c-8.4,3.5 -8.6,3.6 -7.9,1.1c0.6,-2.3 0,-3.1 -3.5,-5.4c-3.4,-2.1 -4.8,-2.2 -2.2,-0.1z"/>
  <path stroke="null" id="svg_85" d="m109.3,186.6c0,0.8 0.5,1.4 1.1,1.4c0.6,0 0.4,0.5 -0.4,1c-2.5,1.6 0.3,1.1 3,-0.6c2.5,-1.5 2.5,-1.5 0.1,-0.8c-1.5,0.4 -2.1,0.2 -1.7,-0.4c0.3,-0.5 0,-1.2 -0.7,-1.5c-0.8,-0.3 -1.4,0.1 -1.4,0.9z"/>
  <path stroke="null" id="svg_86" d="m30,186.5c0,0.3 3.7,2.3 8.1,4.6c9,4.5 30.6,17.2 43.9,25.7c4.6,3 8.9,5.5 9.5,5.6c1.3,0.2 5.9,3.2 10.6,6.8l3.6,2.8l5.9,-1.5c8.4,-2.2 23.6,-7.3 25.4,-8.6c1.2,-0.9 1.1,-1 -0.5,-0.4c-6,2 -15.2,4.9 -16.5,5c-0.8,0.2 -3.5,1 -5.9,1.9c-6.4,2.3 -7.9,2.1 -15,-2.8c-3.6,-2.5 -6.8,-4.3 -7.3,-4c-0.4,0.3 -0.8,-0.1 -0.8,-0.9c0,-0.8 -1.2,-1.8 -2.7,-2.2c-1.6,-0.3 -6.8,-3.2 -11.8,-6.5c-16.9,-10.9 -46.5,-27.2 -46.5,-25.5z"/>
  <path stroke="null" id="svg_87" d="m238,193.7c0,1 -0.3,4.2 -0.6,7c-0.4,2.9 -0.3,5.3 0.2,5.3c0.5,0 1,-3.2 1.2,-7c0.1,-3.9 0,-7 -0.3,-7c-0.3,0 -0.5,0.8 -0.5,1.7z"/>
  <path stroke="null" id="svg_88" d="m207.7,200.6c-0.9,0.9 -25.5,10 -42.2,15.6c-8.2,2.7 -15.4,5.4 -15.9,5.9c-0.6,0.5 0.3,0.5 2,0c4.5,-1.3 29.4,-9.8 34.4,-11.7l4.5,-1.7l21.6,11.2c11.9,6.1 22,11.1 22.5,11.1c1.3,0 -10.9,-7.9 -12.3,-8c-0.7,0 -7.8,-3.4 -15.9,-7.5c-16.4,-8.4 -16.1,-7.2 -3.1,-11.7c5.4,-1.9 6,-1.9 10.4,-0.4c2.5,0.9 4.8,1.4 5.1,1.2c0.2,-0.3 -1.4,-1 -3.7,-1.7c-2.3,-0.7 -4.1,-1.6 -4.1,-2.1c0,-0.9 -2.4,-1.1 -3.3,-0.2z"/>
  <path stroke="null" id="svg_89" d="m218.5,201c-2.1,0.9 -1.9,1 4.1,1.5c1.6,0.1 4.5,1 6.3,1.9c3.6,1.9 8,3.1 6.5,1.7c-1.1,-0.9 -13.3,-6.1 -14.2,-6c-0.4,0 -1.6,0.4 -2.7,0.9z"/>
  <path stroke="null" id="svg_90" d="m213.4,206c2.7,1.1 5.1,1.8 5.4,1.6c0.6,-0.6 -3.6,-2.3 -7.6,-3.1c-1.5,-0.3 -0.5,0.4 2.2,1.5z"/>
  <path stroke="null" id="svg_91" d="m162.5,212.9c-9.3,3.2 -17.7,6.1 -18.5,6.4c-0.8,0.3 -2.2,0.8 -3,1c-1.2,0.4 -1.1,0.6 0.3,0.6c0.9,0.1 1.7,0.7 1.7,1.5c0,0.8 -4.4,2.8 -11.5,5.2c-6.3,2.1 -11.3,4 -11,4.2c0.4,0.4 7,-1.5 18.3,-5.5c4.4,-1.6 6.8,-2.9 6.1,-3.4c-1.5,-0.9 -0.4,-3.9 1.4,-3.9c1.6,0 31.5,-9.8 33.6,-11c3.3,-1.9 -0.9,-0.7 -17.4,4.9z"/>
  <path stroke="null" id="svg_92" d="m209.4,210.3c0,3.2 0.2,3.3 13.7,9.7c10.2,4.8 13.9,7 14.1,8.5c0.8,4.6 1.3,-2.1 0.7,-9l-0.5,-7l-0.2,6.2c-0.1,3.5 -0.5,6.3 -0.8,6.3c-0.8,0 -24.7,-11.9 -25.4,-12.7c-0.3,-0.3 1.1,-0.3 3,0l3.5,0.6l-3.2,-1.1c-3.7,-1.2 -4.6,-3.3 -1,-2.3c2,0.5 2,0.5 -0.3,-0.9c-3.4,-2.1 -3.5,-2 -3.6,1.7z"/>
  <path stroke="null" id="svg_93" d="m241.2,217.1c0,6.4 0.4,9.6 0.9,8.3c0.8,-2.2 0.4,-17.3 -0.5,-18.2c-0.3,-0.2 -0.5,4.2 -0.4,9.9z"/>
  <path stroke="null" id="svg_94" d="m244,209.5c0,0.7 7.7,4.5 9.2,4.5c0.7,0 -0.9,-1.1 -3.6,-2.5c-5.2,-2.6 -5.6,-2.8 -5.6,-2z"/>
  <path stroke="null" id="svg_95" d="m188,211.3c0,0.3 1.7,1.4 3.8,2.4c33.2,17.2 45.2,23.1 45.2,22.4c0,-0.5 -10.7,-6.2 -23.7,-12.7c-26.4,-13.3 -25.3,-12.7 -25.3,-12.1z"/>
  <path stroke="null" id="svg_96" d="m244,225.4c0,0.7 9.3,5.7 9.8,5.2c0.2,-0.3 -1.9,-1.6 -4.7,-3c-2.8,-1.5 -5.1,-2.4 -5.1,-2.2z"/>
  <path stroke="null" id="svg_97" d="m134.5,231c-3.8,1.5 -9.7,3.6 -13,4.5c-3.3,1 -5.5,2 -5,2.2c0.6,0.2 5.8,-1.3 11.5,-3.2c5.8,-2 11.7,-3.9 13.3,-4.2c1.5,-0.3 2.7,-0.9 2.7,-1.4c0,-1.4 -1.9,-1 -9.5,2.1z"/>
  <path stroke="null" id="svg_98" d="m241.1,229.7c0,1.3 0,2.6 0,3c0.1,0.5 3.6,2.2 7.8,3.9c4.2,1.7 9.6,4.1 11.9,5.3c2.4,1.2 4.6,2 4.9,1.7c0.6,-0.5 -9.7,-5.5 -18.9,-9.2c-3.6,-1.4 -4.8,-2.5 -5.1,-4.4c-0.4,-2.3 -0.4,-2.3 -0.6,-0.3z"/>
  <path stroke="null" id="svg_99" d="m244,229.6c0,0.3 3.7,2.2 8.3,4.3c10.3,4.7 12,5.3 11.2,4.1c-0.3,-0.6 -1,-1 -1.6,-1c-0.5,0 -4.6,-1.8 -9,-4c-8.5,-4.2 -8.9,-4.3 -8.9,-3.4z"/>
  <path stroke="null" id="svg_100" d="m81,238.8c0,4.4 -0.3,8.8 -0.6,9.6c-0.4,1.1 -0.2,1.5 0.8,1.1c1.1,-0.5 1.4,-2.5 1.2,-9.1c-0.3,-11 -1.4,-12.3 -1.4,-1.6z"/>
  <path stroke="null" id="svg_101" d="m114.4,245c0,6.9 0.1,9.7 0.3,6.2c0.2,-3.4 0.2,-9 0,-12.5c-0.2,-3.4 -0.3,-0.6 -0.3,6.3z"/>
  <path stroke="null" id="svg_102" d="m240,237.5c0,0.7 6.2,3.8 8,3.9c0.8,0.1 7,3 13.7,6.4c6.8,3.4 12.8,6.2 13.5,6.2c1.6,-0.1 -32.2,-16.9 -33.9,-17c-0.7,0 -1.3,0.2 -1.3,0.5z"/>
  <path stroke="null" style="vector-effect: non-scaling-stroke;" id="svg_103" d="m236.56922,249.96176c-0.4,16 -1,30 -1.2,31.3c-0.3,1.2 -0.1,2.2 0.3,2.2c1.1,0 2.3,-30.7 1.9,-48.5c-0.2,-11 -0.5,-7.8 -1,15z"/>
  <path stroke="null" id="svg_104" d="m241,239.80554c-0.1,5.64756 -0.3,13.65922 -0.7,17.73071c-0.3,4.33417 -0.1,7.61764 0.4,7.61764c0.5,0 1,-8.01166 1.2,-17.73071c0.1,-9.71906 0,-17.73071 -0.3,-17.73071c-0.3,0 -0.6,4.59685 -0.6,10.11307z"/>
  <path stroke="null" id="svg_105" d="m276.1,245.7c-0.1,1.2 0.9,3.2 2.2,4.5c1.3,1.3 5.4,8.3 9.1,15.6c3.7,7.4 6.9,13.2 7.1,13c0.7,-0.6 -13.3,-27.9 -15.4,-30.2c-1,-1.2 -2.1,-2.8 -2.4,-3.6c-0.4,-1 -0.6,-0.8 -0.6,0.7z"/>
  <path stroke="null" id="svg_106" d="m114.8,272c0.4,18.7 1,21.2 1,4.5c0,-7.2 -0.3,-14.4 -0.7,-16c-0.4,-1.7 -0.5,3.5 -0.3,11.5z"/>
  <path stroke="null" id="svg_107" d="m241.33844,208.60092c-0.2,4.7 0,9.1 0.4,9.8c0.4,0.6 0.8,-3.3 0.8,-8.7c0,-5.3 -0.2,-9.7 -0.4,-9.7c-0.3,0 -0.6,3.9 -0.8,8.6z"/>
  <path stroke="null" id="svg_108" d="m240.15383,277.30792c0,2.9 0.2,5.1 0.4,4.9c0.8,-0.8 1,-8.8 0.3,-9.5c-0.4,-0.4 -0.7,1.7 -0.7,4.6z"/>
 </g>
</svg>