<svg width="300" height="300" xmlns="http://www.w3.org/2000/svg" preserveAspectRatio="xMidYMid meet" version="1.0">
 <metadata>Created by potrace 1.10, written by Peter Selinger 2001-2011</metadata>

 <g>
  <title>Layer 1</title>
  <path id="svg_2" d="m87.7648,105.0949c0,1.45 -0.45,2.65 -1,2.65c-0.55,0 -1,0.35 -1,0.85c0,0.45 0.65,0.8 1.45,0.8c0.8,0 1.25,-0.35 0.95,-0.8c-0.3,-0.5 -0.05,-0.85 0.55,-0.85c0.55,0 0.9,-0.9 0.75,-1.95c-0.5,-3.15 -1.7,-3.65 -1.7,-0.7z"/>
  <path id="svg_3" d="m157.00001,0.99997c-0.05,0.8 0,7.35 0.15,14.5c0.15,7.15 0.35,19.95 0.4,28.5c0.2,20.4 0.25,20.9 1.5,19c1.2,-1.8 0.15,-59.75001 -1.15,-62.00001c-0.75,-1.35 -0.85,-1.35 -0.9,0z"/>
  <path id="svg_4" d="m180.75002,3.19997c-3.15,1.05 -5.75,2.4 -5.75,2.95c0,0.5 0.5,0.65 1.05,0.3c0.6,-0.35 1.85,0 2.75,0.85c2,1.75 14,6.2 14.75,5.5c0.25,-0.3 -2.35,-1.55 -5.8,-2.75c-6.45,-2.35 -10.4,-4.7 -5.2,-3.15c1.65,0.5 3.75,1.2 4.7,1.6c3.5,1.45 1.65,-0.65 -2,-2.2l-3.75,-1.65l4.4,-1.3c2.4,-0.7 4.65,-1.55 4.9,-1.85c1.15,-1.1 -4.6,-0.15 -10.05,1.7z"/>
  <path id="svg_5" d="m173.60002,10.84997c0.55,2.7 0.3,2.9 -5.75,5.1c-3.5,1.25 -6.7,2.6 -7.15,3c-0.7,0.65 10.95,7.05 12.8,7.05c0.6,0 3.8,1.4 15,6.5c2.75,1.25 11.3,5 19,8.3c20,8.6 27.1,11.9 53.35,24.85c12.8,6.35 23.55,11.25 23.9,10.95c0.3,-0.35 0.05,-0.6 -0.6,-0.6c-0.65,0 -4,-1.7 -7.4,-3.8c-3.45,-2.05 -7.7,-4.35 -9.5,-5.1c-1.8,-0.75 -3.25,-1.75 -3.25,-2.3c0,-0.5 -0.4,-0.65 -0.95,-0.35c-0.5,0.35 -1.4,-0.2 -1.95,-1.2c-0.6,-0.95 -1.05,-1.35 -1.05,-0.9c-0.05,0.5 -0.8,0.3 -1.7,-0.5c-0.9,-0.75 -1.85,-1.2 -2.05,-1c-0.2,0.15 -4.1,-1.45 -8.6,-3.65c-12.95,-6.3 -23.5,-11.2 -24.05,-11.2c-0.3,0 -9,-3.75 -19.35,-8.35c-10.35,-4.6 -22.6,-9.8 -27.3,-11.6c-9.15,-3.5 -14.4,-6 -13.85,-6.55c1.7,-1.65 10.85,-4.3 10.85,-3.1c0,0.75 -1.25,1.75 -2.75,2.15c-2.35,0.65 -2.45,0.85 -0.75,1.2c1.1,0.25 2.45,0.8 3,1.25c1.55,1.25 13.75,5.05 14.35,4.5c0.25,-0.25 -0.15,-0.5 -0.95,-0.5c-1.05,-0.05 -1.1,-0.2 -0.15,-0.8c0.75,-0.5 -0.1,-0.85 -2.2,-0.9c-7.75,-0.2 -12.95,-7.05 -7.05,-9.3c1.85,-0.7 3.65,-0.45 7.05,1.05c7.05,3 7.7,2.3 0.95,-1.05c-6.3,-3.1 -9.1,-3.75 -7.9,-1.85c0.4,0.65 0.15,0.95 -0.7,0.65c-0.75,-0.25 -1.55,-1.45 -1.7,-2.65c-0.2,-1.15 -0.75,-2.15 -1.25,-2.15c-0.5,0 -0.65,1.25 -0.35,2.85z"/>
  <path id="svg_6" d="m194.00002,10.99997c1.95,1.05 2.85,1.95 2,2c-0.9,0.05 -0.55,0.6 1,1.45c2.65,1.45 4.45,1.05 2,-0.45c-2.85,-1.75 -0.45,-1.8 3.15,-0.05c4.6,2.25 9.75,3.6 8.35,2.2c-1.3,-1.35 -16.5,-7.15 -18.5,-7.1c-0.8,0 0.1,0.9 2,1.95z"/>
  <path id="svg_7" d="m0,11.64997c0,3.25 1.05,5.35 2.6,5.35c1.8,0 1.8,-0.35 -0.6,-4.25c-1.7,-2.8 -2,-2.95 -2,-1.1z"/>
  <path id="svg_8" d="m49.35,12.49997c0.8,0.8 7.7,4.25 15.3,7.6c7.65,3.35 16.25,7.2 19.15,8.5c2.9,1.3 5.7,2.4 6.25,2.4c1.5,0 1.15,1.65 -1.4,6.8c-1.25,2.6 -3.8,8.5 -5.6,13.2c-5.7,14.95 -11.4,29 -11.7,29c-0.8,0 -15.9,-10.25 -16.15,-11c-0.9,-2.45 2.45,-1.6 7.8,2c3.3,2.25 6,3.65 6,3.15c0,-1.25 -36.1,-25.75 -40.25,-27.35c-0.45,-0.2 0.5,-2.8 2.05,-5.8c3.75,-7.45 12.2,-26.85 12.2,-28.15c0,-1.4 -2.45,-0.5 -2.6,1c-0.1,0.6 -0.2,1.65 -0.25,2.2c-0.1,0.6 -0.6,0.8 -1.15,0.45c-0.55,-0.35 -0.75,0.05 -0.4,0.9c0.3,0.8 -0.2,3 -1.15,4.8c-3.1,5.9 -3.45,6.75 -3.45,8.35c0,0.95 -0.45,1.3 -1.15,0.85c-0.65,-0.4 -0.9,-0.25 -0.55,0.3c0.35,0.55 -0.2,2.65 -1.2,4.65c-2.9,5.7 -5.15,11.65 -4.3,11.4c1.8,-0.55 17.25,10.25 18.2,12.7c0.95,2.6 2.55,3.35 3.15,1.55c0.2,-0.55 1.7,0.1 3.35,1.45c3.1,2.5 2.65,5.5 -0.5,3.5c-1,-0.6 -1.1,-0.9 -0.25,-0.95c0.7,0 1.25,-0.45 1.25,-1c0,-1.25 -2.7,-1.35 -3.15,-0.1c-0.2,0.5 -5.05,-2.2 -10.85,-5.95c-5.8,-3.75 -10.9,-6.85 -11.4,-6.9c-1.55,-0.1 3.55,4.85 5.75,5.55c1.1,0.35 3.8,1.95 6,3.5c2.15,1.6 4.4,2.9 5,2.9c0.55,0 6.8,3.95 13.9,8.75l12.9,8.75l-3.85,1.65c-2.1,0.95 -4.45,1.75 -5.3,1.8c-0.8,0 -6.65,1.85 -12.9,4c-6.3,2.2 -11.8,3.75 -12.25,3.45c-0.45,-0.3 -0.85,-0.05 -0.85,0.55c0,0.55 -0.8,1.05 -1.75,1.1c-0.95,0 -4.3,1.3 -7.45,2.85l-5.7,2.85l-2.2,-2.35c-1.2,-1.3 -2.55,-2.1 -3,-1.85c-0.45,0.3 -3.8,-2.45 -7.45,-6.05c-3.7,-3.65 -6.95,-6.3 -7.3,-5.95c-0.95,0.9 16.55,17.1 18.6,17.2c0.95,0.05 3.9,-0.8 6.55,-1.9c7.65,-3.1 26.95,-10 29.7,-10.6c4.45,-0.9 0.85,1.4 -5.5,3.5c-17.8,6 -25.45,8.8 -25.5,9.4c0,0.85 5.4,-0.85 23,-7.2c8.3,-3 15.8,-5.15 17.5,-4.95c6.25,0.55 16.35,0.4 25.05,-0.4c16.4,-1.5 37.65,9.5 38.5,19.95c0.5,5.8 -0.1,8.2 -3.05,12.55c-1.6,2.4 -2.95,5.1 -3,6c0,3.75 -4.5,3.9 -7.85,0.25c-3.4,-3.65 -3.7,-4.35 -2.15,-4.35c0.55,0 2.95,-0.85 5.25,-1.9c2.35,-1.05 5.05,-2.15 6,-2.45c4.45,-1.45 0.05,-5.75 -14.9,-14.45c-3.95,-2.3 -8.55,-5.3 -10.15,-6.7c-3.65,-3.05 -7,-3.15 -14.2,-0.35c-3,1.15 -6.85,2.45 -8.5,2.9c-1.65,0.45 -6.65,2.2 -11.15,3.85c-4.5,1.65 -8.45,2.7 -8.8,2.3c-0.35,-0.35 -1,-0.15 -1.35,0.5c-0.75,1.2 -6.8,3.65 -14.15,5.65c-2.4,0.7 -4.6,1.75 -4.8,2.4c-0.5,1.45 4.55,0 20.85,-5.85c6.3,-2.25 14.8,-5.1 18.9,-6.4c4.15,-1.25 9.8,-3.15 12.65,-4.25l5.1,-1.95l8.9,5.9c4.85,3.3 11.65,7.55 15.1,9.45c6.6,3.7 8.35,5.35 5.8,5.35c-0.85,0 -4.4,1.15 -7.9,2.55l-6.4,2.55l-6.25,-2.1c-3.8,-1.3 -7.35,-1.85 -9.05,-1.5c-5.75,1.25 -4.75,-1.35 2.2,-5.95c3.8,-2.45 6.15,-2.35 3.1,0.2c-1.65,1.35 -1.65,1.4 0.1,0.85c1,-0.35 2.3,-0.6 2.9,-0.6c0.6,0 0.8,-0.3 0.45,-0.6c-0.35,-0.35 0.35,-1.45 1.6,-2.45l2.2,-1.75l-3.15,0.25c-1.75,0.15 -4.35,1.2 -5.9,2.4c-2.65,2.1 -4.8,2.6 -8.95,2.15c-2.9,-0.3 -3.1,-0.85 -0.95,-2.5c1.1,-0.8 1.4,-1.45 0.75,-1.45c-0.65,-0.05 -1.85,0.65 -2.75,1.5c-0.9,0.9 -2.35,1.35 -3.45,1c-2.35,-0.75 -6.8,1.1 -10.35,4.35c-4.4,4 -3.15,4.4 1.85,0.6c4.5,-3.45 6.75,-4.05 11.15,-2.85c3.5,0.9 0.25,7.35 -3.75,7.35c-2.25,0 -0.7,1.65 3.9,4.25c6,3.35 6.1,3.35 6.1,0.1c0,-2.45 0.2,-2.6 3.75,-2c2.05,0.35 4.9,0.65 6.25,0.7c2.75,0.05 0.1,1.15 -23.7,10c-16.7,6.15 -13.35,7.05 -31.55,-8.35c-6.5,-5.5 -12,-9.75 -12.3,-9.5c-0.25,0.25 1.65,2.25 4.25,4.4c8.6,7.1 14.8,12.8 14.65,13.35c-0.1,0.3 0.25,1.1 0.8,1.7c0.8,1 -2.7,10 -4.75,12.25c-0.5,0.55 -4.4,-2.2 -8.3,-5.8c-1.85,-1.75 -4.75,-4.15 -6.45,-5.35l-3.05,-2.15l3.15,-0.8c5.1,-1.35 5.65,-6.8 0.7,-6.8c-1.9,0 -2.45,-0.55 -2.45,-2.25c0,-4.4 -3.5,-5.05 -5.4,-1.05c-0.95,1.95 -1.9,3.35 -2.15,3.1c-0.5,-0.55 1.95,-6.85 3.1,-8c0.95,-0.95 10.35,5.75 17.45,12.3c3.05,2.8 4.8,4.65 3.9,4.05c-1.4,-1 -7.05,6.15 -5.75,7.3c0.2,0.15 1.35,0.8 2.6,1.45c2.55,1.3 3.05,0 0.75,-1.9c-1.85,-1.55 -1,-3.1 1.3,-2.3c1.4,0.5 1.45,0.35 0.45,-0.75c-1.9,-2.05 -1.5,-2.65 1.75,-2.45c2.4,0.15 2.75,-0.1 1.85,-1.15c-0.6,-0.75 -0.75,-1.35 -0.35,-1.35c0.4,0 -3.7,-3.2 -9.1,-7.15c-5.45,-3.9 -10.75,-8 -11.75,-9.05c-2.6,-2.7 -3.8,-1.9 -7,4.75l-2.85,5.95l3.3,2.5c1.85,1.35 8,6.25 13.65,10.85c11.6,9.35 12.05,9.4 14.55,2.25c1.95,-5.65 3.15,-6.4 4.1,-2.55c0.8,3 0.15,4.3 -2.75,5.45c-1.65,0.65 -1.15,0.85 2.1,0.7c4.7,-0.2 4.85,-1.05 1.15,-7.5c-2.95,-5.15 -2.1,-5.75 2.3,-1.7c1.5,1.35 3.15,2.5 3.7,2.5c1.3,0 32.75,-11.65 37.1,-13.75c1.95,-0.95 3.85,-1.85 4.3,-2.05c0.8,-0.4 7.7,6.7 7.7,7.95c0,0.45 -2.6,1.55 -5.75,2.45c-3.15,0.9 -6.3,2.1 -7,2.65c-0.7,0.55 -1.25,0.75 -1.25,0.4c0,-0.45 -10.35,3.85 -15.05,6.3c-0.85,0.45 -3.05,1.15 -4.95,1.55c-4.1,0.9 -6.2,2.8 -5.4,4.85c1.15,3.1 43.7,36.65 46.4,36.65c2.35,0 34.15,-13.15 47,-19.4l7.5,-3.6l1.2,2.75c1.5,3.55 0.9,4 -11.5,8.85c-12.5,4.85 -12.35,4.7 -12.1,10.9c0.15,2.85 -0.1,5.65 -0.45,6.25c-0.4,0.7 1.1,2.2 3.7,3.7c2.4,1.4 5.15,3.45 6.15,4.55c2,2.2 4.4,2.8 2.65,0.65c-0.65,-0.75 -0.9,-1.55 -0.65,-1.85c0.3,-0.25 -2,-2.2 -5.05,-4.25c-5.4,-3.75 -6.85,-5.9 -2.3,-3.45c4,2.1 12.95,9.15 12.35,9.7c-0.3,0.3 -1.05,0.05 -1.7,-0.6c-1.65,-1.65 -3.3,-1.5 -1.95,0.15c0.65,0.75 0.9,1.55 0.65,1.85c-0.65,0.6 1.75,2.6 7.5,6.25c2.5,1.6 3.9,2.15 3.15,1.2c-0.8,-0.9 -0.95,-1.65 -0.4,-1.65c1.15,0 3.9,3.05 3.4,3.8c-0.2,0.25 1.15,1.4 2.95,2.55c2.25,1.45 3.05,1.65 2.5,0.6c-0.4,-0.8 0.15,-0.35 1.3,1.05c1.7,2.05 2.05,2.2 2.1,0.75c0,-1 -1.25,-2.55 -2.75,-3.5c-6,-3.8 -16.2,-11.65 -15.75,-12.1c0.25,-0.25 4.9,2.5 10.3,6.15c9.65,6.55 9.8,6.7 9.4,10.15c-0.5,4.35 -1.45,4.5 10.9,-1.3c5.7,-2.65 13.1,-5.8 16.4,-6.95c6.35,-2.2 11.7,-4.45 25.7,-11.05c4.8,-2.25 9.85,-4.4 11.3,-4.75c2.55,-0.65 2.55,-0.75 1.95,-7.75c-0.7,-8.5 -0.5,-8.2 -4.45,-6.15c-1.75,0.9 -2.95,1.9 -2.7,2.15c0.3,0.3 1.5,0 2.7,-0.65c1.2,-0.65 2.4,-0.95 2.65,-0.65c1.35,1.35 -22.05,12.6 -44.15,21.25c-6.6,2.55 -13.2,5.3 -14.7,6c-2.4,1.25 -2.9,1.15 -5.1,-0.8l-2.45,-2.15l9.65,-4.4c5.25,-2.45 11.2,-4.5 13.1,-4.6c2.3,-0.1 3.4,-0.65 3.25,-1.5c-0.2,-0.7 0.15,-1 0.75,-0.65c0.55,0.35 1.95,0.35 3.15,-0.05c1.6,-0.5 1.8,-0.85 0.75,-1.5c-0.75,-0.45 -1.05,-1.15 -0.65,-1.55c0.4,-0.35 1.4,-0.1 2.3,0.65c0.85,0.7 1.5,0.85 1.4,0.35c-0.4,-2.15 0.2,-3.15 2.6,-4.25c2.7,-1.25 4.9,-0.7 3.9,0.95c-0.55,0.85 10.35,-3.55 11.4,-4.65c0.95,-0.9 -1,-0.4 -3.65,0.9c-4.25,2.2 -7.2,2.9 -7.2,1.75c0,-0.55 1.7,-1.5 3.75,-2.1c2.05,-0.55 4.6,-1.7 5.7,-2.5c1.05,-0.85 2.65,-1.5 3.5,-1.55c0.85,0 3.35,-0.85 5.55,-1.9c2.9,-1.4 4.2,-1.6 4.7,-0.75c0.55,0.9 1.05,0.85 1.95,-0.05c1,-1 0.95,-1.25 -0.15,-1.25c-1.1,0 -1.15,-0.25 -0.2,-1.2c1.8,-1.8 1.5,-2.5 -1.4,-3.25c-1.4,-0.35 -4.3,-1.75 -6.45,-3.1c-2.15,-1.35 -4.2,-2.45 -4.5,-2.45c-0.3,0 -2.55,-1.35 -4.95,-3c-2.4,-1.65 -4.85,-3 -5.45,-3c-0.55,0 -1.05,-0.4 -1.05,-0.9c0,-0.45 -1.55,-1.6 -3.5,-2.55c-1.9,-0.9 -3.5,-2.1 -3.5,-2.7c0,-0.6 -0.7,-0.8 -1.55,-0.45c-0.85,0.3 -1.3,0.15 -0.95,-0.35c0.3,-0.55 -0.8,-1.65 -2.4,-2.5c-3.2,-1.65 -5.55,-2.1 -3.2,-0.65c1.75,1.15 0.55,3.1 -1.95,3.1c-1.1,0 -1.95,0.4 -1.95,0.9c0,0.5 -1.9,1.6 -4.25,2.4c-2.35,0.85 -5.95,2.25 -8,3.1c-3.7,1.6 -3.8,1.6 -4.8,-0.65c-0.95,-2.15 -0.95,-2.1 -0.5,0.35c0.45,2.4 0.05,2.85 -4.5,4.75l-5.05,2.05l-0.95,-2.5c-0.5,-1.4 -0.95,-2.75 -0.95,-3c0,-0.3 2.45,-1.65 5.5,-3.05c7.05,-3.2 7.6,-6.7 1.85,-11.7c-2.05,-1.75 -4.45,-3.85 -5.35,-4.65c-0.9,-0.85 -2.3,-1.65 -3.1,-1.8c-6.05,-1.15 -6.4,-2.85 -4.3,-22.95c0.6,-5.85 1,-6.15 4.75,-3.2c1.45,1.15 2.65,1.85 2.65,1.6c0,-0.25 4.15,1.8 9.25,4.55c5.1,2.75 11.95,6.5 15.25,8.25c17.35,9.4 38.1,20.9 39,21.55c0.55,0.4 6.65,3.9 13.5,7.75c6.9,3.85 19.15,10.85 27.25,15.55c14.1,8.2 20.4,10.55 9.6,3.6c-5.2,-3.35 -7.1,-4.45 -15.3,-8.85c-2.5,-1.3 -4.55,-2.75 -4.55,-3.25c0,-0.45 -0.85,-0.8 -1.9,-0.8c-1,0 -2.4,-0.65 -3.05,-1.45c-1.1,-1.3 -3,-2.4 -14.05,-8.05c-1.9,-1 -4.6,-2.6 -6,-3.55c-2.3,-1.55 -7,-4.2 -18.7,-10.5c-2.3,-1.2 -3.9,-2.5 -3.6,-2.85c0.35,-0.35 0.1,-0.6 -0.55,-0.6c-0.6,0 -1.35,0 -1.65,0c-1.1,-0.05 -18,-9.4 -18.35,-10.2c-0.15,-0.45 -1,-0.8 -1.85,-0.8c-0.8,0 -2.9,-1 -4.65,-2.25c-1.75,-1.25 -3.35,-2.3 -3.65,-2.35c-2.15,-0.45 -7,-2.75 -7,-3.3c0,-0.4 -1.55,-1.25 -3.5,-1.95c-1.9,-0.7 -3.5,-1.7 -3.5,-2.2c0,-0.55 -0.5,-0.95 -1.1,-0.95c-0.6,0 -2.65,-0.75 -4.5,-1.6l-3.4,-1.65l0.6,-17.35c0.5,-14.35 0.35,-17.3 -0.75,-16.9c-1.05,0.45 -1.4,4.95 -1.6,20.75c-0.1,11.15 -0.55,24.05 -1,28.75c-1.2,13.25 -1.2,13.2 7.35,18.55c6.25,3.9 7.35,4.95 6.85,6.65c-0.5,1.5 -0.3,1.85 0.6,1.25c0.85,-0.5 1,-0.35 0.5,0.45c-0.4,0.7 -1.6,0.9 -2.9,0.5c-1.2,-0.35 -1.8,-0.3 -1.35,0.2c0.4,0.45 -0.7,1.55 -2.5,2.5l-3.25,1.7l-3.9,-3.95c-7.9,-7.85 -11.55,-9.65 -19.4,-9.35c-4.65,0.15 -7,-0.1 -6.95,-0.85c0.1,-5.1 -0.25,-5.1 -5.1,-0.35c-2.6,2.6 -5.3,4.7 -5.95,4.7c-3.1,0 -1.7,2.1 3.3,4.95c3.05,1.7 5.8,3.75 6.1,4.6c0.3,0.8 0.95,1.2 1.45,0.9c1,-0.65 1.2,-5.5 0.3,-7.85c-0.85,-2.25 -2.3,-2 -1.7,0.3c0.75,2.9 -0.95,3.15 -3.9,0.6l-2.7,-2.3l3.6,-3.85c3.25,-3.45 3.6,-3.6 3,-1.35l-0.6,2.5l8.2,0.05c9.1,0.05 13.05,1.8 19.3,8.6c6.9,7.5 11.05,19.85 6.65,19.85c-1.55,0 -2.1,-0.85 -2.55,-4.15c-0.85,-6.4 -5.65,-14.85 -10.2,-18.1c-4.6,-3.2 -16.55,-5.05 -18,-2.75c-0.55,0.85 -0.2,1.05 1.3,0.55c2.8,-0.9 7.35,0.35 6.5,1.8c-0.4,0.65 0,0.6 0.9,-0.15c2.75,-2.2 13.8,3.65 13.8,7.3c0,1.1 -8.6,5.05 -34.5,15.8c-19.55,8.1 -19.5,8.1 -33.65,-4.1c-7.95,-6.9 -25.95,-20.45 -26.5,-19.9c-0.25,0.25 1.15,1.8 3.2,3.35c2,1.55 8.25,6.6 13.8,11.25c5.6,4.6 11.3,9.05 12.65,9.95c1.4,0.85 4.4,3.05 6.75,4.9l4.25,3.4l5.25,-1.7c5.8,-1.85 23.7,-9.2 39.55,-16.15c8.45,-3.75 13.25,-5 11.1,-2.9c-1.8,1.8 -51.3,22.6 -53.75,22.6c-3.3,0 -43.35,-32 -43.95,-35.1c-0.2,-1.05 1.5,-2.05 5.5,-3.3c3.2,-1 11.6,-4.25 18.7,-7.2c7.1,-2.95 13.05,-5.4 13.2,-5.4c0.8,0 3.4,6.1 3.4,7.95c0,1.75 0.6,2 4,1.9c4.4,-0.2 4.45,-0.25 1.4,-7.7c-1.9,-4.65 -1.85,-4.95 1.85,-6.05c9.55,-2.85 20.2,-7 20.55,-7.95c0.5,-1.5 -3.35,-1.45 -6.1,0.05c-1.2,0.65 -3.3,1.35 -4.6,1.55c-1.35,0.2 -3.95,1 -5.75,1.75c-4.1,1.7 -4.1,1.5 -0.25,-4.15c7.55,-10.95 5.25,-18.25 -8.55,-27.55c-13.7,-9.15 -18,-9.95 -38.55,-7.05c-8.15,1.1 -12.75,0.55 -10.35,-1.3c2.45,-1.85 0.45,-1.8 -4.05,0.05c-1.95,0.85 -3.6,1.1 -3.6,0.6c0,-1.05 8.4,-4.1 11.25,-4.1c1,0 1.6,-0.45 1.25,-1c-0.35,-0.6 1.65,-6.4 4.45,-12.95c2.75,-6.5 5.05,-12.15 5.05,-12.5c0,-2.35 6.45,-16.4 7.3,-15.85c0.6,0.35 0.7,0.1 0.25,-0.6c-0.85,-1.4 1.25,-7.1 2.55,-7.1c0.5,0 0.9,-0.45 0.9,-0.95c0,-0.75 -8.8,-5.35 -9.75,-5.1c-0.15,0.05 -2.85,-1.2 -6,-2.8c-3.15,-1.55 -10.1,-4.55 -15.4,-6.65c-7.4,-2.95 -9.55,-4.2 -9.15,-5.4c0.4,-1.4 0.35,-1.4 -0.55,-0.1c-0.85,1.2 -1.3,1.25 -2.3,0.25c-0.7,-0.7 -1.65,-1.25 -2.1,-1.25c-0.5,0 -0.2,0.65 0.6,1.5zm43.9,107.80001c5.9,-0.65 14.35,2.65 19.1,7.55c3.85,3.95 8.9,12.95 8,14.4c-1.25,2 -3.2,0.25 -5.2,-4.65c-4.5,-10.75 -11.4,-15.6 -22.35,-15.6c-3.8,0 -4.6,0.3 -4.15,1.5c0.75,1.95 -1.65,1.95 -4.2,0c-1.9,-1.45 -1.9,-1.5 0.55,-3.45c1.95,-1.5 2.65,-1.65 3.25,-0.6c0.5,0.9 2.1,1.15 5,0.85zm-63.25001,4.75c0,1.3 -0.7,1.95 -2,1.95c-2.2,0 -2.65,-1.95 -0.85,-3.75c1.5,-1.5 2.85,-0.65 2.85,1.8zm-0.45,6.15c1,3.15 -0.15,3.15 -3.65,0l-3.25,-2.9l3.15,0.45c2,0.3 3.35,1.2 3.75,2.45zm5.45,-2.65c0,1.3 -2.15,4.45 -3.05,4.45c-1.1,0 -1.3,-3.3 -0.3,-4.35c0.85,-0.8 3.35,-0.85 3.35,-0.1zm153.10001,26.8c-1.35,1.7 -10,5.1 -10.8,4.3c-0.5,-0.55 9.15,-5.4 11.05,-5.55c0.5,-0.05 0.4,0.5 -0.25,1.25zm34,4.9c7.95,4.95 8.3,5.55 2.9,5.25c-4.3,-0.25 -7.9,3.5 -8.3,8.55c-0.25,3.9 -4.85,5.25 -10.35,3.1l-4.75,-1.85l4.2,-2.65c4.9,-3.1 6.7,-3.45 3.35,-0.6c-1.3,1.05 -1.9,1.95 -1.3,1.95c0.6,0 2.1,-1.05 3.4,-2.35c1.3,-1.3 3,-2.55 3.75,-2.8c0.9,-0.3 1.05,-0.95 0.45,-1.9c-0.5,-0.8 -0.75,-2.25 -0.6,-3.2c0.35,-2.3 -3.4,-2.4 -4.65,-0.1c-0.6,1.05 -1.15,1.25 -1.6,0.5c-0.8,-1.25 1.3,-4.9 3.15,-5.5c0.7,-0.25 0.5,-0.4 -0.45,-0.3c-2.5,0.25 -6.3,6.4 -6.3,10.3c0,3 -6.75,8.35 -10.55,8.35c-1.5,0 1,-4.8 3.85,-7.25c1.9,-1.65 2.55,-2.75 1.65,-2.75c-1.6,0 -13.95,12.9 -13.9,14.5c0,0.55 1.65,-0.8 3.6,-3c1.95,-2.2 3.3,-3.2 3,-2.25c-0.35,0.95 -0.15,1.75 0.35,1.75c1.7,0 -2.4,5.8 -5.3,7.55c-2.85,1.65 -2.9,1.65 -2.2,-0.5c0.6,-2 0.5,-2.1 -1.4,-1.1c-2.65,1.4 -2.7,2.75 -0.1,3.55c2.75,0.85 8.65,-2.9 9.4,-6c1.15,-4.55 5.1,-5.6 11.85,-3.15l5.9,2.1l3.65,-2c2.35,-1.3 3.6,-2.6 3.4,-3.7c-0.5,-3.05 2.95,-8.65 3.85,-6.25c0.65,1.75 0.8,1.8 1.4,0.35c0.4,-0.95 1.4,-1.95 2.25,-2.3c1.3,-0.5 1.35,-0.35 0.3,0.95c-1.2,1.45 -0.05,2.2 1.35,0.85c2.25,-2.3 19.65,4.55 19.65,7.7c0,0.4 -4.6,2.65 -10.25,5.05c-5.65,2.45 -17.3,7.9 -25.95,12.15c-8.65,4.25 -16.5,7.75 -17.45,7.75c-0.9,0 -2.45,0.7 -3.4,1.55c-1.5,1.35 -2.45,0.95 -10.55,-5c-9.55,-7.05 -10.35,-7.45 -9.95,-4.8c0.15,0.95 1,1.7 1.9,1.6c0.9,-0.05 1.4,0.3 1.1,0.75c-0.3,0.5 -0.1,0.95 0.5,1c0.55,0.1 1.45,0.2 1.95,0.25c0.5,0.1 1.3,0.55 1.75,1.05c0.5,0.55 0.35,0.6 -0.4,0.2c-1.8,-1.05 -1.55,-0.05 0.45,1.55c1.45,1.15 1.55,1.15 0.85,-0.05c-0.6,-0.95 -0.4,-1.2 0.55,-0.85c0.75,0.25 1.3,1 1.15,1.6c-0.1,0.55 1.1,1.85 2.75,2.8c2.65,1.55 3.95,3.35 2.5,3.35c-0.3,0 -3.6,-2.25 -7.4,-5c-6.75,-4.9 -8.85,-6 -7.6,-4c0.35,0.55 0.15,1 -0.4,1c-1.45,0 -2.3,-1.75 -1.05,-2.2c0.6,-0.2 -1,-1.85 -3.5,-3.75c-4.65,-3.5 -5.65,-5.45 -1.3,-2.65c1.3,0.9 2.75,1.25 3.15,0.85c0.45,-0.4 0.6,-0.15 0.45,0.65c-0.2,0.75 0.15,1.55 0.75,1.75c2.45,0.9 0.85,-2.9 -1.8,-4.25c-1.6,-0.85 -3.65,-2.15 -4.6,-2.95c-0.95,-0.75 -2.55,-2 -3.55,-2.75c-1.75,-1.25 -1.5,-1.5 3,-3.15c2.65,-1 7.05,-2.95 9.75,-4.3c3.85,-1.9 4.75,-2.1 4.25,-0.85c-0.45,1.3 0.15,1.6 3.4,1.6c3.85,0 3.95,-0.1 3.95,-3.4c0,-3.1 5.6,-7.1 7.9,-5.65c0.2,0.1 0.7,-0.3 1.05,-0.9c0.75,-1.2 20.75,-9.95 22.95,-10c0.75,-0.05 4.45,1.85 8.2,4.2zm-8.1,8c0,0.5 -0.45,0.6 -0.95,0.25c-0.55,-0.3 -2.35,0.1 -4,1c-3.5,1.8 -4.2,0.3 -1.45,-3.05c1.55,-1.9 1.55,-1.9 1,0.05c-0.5,1.7 -0.3,1.65 1.1,-0.35c1.65,-2.3 4.3,-1.05 4.3,2.1zm-59.20001,14.6c0.75,0.45 1.45,1.5 1.55,2.25c0.1,0.75 0.55,1.95 1,2.65c0.4,0.7 0.35,1.25 -0.15,1.25c-1.3,0 -3.3,-2.55 -2.6,-3.25c0.3,-0.3 0.1,-0.8 -0.45,-1.15c-0.5,-0.3 -1.15,0 -1.45,0.75c-0.35,0.85 2.85,3.95 8.5,8.25c4.95,3.8 12,9.25 15.65,12.15c3.65,2.85 7.1,5.2 7.65,5.2c0.55,0 0.1,-0.65 -1,-1.4c-3.3,-2.3 -13.3,-11.05 -13,-11.35c0.5,-0.55 16.85,11.3 17.25,12.55c0.3,0.85 -0.15,1.05 -1.35,0.6c-1.3,-0.55 -1.5,-0.35 -0.85,0.75c0.55,0.9 -0.15,0.75 -2.1,-0.5c-1.6,-1.1 -5.4,-3.55 -8.45,-5.5c-3,-1.95 -9.3,-6.25 -14,-9.5c-4.65,-3.3 -8.65,-6.1 -8.85,-6.2c-0.15,-0.15 -0.55,-2.05 -0.85,-4.3c-0.6,-4.2 0.45,-5.15 3.5,-3.25zm97.20001,3.15c0,1.2 -16.65,9.55 -27.5,13.75c-23,8.95 -34.45,13.65 -34.15,13.95c0.4,0.4 23.8,-8.55 38.95,-14.85c5.35,-2.25 10,-3.85 10.35,-3.55c0.8,0.8 -1.45,1.8 -21.65,9.65c-10.15,3.95 -20.6,8.05 -23.2,9.1c-5.7,2.4 -5.8,2.4 -5.8,0.1c0,-2 2.65,-3.35 21.5,-10.7c6.6,-2.55 13.3,-5.15 14.9,-5.8c1.6,-0.65 7.9,-3.7 14,-6.85c11.7,-6.05 12.6,-6.4 12.6,-4.8zm0,3c0,0.5 -2.15,2.05 -4.75,3.45c-5.4,2.8 -5.3,3.3 0.25,1c2.05,-0.85 3.95,-1.35 4.25,-1.05c0.8,0.8 -21.65,11.1 -39.75,18.25c-9.05,3.6 -16.95,6.95 -17.45,7.45c-0.5,0.5 -1.75,0.9 -2.75,0.9c-1,0 -1.8,0.55 -1.8,1.15c0,1.6 -1.35,0.2 -1.6,-1.7c-0.15,-0.8 0.45,-1.45 1.25,-1.45c0.8,0 3.6,-0.85 6.15,-1.9c2.6,-1.1 11.25,-4.5 19.2,-7.6c19.3,-7.5 27.65,-11.45 26.15,-12.4c-0.8,-0.5 0.85,-1.9 4.55,-3.85c6.85,-3.7 6.3,-3.5 6.3,-2.25zm-88.50001,3.5c2.2,1.85 3.55,3.45 3,3.45c-0.55,0 -2.8,-1.55 -5,-3.45c-2.2,-1.85 -3.55,-3.45 -3,-3.45c0.55,0 2.8,1.55 5,3.45z"/>
  <path id="svg_9" d="m227.45002,171.29999c-0.35,0.85 -1.6,1.2 -3.35,0.95c-3.1,-0.45 -4.3,0.7 -4.7,4.5c-0.3,2.5 -0.45,2.55 6.35,-2.05c4.05,-2.7 5.4,-4.7 3.2,-4.7c-0.55,0 -1.25,0.6 -1.5,1.3z"/>
  <path id="svg_10" d="m193.45002,187.29999c-1.05,0.6 -3.4,1.6 -5.2,2.2l-3.3,1.15l2.05,1.85c1.65,1.5 1.95,1.55 1.45,0.3c-0.3,-0.9 -0.05,-1.95 0.65,-2.35c0.75,-0.45 0.95,-0.35 0.55,0.35c-1,1.55 1.3,2.65 2.7,1.25c0.85,-0.85 0.75,-1.35 -0.35,-2.1c-1.05,-0.7 0.05,-0.8 3.35,-0.35c3.4,0.4 4.7,0.25 4.2,-0.5c-1.3,-2.15 -4.05,-2.95 -6.1,-1.8z"/>
  <path id="svg_11" d="m194.90002,190.29999c-0.1,0.4 -0.2,1.15 -0.25,1.65c-0.1,0.55 -1.05,1.65 -2.15,2.45c-1.95,1.5 -1.95,1.5 0.2,0.95c3.2,-0.8 4.95,-3.1 3.45,-4.6c-0.65,-0.65 -1.2,-0.85 -1.25,-0.45z"/>
  <path id="svg_12" d="m199.50002,190.74999c-1.55,1.15 -1.65,3.25 -0.2,3.25c0.7,0 1.85,-0.55 2.5,-1.2c0.8,-0.8 1.2,-0.85 1.2,-0.1c0,1.45 -7.8,4.5 -9.3,3.65c-0.9,-0.45 -0.9,-0.3 -0.1,0.55c1.5,1.65 12.5,-2.55 11.7,-4.5c-0.25,-0.75 -0.9,-1.4 -1.35,-1.4c-0.4,0 -1.4,-0.2 -2.1,-0.5c-0.75,-0.25 -1.8,-0.15 -2.35,0.25z"/>
  <path id="svg_13" d="m178.45002,191.89999c1.45,2.35 10.4,7.9 10.85,6.75c0.95,-2.45 -7.65,-8.8 -8.65,-6.4c-0.4,1 -0.5,1 -0.55,0c-0.05,-0.7 -0.6,-1.25 -1.15,-1.25c-0.6,0 -0.8,0.4 -0.5,0.9z"/>
  <path id="svg_14" d="m94.78631,106.01551c-0.05,0.75 -0.5,1.05 -1,0.75c-0.45,-0.3 -1.4,0.1 -2.05,0.85c-0.85,1.1 -0.85,1.5 0.15,1.85c1.65,0.55 4.1,-1.9 3.45,-3.5c-0.35,-0.95 -0.5,-0.95 -0.55,0.05z"/>
  <path id="svg_15" d="m212.00002,16.84997c0,0.55 1.45,1.3 3.25,1.7c1.8,0.4 2.7,0.95 2.05,1.15c-0.65,0.25 -3.25,-0.3 -5.75,-1.15c-5.3,-1.8 -6.35,-1.9 -5,-0.65c1.6,1.55 12.8,4.05 15.45,3.5c1.75,-0.4 2.1,-0.3 1.15,0.35c-1.85,1.35 1.15,2.45 4.7,1.65c1.7,-0.35 2.2,-0.25 1.4,0.35c-1,0.7 -0.85,1.3 0.75,2.75c1.1,1 2,1.3 2,0.65c0,-0.65 -0.45,-1.15 -1,-1.15c-0.55,0 -1,-0.45 -1,-1c0,-1.55 2.65,-1.2 4.45,0.55c1.35,1.4 2.4,11.45 1.15,11.45c-1.8,0 -6.75,-2.95 -5.1,-3.05c1.45,-0.1 1.6,-0.25 0.5,-0.7c-0.8,-0.3 -3.3,-1.75 -5.5,-3.2c-4.7,-3.15 -17.35,-8.55 -18.1,-7.75c-0.3,0.3 0.5,0.85 1.75,1.25c4.25,1.3 15.3,6.75 17.85,8.75l2.5,1.95l-2.5,-0.7c-8.45,-2.4 -6.9,-1.2 3.3,2.55c6.45,2.3 7.55,3.8 5.95,8.05c-1.5,3.95 -0.65,4.1 7.7,1.1c8.15,-2.9 8.1,-4.45 0,-1.75c-2.8,0.95 -5.3,1.45 -5.6,1.15c-0.95,-0.9 0.7,-2.65 2.45,-2.65c0.95,0 2.4,-0.45 3.2,-1c1.05,-0.65 0.3,-0.8 -2.5,-0.45l-4,0.45l3,-1.45c1.65,-0.8 3.55,-1.5 4.2,-1.5c0.65,-0.05 1.45,-0.5 1.8,-1c0.3,-0.55 -1.3,-0.3 -3.6,0.5c-2.3,0.8 -4.4,1.25 -4.65,1.05c-1.05,-1.05 1.1,-2.6 5.05,-3.7c2.3,-0.65 3.65,-1.4 2.95,-1.65c-0.7,-0.25 -2.7,0.05 -4.45,0.65c-4.1,1.45 -4.75,0.7 -1.15,-1.3l2.85,-1.55l-3.25,0.6c-4.75,0.85 -4.3,-2 0.5,-3.4l3.75,-1.1l-3.75,0.55c-2.3,0.3 -3.75,0.1 -3.75,-0.55c0,-0.6 1.7,-1.35 3.75,-1.75c4.65,-0.85 11.25,-3.4 11.25,-4.35c0,-0.4 -3.15,0.3 -6.95,1.55c-7.65,2.5 -8.05,2.5 -16.05,-0.65c-3,-1.15 -7.6,-2.7 -10.15,-3.4c-2.55,-0.75 -5.15,-1.6 -5.75,-2c-0.6,-0.35 -1.1,-0.25 -1.1,0.3z"/>
  <path id="svg_16" d="m190.00002,19.34997c0,0.55 13.05,5.65 14.5,5.65c0.55,0 -1.05,-1.05 -3.5,-2.4c-4.35,-2.3 -11,-4.25 -11,-3.25z"/>
  <path id="svg_17" d="m182.40002,20.84998c0.3,0.5 2.25,1.1 4.35,1.4c2.05,0.3 4.65,0.85 5.75,1.15c1.1,0.35 0.2,-0.25 -2,-1.35c-4.05,-2.05 -9.05,-2.75 -8.1,-1.2z"/>
  <path id="svg_18" d="m195.00002,23.84998c0,0.45 2.5,1.8 5.55,3.1c3.05,1.25 5.35,2.5 5.1,2.75c-0.25,0.2 -2.05,-0.25 -4.05,-1.1c-2,-0.8 -3.6,-1.05 -3.6,-0.55c0,0.5 0.5,0.95 1.05,0.95c0.6,0 0.8,0.4 0.5,0.9c-0.3,0.5 0.15,1.15 1,1.5c0.9,0.3 1.3,0.15 0.95,-0.4c-0.85,-1.4 -0.7,-1.35 9.15,2.1c4.9,1.7 9.4,3.1 10.1,3.15c0.7,0.05 1.25,0.55 1.25,1.1c0,0.55 0.3,0.7 0.65,0.35c0.3,-0.35 1.85,0.05 3.45,0.85c1.55,0.8 3.4,1.45 4.1,1.45c0.7,-0.05 -0.5,-0.95 -2.7,-2.05c-2.2,-1.1 -5.55,-2.9 -7.5,-3.95c-1.9,-1.05 -4.05,-1.75 -4.7,-1.5c-0.65,0.2 -1.3,0.05 -1.5,-0.3c-0.45,-1.1 -18.8,-9.2 -18.8,-8.35z"/>
  <path id="svg_19" d="m190.55002,25.49998c1.9,1.5 1.9,1.5 -0.05,0.85c-1.1,-0.35 -1.7,-0.3 -1.3,0.15c0.4,0.4 2.45,0.9 4.5,1.05l3.8,0.3l-3.5,-1.9c-4.25,-2.25 -6.1,-2.5 -3.45,-0.45z"/>
  <path id="svg_20" d="m264.90002,30.24998c-0.1,0.7 -0.1,1.6 0,2c0.15,1 -4.6,2.1 -6.3,1.4c-0.8,-0.3 -1.7,0.2 -2.05,1.15c-0.4,0.9 -0.2,1.8 0.4,2c0.65,0.25 1.05,4.35 1.05,10.8c0,6.7 0.4,10.4 1.05,10.4c0.6,0 1.8,0.7 2.65,1.55c0.85,0.85 1.8,1.25 2.15,0.9c0.35,-0.35 -0.45,-1.5 -1.75,-2.55c-4.05,-3.3 -1.5,-3.3 3.3,0c3.95,2.75 7.95,6.65 4.75,4.7c-0.65,-0.4 -1.15,-0.25 -1.15,0.35c0,1 2.05,1.5 4.75,1.1c0.7,-0.05 1.15,0.4 1,1.05c-0.15,0.65 2.45,2.65 5.75,4.45c3.3,1.85 8.2,4.95 10.85,6.95c2.7,1.95 5.1,3.4 5.3,3.15c0.9,-0.9 -17.15,-13.9 -18.55,-13.35c-0.35,0.15 -2.15,-1.3 -4.1,-3.2c-1.9,-1.9 -2.85,-3.1 -2.1,-2.65c0.8,0.5 1.15,0.5 0.85,-0.05c-0.3,-0.5 -3.3,-2.25 -6.6,-3.9c-3.35,-1.65 -6.1,-3.55 -6.1,-4.25c-0.05,-1.85 0.4,-1.7 10.6,3.85c5.15,2.75 9.95,4.85 10.6,4.6c0.7,-0.25 -3.8,-2.9 -10,-5.85c-10.95,-5.2 -11.25,-5.45 -11.25,-8.65l0,-3.25l3.1,1.6c1.7,0.9 3.3,1.35 3.6,1.05c0.3,-0.3 -1.1,-1.3 -3.1,-2.25c-6.8,-3.25 -5,-7.15 4.75,-10.1c4.3,-1.3 7.6,-2.6 7.3,-2.95c-0.3,-0.3 -2.05,0 -3.85,0.6c-2.7,0.95 -3.45,0.9 -4.4,-0.35c-1.35,-1.85 -2.35,-2 -2.5,-0.3z"/>
  <path id="svg_21" d="m95.33729,107.08417c0.05,2.1 0.6,4.05 1.15,4.4c0.6,0.35 0.75,-0.05 0.4,-0.95c-0.35,-0.9 -0.3,-1.75 0.1,-1.95c0.4,-0.15 0.2,-1.45 -0.5,-2.8c-1.25,-2.45 -1.3,-2.4 -1.15,1.3z"/>
  <path id="svg_22" d="m209.50002,35.19998c2.2,1.15 4.25,2.35 4.5,2.7c0.3,0.4 3.65,1.95 7.5,3.55c3.85,1.6 7.55,3.3 8.25,3.85c0.7,0.55 1.6,0.7 1.95,0.35c0.3,-0.35 -1.15,-1.35 -3.3,-2.25c-2.15,-0.9 -7.85,-3.6 -12.7,-6c-8.8,-4.4 -13.75,-6.15 -6.2,-2.2z"/>
  <path id="svg_23" d="m63.70894,116.67631c0.35,1.1 1.1,2.55 1.65,3.25c0.6,0.85 0.55,1.25 -0.2,1.25c-0.6,0 -1.1,0.5 -1.1,1.1c0,0.8 0.45,0.75 1.5,-0.1c1.9,-1.6 1.85,-2 -0.55,-5c-1.6,-2 -1.85,-2.1 -1.3,-0.5z"/>
  <path id="svg_24" d="m64.72269,116.29004c2,2.25 5.75,2.65 4.95,0.5c-0.3,-0.7 -0.9,-1.05 -1.4,-0.75c-0.45,0.3 -1.9,0 -3.15,-0.65c-2.2,-1.15 -2.2,-1.15 -0.4,0.9z"/>
  <path id="svg_25" d="m263.35002,40.34998c1.05,0.6 3.4,2.15 5.25,3.35c1.9,1.25 3.4,1.9 3.4,1.5c-0.05,-1.65 -5.5,-5.7 -7.9,-5.85c-2.35,-0.15 -2.45,-0.1 -0.75,1z"/>
  <path id="svg_26" d="m12.5,53.64998c-4.95,1.9 -9.8,3.75 -10.75,4.05c-0.95,0.3 -1.75,1.2 -1.75,2.05c0,1.05 0.35,1.2 1.25,0.5c0.7,-0.5 6.1,-2.7 12,-4.85c5.9,-2.15 10.7,-4.25 10.75,-4.65c0,-1.3 -2.2,-0.75 -11.5,2.9z"/>
  <path id="svg_27" d="m271.55002,51.94998c1.2,1.15 8.45,4.25 8.45,3.6c0,-0.6 -7.55,-4.55 -8.65,-4.55c-0.4,0 -0.3,0.45 0.2,0.95z"/>
  <path id="svg_28" d="m18.6,56.84998c-0.3,0.5 0.3,1.15 1.4,1.45c1.35,0.35 2,1.35 2,3.15c0,1.45 0.4,2.4 0.95,2.1c0.5,-0.3 1.2,-0.15 1.55,0.45c0.35,0.55 1.1,1 1.7,1c0.6,0 0.3,-0.9 -0.7,-2c-1,-1.1 -2.3,-3 -2.9,-4.2c-1.25,-2.45 -3.15,-3.35 -4,-1.95z"/>
  <path id="svg_29" d="m194.50002,58.04998c-1.65,0.4 -6.45,1.3 -10.65,1.95l-7.65,1.25l-0.4,4.65c-0.2,2.5 -0.1,6.15 0.3,8.1c0.6,3.15 0.7,3.25 0.8,0.7c0.1,-2.45 0.4,-2.75 2.35,-2.2c1.7,0.5 1.9,0.4 0.8,-0.4c-0.85,-0.55 -1.2,-1.3 -0.8,-1.7c0.4,-0.35 1.5,-0.05 2.5,0.7c1.55,1.25 1.6,1.2 0.5,-0.2c-0.65,-0.85 -1,-1.8 -0.7,-2.1c0.3,-0.3 -0.65,-0.3 -2.1,-0.05c-2.4,0.5 -2.55,0.3 -2.25,-2.8l0.3,-3.3l9.7,-1.6c8.8,-1.45 11.85,-2.45 10.7,-3.4c-0.2,-0.2 -1.75,0 -3.4,0.4z"/>
  <path id="svg_30" d="m28,59.34998c0,1.3 3.65,4.25 4.8,3.9c0.65,-0.25 1.2,0.3 1.2,1.15c0,0.9 0.7,1.6 1.5,1.6c1.35,0 1.35,-0.35 -0.1,-2.55c-0.95,-1.4 -2.2,-2.35 -2.8,-2.1c-0.6,0.2 -1.9,-0.3 -2.85,-1.15c-0.95,-0.8 -1.75,-1.2 -1.75,-0.85z"/>
  <path id="svg_31" d="m86.00001,61.84998c0,0.35 6.2,3.8 13.75,7.65l13.75,7.05l-0.35,5.45c-0.65,11.55 2.15,11.95 29.65,4.5c9.55,-2.6 17.4,-4.55 17.55,-4.35c0.15,0.2 0.05,4.7 -0.15,10.05l-0.4,9.65l-2.65,-1.1c-1.45,-0.6 -3.55,-1.9 -4.65,-2.8c-3.1,-2.6 -12.45,-7.35 -13.1,-6.65c-0.6,0.55 9.75,7.7 11.2,7.7c0.4,0 2.6,1.2 4.95,2.7l4.3,2.7l-0.5,11.55c-0.65,15.45 -0.25,14.9 -7.85,9.6c-3.55,-2.5 -6.45,-4 -6.45,-3.3c0.05,1.45 14.75,12 15.25,10.95c0.15,-0.4 0.45,-6.55 0.6,-13.7c0.15,-7.15 0.6,-13.1 0.95,-13.25c0.35,-0.15 0.5,-5.65 0.35,-12.25l-0.3,-12.05l3.3,-1.4c1.8,-0.75 3.6,-1.15 4.05,-0.9c0.4,0.25 0.75,-0.2 0.75,-1c0,-1.25 -0.6,-1.25 -4.75,0.05c-2.6,0.85 -6.85,1.9 -9.35,2.35c-2.55,0.4 -7.75,1.7 -11.5,2.8c-22.75,6.65 -30.4,7.2 -30.4,2.35c0,-1.25 0.35,-1.2 1.9,0.2c1.85,1.7 2.6,1.6 16.25,-1.85c22.4,-5.7 33.25,-8.75 34.35,-9.8c1.35,-1.25 -5.4,-0.05 -13,2.3c-7.3,2.3 -27.6,7.5 -32.75,8.45c-3.4,0.65 -3.8,0.5 -4.75,-1.95c-1.3,-3.5 -1.25,-4.55 0.2,-4.55c0.7,0 4.2,-0.85 7.75,-1.95c30.35,-8.95 45.8,-10 48.55,-3.35c0.65,1.7 0.75,1.7 1.45,-0.1c2.15,-5.8 -16.55,-8.45 -28.75,-4.1c-2.35,0.85 -6.4,1.65 -9,1.75c-2.6,0.15 -5,0.65 -5.35,1.15c-2.6,3.55 -17,4.55 -19.65,1.3c-0.7,-0.8 -3.5,-2.45 -6.25,-3.65c-2.75,-1.15 -4.75,-2.55 -4.45,-3.1c0.35,-0.5 -0.1,-0.65 -0.9,-0.35c-0.85,0.3 -2.9,-0.4 -4.55,-1.55c-1.7,-1.2 -3.05,-1.9 -3.05,-1.5c0,0.4 -0.7,0.1 -1.6,-0.65c-1.75,-1.45 -4.4,-2.1 -4.4,-1.05z"/>
  <path id="svg_32" d="m16,62.39998c0,0.95 4.3,5.6 5.2,5.6c1.75,0 0.65,-1.95 -2.2,-4c-1.65,-1.15 -3,-1.9 -3,-1.6z"/>
  <path id="svg_33" d="m191.00002,65.79998c0,1.1 8.15,7.2 9.6,7.2c1.35,0 19.6,9.1 19.15,9.55c-0.25,0.25 -4.65,-1.5 -9.85,-3.9c-10.6,-4.9 -12.9,-5.8 -12.9,-5.1c0,0.35 19.25,9.95 26.5,13.2c0.55,0.2 -0.1,-0.5 -1.5,-1.65c-1.4,-1.15 -1.9,-2.05 -1.15,-2.1c0.7,0 -0.05,-1.15 -1.65,-2.5c-1.65,-1.4 -3.3,-2.5 -3.65,-2.5c-1.3,0 -21,-10.1 -22.75,-11.7c-1,-0.9 -1.8,-1.1 -1.8,-0.5z"/>
  <path id="svg_34" d="m42.5,70.99998c-0.25,0.4 0.7,1.25 2.1,1.85c1.5,0.7 2.25,0.75 1.9,0.15c-0.35,-0.55 -0.05,-1 0.6,-1c0.7,0 0.9,-0.3 0.55,-0.7c-0.95,-0.9 -4.65,-1.15 -5.15,-0.3z"/>
  <path id="svg_35" d="m4.85,73.94998c-1.3,1 -2,2.25 -1.5,2.7c0.45,0.45 1.25,0.05 1.75,-0.9c1.55,-2.7 3.1,-2.15 8.2,3.05c4.8,4.9 5.55,6.2 3.55,6.2c-0.6,0 -1.7,0.8 -2.45,1.75c-1.2,1.6 -1.85,1.2 -7.45,-4.55c-3.4,-3.45 -6.45,-6.05 -6.75,-5.7c-1.55,1.5 12,12.75 14.15,11.75c1.2,-0.55 3.25,-1.45 4.6,-1.95c2.5,-0.95 2.5,-0.95 -2.95,-6.7c-7.05,-7.5 -8.2,-8.05 -11.15,-5.65z"/>
  <path id="svg_36" d="m184.00002,74.39998c0,0.25 1.9,1.4 4.25,2.6c2.35,1.2 10.1,5.65 17.25,9.85c12.6,7.45 25.4,13.6 26.3,12.65c0.25,-0.25 -0.6,-0.85 -1.9,-1.35c-6.85,-2.65 -14.65,-6.5 -17.35,-8.55c-1.7,-1.25 -5.5,-3.6 -8.55,-5.1c-3,-1.55 -6.95,-3.9 -8.75,-5.2c-1.8,-1.35 -3.25,-2.1 -3.25,-1.75c0,0.4 -0.6,0.2 -1.3,-0.35c-1.4,-1.2 -6.7,-3.35 -6.7,-2.8z"/>
  <path id="svg_37" d="m47.65,75.64998c-1.5,1.55 -0.7,3.65 0.9,2.3c1.15,-0.95 1.8,-1 2.7,-0.1c2,2 3.15,1.25 1.25,-0.85c-1.85,-2.05 -3.65,-2.55 -4.85,-1.35z"/>
  <path id="svg_38" d="m178.00002,79.84998c0,0.45 1.75,1.65 3.9,2.75c2.1,1.05 7.55,3.85 12.1,6.2c4.5,2.4 8.45,4.1 8.7,3.8c0.3,-0.25 -2.45,-1.95 -6.1,-3.7c-3.65,-1.75 -6.6,-3.5 -6.6,-3.85c0,-0.4 -1.55,-1.3 -3.5,-2.05c-1.9,-0.75 -3.5,-1.75 -3.5,-2.25c0,-0.5 -0.4,-0.6 -0.95,-0.3c-0.5,0.3 -1.2,0.15 -1.55,-0.45c-0.75,-1.2 -2.5,-1.35 -2.5,-0.15z"/>
  <path id="svg_39" d="m206.10002,82.34998c1.55,1.25 11.9,6.7 11.9,6.25c0,-0.7 -10.2,-6.6 -11.4,-6.6c-0.5,0 -0.75,0.15 -0.5,0.35z"/>
  <path id="svg_40" d="m266.50002,82.74998c-2.7,0.65 -11.75,3.65 -18.85,6.2c-3.2,1.2 -6.8,1.9 -8,1.6c-1.2,-0.3 -1.6,-0.25 -0.9,0.05c1.4,0.65 1.75,7.4 0.4,7.4c-0.45,0 -0.9,1.65 -0.95,3.65c-0.15,3.35 -0.05,3.5 1.25,1.75c1.3,-1.75 1.4,-1.6 1.25,1.85c-0.2,4.4 0,4.45 5.55,1.75c3.75,-1.8 2.65,-1.95 -2.5,-0.3c-0.95,0.3 -1.75,0.05 -1.75,-0.55c0,-0.6 2.5,-1.8 5.55,-2.7c3.1,-0.9 5.4,-1.85 5.1,-2.1c-0.25,-0.3 -2.2,0 -4.3,0.55c-7.45,2.1 -9.05,0.4 -2.25,-2.35c2.3,-0.9 3.95,-1.85 3.7,-2.1c-0.3,-0.25 -2.2,0.25 -4.25,1.1c-2.05,0.85 -3.5,1.15 -3.15,0.65c0.3,-0.5 2.6,-1.7 5.15,-2.65c2.5,-0.95 4.35,-2 4.05,-2.3c-0.3,-0.25 -2.35,0.25 -4.6,1.1c-4.85,2 -6.9,2.15 -5.3,0.55c0.65,-0.65 0.9,-1.75 0.6,-2.5c-0.3,-0.8 0,-1.4 0.65,-1.4c0.65,0 0.9,0.45 0.55,1c-0.85,1.35 -0.2,1.25 4.45,-0.6c2.25,-0.9 3.8,-1.95 3.55,-2.4c-0.25,-0.4 4,-2.2 9.5,-3.95c5.5,-1.75 10,-3.4 10,-3.6c0,-0.55 -1.75,-0.4 -4.5,0.3z"/>
  <path id="svg_41" d="m229.35002,86.54998c6.85,3.6 10.5,4.25 4.7,0.85c-1.65,-1 -3.05,-2.1 -3.05,-2.4c0,-0.3 -0.8,-0.6 -1.75,-0.6c-0.95,0 -2.85,-0.35 -4.25,-0.75c-1.35,-0.4 0.6,0.9 4.35,2.9z"/>
  <path id="svg_42" d="m181.00002,85.79998c0,0.75 0.7,2 1.5,2.85c0.85,0.8 1.5,1.25 1.5,0.95c0,-0.3 4.85,1.9 10.75,4.85c13,6.45 18.7,8.25 8.25,2.6c-4.1,-2.25 -8,-4.05 -8.7,-4.05c-0.65,0 -1.45,-0.4 -1.75,-0.9c-0.3,-0.45 -2.65,-1.85 -5.3,-3.1c-2.6,-1.25 -5.1,-2.75 -5.5,-3.35c-0.5,-0.8 -0.7,-0.75 -0.75,0.15z"/>
  <path id="svg_43" d="m222.00002,90.34998c0,1.1 7.45,5.3 10.5,5.95c1.9,0.4 1,-0.3 -2.5,-1.95c-3,-1.4 -6.05,-3 -6.75,-3.55c-0.7,-0.6 -1.25,-0.75 -1.25,-0.45z"/>
  <path id="svg_44" d="m271.50002,93.54998c-3.85,1.3 -8.95,2.85 -11.3,3.45c-2.35,0.6 -4.05,1.45 -3.8,1.85c0.25,0.4 0.6,5.65 0.75,11.6l0.35,10.9l5,3.15c7.95,5.05 10.3,6.2 8.65,4.15c-0.8,-0.9 -1.9,-1.65 -2.5,-1.65c-1.85,-0.05 -6,-3.65 -6.25,-5.4c-0.25,-1.95 -0.2,-1.95 4.15,-0.15c3.45,1.45 5,4.05 1.7,2.85c-2.25,-0.8 -1.4,0.1 1.5,1.6c1.85,0.95 2.1,0.9 1.6,-0.4c-0.4,-1.1 -0.1,-1.35 1.05,-0.9c0.85,0.35 1.3,1.1 0.95,1.65c-0.4,0.6 -0.2,0.75 0.45,0.35c1.45,-0.9 13.45,5.2 12.7,6.4c-0.35,0.6 -1.6,0.3 -3.05,-0.65c-4.45,-2.9 -2.55,-0.6 2.65,3.2c3.35,2.5 4.65,4 3.85,4.5c-0.8,0.45 0.7,1.65 4.1,3.3c6.5,3.1 7.2,2.85 2.4,-0.8c-5.2,-4 -9.75,-8.6 -9.1,-9.25c0.8,-0.75 9.8,4.65 9.25,5.55c-0.25,0.4 0.45,0.7 1.55,0.7c4.1,0 -1.1,-3.3 -23.05,-14.7c-12.95,-6.7 -16.95,-9.35 -15.8,-10.45c0.4,-0.45 2.2,0 4,1c3.4,1.85 1.45,-0.3 -2.65,-2.9c-1.35,-0.85 -2.15,-6.5 -1.75,-12.2c0.05,-0.65 3.6,1.3 7.85,4.35c4.25,3.05 8.95,6.2 10.45,6.95c1.45,0.75 6.95,4.1 12.2,7.4c5.25,3.3 9.8,6 10.15,6c1,0 -5.6,-5.3 -8.9,-7.1c-1.75,-0.95 -3.05,-2.15 -2.95,-2.65c0.1,-0.5 -0.35,-0.95 -1,-1c-4.05,-0.4 -11.8,-4.5 -20.45,-10.9c-6.6,-4.85 -6.9,-4.35 4.3,-7.8c5.25,-1.6 9.8,-3.25 10.05,-3.75c0.8,-1.25 -1.55,-0.85 -9.1,1.75z"/>
  <path id="svg_45" d="m210.95002,96.59998c4.1,1.9 7.7,3.85 8,4.35c0.3,0.45 4.5,2.7 9.3,5c4.8,2.3 8.75,4.75 8.75,5.5c0,0.95 0.9,1.3 2.8,1.05c3,-0.4 14.2,-5.05 14.2,-5.9c0,-0.45 -12.4,3.95 -14.2,5.05c-0.45,0.25 -0.85,-1 -0.9,-2.85c-0.1,-1.8 -0.35,-2.5 -0.6,-1.55c-0.55,2.2 0.2,2.4 -8.3,-2.25c-4,-2.2 -7.9,-4 -8.65,-4c-0.75,0 -1.35,-0.4 -1.35,-0.9c0,-0.45 -1.45,-1.45 -3.25,-2.15c-1.8,-0.75 -3.45,-1.6 -3.75,-1.9c-0.95,-1.1 -6.1,-3.05 -7.8,-3c-0.95,0.05 1.65,1.65 5.75,3.55z"/>
  <path id="svg_46" d="m214.00002,103.89998c0,0.5 1.15,1.15 2.5,1.5c1.4,0.35 2.5,1.1 2.5,1.6c0,0.55 0.85,1 1.95,1c1.05,0 2.25,0.5 2.6,1.1c0.35,0.6 4.05,2.65 8.2,4.55c4.2,1.95 8.95,4.5 10.65,5.7c3.3,2.4 6.4,4 10.85,5.6c1.5,0.55 2.75,1.5 2.75,2.1c0,0.6 0.45,0.8 1,0.45c0.9,-0.55 19.85,10 34,19c9.05,5.75 9,5.7 9,4.8c0,-0.75 -6.25,-5.3 -8.5,-6.2c-0.55,-0.2 -3.45,-2.05 -6.5,-4.1c-5.95,-4 -10.45,-6.55 -27.5,-15.5c-6.05,-3.2 -13.35,-7.1 -16.25,-8.65c-2.9,-1.55 -5.9,-2.85 -6.7,-2.85c-0.75,0 -1.55,-0.35 -1.7,-0.75c-0.35,-0.7 -8.45,-5.3 -13.6,-7.7c-1.25,-0.6 -2.25,-1.4 -2.25,-1.8c0,-0.4 -0.65,-0.75 -1.5,-0.75c-0.8,0 -1.5,0.4 -1.5,0.9z"/>
  <path id="svg_47" d="m77.75001,106.89998c-1.8,1.6 -2.9,3.3 -2.45,3.7c0.4,0.45 2.35,-0.9 4.35,-2.9c4.25,-4.4 2.8,-5 -1.9,-0.8z"/>
  <path id="svg_48" d="m99.25001,105.29998c-1.25,0.55 -2.25,1.4 -2.25,1.85c0,1.15 1.1,1 3.9,-0.55c2.9,-1.6 1.5,-2.75 -1.65,-1.3z"/>
  <path id="svg_49" d="m263.00002,105.64998c0,0.95 2.7,2.85 14.5,10.2c14.85,9.25 22.5,13.45 22.5,12.45c0,-0.45 -1.7,-1.7 -3.75,-2.8c-2.05,-1.05 -6.05,-3.4 -8.85,-5.2c-2.8,-1.8 -5.4,-3.3 -5.7,-3.3c-0.35,0 -2.55,-1.3 -4.9,-2.9c-9.35,-6.25 -13.8,-9 -13.8,-8.45z"/>
  <path id="svg_50" d="m267.00002,113.79998c10,6.35 10,6.4 10,5.85c0,-0.85 -14.9,-10.65 -16.2,-10.65c-0.7,0 2.1,2.15 6.2,4.8z"/>
  <path id="svg_51" d="m267.00002,117.44998c0,0.2 1.25,1.05 2.75,1.8c6,3.05 21.95,12.15 25.25,14.4c4.1,2.75 4.9,2.9 4.6,0.75c-0.3,-1.95 -9.35,-7.35 -12.4,-7.4c-1.3,0 -2.05,-0.4 -1.75,-0.95c0.3,-0.5 0.05,-1.25 -0.6,-1.65c-0.7,-0.45 -0.9,-0.3 -0.45,0.45c1.25,2.05 -0.8,1.25 -8.65,-3.35c-7.45,-4.35 -8.75,-4.95 -8.75,-4.05z"/>
  <path id="svg_52" d="m64.25001,126.24998c-3.7,1.2 -4,1.9 -1.55,3.9c1.1,0.9 1.45,0.95 0.95,0.1c-0.5,-0.85 -0.25,-1.05 0.8,-0.65c0.85,0.35 1.35,0.95 1.05,1.35c-1.6,2.6 3.5,4.35 7.5,2.55c4.9,-2.2 4.6,-3.2 -0.3,-1.15c-3.05,1.25 -3.8,1.3 -5.35,0.1c-1.35,-1 -1.45,-1.4 -0.45,-1.4c1.1,-0.05 1.05,-0.45 -0.3,-1.95c-1.55,-1.7 -1.55,-1.9 -0.05,-2.5c2.1,-0.8 2.5,-0.75 2.35,0.15c-0.65,3.95 0.2,5.25 2.85,4.65c3.35,-0.8 4.75,-1.95 3.4,-2.8c-0.55,-0.35 -1.3,-0.2 -1.65,0.4c-0.95,1.5 -2.5,1.2 -2.5,-0.5c0,-2 2.9,-1.9 5.15,0.15c1.05,0.9 1.85,1.2 1.85,0.6c0,-3.4 -7.45,-5.05 -13.75,-3z"/>
  <path id="svg_53" d="m54.25,128.84998c-0.9,0.55 -0.15,1.7 2.65,3.95c4.1,3.3 5.75,4.05 4.55,2.1c-0.5,-0.75 0.05,-0.9 1.65,-0.45c2,0.6 1.9,0.4 -0.6,-1.2c-1.65,-1.05 -3.6,-2.65 -4.35,-3.6c-1.55,-1.85 -2.1,-1.95 -3.9,-0.8z"/>
  <path id="svg_54" d="m273.00002,130.34998c0,0.6 7.85,5.65 8.75,5.6c0.4,0 -0.15,-0.7 -1.25,-1.55c-2.4,-1.85 -7.5,-4.6 -7.5,-4.05z"/>
  <path id="svg_55" d="m37.25,132.99999c-1.7,2.65 -1.6,4.85 0.1,2.55c1.25,-1.7 1.4,-1.6 1.95,1.3c0.85,4.05 1.8,3.95 3.8,-0.4c1.65,-3.5 1.3,-4.45 -0.9,-2.25c-0.95,0.95 -1.2,0.7 -1.2,-1c0,-2.75 -2.1,-2.85 -3.75,-0.2z"/>
  <path id="svg_56" d="m11.1,133.69999c0.25,0.55 2.65,2.9 5.4,5.15c2.75,2.3 5.9,5 7,6.05c3.75,3.45 17.85,14.6 23.6,18.6c8.25,5.8 21.25,15.95 29.95,23.5c4.15,3.55 10.4,8.75 13.9,11.5c3.5,2.75 7.95,6.35 9.95,8.05c2,1.7 6.65,5.2 10.35,7.8c3.7,2.6 6.75,5.2 6.75,5.7c0,0.5 0.45,0.95 1,0.95c1.1,0 13.05,9.5 28.95,23c5.2,4.4 9.85,8 10.35,8c1.6,0 5.2,3.45 5.5,5.3c0.45,2.65 -1.65,1.25 -12.3,-8c-4.95,-4.3 -12.15,-10.25 -16,-13.25c-3.85,-2.95 -8.4,-6.7 -10.1,-8.25c-2.75,-2.55 -10.3,-8.2 -20.4,-15.2c-1.9,-1.35 -8.7,-7.05 -15.1,-12.75c-6.35,-5.7 -13.55,-11.7 -16,-13.3c-5.7,-3.85 -13.4,-10 -18.15,-14.45c-2.45,-2.25 -3.75,-3 -3.75,-2c0,0.8 2.15,3.1 4.75,5.1c2.6,2 5.65,4.5 6.8,5.55c1.1,1.05 3.35,2.75 5,3.8c4.75,3.05 10.25,7.4 20.8,16.45c13.6,11.7 12.95,11.15 24.15,19.6c14.45,10.85 21.5,16.45 32.35,25.7c16.45,14.05 17.1,14.5 21.95,14.2l4.3,-0.25l-0.3,19.9c-0.2,12.75 0.05,19.85 0.7,19.85c0.65,0 0.95,-7.4 0.85,-20.5c-0.2,-19.6 -0.1,-20.55 1.8,-21.6c2,-1.05 2,-0.9 1.3,20.5c-0.5,15.1 -0.4,21.6 0.35,21.6c0.7,0 1.1,-6.2 1.2,-18.75c0.1,-10.3 0.25,-20.1 0.3,-21.7c0.2,-3.35 0.45,-3.5 17.9,-11.55c5.9,-2.7 15.35,-7.5 21,-10.6c5.65,-3.15 12.05,-6.6 14.25,-7.75c2.15,-1.1 3.4,-2.2 2.8,-2.4c-0.6,-0.2 -8,3.4 -16.4,8c-8.45,4.65 -17.15,9.1 -19.35,10c-2.2,0.85 -9.7,4.3 -16.65,7.65c-13.6,6.55 -14.95,6.9 -16.85,4.6c-1.05,-1.25 -0.9,-1.5 0.9,-1.5c3.05,0 30.9,-13.4 68.10001,-32.75c9.65,-5 20.9,-10.45 25,-12.1c15.25,-6.05 40.4,-17.85 40.8,-19.1c0.3,-0.9 -0.85,-0.65 -3.4,0.75c-2.15,1.15 -5.45,2.75 -7.4,3.55c-1.9,0.8 -8.2,3.6 -14,6.15c-5.75,2.55 -13.35,5.75 -16.8,7.05c-6.75,2.55 -40.85,19.4 -45.1,22.3c-2.7,1.8 -6.35,3.6 -29.25,14.5c-20.6,9.75 -18.3,10.35 -43.1,-11c-5.9,-5.1 -13.3,-11.1 -16.5,-13.35c-12.25,-8.7 -16.95,-12.3 -22.85,-17.45c-3.35,-2.95 -11.45,-9.55 -18,-14.6c-6.55,-5.1 -14.15,-11.35 -16.9,-14c-2.75,-2.6 -5.95,-5 -7.1,-5.35c-1.15,-0.35 -3.55,-2.2 -5.3,-4.1c-1.7,-1.95 -3.6,-3.5 -4.1,-3.5c-0.55,0 -8.95,-6.45 -18.75,-14.3c-18.95,-15.25 -20.75,-16.55 -20.15,-15z"/>
  <path id="svg_57" d="m8.45,136.94999c1.15,1.8 40.75,32.15 41.3,31.6c0.35,-0.3 0.4,-0.7 0.15,-0.85c-4.45,-3.1 -11.3,-8.4 -24.6,-18.9c-15.1,-11.95 -18.25,-14.2 -16.85,-11.85z"/>
  <path id="svg_59" d="m242.00002,184.99999c-3.35,2 -39.85,18 -42.5,18.65c-1.1,0.25 0.5,-0.9 3.5,-2.55c6.85,-3.75 5.9,-4 -1.45,-0.4c-3.85,1.9 -5.15,2.95 -4.3,3.6c0.8,0.55 0.45,0.7 -1,0.4c-1.45,-0.35 -2,-0.15 -1.6,0.55c0.4,0.65 0.1,0.85 -0.85,0.5c-1.7,-0.65 -4.6,0.8 -3.55,1.85c0.8,0.75 4.8,-0.7 25.25,-9.4c17.8,-7.6 29.5,-13 29.5,-13.65c0,-0.8 -1.25,-0.55 -3,0.45z"/>
  <path id="svg_60" d="m138.30001,196.64999c0.35,0.3 -0.15,2 -1.05,3.75c-2,3.7 -4.2,9.6 -4.25,11.3c0,1.1 9.65,9.95 18.35,16.8c2.1,1.65 5.3,4.25 7.1,5.75c1.85,1.5 3.95,2.75 4.7,2.7c1.3,-0.05 -1.3,-2.55 -9.55,-9.25c-2.15,-1.75 -4.65,-3.9 -5.55,-4.7c-0.9,-0.85 -4.2,-3.65 -7.35,-6.35c-6.4,-5.4 -6.5,-5.65 -3.65,-12c2.55,-5.85 3.55,-6.35 6.35,-3.5c2.55,2.65 11.05,9.35 17.2,13.55c2.25,1.55 5.3,3.75 6.75,4.95l2.6,2.1l-2.45,7.3c-2.85,8.3 -3.15,11.15 -1.15,10.35c0.75,-0.25 1.2,-1.45 0.95,-2.7c-0.45,-2.7 2.95,-12.3 4.25,-12c0.5,0.15 1.75,1.7 2.65,3.45l1.75,3.2l-4.05,2.45c-2.2,1.3 -3.85,2.6 -3.6,2.85c0.35,0.35 7.8,-2.95 9.55,-4.25c2.05,-1.5 -7.25,-12.7 -15.7,-18.9c-5.2,-3.85 -10.2,-7.7 -11.05,-8.5c-3.9,-3.6 -15.95,-11.5 -12.8,-8.35z"/>
  <path id="svg_61" d="m295.50003,198.09999c-11.9,5.5 -20.5,9.3 -24.75,11c-8.5,3.35 -35.25,17.25 -34.05,17.65c0.7,0.2 7.9,-3 16,-7.15c8.15,-4.15 20,-9.8 26.3,-12.65c6.35,-2.8 12.9,-5.75 14.65,-6.5c1.75,-0.8 3.45,-1.45 3.85,-1.45c0.7,0 -0.35,67.95001 -1.1,69.15001c-0.6,1 -0.8,30.75 -0.2,31.4c0.55,0.55 1.15,-11.65 2.3,-47.05c0.8,-24.75 0.85,-52.1 0.15,-53.25c-0.35,-0.6 -0.1,-1.3 0.6,-1.55c0.7,-0.2 1.05,-0.65 0.75,-0.95c-0.25,-0.3 -2.3,0.3 -4.5,1.35z"/>
  <path id="svg_62" d="m293.65003,206.74999c-0.9,9.1 -1.6,26.6 -2.25,56.25001c-0.3,15.1 -0.75,29.2 -0.9,31.25c-0.2,2.05 0.05,4 0.55,4.3c0.55,0.3 1,-1.15 1.1,-3.25c0.05,-2.1 0.2,-4.95 0.3,-6.3c0.1,-1.4 0.5,-15.55 0.9,-31.5c0.35,-15.95 0.95,-35.2 1.3,-42.75c0.6,-13.9 0,-18.6 -1,-8z"/>
  <path id="svg_63" d="m139.00001,202.89999c0,0.55 0.45,1.25 1,1.6c0.6,0.4 0.45,1.85 -0.45,4.05c-0.8,1.9 -1.05,3.45 -0.6,3.45c0.45,0 1.3,-1.35 1.9,-3c0.8,-2.3 1.45,-2.8 2.85,-2.3c1.6,0.6 1.65,0.5 0.4,-1.05c-1.9,-2.3 -5.1,-4.05 -5.1,-2.75z"/>
  <path id="svg_64" d="m142.95001,210.04999c-0.9,1.75 -0.85,2.5 0.4,3.75c2,2 4.9,-0.1 4.45,-3.2c-0.4,-2.85 -3.4,-3.2 -4.85,-0.55z"/>
  <path id="svg_65" d="m153.00001,214.19999c0,0.65 -0.95,2.15 -2.1,3.4l-2.1,2.25l2.2,1.15c1.2,0.65 3.05,0.95 4.05,0.7c1.4,-0.35 1.9,0.15 2.15,2.15c0.4,3.35 4.15,4.2 5.75,1.3c1.7,-3.2 0.25,-5.45 -3.05,-4.8c-2.2,0.45 -2.7,0.25 -2.25,-0.9c0.3,-0.8 -0.15,-2.6 -1.05,-3.95c-1.75,-2.65 -3.6,-3.3 -3.6,-1.3zm3,3.8c0,2.1 -1.5,3.4 -2.95,2.5c-0.6,-0.35 -0.55,-1.5 0.15,-3c1.2,-2.7 2.8,-2.4 2.8,0.5zm5.8,5.75c-0.2,0.95 -1,1.75 -1.8,1.75c-0.8,0 -1.6,-0.8 -1.8,-1.75c-0.25,-1.25 0.3,-1.75 1.8,-1.75c1.5,0 2.05,0.5 1.8,1.75z"/>
 </g>
</svg>