<?xml version="1.0" standalone="no"?>
<!DOCTYPE svg PUBLIC "-//W3C//DTD SVG 20010904//EN"
 "http://www.w3.org/TR/2001/REC-SVG-20010904/DTD/svg10.dtd">
<svg version="1.0" xmlns="http://www.w3.org/2000/svg"
 width="300.000000pt" height="300.000000pt" viewBox="0 0 300.000000 300.000000"
 preserveAspectRatio="xMidYMid meet">
<metadata>
Created by potrace 1.10, written by Peter Selinger 2001-2011
</metadata>
<g transform="translate(0.000000,300.000000) scale(0.100000,-0.100000)"
fill="#000000" stroke="none">
<path d="M1952 2900 c1 -55 6 -100 11 -100 5 0 7 17 3 38 -7 50 0 56 38 33 17
-11 99 -56 181 -101 233 -128 564 -348 763 -508 23 -19 45 -32 48 -29 6 6 -16
24 -183 146 -242 179 -431 301 -611 397 -70 37 -186 102 -215 119 -11 7 -18
26 -19 53 -1 24 -5 45 -10 48 -4 3 -7 -40 -6 -96z"/>
<path d="M2070 2956 c0 -24 -2 -50 -5 -58 -3 -7 5 -18 17 -24 13 -6 66 -35
118 -64 52 -29 129 -71 170 -93 114 -59 183 -98 204 -116 14 -12 20 -13 23 -4
3 7 31 25 64 39 77 35 70 43 -10 10 l-61 -25 0 54 c0 51 2 56 32 71 17 9 55
24 83 34 l52 18 76 -52 c42 -28 76 -53 77 -56 0 -3 -37 -16 -83 -29 -45 -13
-88 -25 -95 -27 -7 -2 -11 -12 -8 -21 2 -10 7 -36 11 -59 8 -52 65 -107 234
-224 69 -48 23 0 -59 61 -47 35 -91 69 -97 75 -7 7 -23 21 -36 31 -17 13 -26
33 -31 71 -4 28 -3 52 1 52 10 0 178 -126 218 -163 16 -14 31 -24 35 -21 3 3
-3 12 -14 19 -10 8 -35 30 -57 49 -21 20 -41 36 -45 36 -3 0 -21 12 -39 28
-19 15 -44 34 -56 43 -22 16 -21 16 60 42 l84 26 33 -26 c19 -14 34 -20 34
-14 0 6 -12 17 -26 23 -24 11 -25 13 -7 26 16 13 15 13 -13 8 -23 -5 -35 -2
-49 14 -10 12 -46 37 -78 57 l-60 36 44 18 c24 10 37 18 28 18 -9 1 -32 -6
-51 -14 -29 -11 -38 -12 -54 -1 -53 35 -97 59 -90 48 4 -6 28 -24 53 -39 l46
-27 -49 -17 c-28 -9 -64 -24 -81 -32 -17 -9 -33 -13 -37 -10 -3 4 -6 0 -6 -7
0 -10 -4 -10 -17 2 -10 8 -51 35 -92 59 -133 77 -231 146 -223 154 4 4 2 6 -4
2 -5 -3 -29 5 -53 19 -24 13 -50 24 -60 24 -9 -1 -2 -7 16 -15 18 -7 83 -47
145 -88 62 -40 150 -95 196 -122 46 -27 87 -56 93 -66 11 -21 12 -89 1 -89 -4
0 -24 11 -44 25 -20 14 -42 25 -47 25 -6 0 -11 4 -11 8 0 9 -85 52 -103 52 -7
0 -30 12 -52 27 -22 15 -71 44 -110 64 -38 20 -69 42 -67 48 1 7 -2 10 -8 6
-5 -3 -19 -1 -31 6 -19 10 -21 17 -15 65 4 34 2 54 -4 54 -5 0 -10 -20 -10
-44z"/>
<path d="M2486 2972 c66 -47 94 -63 94 -54 0 5 -10 14 -22 21 -13 6 -38 23
-57 36 -19 14 -38 25 -44 25 -5 0 8 -12 29 -28z"/>
<path d="M975 2810 c-72 -29 -88 -28 -123 7 -7 7 -20 13 -29 13 -13 0 -15 -10
-10 -67 3 -38 3 -61 -1 -52 -6 14 -27 7 -147 -50 -109 -53 -134 -69 -117 -73
12 -4 20 -2 16 3 -3 5 7 14 23 19 15 6 53 24 83 39 30 16 72 36 93 45 l37 15
0 -113 0 -113 -27 -14 c-16 -7 -41 -23 -58 -35 -16 -11 -50 -31 -75 -44 -130
-67 -160 -84 -160 -91 0 -17 155 -170 232 -230 45 -35 92 -74 105 -86 l22 -21
95 63 c88 60 97 63 128 55 79 -23 97 -13 191 109 51 66 131 125 160 117 9 -2
15 0 12 4 -8 12 32 16 95 9 64 -7 150 -55 168 -93 13 -30 -5 -57 -67 -100 -22
-16 -47 -39 -56 -53 -16 -24 -15 -25 20 -59 26 -24 34 -38 28 -47 -5 -6 -15
-31 -22 -55 -16 -55 -1 -102 40 -135 l30 -23 -108 -72 c-144 -96 -156 -106
-158 -147 -2 -19 1 -33 5 -30 8 5 41 -29 56 -56 5 -9 51 -53 102 -98 l92 -82
33 17 c17 9 64 40 102 69 39 28 92 64 120 81 27 16 81 55 120 88 38 32 80 65
93 73 12 9 22 24 22 34 0 23 -13 24 -30 4 -7 -8 -78 -61 -157 -118 -79 -56
-175 -123 -211 -149 -37 -27 -74 -48 -82 -48 -20 0 -258 241 -244 247 6 2 67
45 135 95 68 50 147 106 174 124 28 17 63 44 79 59 25 23 30 25 38 11 5 -9 15
-16 22 -16 7 0 21 -9 31 -20 10 -11 21 -20 24 -20 7 0 6 81 -3 130 -6 38 -19
222 -18 255 1 11 7 24 14 30 7 5 19 18 27 28 24 31 -6 18 -46 -20 -99 -95
-184 -163 -195 -157 -7 4 -8 3 -4 -4 6 -9 -57 -62 -74 -62 -13 0 -50 42 -50
56 0 14 5 13 35 -5 19 -11 35 -17 35 -13 0 15 -24 32 -44 32 -24 0 -16 8 99
97 33 26 62 50 65 53 3 3 21 17 40 30 19 14 44 32 54 42 42 39 115 7 117 -51
1 -14 3 -37 4 -51 2 -14 6 -86 9 -160 3 -74 7 -145 10 -157 3 -12 6 -51 8 -87
1 -35 5 -64 8 -63 8 2 87 -51 95 -63 3 -6 11 -8 16 -5 14 9 11 25 -6 25 -8 0
-24 5 -34 12 -19 12 -19 13 2 39 12 15 30 39 40 53 14 20 26 26 57 26 33 0 48
8 91 46 45 40 56 45 83 40 28 -6 35 -2 74 41 23 26 41 42 40 34 -2 -8 53 -56
124 -110 70 -53 127 -102 128 -109 0 -7 4 -11 9 -8 5 4 11 3 13 -1 6 -16 126
-102 132 -96 3 3 6 2 6 -4 0 -13 110 -97 117 -89 9 9 -17 35 -73 74 -152 107
-404 305 -409 322 -7 22 -40 43 -58 37 -7 -2 -64 32 -127 76 -181 125 -311
209 -315 205 -4 -4 69 -55 311 -219 l112 -75 -20 -33 c-17 -26 -27 -32 -52
-31 -51 3 -55 2 -102 -42 -36 -33 -56 -43 -92 -48 -39 -4 -50 -10 -69 -40 -39
-61 -45 -65 -58 -47 -7 9 -15 14 -18 11 -12 -13 -20 68 -33 351 -6 155 -13
207 -25 200 -5 -4 -9 -2 -9 4 0 6 -12 14 -27 17 -16 4 -30 10 -33 14 -3 4 -36
29 -75 54 -38 25 -75 50 -82 56 -7 5 -14 10 -17 10 -5 0 -147 87 -223 136 -28
19 -54 34 -58 34 -4 0 -45 23 -92 50 -47 28 -86 50 -88 50 -2 0 -46 27 -97 60
-51 32 -95 57 -98 54 -3 -3 3 -12 14 -19 21 -16 253 -152 297 -175 16 -9 26
-19 22 -23 -4 -5 -1 -6 7 -2 9 3 73 -31 150 -80 347 -217 334 -208 314 -216
-10 -4 -50 -33 -89 -64 -57 -46 -71 -53 -73 -38 -4 24 -81 84 -134 105 -116
46 -252 -5 -340 -127 -59 -81 -97 -115 -128 -115 -19 0 -30 5 -30 14 0 8 -5
16 -11 18 -6 2 22 26 63 54 l73 50 3 89 c1 62 -1 85 -8 75 -6 -9 -10 -10 -10
-3 0 6 4 14 9 17 15 9 2 219 -14 232 -8 6 -67 39 -130 74 -63 34 -117 66 -120
70 -3 4 24 18 60 31 36 12 65 26 65 31 0 11 -6 10 -85 -22z m-116 -14 c16 -14
103 -63 244 -137 l78 -42 -3 -197 c-2 -158 0 -196 10 -188 6 6 12 7 12 2 -1
-13 -50 -47 -69 -48 -9 -1 -30 -12 -46 -25 l-30 -23 30 17 30 16 -24 -20 c-13
-12 -32 -21 -42 -21 -11 0 -23 -8 -26 -17 -7 -19 -22 -32 -93 -77 -24 -15 -39
-21 -31 -13 7 9 35 30 62 47 27 18 49 34 49 37 0 10 -103 -61 -141 -98 -26
-25 -33 -28 -42 -16 -7 7 -42 35 -78 60 -54 38 -255 235 -246 242 1 1 67 39
147 85 79 45 150 90 156 99 7 8 13 49 13 89 0 40 3 77 6 82 3 5 1 11 -5 15 -7
4 -6 13 1 27 7 13 9 40 5 69 -7 52 3 62 33 35z m1022 -672 c1 -32 6 -65 13
-73 9 -12 8 -13 -3 -6 -11 6 -13 2 -7 -19 8 -31 25 -161 26 -190 0 -17 -5 -15
-33 12 -18 18 -38 32 -44 32 -6 0 -41 -25 -79 -55 -76 -60 -92 -62 -133 -17
-20 22 -23 33 -18 77 7 74 45 132 80 126 5 -1 6 3 2 9 -3 5 4 14 17 20 13 5
57 41 98 79 41 38 76 68 78 67 1 -2 3 -29 3 -62z m248 -507 c-2 -2 -32 -25
-66 -50 -34 -26 -68 -54 -76 -61 -7 -8 -38 -29 -68 -47 -30 -18 -71 -46 -92
-62 -78 -61 -155 -107 -176 -107 -14 0 -184 163 -223 214 -18 22 20 -10 84
-73 64 -63 124 -119 133 -124 19 -10 43 6 315 202 91 66 167 118 169 115 2 -2
2 -5 0 -7z"/>
<path d="M841 2514 c0 -12 115 -108 134 -112 8 -2 15 -10 15 -18 0 -19 1 -19
-60 26 -29 22 -56 37 -59 34 -3 -4 -1 -9 6 -11 24 -8 260 -192 266 -206 3 -8
0 -20 -6 -27 -9 -9 -6 -9 13 0 15 8 20 15 12 18 -6 2 -12 9 -12 16 0 7 -36 39
-80 71 -44 32 -80 60 -80 62 0 13 32 -2 56 -27 16 -16 33 -30 38 -30 4 0 26
-14 47 -31 21 -17 39 -27 38 -22 0 8 -88 80 -204 168 -33 25 -75 57 -92 71
-18 15 -33 23 -32 18z"/>
<path d="M843 2374 c32 -25 45 -30 59 -23 26 14 22 20 -8 13 -19 -5 -25 -4
-20 5 5 7 -1 11 -15 11 -17 0 -19 3 -10 13 8 11 5 14 -18 14 l-30 0 42 -33z"/>
<path d="M746 2339 c5 -8 9 -17 9 -21 0 -3 4 -10 9 -15 5 -5 6 -3 2 5 -13 22
4 13 29 -15 17 -21 27 -25 35 -17 9 9 5 13 -15 18 -21 5 -24 10 -16 20 9 10 7
15 -6 19 -10 2 -27 8 -37 13 -15 6 -17 4 -10 -7z"/>
<path d="M702 2311 c-10 -6 -6 -15 15 -37 58 -59 113 -102 119 -92 8 13 -46
68 -68 68 -10 0 -15 5 -12 13 7 18 -38 58 -54 48z"/>
<path d="M691 2204 c-21 -15 -52 -62 -33 -50 6 4 25 -11 43 -33 30 -39 33 -40
59 -26 54 28 54 38 1 83 -45 38 -50 40 -70 26z m57 -31 c20 -15 39 -28 41 -30
7 -5 -31 -43 -43 -43 -14 0 -66 51 -66 65 0 10 19 35 28 35 2 0 20 -12 40 -27z"/>
<path d="M1958 2748 c5 -71 10 -77 11 -15 0 31 -2 57 -7 57 -4 0 -6 -19 -4
-42z"/>
<path d="M1977 2543 c16 -141 24 -177 17 -73 -8 123 -16 190 -23 190 -4 0 -1
-53 6 -117z"/>
<path d="M410 2546 c-52 -23 -131 -59 -175 -80 -133 -63 -163 -76 -174 -76 -6
0 -11 -4 -11 -10 0 -12 61 12 200 78 58 27 139 64 180 82 70 30 107 51 85 49
-6 -1 -53 -20 -105 -43z"/>
<path d="M2385 2558 c-22 -5 -80 -21 -130 -35 -49 -14 -101 -25 -114 -24 -19
1 -21 -2 -11 -13 6 -9 10 -37 9 -68 -3 -51 -2 -53 31 -71 19 -11 47 -28 63
-39 18 -13 27 -15 27 -6 -1 7 -23 23 -50 36 -41 19 -50 29 -52 50 0 15 -2 39
-3 55 -2 32 1 33 36 9 81 -53 214 -147 271 -190 36 -27 72 -52 79 -54 9 -3 14
-28 15 -77 2 -40 5 -76 8 -79 3 -3 6 2 6 10 0 9 20 23 47 34 27 11 51 20 54
22 7 3 30 -80 24 -86 -2 -2 -14 2 -27 9 -40 20 -18 5 160 -114 94 -64 172
-112 172 -108 0 5 -65 52 -144 106 l-145 98 -7 51 c-4 28 -7 54 -6 59 3 12
-13 8 -71 -17 l-55 -25 -4 53 -3 54 96 35 c52 20 108 39 122 42 15 4 27 11 27
15 0 9 -48 -5 -165 -48 -44 -16 -86 -27 -94 -24 -28 10 -210 150 -203 157 3 3
0 4 -8 1 -9 -4 -41 14 -75 40 -33 25 -71 50 -85 56 -30 13 -39 9 150 57 85 22
142 40 125 39 -16 0 -48 -4 -70 -10z"/>
<path d="M2265 2489 c-38 -12 -47 -17 -24 -14 46 7 130 33 104 33 -11 0 -47
-9 -80 -19z"/>
<path d="M2062 2440 c-32 -7 -55 -20 -36 -20 5 0 32 7 59 14 52 15 34 20 -23
6z"/>
<path d="M76 2324 c10 -8 12 -13 4 -9 -8 3 5 -11 30 -32 24 -21 59 -51 76 -68
l32 -30 6 -145 c3 -80 9 -199 12 -264 6 -97 5 -118 -6 -111 -10 6 -11 4 -4 -6
11 -18 11 -19 13 -79 0 -27 4 -50 9 -50 7 0 1 272 -13 515 -6 121 -6 129 10
114 14 -14 17 -69 21 -530 3 -282 7 -515 10 -518 9 -10 9 448 -1 833 l-5 189
23 -21 c13 -12 29 -22 36 -22 7 0 10 -4 7 -8 -5 -9 61 -79 79 -84 6 -2 9 -5 9
-8 -1 -3 18 -25 43 -50 25 -25 42 -39 39 -32 -11 20 9 14 30 -10 18 -21 18
-21 0 -15 -10 4 6 -14 35 -40 53 -46 133 -124 564 -548 256 -252 310 -304 447
-429 59 -54 106 -103 105 -109 -1 -7 3 -11 10 -10 6 1 46 -29 87 -68 42 -39
76 -67 76 -62 0 5 -40 46 -90 92 -49 46 -88 87 -85 91 3 5 -18 30 -47 57 -28
26 -59 55 -68 63 -83 78 -168 148 -173 143 -4 -3 -7 -1 -7 5 0 6 -19 28 -42
49 -111 100 -272 256 -587 571 -223 223 -349 341 -358 338 -8 -3 -12 -2 -9 3
3 5 -20 33 -52 63 -143 138 -225 213 -233 216 -5 2 -9 10 -9 18 0 8 -10 14
-22 14 -21 0 -21 0 -2 -16z m1464 -1390 c68 -60 147 -137 130 -128 -18 10
-107 92 -200 184 -36 36 -45 47 -20 24 25 -22 65 -58 90 -80z"/>
<path d="M2110 2306 c0 -2 24 -21 53 -42 28 -21 54 -41 57 -44 16 -17 90 -59
90 -50 0 5 -4 10 -9 10 -5 0 -44 26 -87 58 -87 64 -104 75 -104 68z"/>
<path d="M2335 2237 c22 -18 63 -54 92 -81 29 -27 53 -45 53 -41 0 4 -8 14
-17 21 -13 9 -14 13 -5 14 8 0 -23 27 -67 60 -85 63 -124 82 -56 27z"/>
<path d="M1454 2238 c11 -7 37 -28 58 -47 21 -18 38 -30 38 -27 0 11 -53 55
-85 71 -16 9 -21 10 -11 3z"/>
<path d="M2865 2196 c-38 -12 -83 -29 -100 -38 -16 -8 -36 -13 -42 -11 -7 3
-13 -2 -13 -11 0 -8 6 -13 13 -11 7 3 31 -7 53 -22 23 -16 78 -52 123 -82 59
-38 79 -56 69 -62 -7 -5 -8 -9 -3 -9 6 0 16 4 23 9 10 6 -8 23 -65 59 -43 28
-91 60 -108 72 -16 11 -39 27 -50 35 -23 15 -25 14 102 59 35 13 66 26 70 29
9 9 7 9 -72 -17z"/>
<path d="M2320 2153 c0 -4 17 -18 38 -30 20 -12 61 -42 90 -67 30 -25 57 -46
60 -46 7 0 -18 23 -90 82 -49 41 -98 72 -98 61z"/>
<path d="M2520 2006 c0 -2 53 -44 118 -92 64 -48 146 -110 182 -139 94 -75
140 -108 140 -102 0 8 -184 155 -269 215 -36 25 -68 49 -71 52 -9 11 -100 71
-100 66z"/>
<path d="M240 1470 c0 -16 5 -30 10 -30 6 0 10 14 10 30 0 17 -4 30 -10 30 -5
0 -10 -13 -10 -30z"/>
<path d="M241 1290 c0 -71 4 -130 8 -130 4 0 7 58 6 130 0 71 -4 130 -8 130
-4 0 -7 -58 -6 -130z"/>
<path d="M2930 1304 c-36 -24 -119 -77 -185 -116 -66 -39 -134 -82 -151 -95
-17 -13 -34 -23 -37 -23 -3 0 -34 -19 -69 -43 -35 -24 -97 -63 -138 -87 -75
-44 -128 -80 -117 -80 12 0 112 61 378 232 41 26 78 48 82 48 13 0 307 193
307 201 0 12 4 14 -70 -37z"/>
<path d="M2875 1227 c-66 -40 -131 -80 -145 -88 -14 -9 -74 -46 -135 -84 -60
-38 -144 -89 -185 -115 -83 -51 -310 -173 -310 -167 0 2 27 21 60 41 33 21 60
40 60 43 0 3 -17 -5 -37 -18 -80 -47 -161 -92 -227 -126 -37 -19 -66 -37 -63
-40 3 -3 33 10 66 28 34 17 64 30 67 27 9 -10 -127 -79 -144 -73 -10 3 -33 20
-53 37 -20 18 -56 48 -80 66 -35 27 -32 22 16 -23 76 -71 160 -132 152 -111
-5 12 7 24 41 46 25 16 47 28 48 27 3 -4 14 -394 15 -542 1 -115 4 -147 10
-115 4 25 6 79 4 120 -2 41 -7 181 -10 310 l-7 236 126 69 c209 115 273 153
456 268 165 104 262 162 320 193 26 14 89 63 80 63 -3 0 -59 -33 -125 -72z"/>
<path d="M1971 509 c0 -86 4 -203 11 -260 6 -57 11 -137 10 -177 0 -39 3 -72
8 -72 9 0 9 37 -9 380 -15 300 -18 321 -20 129z"/>
<path d="M2993 180 c0 -41 2 -58 4 -37 2 20 2 54 0 75 -2 20 -4 3 -4 -38z"/>
</g>
</svg>
