<?xml version="1.0" standalone="no"?>
<!DOCTYPE svg PUBLIC "-//W3C//DTD SVG 20010904//EN"
 "http://www.w3.org/TR/2001/REC-SVG-20010904/DTD/svg10.dtd">
<svg version="1.0" xmlns="http://www.w3.org/2000/svg"
 width="300.000000pt" height="300.000000pt" viewBox="0 0 300.000000 300.000000"
 preserveAspectRatio="xMidYMid meet">
<metadata>
Created by potrace 1.10, written by Peter Selinger 2001-2011
</metadata>
<g transform="translate(0.000000,300.000000) scale(0.100000,-0.100000)"
fill="#000000" stroke="none">
<path d="M523 2959 c-40 -12 -44 -23 -5 -14 16 3 41 1 57 -5 15 -6 30 -8 33
-5 4 3 -4 8 -16 12 -12 3 -22 9 -22 14 0 11 -4 10 -47 -2z"/>
<path d="M2170 2960 c0 -5 7 -7 16 -3 29 11 -13 -68 -61 -117 -43 -43 -45 -44
-46 -20 -1 24 -27 -79 -28 -110 -1 -13 0 -13 9 0 5 8 10 24 10 35 0 11 27 48
59 82 34 35 62 75 66 92 4 17 14 35 23 41 14 7 10 9 -15 10 -18 0 -33 -4 -33
-10z"/>
<path d="M2320 2951 c47 -10 104 -26 128 -34 24 -9 40 -12 37 -7 -9 15 -128
49 -190 55 -58 4 -57 4 25 -14z"/>
<path d="M2090 2944 l-35 -14 35 6 c19 4 44 10 55 15 20 8 20 8 0 8 -11 0 -36
-7 -55 -15z"/>
<path d="M425 2930 c-20 -9 -20 -9 0 -9 11 0 29 4 40 9 20 9 20 9 0 9 -11 0
-29 -4 -40 -9z"/>
<path d="M674 2925 c3 -10 -1 -15 -12 -15 -9 0 -24 -5 -32 -10 -11 -8 -7 -9
15 -4 65 13 66 14 51 30 -19 18 -30 18 -22 -1z"/>
<path d="M1964 2882 c-86 -63 -231 -249 -210 -270 3 -3 7 -3 9 -1 1 2 15 29
31 61 28 53 144 184 196 220 14 9 22 17 19 18 -3 0 -24 -13 -45 -28z"/>
<path d="M234 2891 c-13 -13 0 -18 27 -11 44 13 48 20 10 17 -18 -1 -34 -4
-37 -6z"/>
<path d="M545 2885 c-27 -7 -63 -16 -79 -19 -15 -4 -26 -9 -23 -12 5 -6 155
31 165 40 7 8 -5 6 -63 -9z"/>
<path d="M400 2850 c-14 -5 -45 -14 -69 -20 -23 -6 -41 -13 -38 -16 7 -8 137
28 137 37 0 5 -1 9 -2 8 -2 0 -14 -4 -28 -9z"/>
<path d="M200 2840 c0 -5 8 -10 18 -10 15 -1 15 -2 -2 -15 -17 -13 -18 -15 -3
-15 9 0 17 5 17 10 0 7 6 7 19 1 10 -6 21 -8 24 -4 4 3 -10 14 -31 24 -42 22
-42 22 -42 9z"/>
<path d="M2596 2814 c43 -43 100 -131 109 -167 6 -24 -11 -44 -171 -206 -99
-99 -203 -205 -233 -235 -30 -31 -58 -56 -63 -56 -5 0 -39 15 -76 34 -66 34
-137 84 -280 200 -40 32 -75 56 -79 52 -3 -3 -1 -6 5 -6 7 0 11 -4 10 -9 -3
-9 36 -41 107 -91 20 -14 59 -43 88 -66 65 -51 199 -134 217 -134 7 0 120 108
251 239 l238 239 7 -31 c4 -18 6 -58 5 -90 -1 -38 2 -56 9 -52 13 8 13 -1 -2
-28 -10 -20 -10 -21 5 -8 18 15 23 51 7 51 -5 0 -10 8 -10 18 0 14 2 15 10 2
7 -11 9 -2 7 30 -1 25 -6 48 -11 52 -5 3 -10 29 -10 56 -1 28 -3 46 -6 42 -3
-5 -18 15 -33 43 -29 55 -112 157 -128 157 -5 0 7 -16 27 -36z"/>
<path d="M2164 2756 c3 -13 8 -36 12 -52 7 -30 29 -54 50 -54 7 0 14 18 16 41
3 37 2 41 -24 46 -16 3 -31 10 -35 16 -4 7 2 8 18 3 13 -4 35 -10 49 -13 14
-4 46 -19 71 -35 25 -15 53 -28 62 -28 17 0 27 -20 27 -56 0 -13 3 -23 8 -23
30 5 44 -2 39 -21 -5 -19 -4 -19 23 -3 25 14 27 19 18 45 -5 15 -14 25 -20 22
-5 -3 -7 -12 -4 -19 3 -10 -2 -11 -22 -6 -20 5 -28 15 -30 35 -2 15 -11 30
-20 33 -30 9 -82 37 -82 44 0 4 7 10 16 13 9 4 14 9 11 12 -3 3 -13 0 -24 -6
-15 -10 -32 -8 -82 9 -81 26 -85 26 -77 -3z m64 -59 c3 -23 0 -28 -14 -25 -10
1 -19 9 -22 17 -3 8 0 11 7 7 6 -4 11 -2 11 3 0 6 -4 11 -10 11 -5 0 -10 5
-10 11 0 25 35 2 38 -24z"/>
<path d="M2360 2773 c0 -12 99 -77 106 -70 3 3 -15 17 -40 32 -25 15 -46 31
-46 36 0 5 -4 9 -10 9 -5 0 -10 -3 -10 -7z"/>
<path d="M2263 2690 c3 -10 2 -20 -3 -22 -4 -2 -10 -15 -13 -29 -5 -20 -2 -29
10 -33 9 -4 19 -3 22 0 3 4 0 9 -6 11 -17 6 -16 33 2 57 15 20 12 36 -7 36 -6
0 -8 -9 -5 -20z"/>
<path d="M2161 2680 c-1 -14 -4 -36 -6 -50 -5 -22 -4 -23 5 -5 8 16 9 14 4
-12 -3 -21 -1 -33 5 -33 6 0 11 4 11 9 0 5 12 13 27 18 l28 10 -30 14 c-20 9
-32 24 -36 44 -6 27 -7 28 -8 5z"/>
<path d="M2281 2660 c-8 -24 -7 -30 5 -30 7 0 14 6 14 14 0 8 3 21 6 30 3 9 2
16 -4 16 -6 0 -15 -13 -21 -30z"/>
<path d="M2475 2680 c3 -5 13 -10 21 -10 8 0 12 5 9 10 -3 6 -13 10 -21 10 -8
0 -12 -4 -9 -10z"/>
<path d="M600 2666 c0 -8 -5 -16 -12 -18 -7 -3 -6 -7 5 -11 13 -5 17 -1 17 18
0 14 -2 25 -5 25 -3 0 -5 -6 -5 -14z"/>
<path d="M2316 2649 c-9 -44 -9 -43 24 -62 39 -23 50 -15 50 34 0 33 -4 41
-26 49 -37 15 -41 13 -48 -21z m28 -9 c-3 -19 -1 -30 6 -30 7 0 10 7 6 15 -3
8 -1 15 4 15 6 0 10 -11 10 -25 0 -23 -2 -24 -20 -15 -19 10 -27 49 -13 63 11
11 11 8 7 -23z"/>
<path d="M2524 2645 c26 -19 42 -19 26 0 -7 8 -20 15 -29 15 -13 -1 -13 -3 3
-15z"/>
<path d="M2540 2605 c-20 -24 -6 -28 15 -5 10 11 13 20 8 20 -6 0 -16 -7 -23
-15z"/>
<path d="M713 2565 c0 -27 2 -38 4 -22 2 15 2 37 0 50 -2 12 -4 0 -4 -28z"/>
<path d="M1730 2553 c-7 -27 -14 -78 -16 -115 -2 -55 2 -76 22 -117 13 -28 24
-53 24 -56 0 -11 79 -111 111 -141 64 -60 146 -104 241 -129 152 -41 231 -32
384 41 32 16 62 27 66 26 5 -1 7 2 5 7 -1 5 9 18 22 30 37 32 14 25 -29 -9
-46 -37 -133 -76 -184 -84 -21 -4 -42 -9 -47 -12 -17 -10 -159 -8 -170 3 -6 6
-18 9 -27 6 -10 -5 -13 -2 -8 6 6 9 2 12 -10 11 -37 -4 -65 0 -60 9 4 5 -4 7
-16 3 -14 -3 -19 -2 -14 6 4 7 0 12 -10 12 -34 0 -139 80 -187 142 -54 70 -97
166 -97 215 l0 33 118 -98 c64 -55 178 -140 252 -190 l135 -91 70 66 c181 171
244 235 327 331 49 56 85 102 79 102 -5 0 -19 -12 -31 -27 -50 -64 -162 -183
-255 -273 -171 -165 -195 -185 -210 -174 -37 26 -166 117 -209 146 -63 43
-236 184 -258 210 -10 11 -18 30 -18 41 0 19 2 19 30 -8 17 -16 30 -24 30 -19
0 6 -11 21 -25 34 -22 21 -25 30 -19 67 8 57 -1 55 -16 -4z"/>
<path d="M2115 2557 c-16 -23 -29 -46 -27 -50 1 -5 -1 -6 -5 -4 -13 8 -48 -22
-37 -32 5 -5 50 -39 99 -76 50 -38 89 -71 88 -75 -1 -4 8 -6 19 -5 22 2 144
125 146 147 0 7 3 40 7 73 l5 60 -15 -53 c-8 -30 -13 -58 -9 -63 3 -5 1 -9 -3
-9 -5 0 -17 -16 -28 -36 -10 -19 -36 -51 -57 -70 l-39 -35 -82 57 c-93 65
-123 91 -115 99 3 3 18 -5 33 -20 27 -24 29 -24 47 -9 10 10 18 24 18 33 0 20
-37 44 -53 35 -7 -4 -3 2 7 14 18 21 20 21 32 4 12 -15 15 -15 23 -2 7 11 5
18 -8 25 -10 5 -16 16 -14 23 8 21 -1 13 -32 -31z m19 -78 c-7 -11 -34 -12
-34 -1 0 14 11 21 26 15 8 -3 11 -9 8 -14z"/>
<path d="M2265 2581 c-6 -11 9 -23 19 -14 9 9 7 23 -3 23 -6 0 -12 -4 -16 -9z"/>
<path d="M2195 2570 c-3 -5 -1 -10 5 -10 7 0 9 -7 6 -15 -20 -51 -20 -51 -4
-38 17 15 29 7 21 -13 -3 -8 -13 -14 -23 -14 -10 0 -25 -11 -34 -25 -18 -28
-11 -32 18 -10 11 8 31 15 44 15 18 0 23 4 18 16 -4 9 1 28 10 41 18 28 12 42
-10 24 -9 -8 -16 -8 -20 -2 -4 5 -1 13 5 17 8 4 7 9 -2 15 -18 11 -26 11 -34
-1z"/>
<path d="M2486 2565 c-3 -9 0 -15 9 -15 16 0 20 16 6 24 -5 3 -11 -1 -15 -9z"/>
<path d="M2306 2553 c-3 -3 -6 -15 -6 -26 0 -16 3 -17 15 -7 17 14 35 5 35
-16 0 -8 5 -12 10 -9 13 8 13 65 -1 65 -5 0 -7 -4 -4 -10 8 -13 -1 -13 -24 0
-10 5 -21 6 -25 3z"/>
<path d="M2457 2533 c-10 -9 -9 -23 2 -23 5 0 11 7 15 15 5 15 -5 20 -17 8z"/>
<path d="M800 2526 c0 -8 101 -58 106 -53 2 2 -17 14 -43 28 -62 31 -63 32
-63 25z"/>
<path d="M420 2500 c-8 -5 -25 -10 -37 -10 -13 0 -23 -4 -23 -9 0 -6 -21 -13
-47 -17 -27 -3 -55 -11 -63 -16 -24 -14 67 2 129 23 30 11 64 19 75 19 17 0
18 2 6 10 -8 5 -17 10 -20 10 -3 0 -12 -5 -20 -10z"/>
<path d="M713 2475 c0 -22 2 -30 4 -17 2 12 2 30 0 40 -3 9 -5 -1 -4 -23z"/>
<path d="M2308 2473 c-9 -22 -12 -24 -15 -10 -5 20 -23 23 -23 3 0 -13 20 -26
39 -26 7 0 31 43 31 55 0 16 -22 0 -32 -22z"/>
<path d="M2417 2493 c-10 -9 -9 -23 2 -23 5 0 11 7 15 15 5 15 -5 20 -17 8z"/>
<path d="M924 2462 c4 -7 25 -22 48 -33 22 -11 61 -35 86 -53 26 -18 90 -54
142 -81 52 -26 102 -57 111 -68 9 -11 21 -17 27 -13 6 3 15 -2 21 -11 6 -10
11 -15 11 -10 0 7 125 -57 144 -74 6 -5 17 -9 25 -9 20 0 -1 15 -94 65 -38 20
-74 41 -80 45 -5 4 -73 40 -150 80 -77 39 -149 80 -160 89 -29 25 -140 87
-131 73z"/>
<path d="M587 2436 c-3 -8 0 -17 8 -20 9 -3 13 2 12 15 -2 22 -13 25 -20 5z"/>
<path d="M2016 2430 c12 -4 24 -15 27 -24 4 -9 11 -16 17 -16 6 0 3 11 -6 25
-9 14 -25 25 -38 24 l-21 0 21 -9z"/>
<path d="M2230 2420 c-10 -19 -1 -28 14 -12 4 4 12 8 17 8 22 3 23 5 9 14 -22
14 -28 12 -40 -10z"/>
<path d="M2297 2409 c-10 -11 -16 -24 -13 -27 6 -6 35 27 36 41 0 11 -4 9 -23
-14z"/>
<path d="M2180 2410 c0 -5 7 -10 15 -10 8 0 15 5 15 10 0 6 -7 10 -15 10 -8 0
-15 -4 -15 -10z"/>
<path d="M639 2389 c13 -11 26 -17 29 -14 7 6 -29 34 -43 34 -5 0 1 -9 14 -20z"/>
<path d="M1977 2380 c3 -13 13 -20 27 -19 17 1 17 2 4 6 -10 2 -18 11 -18 19
0 8 -4 14 -9 14 -5 0 -7 -9 -4 -20z"/>
<path d="M2245 2380 c-4 -6 -3 -16 3 -22 6 -6 12 -6 17 2 4 6 3 16 -3 22 -6 6
-12 6 -17 -2z"/>
<path d="M2150 2322 c0 -8 53 -42 67 -42 10 0 -49 49 -59 50 -5 0 -8 -4 -8 -8z"/>
<path d="M2121 2270 c22 -22 48 -40 57 -40 14 1 13 3 -3 12 -11 6 -32 24 -46
40 -14 15 -31 28 -37 28 -6 0 7 -18 29 -40z"/>
<path d="M810 2292 c0 -4 17 -16 38 -25 31 -15 34 -15 17 -1 -30 24 -55 36
-55 26z"/>
<path d="M1605 2220 c-9 -16 -11 -30 -6 -30 5 0 14 14 20 30 5 17 8 30 6 30
-3 0 -11 -13 -20 -30z"/>
<path d="M2683 2238 c-6 -7 -16 -24 -22 -38 -12 -24 -12 -24 4 -5 20 24 37 55
32 55 -3 0 -9 -6 -14 -12z"/>
<path d="M896 2232 c-3 -5 -37 -14 -76 -21 -38 -7 -72 -16 -75 -21 -7 -11 131
19 163 36 18 9 21 14 10 14 -9 0 -19 -4 -22 -8z"/>
<path d="M390 2114 c-113 -29 -195 -53 -183 -53 22 -1 424 97 432 105 13 12
-67 -5 -249 -52z"/>
<path d="M1049 2135 c-3 -2 -58 -13 -123 -24 -230 -39 -446 -84 -446 -93 0 -5
8 -7 18 -4 84 26 472 95 580 103 68 5 76 3 115 -23 66 -45 151 -96 162 -98 15
-3 115 -60 115 -66 0 -5 -121 -44 -175 -57 -17 -4 -18 -3 -5 7 13 10 12 11 -5
5 -11 -3 -58 -19 -105 -35 -47 -15 -116 -36 -155 -45 -38 -10 -74 -21 -79 -26
-13 -12 -29 -11 -21 1 3 6 -1 7 -9 4 -9 -3 -14 -10 -11 -14 3 -5 -3 -6 -14 -3
-10 3 -21 1 -24 -4 -4 -6 18 -9 48 -9 30 0 50 3 44 6 -5 4 18 14 51 23 45 13
65 15 78 7 14 -9 12 -11 -10 -7 -15 2 -25 0 -22 -4 3 -5 -3 -6 -12 -2 -12 5
-15 3 -9 -6 6 -10 0 -12 -26 -7 -21 4 -27 3 -15 -2 15 -7 12 -10 -20 -20 -22
-6 -48 -9 -59 -7 -11 3 -33 1 -50 -3 -33 -10 -77 10 -69 31 2 7 -12 23 -31 36
-19 13 -35 27 -35 32 0 5 -8 9 -19 9 -17 0 -142 82 -215 141 -16 13 -36 28
-45 33 -14 8 -14 7 -3 -6 10 -13 10 -17 0 -21 -7 -3 -2 -5 11 -4 13 1 26 -4
28 -11 3 -7 -1 -10 -11 -6 -23 9 -19 -3 5 -17 15 -8 19 -8 15 0 -4 6 -4 11 1
11 14 0 38 -19 39 -30 1 -5 3 -12 4 -15 1 -3 3 -10 4 -17 0 -6 8 -13 16 -15 9
-3 11 -1 5 4 -14 11 -17 33 -5 33 6 0 13 -7 16 -15 4 -8 10 -15 15 -15 18 0
201 -124 189 -128 -6 -2 -17 1 -23 7 -6 6 -15 11 -21 11 -5 0 -2 -6 8 -13 18
-13 18 -14 2 -20 -21 -8 -39 0 -31 14 4 5 -3 9 -15 9 -12 0 -18 4 -15 10 4 6
-1 7 -11 3 -11 -4 -15 -3 -10 5 4 6 -12 22 -39 38 -46 27 -56 45 -13 24 22
-11 22 -10 3 5 -11 8 -26 13 -33 10 -7 -3 -23 0 -34 6 -16 9 -19 8 -13 -2 6
-9 3 -11 -9 -6 -10 4 -20 7 -22 7 -2 0 -4 5 -4 11 0 5 6 7 13 4 6 -4 3 1 -7 9
-11 9 -26 16 -33 16 -7 0 -13 5 -13 10 0 6 5 10 11 10 5 0 7 5 4 10 -15 24
-25 6 -24 -43 l2 -53 61 -39 c94 -59 210 -138 221 -150 16 -18 66 -47 72 -42
2 3 -5 11 -17 17 -20 11 -21 12 -4 24 16 12 15 15 -12 31 -16 10 -52 33 -80
50 -27 18 -68 42 -90 53 -21 12 -50 31 -64 42 -35 30 120 -53 208 -112 66 -43
75 -47 95 -34 12 7 81 33 154 57 127 42 131 44 105 56 l-27 13 28 -5 c19 -4
29 -1 33 10 3 8 9 13 14 10 4 -2 33 3 64 12 40 11 53 19 44 25 -9 7 -4 8 13 4
15 -3 41 -1 58 5 18 6 34 9 37 6 3 -3 -46 -22 -110 -43 -64 -20 -114 -39 -112
-42 3 -2 57 13 121 34 87 28 114 41 110 52 -4 11 1 13 22 9 32 -6 55 1 47 15
-4 6 2 7 16 3 15 -5 20 -4 16 4 -4 6 -2 11 3 11 18 0 12 -18 -11 -36 -15 -11
-17 -14 -6 -11 10 4 20 2 23 -3 4 -6 -1 -10 -9 -10 -9 0 -17 -7 -17 -15 -1 -8
-3 -19 -4 -25 -1 -5 -3 -14 -4 -20 0 -5 -6 -10 -12 -10 -5 0 -8 4 -5 9 4 5 -3
7 -14 4 -28 -8 -35 -22 -8 -16 20 4 21 3 5 -7 -9 -6 -27 -8 -40 -5 -18 5 -19
4 -7 -5 12 -10 11 -11 -8 -7 -12 3 -20 1 -16 -4 3 -5 13 -9 22 -10 12 0 9 -3
-7 -10 -30 -12 -70 -2 -50 13 10 7 9 8 -6 3 -11 -4 -35 -13 -52 -19 -18 -7
-36 -16 -40 -20 -4 -4 0 -4 10 0 9 3 23 1 31 -5 9 -8 21 -8 37 -2 23 9 13 15
-21 12 -11 -1 -11 1 2 9 13 8 24 8 39 0 15 -9 31 -8 66 4 26 9 48 16 49 16 1
0 -9 -26 -22 -57 -13 -32 -24 -63 -24 -70 0 -6 -8 -11 -17 -11 -10 1 -47 -8
-83 -20 -36 -12 -74 -23 -85 -25 -11 -2 -27 -7 -35 -10 -48 -19 -153 -46 -161
-41 -5 3 -9 -2 -9 -10 0 -9 7 -16 16 -16 13 0 14 -3 5 -14 -17 -20 -5 -41 52
-85 47 -36 146 -132 241 -232 38 -40 107 -64 154 -53 57 14 177 94 233 156 9
10 19 15 23 11 3 -3 6 -1 6 6 0 8 8 10 23 6 22 -7 22 -7 2 10 -21 17 -15 17
32 -2 11 -4 14 -3 9 6 -6 9 0 12 20 10 16 -1 38 -1 49 0 17 1 18 3 5 12 -12 9
-11 10 7 6 12 -3 24 1 27 8 4 10 -7 10 -50 -2 -33 -10 -58 -12 -64 -7 -4 5 32
47 86 98 72 67 98 86 112 80 9 -4 19 -8 22 -8 3 -1 23 -15 45 -33 31 -26 35
-33 22 -39 -9 -3 -21 -3 -27 1 -5 3 -10 2 -10 -2 0 -5 -30 -17 -66 -26 -80
-22 -177 -57 -171 -63 2 -3 17 1 33 7 49 19 188 59 204 58 8 0 2 -7 -15 -14
-16 -8 -24 -14 -17 -15 21 0 53 20 47 31 -4 5 5 9 19 9 18 0 26 -6 27 -17 1
-12 4 -10 9 7 10 32 12 55 3 47 -3 -4 -25 8 -47 26 -23 19 -49 38 -58 43 -16
9 -15 12 9 39 20 21 22 27 9 22 -10 -4 -20 -7 -22 -7 -2 0 -4 -7 -4 -15 0 -37
-62 -6 -258 127 -53 36 -79 35 -220 -11 -56 -19 -105 -32 -108 -29 -9 9 40
123 54 124 6 1 18 2 25 3 10 1 14 20 14 69 1 49 10 91 35 158 l33 92 247 -143
c136 -78 275 -159 309 -181 l61 -38 -29 -26 c-15 -14 -46 -40 -68 -58 -22 -18
-31 -29 -20 -23 11 5 44 30 73 55 30 25 56 46 58 46 3 0 80 -47 172 -104 92
-56 191 -117 221 -133 l53 -30 -43 -16 c-185 -66 -289 -98 -384 -121 -163 -39
-669 -195 -661 -204 4 -3 124 33 378 114 58 18 179 52 269 74 89 23 195 55
236 71 82 32 93 34 93 17 0 -14 -193 -78 -400 -133 -138 -37 -489 -148 -700
-220 -74 -26 -144 -48 -155 -48 -11 -1 -26 -8 -34 -15 -8 -8 -22 -11 -32 -9
-11 3 -19 1 -19 -4 0 -32 -72 15 -250 161 -41 34 -138 108 -215 166 -77 57
-167 126 -200 152 -33 26 -92 70 -132 99 -40 29 -81 61 -93 73 -20 20 -46 28
-35 10 3 -5 43 -35 88 -67 45 -31 109 -80 143 -108 33 -27 116 -90 184 -140
69 -49 137 -99 152 -110 15 -11 64 -52 110 -90 46 -39 99 -82 118 -95 19 -13
49 -37 67 -53 33 -31 34 -31 106 -2 12 5 16 3 13 -6 -8 -25 -15 -844 -7 -824
5 11 11 202 14 425 4 223 6 406 7 408 0 2 4 1 9 -2 5 -4 12 0 15 6 6 16 -2
-713 -10 -795 -3 -33 -1 -57 5 -57 5 0 10 59 11 143 1 132 18 688 22 714 2 19
566 209 813 273 125 33 133 35 260 79 129 44 147 48 140 29 -2 -7 -6 -92 -9
-188 -3 -96 -9 -239 -12 -317 -4 -83 -3 -143 2 -143 5 0 9 28 9 62 0 109 16
521 21 566 4 29 10 42 21 42 13 0 15 -13 9 -97 -3 -54 -8 -177 -11 -273 -4
-96 -8 -187 -11 -202 -3 -16 -1 -28 4 -28 10 0 25 122 21 170 -3 29 11 370 16
414 4 33 2 30 40 45 l30 11 -35 -6 c-19 -3 -39 -10 -45 -15 -14 -14 -35 -11
-35 6 0 9 9 15 22 15 12 0 41 9 65 21 l43 21 -55 29 c-55 29 -340 204 -359
221 -6 5 -19 14 -29 21 -16 11 -11 18 55 77 40 36 77 64 83 62 5 -2 7 0 2 4
-4 4 14 29 40 56 26 26 42 48 36 48 -6 0 -18 -11 -27 -25 -9 -14 -20 -25 -25
-25 -5 0 -33 -25 -62 -55 -30 -31 -73 -71 -96 -91 l-42 -35 -248 144 c-136 79
-276 159 -310 178 -55 30 -61 37 -57 59 2 14 -16 -24 -40 -85 -25 -60 -45
-104 -45 -97 -1 6 -5 11 -9 10 -5 -2 -37 14 -73 36 -35 21 -89 52 -119 69 -30
16 -64 37 -75 46 -32 27 -73 41 -119 41 -23 0 -45 -2 -47 -5z m-537 -279 c6 4
8 3 4 -4 -8 -14 21 -36 158 -118 90 -53 112 -70 100 -77 -10 -6 -20 -5 -27 2
-8 8 -7 11 4 11 10 1 9 3 -4 11 -9 5 -23 7 -30 3 -6 -4 -9 -3 -4 1 4 5 -13 20
-38 34 -25 14 -81 48 -125 75 -72 45 -80 53 -80 80 l1 31 15 -28 c8 -16 20
-25 26 -21z m98 -31 c69 -43 60 -46 -12 -4 -60 35 -65 39 -52 39 5 0 34 -16
64 -35z m874 -29 c-5 -12 -77 -46 -97 -46 -6 1 9 10 35 22 26 11 46 24 43 28
-2 3 2 7 9 7 8 0 12 -5 10 -11z m-681 -65 c28 -15 34 -26 17 -36 -13 -8 -59
26 -60 43 0 8 3 12 8 10 4 -2 19 -10 35 -17z m97 -10 c-28 -16 -60 -22 -60
-12 0 9 24 17 60 19 13 1 13 0 0 -7z m844 -63 l38 -28 -31 -17 c-33 -19 -40
-33 -16 -33 8 0 15 5 15 10 0 6 11 15 24 22 21 9 32 6 78 -22 29 -18 63 -42
75 -54 l22 -21 -35 -32 c-19 -18 -37 -32 -42 -30 -4 1 -8 -2 -8 -7 -4 -18 -89
-96 -103 -93 -9 1 -16 -5 -16 -13 0 -10 -20 -19 -62 -28 -35 -8 -63 -18 -63
-23 0 -5 3 -9 8 -10 4 0 15 -2 25 -4 15 -3 16 -1 5 12 -12 15 -11 15 10 4 24
-13 21 -31 -4 -31 -8 0 -13 -4 -9 -9 3 -5 0 -13 -6 -17 -8 -4 -9 -3 -5 4 5 8
0 12 -12 12 -16 0 -21 9 -26 43 -11 75 -12 80 -38 102 l-26 22 61 6 c63 5 147
32 147 48 0 4 -21 -1 -47 -13 -53 -23 -167 -36 -177 -20 -3 6 15 31 41 57 27
26 38 42 26 35 -13 -6 -23 -15 -23 -21 0 -15 -90 -68 -106 -62 -13 5 -13 8 -1
22 22 26 69 112 64 117 -3 3 -22 -25 -43 -62 -42 -72 -46 -75 -112 -95 -23 -7
-47 -18 -53 -26 -15 -18 -4 -16 26 3 40 26 126 29 172 6 34 -18 86 -82 67 -82
-5 0 -3 -5 4 -12 21 -21 13 -36 -25 -48 -21 -6 -69 -23 -106 -37 -54 -20 -70
-23 -82 -13 -8 7 -15 20 -14 29 0 10 2 11 6 4 2 -7 10 -13 16 -13 16 0 -34 50
-68 67 -28 15 -29 15 -17 0 8 -9 11 -21 7 -27 -3 -5 2 -13 11 -17 10 -4 28
-18 40 -32 18 -20 19 -28 9 -34 -10 -5 -13 -30 -6 -43 1 -1 49 13 109 32 59
19 110 34 115 34 15 0 6 -22 -20 -46 -78 -72 -197 -72 -263 1 -23 26 -24 27
-3 16 12 -6 25 -16 28 -21 4 -6 11 -8 16 -5 5 4 -10 21 -33 39 -32 23 -43 39
-43 59 -1 18 4 27 15 27 13 0 13 2 0 10 -12 8 -12 13 2 42 8 18 16 35 16 38 0
5 37 103 51 135 5 11 17 39 26 63 13 31 25 44 44 48 14 3 44 11 66 19 65 21
148 44 175 48 29 4 32 2 84 -35z m-392 -103 c-9 -25 -20 -45 -25 -45 -4 0 -5
-5 -2 -11 4 -6 -1 -16 -11 -23 -10 -8 -15 -20 -11 -29 3 -9 0 -23 -8 -31 -8
-8 -15 -24 -15 -34 0 -11 -5 -22 -10 -24 -6 -2 -12 -17 -14 -33 -2 -17 -4 -32
-5 -34 0 -2 -31 25 -68 60 -38 36 -90 83 -118 106 -33 29 -45 43 -35 46 8 3
44 12 80 22 36 9 103 30 150 46 114 38 112 38 92 -16z m-254 -147 c95 -74 155
-133 150 -148 -2 -8 -14 -4 -36 15 -18 15 -30 31 -26 36 3 5 -2 9 -10 9 -9 0
-16 4 -16 9 0 12 -116 101 -131 101 -5 0 -8 4 -4 9 3 5 1 12 -5 16 -6 4 -7 11
-3 18 5 8 8 8 11 -1 2 -6 33 -35 70 -64z m429 15 c-8 -7 -37 9 -31 19 3 5 12
4 20 -3 8 -6 13 -14 11 -16z m-177 -148 c14 -16 10 -18 -14 -9 -9 3 -16 10
-16 15 0 14 16 11 30 -6z m268 -38 c15 6 15 5 3 -11 -8 -9 -17 -13 -20 -8 -11
17 -60 20 -66 4 -4 -12 -8 -12 -22 -1 -9 8 -14 9 -10 2 4 -7 -5 -15 -25 -22
-41 -14 -48 -14 -42 3 8 20 91 47 120 40 17 -5 26 -1 31 12 7 17 8 17 11 -3 2
-16 8 -20 20 -16z m-204 -46 c7 -11 -22 -23 -36 -15 -6 4 -5 10 3 15 18 11 26
11 33 0z"/>
<path d="M1650 1619 c-17 -30 -6 -34 14 -4 9 14 12 25 7 25 -6 0 -15 -9 -21
-21z"/>
<path d="M1700 1625 c-13 -16 0 -21 16 -6 5 5 18 11 29 14 16 4 14 5 -6 6 -15
0 -32 -6 -39 -14z"/>
<path d="M1602 1585 c-6 -13 -8 -26 -4 -29 5 -3 13 8 19 25 14 35 1 39 -15 4z"/>
<path d="M1642 1567 c-12 -13 -19 -27 -15 -30 11 -11 43 -8 43 4 0 6 -7 8 -16
5 -10 -4 -14 -1 -11 6 2 8 18 12 43 10 37 -2 38 -2 20 13 -27 20 -39 19 -64
-8z"/>
<path d="M1605 1490 c-8 -13 15 -13 35 0 12 8 11 10 -7 10 -12 0 -25 -4 -28
-10z"/>
<path d="M1440 1402 c0 -6 8 -13 18 -17 13 -5 5 -11 -33 -27 -27 -11 -56 -20
-62 -21 -23 -1 -13 -23 26 -60 l39 -36 49 25 c26 13 39 22 28 19 -11 -2 -26
-1 -34 4 -9 6 -2 10 23 13 20 2 37 0 39 -5 1 -4 10 -5 20 -2 9 4 14 11 12 16
-11 17 -125 100 -125 91z m76 -59 c18 -16 34 -32 34 -37 0 -5 -9 -1 -20 9 -11
10 -20 13 -20 7 0 -6 -9 -10 -20 -9 -20 1 -29 17 -10 17 6 0 10 6 10 14 0 9
-7 12 -19 9 -13 -3 -17 -11 -14 -24 3 -11 0 -19 -6 -19 -7 0 -9 5 -6 10 10 17
-12 11 -26 -7 -8 -10 -9 -14 -2 -10 6 4 15 2 18 -4 4 -6 16 -14 28 -18 l21 -8
-22 -5 c-12 -3 -20 -1 -19 4 1 6 -6 12 -15 13 -10 2 -18 -1 -18 -7 0 -6 -6 -6
-14 2 -8 6 -12 19 -9 27 5 12 3 14 -7 8 -8 -5 -11 -4 -7 3 4 5 16 8 27 5 13
-4 20 0 20 9 0 11 18 23 58 37 2 1 19 -11 38 -26z"/>
<path d="M930 2055 c-14 -15 -18 -25 -11 -25 11 0 11 -3 1 -15 -6 -8 -10 -20
-8 -26 2 -6 12 0 21 15 12 17 13 26 5 26 -6 0 -1 11 12 25 13 14 19 25 13 25
-5 0 -20 -11 -33 -25z"/>
<path d="M1133 2073 c-12 -2 -27 -11 -33 -19 -16 -19 -11 -18 36 6 39 19 39
21 -3 13z"/>
<path d="M1067 2044 c-4 -4 -7 -14 -7 -23 0 -11 3 -12 11 -4 6 6 10 16 7 23
-2 6 -7 8 -11 4z"/>
<path d="M1119 2023 c-35 -37 -79 -53 -147 -52 -66 1 -115 -17 -120 -44 -3
-14 2 -12 23 9 26 26 29 27 118 22 51 -3 83 -2 72 3 -20 8 -20 8 0 10 11 1 25
3 30 4 6 2 17 3 25 4 12 1 13 3 1 10 -11 7 -9 13 8 30 22 22 41 28 41 12 0 -5
9 -7 20 -4 31 8 24 18 -14 20 -25 1 -40 -5 -57 -24z"/>
<path d="M1140 2000 c0 -13 11 -13 30 0 12 8 11 10 -7 10 -13 0 -23 -4 -23
-10z"/>
<path d="M13 1844 c21 -25 22 -38 2 -30 -22 8 -18 0 8 -17 23 -15 24 -14 23 9
-1 13 -13 32 -26 41 -25 16 -25 16 -7 -3z"/>
<path d="M846 1825 c15 -13 30 -22 33 -19 7 6 -36 44 -50 44 -7 0 1 -11 17
-25z"/>
<path d="M788 1833 c12 -2 22 -11 22 -19 0 -8 7 -14 15 -14 8 0 15 -4 15 -10
0 -5 4 -10 10 -10 5 0 7 7 4 15 -4 8 -12 15 -19 15 -7 0 -15 7 -19 15 -3 8
-16 14 -28 14 l-23 -2 23 -4z"/>
<path d="M1355 1824 c-22 -8 -45 -12 -52 -10 -20 8 -364 -115 -356 -127 4 -6
0 -8 -10 -4 -9 3 -19 2 -22 -4 -4 -5 -11 -7 -16 -4 -5 4 -9 2 -9 -4 0 -6 -7
-8 -15 -5 -26 11 -64 -4 -60 -23 2 -10 4 -21 4 -25 1 -5 11 -9 24 -9 16 -1 18
-2 5 -6 -10 -2 -18 -8 -18 -13 0 -5 19 -3 41 5 23 8 50 15 61 15 20 0 241 60
292 80 16 6 27 13 24 15 -2 3 -45 -9 -94 -26 -49 -16 -99 -28 -111 -26 -13 2
-23 1 -23 -3 0 -5 -10 -6 -22 -2 -14 3 -19 2 -14 -6 4 -7 2 -12 -3 -12 -23 0
-10 28 15 34 15 4 24 9 22 11 -3 3 -44 -9 -93 -25 -102 -34 -95 -33 -95 -20 0
6 10 10 23 10 18 0 19 2 7 11 -12 8 -11 9 6 4 12 -3 50 7 92 25 39 16 78 30
87 30 9 0 13 5 9 11 -4 7 0 9 13 5 23 -7 87 17 76 28 -5 4 4 5 18 1 15 -4 39
0 60 9 23 11 26 14 9 10 -59 -14 -72 -13 -35 1 51 21 149 30 139 13 -4 -7 -3
-8 5 -4 6 4 8 12 5 18 -5 7 0 9 14 6 12 -4 20 -2 17 2 -3 5 7 13 22 18 16 6
21 10 13 11 -8 0 -33 -7 -55 -15z"/>
<path d="M1256 1776 c4 -10 -26 -24 -111 -51 -63 -21 -114 -40 -111 -42 6 -7
255 79 274 94 15 11 13 12 -10 3 -18 -6 -28 -6 -28 0 0 6 -4 10 -10 10 -5 0
-7 -6 -4 -14z"/>
<path d="M60 1776 c0 -9 110 -89 115 -84 3 3 -22 24 -55 47 -33 23 -60 40 -60
37z"/>
<path d="M130 1754 c0 -3 13 -10 30 -15 16 -6 28 -15 25 -19 -7 -12 32 -33 48
-26 8 3 8 5 -1 5 -8 1 -27 15 -44 31 -26 27 -58 40 -58 24z"/>
<path d="M215 1656 c17 -13 32 -22 34 -20 5 5 -42 43 -54 44 -5 0 4 -11 20
-24z"/>
<path d="M300 1635 c0 -2 55 -43 123 -91 162 -115 280 -205 527 -399 113 -89
211 -165 217 -169 7 -4 22 -2 34 5 12 6 87 33 168 61 80 27 153 54 161 60 19
12 27 15 -188 -56 -95 -31 -178 -54 -185 -49 -6 4 -86 66 -177 138 -186 148
-416 323 -535 407 -44 31 -91 66 -104 77 -22 20 -41 27 -41 16z"/>
</g>
</svg>
